%TF.GenerationSoftware,KiCad,Pcbnew,7.0.1*%
%TF.CreationDate,2023-05-16T22:34:38+02:00*%
%TF.ProjectId,PPURS projekt,50505552-5320-4707-926f-6a656b742e6b,rev?*%
%TF.SameCoordinates,Original*%
%TF.FileFunction,Copper,L2,Bot*%
%TF.FilePolarity,Positive*%
%FSLAX46Y46*%
G04 Gerber Fmt 4.6, Leading zero omitted, Abs format (unit mm)*
G04 Created by KiCad (PCBNEW 7.0.1) date 2023-05-16 22:34:38*
%MOMM*%
%LPD*%
G01*
G04 APERTURE LIST*
G04 Aperture macros list*
%AMRoundRect*
0 Rectangle with rounded corners*
0 $1 Rounding radius*
0 $2 $3 $4 $5 $6 $7 $8 $9 X,Y pos of 4 corners*
0 Add a 4 corners polygon primitive as box body*
4,1,4,$2,$3,$4,$5,$6,$7,$8,$9,$2,$3,0*
0 Add four circle primitives for the rounded corners*
1,1,$1+$1,$2,$3*
1,1,$1+$1,$4,$5*
1,1,$1+$1,$6,$7*
1,1,$1+$1,$8,$9*
0 Add four rect primitives between the rounded corners*
20,1,$1+$1,$2,$3,$4,$5,0*
20,1,$1+$1,$4,$5,$6,$7,0*
20,1,$1+$1,$6,$7,$8,$9,0*
20,1,$1+$1,$8,$9,$2,$3,0*%
G04 Aperture macros list end*
%TA.AperFunction,ComponentPad*%
%ADD10R,1.600000X1.600000*%
%TD*%
%TA.AperFunction,ComponentPad*%
%ADD11C,1.600000*%
%TD*%
%TA.AperFunction,ComponentPad*%
%ADD12R,1.800000X1.800000*%
%TD*%
%TA.AperFunction,ComponentPad*%
%ADD13C,1.800000*%
%TD*%
%TA.AperFunction,ComponentPad*%
%ADD14C,1.500000*%
%TD*%
%TA.AperFunction,ComponentPad*%
%ADD15R,1.700000X1.700000*%
%TD*%
%TA.AperFunction,ComponentPad*%
%ADD16C,1.700000*%
%TD*%
%TA.AperFunction,ComponentPad*%
%ADD17R,1.500000X1.050000*%
%TD*%
%TA.AperFunction,ComponentPad*%
%ADD18O,1.500000X1.050000*%
%TD*%
%TA.AperFunction,ComponentPad*%
%ADD19O,1.600000X1.600000*%
%TD*%
%TA.AperFunction,ComponentPad*%
%ADD20C,3.600000*%
%TD*%
%TA.AperFunction,ConnectorPad*%
%ADD21C,5.700000*%
%TD*%
%TA.AperFunction,ComponentPad*%
%ADD22R,2.000000X2.000000*%
%TD*%
%TA.AperFunction,ComponentPad*%
%ADD23C,2.000000*%
%TD*%
%TA.AperFunction,ComponentPad*%
%ADD24O,1.700000X1.700000*%
%TD*%
%TA.AperFunction,ComponentPad*%
%ADD25C,2.340000*%
%TD*%
%TA.AperFunction,ComponentPad*%
%ADD26R,2.000000X4.000000*%
%TD*%
%TA.AperFunction,ComponentPad*%
%ADD27O,2.000000X3.300000*%
%TD*%
%TA.AperFunction,ComponentPad*%
%ADD28O,3.500000X2.000000*%
%TD*%
%TA.AperFunction,ComponentPad*%
%ADD29RoundRect,0.250000X0.600000X0.600000X-0.600000X0.600000X-0.600000X-0.600000X0.600000X-0.600000X0*%
%TD*%
%TA.AperFunction,ViaPad*%
%ADD30C,0.700000*%
%TD*%
%TA.AperFunction,ViaPad*%
%ADD31C,0.800000*%
%TD*%
%TA.AperFunction,Conductor*%
%ADD32C,0.300000*%
%TD*%
%TA.AperFunction,Conductor*%
%ADD33C,0.250000*%
%TD*%
G04 APERTURE END LIST*
D10*
%TO.P,C3,1*%
%TO.N,Net-(U1-XTAL1)*%
X143900000Y-104100000D03*
D11*
%TO.P,C3,2*%
%TO.N,Earth*%
X143900000Y-109100000D03*
%TD*%
D12*
%TO.P,D1,1,K*%
%TO.N,Earth*%
X135790000Y-68095000D03*
D13*
%TO.P,D1,2,A*%
%TO.N,Net-(D1-A)*%
X135790000Y-70635000D03*
%TD*%
D14*
%TO.P,Y1,1,1*%
%TO.N,Net-(U1-XTAL2)*%
X143900000Y-94420000D03*
%TO.P,Y1,2,2*%
%TO.N,Net-(U1-XTAL1)*%
X143900000Y-99300000D03*
%TD*%
D15*
%TO.P,Senseair S8,1,G+*%
%TO.N,+5V*%
X123640000Y-115372500D03*
D16*
%TO.P,Senseair S8,2,G0*%
%TO.N,Earth*%
X121100000Y-115372500D03*
%TO.P,Senseair S8,3,ALARM_OC*%
%TO.N,unconnected-(U2-ALARM_OC-Pad3)*%
X118560000Y-115372500D03*
%TO.P,Senseair S8,4,PWM_1KHZ*%
%TO.N,unconnected-(U2-PWM_1KHZ-Pad4)*%
X116020000Y-115372500D03*
%TO.P,Senseair S8,5,BCAL_IN*%
%TO.N,unconnected-(U2-BCAL_IN-Pad5)*%
X113480000Y-85672500D03*
%TO.P,Senseair S8,6,UART_R/T*%
%TO.N,unconnected-(U2-UART_R{slash}T-Pad6)*%
X116020000Y-85672500D03*
%TO.P,Senseair S8,7,UART_TXD*%
%TO.N,/PD0 rx*%
X118560000Y-85672500D03*
%TO.P,Senseair S8,8,UART_RXD*%
%TO.N,/PD1 tx*%
X121100000Y-85672500D03*
%TO.P,Senseair S8,9,DVCC_OUT*%
%TO.N,unconnected-(U2-DVCC_OUT-Pad9)*%
X123640000Y-85672500D03*
%TD*%
D10*
%TO.P,C6,1*%
%TO.N,+5V*%
X175500000Y-88600000D03*
D11*
%TO.P,C6,2*%
%TO.N,Earth*%
X180500000Y-88600000D03*
%TD*%
D17*
%TO.P,U3,1,+V_{S}*%
%TO.N,+5V*%
X169940000Y-67600000D03*
D18*
%TO.P,U3,2,V_{OUT}*%
%TO.N,/PA0*%
X169940000Y-68870000D03*
%TO.P,U3,3,GND*%
%TO.N,Earth*%
X169940000Y-70140000D03*
%TD*%
D11*
%TO.P,R1,1*%
%TO.N,+5V*%
X180100000Y-113800000D03*
D19*
%TO.P,R1,2*%
%TO.N,/RESET*%
X180100000Y-101100000D03*
%TD*%
D20*
%TO.P,H3,1*%
%TO.N,N/C*%
X184000000Y-117250000D03*
D21*
X184000000Y-117250000D03*
%TD*%
D20*
%TO.P,H2,1*%
%TO.N,N/C*%
X110500000Y-68000000D03*
D21*
X110500000Y-68000000D03*
%TD*%
D22*
%TO.P,BZ1,1,-*%
%TO.N,Net-(BZ1--)*%
X135480000Y-111530000D03*
D23*
%TO.P,BZ1,2,+*%
%TO.N,Earth*%
X135480000Y-103930000D03*
%TD*%
D24*
%TO.P,LCD,1,VSS*%
%TO.N,Earth*%
X173535000Y-115475000D03*
D15*
%TO.P,LCD,2,VDD*%
%TO.N,+5V*%
X176075000Y-115475000D03*
D24*
%TO.P,LCD,3,VO*%
%TO.N,Net-(U4-VO)*%
X173535000Y-112935000D03*
%TO.P,LCD,4,RS*%
%TO.N,/PD5*%
X176075000Y-112935000D03*
%TO.P,LCD,5,R/~{W}*%
%TO.N,Earth*%
X173535000Y-110395000D03*
%TO.P,LCD,6,E*%
%TO.N,/PB7*%
X176075000Y-110395000D03*
%TO.P,LCD,7,DB0*%
%TO.N,unconnected-(U4-DB0-Pad7)*%
X173535000Y-107855000D03*
%TO.P,LCD,8,DB1*%
%TO.N,unconnected-(U4-DB1-Pad8)*%
X176075000Y-107855000D03*
%TO.P,LCD,9,DB2*%
%TO.N,unconnected-(U4-DB2-Pad9)*%
X173535000Y-105315000D03*
%TO.P,LCD,10,DB3*%
%TO.N,unconnected-(U4-DB3-Pad10)*%
X176075000Y-105315000D03*
%TO.P,LCD,11,DB4*%
%TO.N,/PC0*%
X173535000Y-102775000D03*
%TO.P,LCD,12,DB5*%
%TO.N,/PC1*%
X176075000Y-102775000D03*
%TO.P,LCD,13,DB6*%
%TO.N,/PC2*%
X173535000Y-100235000D03*
%TO.P,LCD,14,DB7*%
%TO.N,/PC3*%
X176075000Y-100235000D03*
%TO.P,LCD,15,A/VEE*%
%TO.N,+5V*%
X173535000Y-97695000D03*
%TO.P,LCD,16,K*%
%TO.N,Earth*%
X176075000Y-97695000D03*
%TD*%
D25*
%TO.P,RV1,1,1*%
%TO.N,Earth*%
X168260000Y-84470000D03*
%TO.P,RV1,2,2*%
%TO.N,Net-(U4-VO)*%
X180760000Y-79470000D03*
%TO.P,RV1,3,3*%
%TO.N,+5V*%
X168260000Y-74470000D03*
%TD*%
D10*
%TO.P,C5,1*%
%TO.N,Earth*%
X177380000Y-91170000D03*
D11*
%TO.P,C5,2*%
%TO.N,Net-(U1-AVCC)*%
X172380000Y-91170000D03*
%TD*%
D20*
%TO.P,H1,1*%
%TO.N,N/C*%
X184000000Y-68000000D03*
D21*
X184000000Y-68000000D03*
%TD*%
D20*
%TO.P,H4,1*%
%TO.N,N/C*%
X110500000Y-117250000D03*
D21*
X110500000Y-117250000D03*
%TD*%
D10*
%TO.P,C1,1*%
%TO.N,+5V*%
X147900000Y-89300000D03*
D11*
%TO.P,C1,2*%
%TO.N,Earth*%
X147900000Y-94300000D03*
%TD*%
D26*
%TO.P,J3,1*%
%TO.N,+5V*%
X121020000Y-77670000D03*
D27*
%TO.P,J3,2*%
%TO.N,Earth*%
X115020000Y-77670000D03*
D28*
%TO.P,J3,MP*%
%TO.N,N/C*%
X114020000Y-73170000D03*
X114020000Y-82170000D03*
%TD*%
D10*
%TO.P,C4,1*%
%TO.N,Net-(U1-XTAL2)*%
X143900000Y-89700000D03*
D11*
%TO.P,C4,2*%
%TO.N,Earth*%
X143900000Y-84700000D03*
%TD*%
%TO.P,R3,1*%
%TO.N,Net-(D1-A)*%
X125600000Y-75000000D03*
D19*
%TO.P,R3,2*%
%TO.N,Net-(U1-PB4)*%
X138300000Y-75000000D03*
%TD*%
D23*
%TO.P,SW1,1,1*%
%TO.N,Earth*%
X185050000Y-91600000D03*
X185050000Y-98100000D03*
%TO.P,SW1,2,2*%
%TO.N,/RESET*%
X180550000Y-91600000D03*
X180550000Y-98100000D03*
%TD*%
D10*
%TO.P,C2,1*%
%TO.N,Earth*%
X172900000Y-88600000D03*
D11*
%TO.P,C2,2*%
%TO.N,Net-(U1-AREF)*%
X167900000Y-88600000D03*
%TD*%
%TO.P,L1,1,1*%
%TO.N,+5V*%
X169357500Y-107860000D03*
D19*
%TO.P,L1,2,2*%
%TO.N,Net-(U1-AVCC)*%
X169357500Y-97700000D03*
%TD*%
D10*
%TO.P,ATmega 16A-P,1,PB0*%
%TO.N,Net-(U1-PB0)*%
X150232500Y-67647500D03*
D19*
%TO.P,ATmega 16A-P,2,PB1*%
%TO.N,unconnected-(U1-PB1-Pad2)*%
X150232500Y-70187500D03*
%TO.P,ATmega 16A-P,3,PB2*%
%TO.N,unconnected-(U1-PB2-Pad3)*%
X150232500Y-72727500D03*
%TO.P,ATmega 16A-P,4,PB3*%
%TO.N,unconnected-(U1-PB3-Pad4)*%
X150232500Y-75267500D03*
%TO.P,ATmega 16A-P,5,PB4*%
%TO.N,Net-(U1-PB4)*%
X150232500Y-77807500D03*
%TO.P,ATmega 16A-P,6,PB5*%
%TO.N,/PB5*%
X150232500Y-80347500D03*
%TO.P,ATmega 16A-P,7,PB6*%
%TO.N,/PB6*%
X150232500Y-82887500D03*
%TO.P,ATmega 16A-P,8,PB7*%
%TO.N,/PB7*%
X150232500Y-85427500D03*
%TO.P,ATmega 16A-P,9,~{RESET}*%
%TO.N,/RESET*%
X150232500Y-87967500D03*
%TO.P,ATmega 16A-P,10,VCC*%
%TO.N,+5V*%
X150232500Y-90507500D03*
%TO.P,ATmega 16A-P,11,GND*%
%TO.N,Earth*%
X150232500Y-93047500D03*
%TO.P,ATmega 16A-P,12,XTAL2*%
%TO.N,Net-(U1-XTAL2)*%
X150232500Y-95587500D03*
%TO.P,ATmega 16A-P,13,XTAL1*%
%TO.N,Net-(U1-XTAL1)*%
X150232500Y-98127500D03*
%TO.P,ATmega 16A-P,14,PD0*%
%TO.N,/PD0 rx*%
X150232500Y-100667500D03*
%TO.P,ATmega 16A-P,15,PD1*%
%TO.N,/PD1 tx*%
X150232500Y-103207500D03*
%TO.P,ATmega 16A-P,16,PD2*%
%TO.N,Net-(U1-PD2)*%
X150232500Y-105747500D03*
%TO.P,ATmega 16A-P,17,PD3*%
%TO.N,unconnected-(U1-PD3-Pad17)*%
X150232500Y-108287500D03*
%TO.P,ATmega 16A-P,18,PD4*%
%TO.N,unconnected-(U1-PD4-Pad18)*%
X150232500Y-110827500D03*
%TO.P,ATmega 16A-P,19,PD5*%
%TO.N,/PD5*%
X150232500Y-113367500D03*
%TO.P,ATmega 16A-P,20,PD6*%
%TO.N,unconnected-(U1-PD6-Pad20)*%
X150232500Y-115907500D03*
%TO.P,ATmega 16A-P,21,PD7*%
%TO.N,unconnected-(U1-PD7-Pad21)*%
X165472500Y-115907500D03*
%TO.P,ATmega 16A-P,22,PC0*%
%TO.N,/PC0*%
X165472500Y-113367500D03*
%TO.P,ATmega 16A-P,23,PC1*%
%TO.N,/PC1*%
X165472500Y-110827500D03*
%TO.P,ATmega 16A-P,24,PC2*%
%TO.N,/PC2*%
X165472500Y-108287500D03*
%TO.P,ATmega 16A-P,25,PC3*%
%TO.N,/PC3*%
X165472500Y-105747500D03*
%TO.P,ATmega 16A-P,26,PC4*%
%TO.N,unconnected-(U1-PC4-Pad26)*%
X165472500Y-103207500D03*
%TO.P,ATmega 16A-P,27,PC5*%
%TO.N,unconnected-(U1-PC5-Pad27)*%
X165472500Y-100667500D03*
%TO.P,ATmega 16A-P,28,PC6*%
%TO.N,unconnected-(U1-PC6-Pad28)*%
X165472500Y-98127500D03*
%TO.P,ATmega 16A-P,29,PC7*%
%TO.N,unconnected-(U1-PC7-Pad29)*%
X165472500Y-95587500D03*
%TO.P,ATmega 16A-P,30,AVCC*%
%TO.N,Net-(U1-AVCC)*%
X165472500Y-93047500D03*
%TO.P,ATmega 16A-P,31,GND*%
%TO.N,Earth*%
X165472500Y-90507500D03*
%TO.P,ATmega 16A-P,32,AREF*%
%TO.N,Net-(U1-AREF)*%
X165472500Y-87967500D03*
%TO.P,ATmega 16A-P,33,PA7*%
%TO.N,unconnected-(U1-PA7-Pad33)*%
X165472500Y-85427500D03*
%TO.P,ATmega 16A-P,34,PA6*%
%TO.N,unconnected-(U1-PA6-Pad34)*%
X165472500Y-82887500D03*
%TO.P,ATmega 16A-P,35,PA5*%
%TO.N,unconnected-(U1-PA5-Pad35)*%
X165472500Y-80347500D03*
%TO.P,ATmega 16A-P,36,PA4*%
%TO.N,unconnected-(U1-PA4-Pad36)*%
X165472500Y-77807500D03*
%TO.P,ATmega 16A-P,37,PA3*%
%TO.N,unconnected-(U1-PA3-Pad37)*%
X165472500Y-75267500D03*
%TO.P,ATmega 16A-P,38,PA2*%
%TO.N,unconnected-(U1-PA2-Pad38)*%
X165472500Y-72727500D03*
%TO.P,ATmega 16A-P,39,PA1*%
%TO.N,unconnected-(U1-PA1-Pad39)*%
X165472500Y-70187500D03*
%TO.P,ATmega 16A-P,40,PA0*%
%TO.N,/PA0*%
X165472500Y-67647500D03*
%TD*%
D29*
%TO.P,PROGRAMATOR,1,MOSI*%
%TO.N,/PB5*%
X136040000Y-94010000D03*
D16*
%TO.P,PROGRAMATOR,2,VCC*%
%TO.N,+5V*%
X133500000Y-94010000D03*
%TO.P,PROGRAMATOR,3,NC*%
%TO.N,unconnected-(J2-NC-Pad3)*%
X136040000Y-91470000D03*
%TO.P,PROGRAMATOR,4,GND*%
%TO.N,Earth*%
X133500000Y-91470000D03*
%TO.P,PROGRAMATOR,5,~{RST}*%
%TO.N,/RESET*%
X136040000Y-88930000D03*
%TO.P,PROGRAMATOR,6,GND*%
%TO.N,Earth*%
X133500000Y-88930000D03*
%TO.P,PROGRAMATOR,7,SCK*%
%TO.N,/PB7*%
X136040000Y-86390000D03*
%TO.P,PROGRAMATOR,8,GND*%
%TO.N,Earth*%
X133500000Y-86390000D03*
%TO.P,PROGRAMATOR,9,MISO*%
%TO.N,/PB6*%
X136040000Y-83850000D03*
%TO.P,PROGRAMATOR,10,GND*%
%TO.N,Earth*%
X133500000Y-83850000D03*
%TD*%
D11*
%TO.P,R2,1*%
%TO.N,Net-(BZ1--)*%
X133620000Y-116050000D03*
D19*
%TO.P,R2,2*%
%TO.N,Net-(U1-PD2)*%
X146320000Y-116050000D03*
%TD*%
D23*
%TO.P,PB0,1,1*%
%TO.N,Net-(U1-PB0)*%
X146107500Y-67570000D03*
X146107500Y-74070000D03*
%TO.P,PB0,2,2*%
%TO.N,Earth*%
X141607500Y-67570000D03*
X141607500Y-74070000D03*
%TD*%
D30*
%TO.N,/RESET*%
X179750000Y-93750000D03*
X174000000Y-90000000D03*
X160000000Y-93250000D03*
X156250000Y-93250000D03*
D31*
%TO.N,/PB7*%
X177700000Y-104400000D03*
X171200000Y-99700000D03*
D30*
%TO.N,Net-(U4-VO)*%
X179950000Y-83480000D03*
X179950000Y-87170000D03*
D31*
%TO.N,/PD0 rx*%
X127620000Y-99550000D03*
X129980000Y-102130000D03*
%TO.N,/PD1 tx*%
X126370000Y-91600000D03*
X126360000Y-95120000D03*
X128520000Y-103040000D03*
D30*
X126400000Y-100920000D03*
D31*
%TO.N,/PD5*%
X171220000Y-114210000D03*
X167770000Y-114210000D03*
%TD*%
D32*
%TO.N,/RESET*%
X179750000Y-93750000D02*
X177750000Y-93750000D01*
X177750000Y-93750000D02*
X174000000Y-90000000D01*
X156250000Y-93250000D02*
X160000000Y-93250000D01*
%TO.N,/PB7*%
X174800000Y-103620000D02*
X174800000Y-101970000D01*
X174800000Y-101970000D02*
X174310000Y-101480000D01*
X177300000Y-104000000D02*
X175180000Y-104000000D01*
X177700000Y-104400000D02*
X177300000Y-104000000D01*
X175180000Y-104000000D02*
X174800000Y-103620000D01*
X174310000Y-101480000D02*
X172980000Y-101480000D01*
X172980000Y-101480000D02*
X171200000Y-99700000D01*
D33*
%TO.N,Net-(U4-VO)*%
X179950000Y-87170000D02*
X179950000Y-86550000D01*
D32*
X179950000Y-83480000D02*
X179950000Y-86550000D01*
X179950000Y-87170000D02*
X179950000Y-83480000D01*
X179970000Y-87190000D02*
X179950000Y-87170000D01*
%TO.N,/PD0 rx*%
X129980000Y-102130000D02*
X127620000Y-99770000D01*
X127620000Y-99770000D02*
X127620000Y-99550000D01*
%TO.N,/PD1 tx*%
X128520000Y-103040000D02*
X126400000Y-100920000D01*
X126360000Y-91610000D02*
X126370000Y-91600000D01*
X126360000Y-95120000D02*
X126360000Y-91610000D01*
%TO.N,/PD5*%
X171220000Y-114210000D02*
X167770000Y-114210000D01*
%TD*%
%TA.AperFunction,Conductor*%
%TO.N,Earth*%
G36*
X184002854Y-64000632D02*
G01*
X184018811Y-64001369D01*
X184173088Y-64008502D01*
X184369795Y-64018166D01*
X184380787Y-64019201D01*
X184562876Y-64044601D01*
X184563781Y-64044732D01*
X184747261Y-64071949D01*
X184757413Y-64073892D01*
X184938614Y-64116510D01*
X184940023Y-64116852D01*
X185117874Y-64161401D01*
X185127091Y-64164096D01*
X185304478Y-64223550D01*
X185306618Y-64224292D01*
X185478220Y-64285692D01*
X185486519Y-64289004D01*
X185657980Y-64364712D01*
X185660909Y-64366051D01*
X185747263Y-64406892D01*
X185825119Y-64443715D01*
X185832411Y-64447465D01*
X185929135Y-64501341D01*
X185996435Y-64538827D01*
X185999810Y-64540777D01*
X186155371Y-64634017D01*
X186161670Y-64638058D01*
X186316699Y-64744256D01*
X186320459Y-64746935D01*
X186466009Y-64854882D01*
X186471305Y-64859040D01*
X186616009Y-64979200D01*
X186619947Y-64982617D01*
X186754206Y-65104303D01*
X186758590Y-65108478D01*
X186891520Y-65241408D01*
X186895698Y-65245795D01*
X187017375Y-65380045D01*
X187020805Y-65383998D01*
X187140951Y-65528684D01*
X187145124Y-65534000D01*
X187253041Y-65679509D01*
X187255742Y-65683299D01*
X187361940Y-65838328D01*
X187365999Y-65844656D01*
X187459200Y-66000153D01*
X187461171Y-66003563D01*
X187552525Y-66167573D01*
X187556291Y-66174896D01*
X187633947Y-66339089D01*
X187635286Y-66342018D01*
X187710994Y-66513479D01*
X187714311Y-66521791D01*
X187775666Y-66693265D01*
X187776487Y-66695634D01*
X187835894Y-66872881D01*
X187838606Y-66882157D01*
X187883104Y-67059803D01*
X187883526Y-67061543D01*
X187926101Y-67242562D01*
X187928053Y-67252758D01*
X187955257Y-67436156D01*
X187955410Y-67437218D01*
X187980794Y-67619184D01*
X187981834Y-67630232D01*
X187991512Y-67827238D01*
X187991529Y-67827595D01*
X187999368Y-67997145D01*
X187999500Y-68002872D01*
X187999500Y-117247128D01*
X187999368Y-117252855D01*
X187991529Y-117422404D01*
X187991512Y-117422761D01*
X187981834Y-117619766D01*
X187980794Y-117630814D01*
X187955410Y-117812780D01*
X187955257Y-117813842D01*
X187928053Y-117997240D01*
X187926101Y-118007436D01*
X187883526Y-118188455D01*
X187883104Y-118190195D01*
X187838606Y-118367841D01*
X187835894Y-118377117D01*
X187776487Y-118554364D01*
X187775666Y-118556733D01*
X187714311Y-118728207D01*
X187710994Y-118736519D01*
X187635286Y-118907980D01*
X187633947Y-118910909D01*
X187556291Y-119075102D01*
X187552525Y-119082425D01*
X187461171Y-119246435D01*
X187459200Y-119249845D01*
X187365999Y-119405342D01*
X187361940Y-119411670D01*
X187255742Y-119566699D01*
X187253041Y-119570489D01*
X187145135Y-119715984D01*
X187140935Y-119721334D01*
X187020851Y-119865947D01*
X187017331Y-119870004D01*
X186895717Y-120004183D01*
X186891520Y-120008590D01*
X186758590Y-120141520D01*
X186754183Y-120145717D01*
X186620004Y-120267331D01*
X186615947Y-120270851D01*
X186471334Y-120390935D01*
X186465984Y-120395135D01*
X186320489Y-120503041D01*
X186316699Y-120505742D01*
X186161670Y-120611940D01*
X186155342Y-120615999D01*
X185999845Y-120709200D01*
X185996435Y-120711171D01*
X185832425Y-120802525D01*
X185825102Y-120806291D01*
X185660909Y-120883947D01*
X185657980Y-120885286D01*
X185486519Y-120960994D01*
X185478207Y-120964311D01*
X185306733Y-121025666D01*
X185304364Y-121026487D01*
X185127117Y-121085894D01*
X185117841Y-121088606D01*
X184940195Y-121133104D01*
X184938455Y-121133526D01*
X184757436Y-121176101D01*
X184747240Y-121178053D01*
X184563842Y-121205257D01*
X184562780Y-121205410D01*
X184380814Y-121230794D01*
X184369766Y-121231834D01*
X184172931Y-121241503D01*
X184172575Y-121241520D01*
X184007393Y-121249158D01*
X184002854Y-121249368D01*
X183997128Y-121249500D01*
X110502872Y-121249500D01*
X110497145Y-121249368D01*
X110492305Y-121249144D01*
X110327423Y-121241520D01*
X110327067Y-121241503D01*
X110130232Y-121231834D01*
X110119184Y-121230794D01*
X109937218Y-121205410D01*
X109936156Y-121205257D01*
X109752758Y-121178053D01*
X109742562Y-121176101D01*
X109561543Y-121133526D01*
X109559803Y-121133104D01*
X109382157Y-121088606D01*
X109372881Y-121085894D01*
X109195634Y-121026487D01*
X109193265Y-121025666D01*
X109021791Y-120964311D01*
X109013479Y-120960994D01*
X108842018Y-120885286D01*
X108839089Y-120883947D01*
X108674896Y-120806291D01*
X108667573Y-120802525D01*
X108503563Y-120711171D01*
X108500153Y-120709200D01*
X108480648Y-120697509D01*
X108344645Y-120615992D01*
X108338328Y-120611940D01*
X108183299Y-120505742D01*
X108179509Y-120503041D01*
X108047940Y-120405463D01*
X108034000Y-120395124D01*
X108028684Y-120390951D01*
X107883998Y-120270805D01*
X107880045Y-120267375D01*
X107745795Y-120145698D01*
X107741408Y-120141520D01*
X107608478Y-120008590D01*
X107604303Y-120004206D01*
X107482617Y-119869947D01*
X107479200Y-119866009D01*
X107359040Y-119721305D01*
X107354882Y-119716009D01*
X107246935Y-119570459D01*
X107244256Y-119566699D01*
X107138058Y-119411670D01*
X107134017Y-119405371D01*
X107040777Y-119249810D01*
X107038827Y-119246435D01*
X106947465Y-119082411D01*
X106943715Y-119075119D01*
X106906892Y-118997263D01*
X106866051Y-118910909D01*
X106864712Y-118907980D01*
X106789004Y-118736519D01*
X106785692Y-118728220D01*
X106724292Y-118556618D01*
X106723550Y-118554478D01*
X106664096Y-118377091D01*
X106661401Y-118367874D01*
X106616852Y-118190023D01*
X106616510Y-118188614D01*
X106573892Y-118007413D01*
X106571949Y-117997261D01*
X106544732Y-117813781D01*
X106544588Y-117812780D01*
X106519201Y-117630787D01*
X106518166Y-117619795D01*
X106508480Y-117422611D01*
X106500632Y-117252854D01*
X106500566Y-117250000D01*
X107344536Y-117250000D01*
X107364377Y-117603301D01*
X107423648Y-117952152D01*
X107479389Y-118145633D01*
X107521610Y-118292184D01*
X107657025Y-118619105D01*
X107828192Y-118928808D01*
X107931993Y-119075102D01*
X108032962Y-119217405D01*
X108179537Y-119381421D01*
X108268750Y-119481250D01*
X108380456Y-119581077D01*
X108532594Y-119717037D01*
X108532600Y-119717041D01*
X108821192Y-119921808D01*
X109130895Y-120092975D01*
X109457816Y-120228390D01*
X109797843Y-120326350D01*
X109797844Y-120326350D01*
X109797847Y-120326351D01*
X109911825Y-120345716D01*
X110146700Y-120385623D01*
X110500000Y-120405464D01*
X110853300Y-120385623D01*
X111174742Y-120331008D01*
X111202152Y-120326351D01*
X111202153Y-120326350D01*
X111202157Y-120326350D01*
X111542184Y-120228390D01*
X111869105Y-120092975D01*
X112178808Y-119921808D01*
X112467400Y-119717041D01*
X112467402Y-119717038D01*
X112467405Y-119717037D01*
X112530964Y-119660237D01*
X112731250Y-119481250D01*
X112920289Y-119269714D01*
X112967037Y-119217405D01*
X112967041Y-119217400D01*
X113171808Y-118928808D01*
X113342975Y-118619105D01*
X113478390Y-118292184D01*
X113576350Y-117952157D01*
X113635623Y-117603300D01*
X113655464Y-117250000D01*
X180844536Y-117250000D01*
X180864377Y-117603301D01*
X180923648Y-117952152D01*
X180979389Y-118145633D01*
X181021610Y-118292184D01*
X181157025Y-118619105D01*
X181328192Y-118928808D01*
X181431993Y-119075102D01*
X181532962Y-119217405D01*
X181679537Y-119381421D01*
X181768750Y-119481250D01*
X181880456Y-119581077D01*
X182032594Y-119717037D01*
X182032600Y-119717041D01*
X182321192Y-119921808D01*
X182630895Y-120092975D01*
X182957816Y-120228390D01*
X183297843Y-120326350D01*
X183297844Y-120326350D01*
X183297847Y-120326351D01*
X183411825Y-120345716D01*
X183646700Y-120385623D01*
X184000000Y-120405464D01*
X184353300Y-120385623D01*
X184674742Y-120331008D01*
X184702152Y-120326351D01*
X184702153Y-120326350D01*
X184702157Y-120326350D01*
X185042184Y-120228390D01*
X185369105Y-120092975D01*
X185678808Y-119921808D01*
X185967400Y-119717041D01*
X185967402Y-119717038D01*
X185967405Y-119717037D01*
X186030964Y-119660237D01*
X186231250Y-119481250D01*
X186420289Y-119269714D01*
X186467037Y-119217405D01*
X186467041Y-119217400D01*
X186671808Y-118928808D01*
X186842975Y-118619105D01*
X186978390Y-118292184D01*
X187076350Y-117952157D01*
X187135623Y-117603300D01*
X187155464Y-117250000D01*
X187135623Y-116896700D01*
X187090618Y-116631818D01*
X187076351Y-116547847D01*
X187075848Y-116546100D01*
X186978390Y-116207816D01*
X186842975Y-115880895D01*
X186671808Y-115571192D01*
X186497607Y-115325679D01*
X186467037Y-115282594D01*
X186331077Y-115130456D01*
X186231250Y-115018750D01*
X186118681Y-114918152D01*
X185967405Y-114782962D01*
X185794810Y-114660500D01*
X185678808Y-114578192D01*
X185369105Y-114407025D01*
X185286466Y-114372795D01*
X185169872Y-114324500D01*
X185042184Y-114271610D01*
X184880102Y-114224915D01*
X184702152Y-114173648D01*
X184353301Y-114114377D01*
X184000000Y-114094536D01*
X183646698Y-114114377D01*
X183297847Y-114173648D01*
X183006543Y-114257572D01*
X182962381Y-114270295D01*
X182957813Y-114271611D01*
X182630896Y-114407024D01*
X182321192Y-114578192D01*
X182032594Y-114782962D01*
X181768750Y-115018750D01*
X181532962Y-115282594D01*
X181328192Y-115571192D01*
X181157024Y-115880896D01*
X181021611Y-116207813D01*
X180923648Y-116547847D01*
X180864377Y-116896698D01*
X180844536Y-117250000D01*
X113655464Y-117250000D01*
X113635623Y-116896700D01*
X113590618Y-116631818D01*
X113576351Y-116547847D01*
X113575848Y-116546100D01*
X113478390Y-116207816D01*
X113342975Y-115880895D01*
X113171808Y-115571192D01*
X113030828Y-115372500D01*
X114864571Y-115372500D01*
X114884243Y-115584810D01*
X114942595Y-115789890D01*
X115037631Y-115980752D01*
X115166126Y-116150905D01*
X115166128Y-116150907D01*
X115323698Y-116294552D01*
X115504981Y-116406798D01*
X115703802Y-116483821D01*
X115913390Y-116523000D01*
X116126608Y-116523000D01*
X116126610Y-116523000D01*
X116336198Y-116483821D01*
X116535019Y-116406798D01*
X116716302Y-116294552D01*
X116873872Y-116150907D01*
X117002366Y-115980755D01*
X117002366Y-115980753D01*
X117002368Y-115980752D01*
X117069323Y-115846286D01*
X117097405Y-115789889D01*
X117155756Y-115584810D01*
X117166529Y-115468547D01*
X117186633Y-115411496D01*
X117229410Y-115372499D01*
X117350589Y-115372499D01*
X117393367Y-115411496D01*
X117413471Y-115468548D01*
X117424243Y-115584810D01*
X117482595Y-115789890D01*
X117577631Y-115980752D01*
X117706126Y-116150905D01*
X117706128Y-116150907D01*
X117863698Y-116294552D01*
X118044981Y-116406798D01*
X118243802Y-116483821D01*
X118453390Y-116523000D01*
X118666608Y-116523000D01*
X118666610Y-116523000D01*
X118856918Y-116487425D01*
X120338625Y-116487425D01*
X120422420Y-116546099D01*
X120636507Y-116645930D01*
X120864681Y-116707069D01*
X121100000Y-116727657D01*
X121335318Y-116707069D01*
X121563492Y-116645930D01*
X121777576Y-116546100D01*
X121861373Y-116487425D01*
X121100000Y-115726053D01*
X120338625Y-116487425D01*
X118856918Y-116487425D01*
X118876198Y-116483821D01*
X119075019Y-116406798D01*
X119256302Y-116294552D01*
X119413872Y-116150907D01*
X119542366Y-115980755D01*
X119609324Y-115846283D01*
X119655722Y-115795713D01*
X119721913Y-115777566D01*
X119787617Y-115797405D01*
X119832705Y-115849151D01*
X119926400Y-116050080D01*
X119985073Y-116133873D01*
X120746447Y-115372501D01*
X121453553Y-115372501D01*
X122214925Y-116133873D01*
X122263925Y-116063894D01*
X122311141Y-116023567D01*
X122371989Y-116011187D01*
X122431209Y-116029859D01*
X122473952Y-116074900D01*
X122489500Y-116135016D01*
X122489500Y-116267366D01*
X122492414Y-116292488D01*
X122492414Y-116292490D01*
X122492415Y-116292491D01*
X122526579Y-116369865D01*
X122537795Y-116395267D01*
X122617232Y-116474704D01*
X122617233Y-116474704D01*
X122617235Y-116474706D01*
X122720009Y-116520085D01*
X122745135Y-116523000D01*
X124534864Y-116522999D01*
X124534867Y-116522999D01*
X124547427Y-116521541D01*
X124559991Y-116520085D01*
X124662765Y-116474706D01*
X124742206Y-116395265D01*
X124787585Y-116292491D01*
X124790500Y-116267365D01*
X124790500Y-116050000D01*
X132514785Y-116050000D01*
X132533602Y-116253083D01*
X132589418Y-116449251D01*
X132680324Y-116631818D01*
X132803236Y-116794580D01*
X132953958Y-116931981D01*
X133076734Y-117008000D01*
X133127363Y-117039348D01*
X133317544Y-117113024D01*
X133518024Y-117150500D01*
X133721974Y-117150500D01*
X133721976Y-117150500D01*
X133922456Y-117113024D01*
X134112637Y-117039348D01*
X134286041Y-116931981D01*
X134436764Y-116794579D01*
X134559673Y-116631821D01*
X134559673Y-116631819D01*
X134559675Y-116631818D01*
X134613859Y-116523000D01*
X134650582Y-116449250D01*
X134706397Y-116253083D01*
X134725215Y-116050000D01*
X145214785Y-116050000D01*
X145233602Y-116253083D01*
X145289418Y-116449251D01*
X145380324Y-116631818D01*
X145503236Y-116794580D01*
X145653958Y-116931981D01*
X145776734Y-117008000D01*
X145827363Y-117039348D01*
X146017544Y-117113024D01*
X146218024Y-117150500D01*
X146421974Y-117150500D01*
X146421976Y-117150500D01*
X146622456Y-117113024D01*
X146812637Y-117039348D01*
X146986041Y-116931981D01*
X147136764Y-116794579D01*
X147259673Y-116631821D01*
X147259673Y-116631819D01*
X147259675Y-116631818D01*
X147313859Y-116523000D01*
X147350582Y-116449250D01*
X147406397Y-116253083D01*
X147425215Y-116050000D01*
X147412011Y-115907499D01*
X149127285Y-115907499D01*
X149146102Y-116110583D01*
X149201918Y-116306751D01*
X149292824Y-116489318D01*
X149415736Y-116652080D01*
X149566458Y-116789481D01*
X149739624Y-116896700D01*
X149739863Y-116896848D01*
X149930044Y-116970524D01*
X150130524Y-117008000D01*
X150334474Y-117008000D01*
X150334476Y-117008000D01*
X150534956Y-116970524D01*
X150725137Y-116896848D01*
X150898541Y-116789481D01*
X151049264Y-116652079D01*
X151172173Y-116489321D01*
X151172173Y-116489319D01*
X151172175Y-116489318D01*
X151231655Y-116369864D01*
X151263082Y-116306750D01*
X151318897Y-116110583D01*
X151337715Y-115907500D01*
X151337715Y-115907499D01*
X164367285Y-115907499D01*
X164386102Y-116110583D01*
X164441918Y-116306751D01*
X164532824Y-116489318D01*
X164655736Y-116652080D01*
X164806458Y-116789481D01*
X164979624Y-116896700D01*
X164979863Y-116896848D01*
X165170044Y-116970524D01*
X165370524Y-117008000D01*
X165574474Y-117008000D01*
X165574476Y-117008000D01*
X165774956Y-116970524D01*
X165965137Y-116896848D01*
X166138541Y-116789481D01*
X166289264Y-116652079D01*
X166412173Y-116489321D01*
X166412173Y-116489319D01*
X166412175Y-116489318D01*
X166471655Y-116369864D01*
X166503082Y-116306750D01*
X166558897Y-116110583D01*
X166577715Y-115907500D01*
X166560804Y-115725000D01*
X172204364Y-115725000D01*
X172261569Y-115938492D01*
X172361399Y-116152576D01*
X172496893Y-116346081D01*
X172663918Y-116513106D01*
X172857423Y-116648600D01*
X173071507Y-116748430D01*
X173284999Y-116805635D01*
X173285000Y-116805636D01*
X173285000Y-115725000D01*
X172204364Y-115725000D01*
X166560804Y-115725000D01*
X166558897Y-115704417D01*
X166503082Y-115508250D01*
X166454905Y-115411496D01*
X166412175Y-115325681D01*
X166289263Y-115162919D01*
X166138541Y-115025518D01*
X165965138Y-114918152D01*
X165774957Y-114844476D01*
X165708129Y-114831984D01*
X165574476Y-114807000D01*
X165370524Y-114807000D01*
X165279945Y-114823932D01*
X165170042Y-114844476D01*
X164979861Y-114918152D01*
X164806458Y-115025518D01*
X164655736Y-115162919D01*
X164532824Y-115325681D01*
X164441918Y-115508248D01*
X164386102Y-115704416D01*
X164367285Y-115907499D01*
X151337715Y-115907499D01*
X151318897Y-115704417D01*
X151263082Y-115508250D01*
X151214905Y-115411496D01*
X151172175Y-115325681D01*
X151049263Y-115162919D01*
X150898541Y-115025518D01*
X150725138Y-114918152D01*
X150534957Y-114844476D01*
X150468129Y-114831984D01*
X150334476Y-114807000D01*
X150130524Y-114807000D01*
X150039945Y-114823932D01*
X149930042Y-114844476D01*
X149739861Y-114918152D01*
X149566458Y-115025518D01*
X149415736Y-115162919D01*
X149292824Y-115325681D01*
X149201918Y-115508248D01*
X149146102Y-115704416D01*
X149127285Y-115907499D01*
X147412011Y-115907499D01*
X147406397Y-115846917D01*
X147406217Y-115846286D01*
X147350581Y-115650748D01*
X147259675Y-115468181D01*
X147136763Y-115305419D01*
X146986041Y-115168018D01*
X146812638Y-115060652D01*
X146622457Y-114986976D01*
X146555629Y-114974484D01*
X146421976Y-114949500D01*
X146218024Y-114949500D01*
X146122090Y-114967433D01*
X146017542Y-114986976D01*
X145827361Y-115060652D01*
X145653958Y-115168018D01*
X145503236Y-115305419D01*
X145380324Y-115468181D01*
X145289418Y-115650748D01*
X145233602Y-115846916D01*
X145214785Y-116050000D01*
X134725215Y-116050000D01*
X134706397Y-115846917D01*
X134706217Y-115846286D01*
X134650581Y-115650748D01*
X134559675Y-115468181D01*
X134436763Y-115305419D01*
X134286041Y-115168018D01*
X134112638Y-115060652D01*
X133922457Y-114986976D01*
X133855629Y-114974484D01*
X133721976Y-114949500D01*
X133518024Y-114949500D01*
X133422090Y-114967433D01*
X133317542Y-114986976D01*
X133127361Y-115060652D01*
X132953958Y-115168018D01*
X132803236Y-115305419D01*
X132680324Y-115468181D01*
X132589418Y-115650748D01*
X132533602Y-115846916D01*
X132514785Y-116050000D01*
X124790500Y-116050000D01*
X124790499Y-114477636D01*
X124787585Y-114452509D01*
X124742206Y-114349735D01*
X124742204Y-114349733D01*
X124742204Y-114349732D01*
X124662767Y-114270295D01*
X124662765Y-114270294D01*
X124559991Y-114224915D01*
X124534865Y-114222000D01*
X124534863Y-114222000D01*
X122745132Y-114222000D01*
X122720011Y-114224914D01*
X122617232Y-114270295D01*
X122537795Y-114349732D01*
X122492415Y-114452509D01*
X122489500Y-114477636D01*
X122489500Y-114609981D01*
X122473953Y-114670097D01*
X122431210Y-114715139D01*
X122371989Y-114733811D01*
X122311142Y-114721431D01*
X122263925Y-114681104D01*
X122214926Y-114611126D01*
X122214925Y-114611125D01*
X121453553Y-115372500D01*
X121453553Y-115372501D01*
X120746447Y-115372501D01*
X120746447Y-115372500D01*
X119985072Y-114611125D01*
X119926399Y-114694922D01*
X119832705Y-114895848D01*
X119787617Y-114947594D01*
X119721913Y-114967433D01*
X119655722Y-114949286D01*
X119609324Y-114898716D01*
X119542366Y-114764245D01*
X119542365Y-114764244D01*
X119542365Y-114764243D01*
X119413873Y-114594094D01*
X119396429Y-114578192D01*
X119286121Y-114477632D01*
X119256301Y-114450447D01*
X119105133Y-114356848D01*
X119075019Y-114338202D01*
X119075017Y-114338201D01*
X118876198Y-114261179D01*
X118856902Y-114257572D01*
X120338625Y-114257572D01*
X121100000Y-115018947D01*
X121100001Y-115018947D01*
X121861373Y-114257573D01*
X121861373Y-114257572D01*
X121777580Y-114198900D01*
X121563492Y-114099069D01*
X121335318Y-114037930D01*
X121100000Y-114017342D01*
X120864681Y-114037930D01*
X120636507Y-114099069D01*
X120422422Y-114198899D01*
X120338625Y-114257572D01*
X118856902Y-114257572D01*
X118666610Y-114222000D01*
X118453390Y-114222000D01*
X118313664Y-114248119D01*
X118243801Y-114261179D01*
X118044982Y-114338201D01*
X117863698Y-114450447D01*
X117706126Y-114594094D01*
X117577631Y-114764247D01*
X117482595Y-114955109D01*
X117424243Y-115160189D01*
X117413471Y-115276451D01*
X117393367Y-115333503D01*
X117350589Y-115372499D01*
X117229410Y-115372499D01*
X117186633Y-115333503D01*
X117166529Y-115276451D01*
X117155756Y-115160189D01*
X117132550Y-115078632D01*
X117097405Y-114955111D01*
X117075192Y-114910500D01*
X117002368Y-114764247D01*
X116873873Y-114594094D01*
X116856429Y-114578192D01*
X116746121Y-114477632D01*
X116716301Y-114450447D01*
X116565133Y-114356848D01*
X116535019Y-114338202D01*
X116535017Y-114338201D01*
X116336198Y-114261179D01*
X116316902Y-114257572D01*
X116126610Y-114222000D01*
X115913390Y-114222000D01*
X115773664Y-114248119D01*
X115703801Y-114261179D01*
X115504982Y-114338201D01*
X115323698Y-114450447D01*
X115166126Y-114594094D01*
X115037631Y-114764247D01*
X114942595Y-114955109D01*
X114884243Y-115160189D01*
X114864571Y-115372500D01*
X113030828Y-115372500D01*
X112997607Y-115325679D01*
X112967037Y-115282594D01*
X112831077Y-115130456D01*
X112731250Y-115018750D01*
X112618681Y-114918152D01*
X112467405Y-114782962D01*
X112294810Y-114660500D01*
X112178808Y-114578192D01*
X111869105Y-114407025D01*
X111786466Y-114372795D01*
X111669872Y-114324500D01*
X111542184Y-114271610D01*
X111380102Y-114224915D01*
X111202152Y-114173648D01*
X110853301Y-114114377D01*
X110500000Y-114094536D01*
X110146698Y-114114377D01*
X109797847Y-114173648D01*
X109506543Y-114257572D01*
X109462381Y-114270295D01*
X109457813Y-114271611D01*
X109130896Y-114407024D01*
X108821192Y-114578192D01*
X108532594Y-114782962D01*
X108268750Y-115018750D01*
X108032962Y-115282594D01*
X107828192Y-115571192D01*
X107657024Y-115880896D01*
X107521611Y-116207813D01*
X107423648Y-116547847D01*
X107364377Y-116896698D01*
X107344536Y-117250000D01*
X106500566Y-117250000D01*
X106500500Y-117247128D01*
X106500500Y-113367499D01*
X149127285Y-113367499D01*
X149146102Y-113570583D01*
X149201918Y-113766751D01*
X149292824Y-113949318D01*
X149415736Y-114112080D01*
X149566458Y-114249481D01*
X149728370Y-114349732D01*
X149739863Y-114356848D01*
X149930044Y-114430524D01*
X150130524Y-114468000D01*
X150334474Y-114468000D01*
X150334476Y-114468000D01*
X150534956Y-114430524D01*
X150725137Y-114356848D01*
X150898541Y-114249481D01*
X151049264Y-114112079D01*
X151172173Y-113949321D01*
X151172173Y-113949319D01*
X151172175Y-113949318D01*
X151218117Y-113857052D01*
X151263082Y-113766750D01*
X151318897Y-113570583D01*
X151337715Y-113367500D01*
X151337715Y-113367499D01*
X164367285Y-113367499D01*
X164386102Y-113570583D01*
X164441918Y-113766751D01*
X164532824Y-113949318D01*
X164655736Y-114112080D01*
X164806458Y-114249481D01*
X164968370Y-114349732D01*
X164979863Y-114356848D01*
X165170044Y-114430524D01*
X165370524Y-114468000D01*
X165574474Y-114468000D01*
X165574476Y-114468000D01*
X165774956Y-114430524D01*
X165965137Y-114356848D01*
X166138541Y-114249481D01*
X166181850Y-114210000D01*
X167064354Y-114210000D01*
X167084860Y-114378872D01*
X167145182Y-114537930D01*
X167241815Y-114677927D01*
X167241816Y-114677928D01*
X167241817Y-114677929D01*
X167369148Y-114790734D01*
X167519775Y-114869790D01*
X167684944Y-114910500D01*
X167855055Y-114910500D01*
X167855056Y-114910500D01*
X168020225Y-114869790D01*
X168170852Y-114790734D01*
X168235105Y-114733811D01*
X168282658Y-114691684D01*
X168320914Y-114668558D01*
X168364884Y-114660500D01*
X170625116Y-114660500D01*
X170669086Y-114668558D01*
X170707342Y-114691684D01*
X170789246Y-114764243D01*
X170819148Y-114790734D01*
X170969775Y-114869790D01*
X171134944Y-114910500D01*
X171305055Y-114910500D01*
X171305056Y-114910500D01*
X171470225Y-114869790D01*
X171620852Y-114790734D01*
X171748183Y-114677929D01*
X171844818Y-114537930D01*
X171905140Y-114378872D01*
X171925645Y-114210000D01*
X171905140Y-114041128D01*
X171844818Y-113882070D01*
X171788168Y-113799999D01*
X171748184Y-113742072D01*
X171715828Y-113713407D01*
X171620852Y-113629266D01*
X171559215Y-113596916D01*
X171470224Y-113550209D01*
X171345765Y-113519533D01*
X171305056Y-113509500D01*
X171134944Y-113509500D01*
X171102284Y-113517549D01*
X170969775Y-113550209D01*
X170819146Y-113629267D01*
X170707342Y-113728316D01*
X170669086Y-113751442D01*
X170625116Y-113759500D01*
X168364884Y-113759500D01*
X168320914Y-113751442D01*
X168282658Y-113728316D01*
X168170853Y-113629267D01*
X168170852Y-113629266D01*
X168095538Y-113589738D01*
X168020224Y-113550209D01*
X167895765Y-113519533D01*
X167855056Y-113509500D01*
X167684944Y-113509500D01*
X167652284Y-113517549D01*
X167519775Y-113550209D01*
X167369149Y-113629265D01*
X167241815Y-113742072D01*
X167145182Y-113882069D01*
X167084860Y-114041127D01*
X167064354Y-114210000D01*
X166181850Y-114210000D01*
X166289264Y-114112079D01*
X166412173Y-113949321D01*
X166412173Y-113949319D01*
X166412175Y-113949318D01*
X166458117Y-113857052D01*
X166503082Y-113766750D01*
X166558897Y-113570583D01*
X166577715Y-113367500D01*
X166558897Y-113164417D01*
X166503082Y-112968250D01*
X166478070Y-112918018D01*
X166412175Y-112785681D01*
X166289263Y-112622919D01*
X166138541Y-112485518D01*
X165965138Y-112378152D01*
X165774957Y-112304476D01*
X165708129Y-112291984D01*
X165574476Y-112267000D01*
X165370524Y-112267000D01*
X165270283Y-112285738D01*
X165170042Y-112304476D01*
X164979861Y-112378152D01*
X164806458Y-112485518D01*
X164655736Y-112622919D01*
X164532824Y-112785681D01*
X164441918Y-112968248D01*
X164386102Y-113164416D01*
X164367285Y-113367499D01*
X151337715Y-113367499D01*
X151318897Y-113164417D01*
X151263082Y-112968250D01*
X151238070Y-112918018D01*
X151172175Y-112785681D01*
X151049263Y-112622919D01*
X150898541Y-112485518D01*
X150725138Y-112378152D01*
X150534957Y-112304476D01*
X150468129Y-112291984D01*
X150334476Y-112267000D01*
X150130524Y-112267000D01*
X150030283Y-112285738D01*
X149930042Y-112304476D01*
X149739861Y-112378152D01*
X149566458Y-112485518D01*
X149415736Y-112622919D01*
X149292824Y-112785681D01*
X149201918Y-112968248D01*
X149146102Y-113164416D01*
X149127285Y-113367499D01*
X106500500Y-113367499D01*
X106500500Y-112574867D01*
X134179500Y-112574867D01*
X134182414Y-112599988D01*
X134227795Y-112702767D01*
X134307232Y-112782204D01*
X134307233Y-112782204D01*
X134307235Y-112782206D01*
X134410009Y-112827585D01*
X134435135Y-112830500D01*
X136524864Y-112830499D01*
X136524867Y-112830499D01*
X136537427Y-112829041D01*
X136549991Y-112827585D01*
X136652765Y-112782206D01*
X136732206Y-112702765D01*
X136777585Y-112599991D01*
X136780500Y-112574865D01*
X136780499Y-110827500D01*
X149127285Y-110827500D01*
X149146102Y-111030583D01*
X149201918Y-111226751D01*
X149292824Y-111409318D01*
X149415736Y-111572080D01*
X149566458Y-111709481D01*
X149739861Y-111816847D01*
X149739863Y-111816848D01*
X149930044Y-111890524D01*
X150130524Y-111928000D01*
X150334474Y-111928000D01*
X150334476Y-111928000D01*
X150534956Y-111890524D01*
X150725137Y-111816848D01*
X150898541Y-111709481D01*
X151049264Y-111572079D01*
X151172173Y-111409321D01*
X151172173Y-111409319D01*
X151172175Y-111409318D01*
X151218117Y-111317052D01*
X151263082Y-111226750D01*
X151318897Y-111030583D01*
X151337715Y-110827500D01*
X164367285Y-110827500D01*
X164386102Y-111030583D01*
X164441918Y-111226751D01*
X164532824Y-111409318D01*
X164655736Y-111572080D01*
X164806458Y-111709481D01*
X164979861Y-111816847D01*
X164979863Y-111816848D01*
X165170044Y-111890524D01*
X165370524Y-111928000D01*
X165574474Y-111928000D01*
X165574476Y-111928000D01*
X165774956Y-111890524D01*
X165965137Y-111816848D01*
X166138541Y-111709481D01*
X166289264Y-111572079D01*
X166412173Y-111409321D01*
X166412173Y-111409319D01*
X166412175Y-111409318D01*
X166458117Y-111317052D01*
X166503082Y-111226750D01*
X166558897Y-111030583D01*
X166577715Y-110827500D01*
X166558897Y-110624417D01*
X166503082Y-110428250D01*
X166486526Y-110395000D01*
X166412175Y-110245681D01*
X166289263Y-110082919D01*
X166138541Y-109945518D01*
X165965138Y-109838152D01*
X165774957Y-109764476D01*
X165708129Y-109751984D01*
X165574476Y-109727000D01*
X165370524Y-109727000D01*
X165270283Y-109745738D01*
X165170042Y-109764476D01*
X164979861Y-109838152D01*
X164806458Y-109945518D01*
X164655736Y-110082919D01*
X164532824Y-110245681D01*
X164441918Y-110428248D01*
X164386102Y-110624416D01*
X164367285Y-110827500D01*
X151337715Y-110827500D01*
X151318897Y-110624417D01*
X151263082Y-110428250D01*
X151246526Y-110395000D01*
X151172175Y-110245681D01*
X151049263Y-110082919D01*
X150898541Y-109945518D01*
X150725138Y-109838152D01*
X150534957Y-109764476D01*
X150468129Y-109751984D01*
X150334476Y-109727000D01*
X150130524Y-109727000D01*
X150030283Y-109745738D01*
X149930042Y-109764476D01*
X149739861Y-109838152D01*
X149566458Y-109945518D01*
X149415736Y-110082919D01*
X149292824Y-110245681D01*
X149201918Y-110428248D01*
X149146102Y-110624416D01*
X149127285Y-110827500D01*
X136780499Y-110827500D01*
X136780499Y-110485136D01*
X136777585Y-110460009D01*
X136732206Y-110357235D01*
X136732204Y-110357233D01*
X136732204Y-110357232D01*
X136652767Y-110277795D01*
X136632848Y-110269000D01*
X136549991Y-110232415D01*
X136524865Y-110229500D01*
X136524863Y-110229500D01*
X134435132Y-110229500D01*
X134410011Y-110232414D01*
X134307232Y-110277795D01*
X134227795Y-110357232D01*
X134182415Y-110460009D01*
X134179500Y-110485136D01*
X134179500Y-112574867D01*
X106500500Y-112574867D01*
X106500500Y-110179026D01*
X143174526Y-110179026D01*
X143247515Y-110230133D01*
X143453673Y-110326266D01*
X143673397Y-110385141D01*
X143900000Y-110404966D01*
X144126602Y-110385141D01*
X144346326Y-110326266D01*
X144552480Y-110230134D01*
X144625472Y-110179025D01*
X143900001Y-109453553D01*
X143900000Y-109453553D01*
X143174526Y-110179025D01*
X143174526Y-110179026D01*
X106500500Y-110179026D01*
X106500500Y-109100000D01*
X142595033Y-109100000D01*
X142614858Y-109326602D01*
X142673733Y-109546326D01*
X142769866Y-109752484D01*
X142820972Y-109825471D01*
X142820974Y-109825472D01*
X143546446Y-109100001D01*
X143546446Y-109100000D01*
X143546445Y-109099999D01*
X144253553Y-109099999D01*
X144979025Y-109825472D01*
X145030134Y-109752480D01*
X145126266Y-109546326D01*
X145185141Y-109326602D01*
X145204966Y-109099999D01*
X145185141Y-108873397D01*
X145126266Y-108653673D01*
X145030133Y-108447515D01*
X144979025Y-108374526D01*
X144253553Y-109099998D01*
X144253553Y-109099999D01*
X143546445Y-109099999D01*
X142820973Y-108374526D01*
X142820973Y-108374527D01*
X142769865Y-108447516D01*
X142673733Y-108653672D01*
X142614858Y-108873397D01*
X142595033Y-109100000D01*
X106500500Y-109100000D01*
X106500500Y-108020973D01*
X143174526Y-108020973D01*
X143900000Y-108746446D01*
X143900001Y-108746446D01*
X144358946Y-108287500D01*
X149127285Y-108287500D01*
X149146102Y-108490583D01*
X149201918Y-108686751D01*
X149292824Y-108869318D01*
X149415736Y-109032080D01*
X149566458Y-109169481D01*
X149687619Y-109244500D01*
X149739863Y-109276848D01*
X149930044Y-109350524D01*
X150130524Y-109388000D01*
X150334474Y-109388000D01*
X150334476Y-109388000D01*
X150534956Y-109350524D01*
X150725137Y-109276848D01*
X150898541Y-109169481D01*
X151049264Y-109032079D01*
X151172173Y-108869321D01*
X151172173Y-108869319D01*
X151172175Y-108869318D01*
X151235580Y-108741981D01*
X151263082Y-108686750D01*
X151318897Y-108490583D01*
X151337715Y-108287500D01*
X164367285Y-108287500D01*
X164386102Y-108490583D01*
X164441918Y-108686751D01*
X164532824Y-108869318D01*
X164655736Y-109032080D01*
X164806458Y-109169481D01*
X164927619Y-109244500D01*
X164979863Y-109276848D01*
X165170044Y-109350524D01*
X165370524Y-109388000D01*
X165574474Y-109388000D01*
X165574476Y-109388000D01*
X165774956Y-109350524D01*
X165965137Y-109276848D01*
X166138541Y-109169481D01*
X166289264Y-109032079D01*
X166412173Y-108869321D01*
X166412173Y-108869319D01*
X166412175Y-108869318D01*
X166475580Y-108741981D01*
X166503082Y-108686750D01*
X166558897Y-108490583D01*
X166577715Y-108287500D01*
X166558897Y-108084417D01*
X166503082Y-107888250D01*
X166502709Y-107887501D01*
X166489015Y-107859999D01*
X168252285Y-107859999D01*
X168271102Y-108063083D01*
X168326918Y-108259251D01*
X168417824Y-108441818D01*
X168540736Y-108604580D01*
X168691458Y-108741981D01*
X168864861Y-108849347D01*
X168864863Y-108849348D01*
X169055044Y-108923024D01*
X169255524Y-108960500D01*
X169459474Y-108960500D01*
X169459476Y-108960500D01*
X169659956Y-108923024D01*
X169850137Y-108849348D01*
X170023541Y-108741981D01*
X170023540Y-108741981D01*
X170174263Y-108604580D01*
X170174264Y-108604579D01*
X170297173Y-108441821D01*
X170297173Y-108441819D01*
X170297175Y-108441818D01*
X170381539Y-108272390D01*
X170388082Y-108259250D01*
X170443897Y-108063083D01*
X170462715Y-107860000D01*
X170443897Y-107656917D01*
X170388082Y-107460750D01*
X170376559Y-107437609D01*
X170297175Y-107278181D01*
X170174263Y-107115419D01*
X170023541Y-106978018D01*
X169850138Y-106870652D01*
X169659957Y-106796976D01*
X169593129Y-106784484D01*
X169459476Y-106759500D01*
X169255524Y-106759500D01*
X169155284Y-106778237D01*
X169055042Y-106796976D01*
X168864861Y-106870652D01*
X168691458Y-106978018D01*
X168540736Y-107115419D01*
X168417824Y-107278181D01*
X168326918Y-107460748D01*
X168271102Y-107656916D01*
X168252285Y-107859999D01*
X166489015Y-107859999D01*
X166412175Y-107705681D01*
X166289263Y-107542919D01*
X166138541Y-107405518D01*
X165965138Y-107298152D01*
X165774957Y-107224476D01*
X165708129Y-107211983D01*
X165574476Y-107187000D01*
X165370524Y-107187000D01*
X165270283Y-107205738D01*
X165170042Y-107224476D01*
X164979861Y-107298152D01*
X164806458Y-107405518D01*
X164655736Y-107542919D01*
X164532824Y-107705681D01*
X164441918Y-107888248D01*
X164386102Y-108084416D01*
X164367285Y-108287500D01*
X151337715Y-108287500D01*
X151318897Y-108084417D01*
X151263082Y-107888250D01*
X151262709Y-107887501D01*
X151172175Y-107705681D01*
X151049263Y-107542919D01*
X150898541Y-107405518D01*
X150725138Y-107298152D01*
X150534957Y-107224476D01*
X150468129Y-107211983D01*
X150334476Y-107187000D01*
X150130524Y-107187000D01*
X150030283Y-107205738D01*
X149930042Y-107224476D01*
X149739861Y-107298152D01*
X149566458Y-107405518D01*
X149415736Y-107542919D01*
X149292824Y-107705681D01*
X149201918Y-107888248D01*
X149146102Y-108084416D01*
X149127285Y-108287500D01*
X144358946Y-108287500D01*
X144625472Y-108020974D01*
X144625471Y-108020972D01*
X144552484Y-107969866D01*
X144346326Y-107873733D01*
X144126602Y-107814858D01*
X143900000Y-107795033D01*
X143673397Y-107814858D01*
X143453672Y-107873733D01*
X143247516Y-107969865D01*
X143174527Y-108020973D01*
X143174526Y-108020973D01*
X106500500Y-108020973D01*
X106500500Y-105747499D01*
X149127285Y-105747499D01*
X149146102Y-105950583D01*
X149201918Y-106146751D01*
X149292824Y-106329318D01*
X149415736Y-106492080D01*
X149566458Y-106629481D01*
X149687619Y-106704500D01*
X149739863Y-106736848D01*
X149930044Y-106810524D01*
X150130524Y-106848000D01*
X150334474Y-106848000D01*
X150334476Y-106848000D01*
X150534956Y-106810524D01*
X150725137Y-106736848D01*
X150898541Y-106629481D01*
X151049264Y-106492079D01*
X151172173Y-106329321D01*
X151172173Y-106329319D01*
X151172175Y-106329318D01*
X151218117Y-106237052D01*
X151263082Y-106146750D01*
X151318897Y-105950583D01*
X151337715Y-105747500D01*
X151337715Y-105747499D01*
X164367285Y-105747499D01*
X164386102Y-105950583D01*
X164441918Y-106146751D01*
X164532824Y-106329318D01*
X164655736Y-106492080D01*
X164806458Y-106629481D01*
X164927619Y-106704500D01*
X164979863Y-106736848D01*
X165170044Y-106810524D01*
X165370524Y-106848000D01*
X165574474Y-106848000D01*
X165574476Y-106848000D01*
X165774956Y-106810524D01*
X165965137Y-106736848D01*
X166138541Y-106629481D01*
X166289264Y-106492079D01*
X166412173Y-106329321D01*
X166412173Y-106329319D01*
X166412175Y-106329318D01*
X166458117Y-106237052D01*
X166503082Y-106146750D01*
X166558897Y-105950583D01*
X166577715Y-105747500D01*
X166558897Y-105544417D01*
X166503082Y-105348250D01*
X166483223Y-105308368D01*
X166412175Y-105165681D01*
X166289263Y-105002919D01*
X166138541Y-104865518D01*
X165965138Y-104758152D01*
X165774957Y-104684476D01*
X165708129Y-104671983D01*
X165574476Y-104647000D01*
X165370524Y-104647000D01*
X165270284Y-104665737D01*
X165170042Y-104684476D01*
X164979861Y-104758152D01*
X164806458Y-104865518D01*
X164655736Y-105002919D01*
X164532824Y-105165681D01*
X164441918Y-105348248D01*
X164386102Y-105544416D01*
X164367285Y-105747499D01*
X151337715Y-105747499D01*
X151318897Y-105544417D01*
X151263082Y-105348250D01*
X151243223Y-105308368D01*
X151172175Y-105165681D01*
X151049263Y-105002919D01*
X150898541Y-104865518D01*
X150725138Y-104758152D01*
X150534957Y-104684476D01*
X150468129Y-104671983D01*
X150334476Y-104647000D01*
X150130524Y-104647000D01*
X150030284Y-104665737D01*
X149930042Y-104684476D01*
X149739861Y-104758152D01*
X149566458Y-104865518D01*
X149415736Y-105002919D01*
X149292824Y-105165681D01*
X149201918Y-105348248D01*
X149146102Y-105544416D01*
X149127285Y-105747499D01*
X106500500Y-105747499D01*
X106500500Y-105153610D01*
X134609942Y-105153610D01*
X134656766Y-105190055D01*
X134875393Y-105308368D01*
X135110506Y-105389083D01*
X135355707Y-105430000D01*
X135604293Y-105430000D01*
X135849493Y-105389083D01*
X136084606Y-105308368D01*
X136303233Y-105190053D01*
X136350056Y-105153609D01*
X135480000Y-104283553D01*
X134609942Y-105153609D01*
X134609942Y-105153610D01*
X106500500Y-105153610D01*
X106500500Y-103929999D01*
X133974858Y-103929999D01*
X133995386Y-104177732D01*
X134056413Y-104418721D01*
X134156268Y-104646370D01*
X134256563Y-104799882D01*
X134256564Y-104799882D01*
X135126447Y-103930001D01*
X135833553Y-103930001D01*
X136703434Y-104799882D01*
X136803730Y-104646369D01*
X136903586Y-104418721D01*
X136964613Y-104177732D01*
X136985141Y-103929999D01*
X136964613Y-103682267D01*
X136903586Y-103441278D01*
X136803730Y-103213630D01*
X136703434Y-103060116D01*
X135833553Y-103930000D01*
X135833553Y-103930001D01*
X135126447Y-103930001D01*
X135126447Y-103930000D01*
X134256564Y-103060116D01*
X134156266Y-103213634D01*
X134056413Y-103441278D01*
X133995386Y-103682267D01*
X133974858Y-103929999D01*
X106500500Y-103929999D01*
X106500500Y-100920000D01*
X125744721Y-100920000D01*
X125763763Y-101076818D01*
X125819780Y-101224523D01*
X125909515Y-101354528D01*
X125909516Y-101354529D01*
X125909517Y-101354530D01*
X126027760Y-101459283D01*
X126167635Y-101532696D01*
X126321015Y-101570500D01*
X126362034Y-101570500D01*
X126409487Y-101579939D01*
X126449715Y-101606819D01*
X127779083Y-102936186D01*
X127808618Y-102983414D01*
X127814499Y-103038806D01*
X127814354Y-103039997D01*
X127834860Y-103208872D01*
X127895182Y-103367930D01*
X127991815Y-103507927D01*
X127991816Y-103507928D01*
X127991817Y-103507929D01*
X128119148Y-103620734D01*
X128269775Y-103699790D01*
X128434944Y-103740500D01*
X128605055Y-103740500D01*
X128605056Y-103740500D01*
X128770225Y-103699790D01*
X128920852Y-103620734D01*
X129048183Y-103507929D01*
X129144818Y-103367930D01*
X129205140Y-103208872D01*
X129225645Y-103040000D01*
X129205140Y-102871128D01*
X129144818Y-102712070D01*
X129048183Y-102572071D01*
X128920852Y-102459266D01*
X128865091Y-102430000D01*
X128770224Y-102380209D01*
X128645764Y-102349533D01*
X128605056Y-102339500D01*
X128605055Y-102339500D01*
X128507965Y-102339500D01*
X128460512Y-102330061D01*
X128420284Y-102303181D01*
X127088047Y-100970944D01*
X127064241Y-100937546D01*
X127052632Y-100898209D01*
X127051774Y-100891145D01*
X127036237Y-100763182D01*
X126980220Y-100615477D01*
X126890483Y-100485470D01*
X126772240Y-100380717D01*
X126758994Y-100373765D01*
X126632364Y-100307303D01*
X126478985Y-100269500D01*
X126321015Y-100269500D01*
X126167635Y-100307303D01*
X126027761Y-100380716D01*
X125909515Y-100485471D01*
X125819780Y-100615476D01*
X125763763Y-100763181D01*
X125744721Y-100920000D01*
X106500500Y-100920000D01*
X106500500Y-99549999D01*
X126914354Y-99549999D01*
X126934860Y-99718872D01*
X126995182Y-99877930D01*
X127091815Y-100017927D01*
X127091816Y-100017928D01*
X127091817Y-100017929D01*
X127219148Y-100130734D01*
X127369775Y-100209790D01*
X127406429Y-100218823D01*
X127464436Y-100251539D01*
X129239083Y-102026186D01*
X129268618Y-102073414D01*
X129274499Y-102128806D01*
X129274354Y-102129997D01*
X129294860Y-102298872D01*
X129355182Y-102457930D01*
X129451815Y-102597927D01*
X129451816Y-102597928D01*
X129451817Y-102597929D01*
X129579148Y-102710734D01*
X129729775Y-102789790D01*
X129894944Y-102830500D01*
X130065055Y-102830500D01*
X130065056Y-102830500D01*
X130230225Y-102789790D01*
X130380852Y-102710734D01*
X130385755Y-102706390D01*
X134609942Y-102706390D01*
X135480000Y-103576447D01*
X135480001Y-103576447D01*
X136056447Y-103000000D01*
X141000000Y-103000000D01*
X142713673Y-103000000D01*
X142772757Y-103014981D01*
X142817564Y-103056305D01*
X142837268Y-103113986D01*
X142827107Y-103174087D01*
X142802415Y-103230008D01*
X142799500Y-103255136D01*
X142799500Y-104944867D01*
X142802414Y-104969988D01*
X142802414Y-104969990D01*
X142802415Y-104969991D01*
X142816954Y-105002919D01*
X142847795Y-105072767D01*
X142927232Y-105152204D01*
X142927233Y-105152204D01*
X142927235Y-105152206D01*
X143030009Y-105197585D01*
X143055135Y-105200500D01*
X144744864Y-105200499D01*
X144744867Y-105200499D01*
X144757427Y-105199041D01*
X144769991Y-105197585D01*
X144872765Y-105152206D01*
X144952206Y-105072765D01*
X144997585Y-104969991D01*
X145000500Y-104944865D01*
X145000499Y-103255136D01*
X144997585Y-103230009D01*
X144987646Y-103207499D01*
X149127285Y-103207499D01*
X149146102Y-103410583D01*
X149201918Y-103606751D01*
X149292824Y-103789318D01*
X149415736Y-103952080D01*
X149566458Y-104089481D01*
X149739861Y-104196847D01*
X149739863Y-104196848D01*
X149930044Y-104270524D01*
X150130524Y-104308000D01*
X150334474Y-104308000D01*
X150334476Y-104308000D01*
X150534956Y-104270524D01*
X150725137Y-104196848D01*
X150898541Y-104089481D01*
X151049264Y-103952079D01*
X151172173Y-103789321D01*
X151172173Y-103789319D01*
X151172175Y-103789318D01*
X151248002Y-103637035D01*
X151263082Y-103606750D01*
X151318897Y-103410583D01*
X151337715Y-103207500D01*
X151337715Y-103207499D01*
X164367285Y-103207499D01*
X164386102Y-103410583D01*
X164441918Y-103606751D01*
X164532824Y-103789318D01*
X164655736Y-103952080D01*
X164806458Y-104089481D01*
X164979861Y-104196847D01*
X164979863Y-104196848D01*
X165170044Y-104270524D01*
X165370524Y-104308000D01*
X165574474Y-104308000D01*
X165574476Y-104308000D01*
X165774956Y-104270524D01*
X165965137Y-104196848D01*
X166138541Y-104089481D01*
X166289264Y-103952079D01*
X166412173Y-103789321D01*
X166412173Y-103789319D01*
X166412175Y-103789318D01*
X166488002Y-103637035D01*
X166503082Y-103606750D01*
X166558897Y-103410583D01*
X166577715Y-103207500D01*
X166558897Y-103004417D01*
X166558327Y-103002415D01*
X166536700Y-102926404D01*
X166503082Y-102808250D01*
X166486526Y-102775000D01*
X166412175Y-102625681D01*
X166289263Y-102462919D01*
X166138541Y-102325518D01*
X165965138Y-102218152D01*
X165774957Y-102144476D01*
X165691128Y-102128806D01*
X165574476Y-102107000D01*
X165370524Y-102107000D01*
X165270284Y-102125737D01*
X165170042Y-102144476D01*
X164979861Y-102218152D01*
X164806458Y-102325518D01*
X164655736Y-102462919D01*
X164532824Y-102625681D01*
X164441918Y-102808248D01*
X164386102Y-103004416D01*
X164367285Y-103207499D01*
X151337715Y-103207499D01*
X151318897Y-103004417D01*
X151318327Y-103002415D01*
X151296700Y-102926404D01*
X151263082Y-102808250D01*
X151246526Y-102775000D01*
X151172175Y-102625681D01*
X151049263Y-102462919D01*
X150898541Y-102325518D01*
X150725138Y-102218152D01*
X150534957Y-102144476D01*
X150451128Y-102128806D01*
X150334476Y-102107000D01*
X150130524Y-102107000D01*
X150030284Y-102125737D01*
X149930042Y-102144476D01*
X149739861Y-102218152D01*
X149566458Y-102325518D01*
X149415736Y-102462919D01*
X149292824Y-102625681D01*
X149201918Y-102808248D01*
X149146102Y-103004416D01*
X149127285Y-103207499D01*
X144987646Y-103207499D01*
X144972893Y-103174086D01*
X144962732Y-103113985D01*
X144982436Y-103056305D01*
X145027243Y-103014981D01*
X145086327Y-103000000D01*
X146750000Y-103000000D01*
X146750000Y-100667500D01*
X149127285Y-100667500D01*
X149146102Y-100870583D01*
X149201918Y-101066751D01*
X149292824Y-101249318D01*
X149415736Y-101412080D01*
X149566458Y-101549481D01*
X149739861Y-101656847D01*
X149739863Y-101656848D01*
X149930044Y-101730524D01*
X150130524Y-101768000D01*
X150334474Y-101768000D01*
X150334476Y-101768000D01*
X150534956Y-101730524D01*
X150725137Y-101656848D01*
X150898541Y-101549481D01*
X151049264Y-101412079D01*
X151172173Y-101249321D01*
X151172173Y-101249319D01*
X151172175Y-101249318D01*
X151240292Y-101112519D01*
X151263082Y-101066750D01*
X151318897Y-100870583D01*
X151337715Y-100667500D01*
X164367285Y-100667500D01*
X164386102Y-100870583D01*
X164441918Y-101066751D01*
X164532824Y-101249318D01*
X164655736Y-101412080D01*
X164806458Y-101549481D01*
X164979861Y-101656847D01*
X164979863Y-101656848D01*
X165170044Y-101730524D01*
X165370524Y-101768000D01*
X165574474Y-101768000D01*
X165574476Y-101768000D01*
X165774956Y-101730524D01*
X165965137Y-101656848D01*
X166138541Y-101549481D01*
X166289264Y-101412079D01*
X166412173Y-101249321D01*
X166412173Y-101249319D01*
X166412175Y-101249318D01*
X166480292Y-101112519D01*
X166503082Y-101066750D01*
X166558897Y-100870583D01*
X166577715Y-100667500D01*
X166558897Y-100464417D01*
X166543396Y-100409939D01*
X166529128Y-100359790D01*
X166503082Y-100268250D01*
X166473972Y-100209788D01*
X166412175Y-100085681D01*
X166289263Y-99922919D01*
X166138541Y-99785518D01*
X166000424Y-99700000D01*
X170494354Y-99700000D01*
X170514860Y-99868872D01*
X170575182Y-100027930D01*
X170671815Y-100167927D01*
X170671816Y-100167928D01*
X170671817Y-100167929D01*
X170799148Y-100280734D01*
X170949775Y-100359790D01*
X171114944Y-100400500D01*
X171212034Y-100400500D01*
X171259487Y-100409939D01*
X171299715Y-100436819D01*
X172638630Y-101775733D01*
X172647896Y-101786101D01*
X172681774Y-101828582D01*
X172681001Y-101829198D01*
X172699059Y-101848702D01*
X172715231Y-101901737D01*
X172706672Y-101956519D01*
X172686217Y-101986038D01*
X172688052Y-101987424D01*
X172552631Y-102166747D01*
X172457595Y-102357609D01*
X172399243Y-102562689D01*
X172379571Y-102775000D01*
X172399243Y-102987310D01*
X172457595Y-103192390D01*
X172552631Y-103383252D01*
X172681126Y-103553405D01*
X172681128Y-103553407D01*
X172838698Y-103697052D01*
X173019981Y-103809298D01*
X173218802Y-103886321D01*
X173415613Y-103923111D01*
X173476365Y-103953363D01*
X173512093Y-104011066D01*
X173512093Y-104078934D01*
X173476365Y-104136637D01*
X173415613Y-104166888D01*
X173285475Y-104191215D01*
X173218801Y-104203679D01*
X173019982Y-104280701D01*
X172838698Y-104392947D01*
X172681126Y-104536594D01*
X172552631Y-104706747D01*
X172457595Y-104897609D01*
X172399243Y-105102689D01*
X172379571Y-105315000D01*
X172399243Y-105527310D01*
X172457595Y-105732390D01*
X172552631Y-105923252D01*
X172573271Y-105950583D01*
X172681128Y-106093407D01*
X172838698Y-106237052D01*
X173019981Y-106349298D01*
X173218802Y-106426321D01*
X173415613Y-106463111D01*
X173476365Y-106493363D01*
X173512093Y-106551066D01*
X173512093Y-106618934D01*
X173476365Y-106676637D01*
X173415613Y-106706888D01*
X173285475Y-106731215D01*
X173218801Y-106743679D01*
X173019982Y-106820701D01*
X172838698Y-106932947D01*
X172681126Y-107076594D01*
X172552631Y-107246747D01*
X172457595Y-107437609D01*
X172399243Y-107642689D01*
X172379571Y-107855000D01*
X172399243Y-108067310D01*
X172457595Y-108272390D01*
X172552631Y-108463252D01*
X172681126Y-108633405D01*
X172681128Y-108633407D01*
X172838698Y-108777052D01*
X173019981Y-108889298D01*
X173048961Y-108900524D01*
X173096231Y-108933083D01*
X173123775Y-108983442D01*
X173125691Y-109040809D01*
X173101567Y-109092893D01*
X173056573Y-109128533D01*
X172857419Y-109221401D01*
X172663921Y-109356890D01*
X172496890Y-109523921D01*
X172361400Y-109717421D01*
X172261569Y-109931507D01*
X172204364Y-110144999D01*
X172204364Y-110145000D01*
X173661000Y-110145000D01*
X173723000Y-110161613D01*
X173768387Y-110207000D01*
X173785000Y-110269000D01*
X173785000Y-110521000D01*
X173768387Y-110583000D01*
X173723000Y-110628387D01*
X173661000Y-110645000D01*
X172204364Y-110645000D01*
X172261569Y-110858492D01*
X172361399Y-111072576D01*
X172496893Y-111266081D01*
X172663918Y-111433106D01*
X172857423Y-111568600D01*
X173056572Y-111661466D01*
X173101566Y-111697105D01*
X173125690Y-111749188D01*
X173123776Y-111806555D01*
X173096232Y-111856914D01*
X173048962Y-111889474D01*
X173019984Y-111900700D01*
X172838698Y-112012947D01*
X172681126Y-112156594D01*
X172552631Y-112326747D01*
X172457595Y-112517609D01*
X172399243Y-112722689D01*
X172379571Y-112935000D01*
X172399243Y-113147310D01*
X172457595Y-113352390D01*
X172552631Y-113543252D01*
X172681126Y-113713405D01*
X172681128Y-113713407D01*
X172838698Y-113857052D01*
X173019981Y-113969298D01*
X173048961Y-113980524D01*
X173096231Y-114013083D01*
X173123775Y-114063442D01*
X173125691Y-114120809D01*
X173101567Y-114172893D01*
X173056573Y-114208533D01*
X172857419Y-114301401D01*
X172663921Y-114436890D01*
X172496890Y-114603921D01*
X172361400Y-114797421D01*
X172261569Y-115011507D01*
X172204364Y-115224999D01*
X172204364Y-115225000D01*
X173661000Y-115225000D01*
X173723000Y-115241613D01*
X173768387Y-115287000D01*
X173785000Y-115349000D01*
X173785000Y-116805635D01*
X173998492Y-116748430D01*
X174212576Y-116648600D01*
X174406081Y-116513106D01*
X174573109Y-116346078D01*
X174698925Y-116166394D01*
X174746142Y-116126067D01*
X174806989Y-116113687D01*
X174866209Y-116132359D01*
X174908952Y-116177400D01*
X174924500Y-116237516D01*
X174924500Y-116369866D01*
X174927414Y-116394988D01*
X174927414Y-116394990D01*
X174927415Y-116394991D01*
X174969064Y-116489318D01*
X174972795Y-116497767D01*
X175052232Y-116577204D01*
X175052233Y-116577204D01*
X175052235Y-116577206D01*
X175155009Y-116622585D01*
X175180135Y-116625500D01*
X176969864Y-116625499D01*
X176969867Y-116625499D01*
X176982427Y-116624042D01*
X176994991Y-116622585D01*
X177097765Y-116577206D01*
X177177206Y-116497765D01*
X177222585Y-116394991D01*
X177225500Y-116369865D01*
X177225499Y-114580136D01*
X177222585Y-114555009D01*
X177177206Y-114452235D01*
X177177204Y-114452233D01*
X177177204Y-114452232D01*
X177097767Y-114372795D01*
X177097765Y-114372794D01*
X176994991Y-114327415D01*
X176969864Y-114324500D01*
X176241242Y-114324500D01*
X176182578Y-114309746D01*
X176137875Y-114268993D01*
X176117771Y-114211941D01*
X176127050Y-114152167D01*
X176163503Y-114103894D01*
X176218453Y-114078612D01*
X176391198Y-114046321D01*
X176590019Y-113969298D01*
X176771302Y-113857052D01*
X176833886Y-113799999D01*
X178994785Y-113799999D01*
X179013602Y-114003083D01*
X179069418Y-114199251D01*
X179160324Y-114381818D01*
X179283236Y-114544580D01*
X179433958Y-114681981D01*
X179607361Y-114789347D01*
X179607363Y-114789348D01*
X179797544Y-114863024D01*
X179998024Y-114900500D01*
X180201974Y-114900500D01*
X180201976Y-114900500D01*
X180402456Y-114863024D01*
X180592637Y-114789348D01*
X180766041Y-114681981D01*
X180916764Y-114544579D01*
X181039673Y-114381821D01*
X181039673Y-114381819D01*
X181039675Y-114381818D01*
X181095206Y-114270295D01*
X181130582Y-114199250D01*
X181186397Y-114003083D01*
X181205215Y-113800000D01*
X181186397Y-113596917D01*
X181130582Y-113400750D01*
X181106501Y-113352389D01*
X181039675Y-113218181D01*
X180916763Y-113055419D01*
X180766041Y-112918018D01*
X180592638Y-112810652D01*
X180402457Y-112736976D01*
X180326027Y-112722689D01*
X180201976Y-112699500D01*
X179998024Y-112699500D01*
X179897783Y-112718238D01*
X179797542Y-112736976D01*
X179607361Y-112810652D01*
X179433958Y-112918018D01*
X179283236Y-113055419D01*
X179160324Y-113218181D01*
X179069418Y-113400748D01*
X179013602Y-113596916D01*
X178994785Y-113799999D01*
X176833886Y-113799999D01*
X176928872Y-113713407D01*
X177057366Y-113543255D01*
X177057366Y-113543253D01*
X177057368Y-113543252D01*
X177128325Y-113400748D01*
X177152405Y-113352389D01*
X177210756Y-113147310D01*
X177230429Y-112935000D01*
X177210756Y-112722690D01*
X177205087Y-112702767D01*
X177182368Y-112622919D01*
X177152405Y-112517611D01*
X177136425Y-112485518D01*
X177057368Y-112326747D01*
X176928873Y-112156594D01*
X176771301Y-112012947D01*
X176590017Y-111900701D01*
X176391198Y-111823679D01*
X176194385Y-111786888D01*
X176133634Y-111756637D01*
X176097906Y-111698934D01*
X176097906Y-111631066D01*
X176133634Y-111573363D01*
X176194385Y-111543111D01*
X176391198Y-111506321D01*
X176590019Y-111429298D01*
X176771302Y-111317052D01*
X176928872Y-111173407D01*
X177057366Y-111003255D01*
X177057366Y-111003253D01*
X177057368Y-111003252D01*
X177124323Y-110868785D01*
X177152405Y-110812389D01*
X177210756Y-110607310D01*
X177230429Y-110395000D01*
X177210756Y-110182690D01*
X177209713Y-110179026D01*
X177152404Y-109977609D01*
X177057368Y-109786747D01*
X176928873Y-109616594D01*
X176771301Y-109472947D01*
X176590017Y-109360701D01*
X176391198Y-109283679D01*
X176391197Y-109283678D01*
X176194385Y-109246888D01*
X176133634Y-109216637D01*
X176097906Y-109158934D01*
X176097906Y-109091066D01*
X176133634Y-109033363D01*
X176194385Y-109003111D01*
X176391198Y-108966321D01*
X176590019Y-108889298D01*
X176771302Y-108777052D01*
X176928872Y-108633407D01*
X177057366Y-108463255D01*
X177057366Y-108463253D01*
X177057368Y-108463252D01*
X177105080Y-108367430D01*
X177152405Y-108272389D01*
X177210756Y-108067310D01*
X177230429Y-107855000D01*
X177210756Y-107642690D01*
X177152405Y-107437611D01*
X177136425Y-107405518D01*
X177057368Y-107246747D01*
X176928873Y-107076594D01*
X176771301Y-106932947D01*
X176590017Y-106820701D01*
X176391198Y-106743679D01*
X176391197Y-106743678D01*
X176194385Y-106706888D01*
X176133634Y-106676637D01*
X176097906Y-106618934D01*
X176097906Y-106551066D01*
X176133634Y-106493363D01*
X176194385Y-106463111D01*
X176391198Y-106426321D01*
X176590019Y-106349298D01*
X176771302Y-106237052D01*
X176928872Y-106093407D01*
X177057366Y-105923255D01*
X177057366Y-105923253D01*
X177057368Y-105923252D01*
X177105080Y-105827430D01*
X177152405Y-105732389D01*
X177210756Y-105527310D01*
X177230429Y-105315000D01*
X177215424Y-105153077D01*
X177226932Y-105088345D01*
X177269915Y-105038594D01*
X177332291Y-105017812D01*
X177396519Y-105031838D01*
X177449775Y-105059790D01*
X177614944Y-105100500D01*
X177785055Y-105100500D01*
X177785056Y-105100500D01*
X177950225Y-105059790D01*
X178100852Y-104980734D01*
X178228183Y-104867929D01*
X178324818Y-104727930D01*
X178385140Y-104568872D01*
X178405645Y-104400000D01*
X178385140Y-104231128D01*
X178324818Y-104072070D01*
X178261688Y-103980611D01*
X178228184Y-103932072D01*
X178228183Y-103932071D01*
X178100852Y-103819266D01*
X178043797Y-103789321D01*
X177950224Y-103740209D01*
X177794306Y-103701780D01*
X177785056Y-103699500D01*
X177785055Y-103699500D01*
X177696285Y-103699500D01*
X177642472Y-103687215D01*
X177626657Y-103674599D01*
X177625321Y-103676559D01*
X177609880Y-103666031D01*
X177609879Y-103666030D01*
X177562608Y-103633800D01*
X177558870Y-103631148D01*
X177508035Y-103593629D01*
X177503424Y-103591302D01*
X177443049Y-103572679D01*
X177438644Y-103571230D01*
X177387702Y-103553405D01*
X177384699Y-103552354D01*
X177384698Y-103552353D01*
X177379023Y-103550368D01*
X177373914Y-103549500D01*
X177367902Y-103549500D01*
X177310738Y-103549500D01*
X177306101Y-103549413D01*
X177242970Y-103547050D01*
X177224365Y-103549500D01*
X177174853Y-103549500D01*
X177114514Y-103533829D01*
X177069426Y-103490778D01*
X177050985Y-103431227D01*
X177063852Y-103370229D01*
X177121161Y-103255136D01*
X177152405Y-103192389D01*
X177157613Y-103174087D01*
X177210756Y-102987310D01*
X177215493Y-102936186D01*
X177230429Y-102775000D01*
X177210756Y-102562690D01*
X177207609Y-102551631D01*
X177181329Y-102459266D01*
X177152405Y-102357611D01*
X177136425Y-102325518D01*
X177057368Y-102166747D01*
X176928873Y-101996594D01*
X176912843Y-101981981D01*
X176771302Y-101852948D01*
X176771301Y-101852947D01*
X176590017Y-101740701D01*
X176391198Y-101663679D01*
X176357678Y-101657413D01*
X176194385Y-101626888D01*
X176133634Y-101596637D01*
X176097906Y-101538934D01*
X176097906Y-101471066D01*
X176133634Y-101413363D01*
X176194385Y-101383111D01*
X176391198Y-101346321D01*
X176590019Y-101269298D01*
X176771302Y-101157052D01*
X176833886Y-101099999D01*
X178994785Y-101099999D01*
X179013602Y-101303083D01*
X179069418Y-101499251D01*
X179160324Y-101681818D01*
X179283236Y-101844580D01*
X179433958Y-101981981D01*
X179607361Y-102089347D01*
X179607363Y-102089348D01*
X179797544Y-102163024D01*
X179998024Y-102200500D01*
X180201974Y-102200500D01*
X180201976Y-102200500D01*
X180402456Y-102163024D01*
X180592637Y-102089348D01*
X180766041Y-101981981D01*
X180916764Y-101844579D01*
X181039673Y-101681821D01*
X181039673Y-101681819D01*
X181039675Y-101681818D01*
X181105677Y-101549266D01*
X181130582Y-101499250D01*
X181186397Y-101303083D01*
X181205215Y-101100000D01*
X181186397Y-100896917D01*
X181130582Y-100700750D01*
X181106501Y-100652389D01*
X181039675Y-100518181D01*
X180916763Y-100355419D01*
X180766041Y-100218018D01*
X180592638Y-100110652D01*
X180402457Y-100036976D01*
X180326027Y-100022689D01*
X180201976Y-99999500D01*
X179998024Y-99999500D01*
X179899448Y-100017927D01*
X179797542Y-100036976D01*
X179607361Y-100110652D01*
X179433958Y-100218018D01*
X179283236Y-100355419D01*
X179160324Y-100518181D01*
X179069418Y-100700748D01*
X179013602Y-100896916D01*
X178994785Y-101099999D01*
X176833886Y-101099999D01*
X176928872Y-101013407D01*
X177057366Y-100843255D01*
X177057366Y-100843253D01*
X177057368Y-100843252D01*
X177128325Y-100700748D01*
X177152405Y-100652389D01*
X177210756Y-100447310D01*
X177230429Y-100235000D01*
X177210756Y-100022690D01*
X177209401Y-100017929D01*
X177182368Y-99922919D01*
X177152405Y-99817611D01*
X177147809Y-99808381D01*
X177057368Y-99626747D01*
X176928873Y-99456594D01*
X176771301Y-99312947D01*
X176590014Y-99200699D01*
X176561038Y-99189474D01*
X176513767Y-99156915D01*
X176486223Y-99106556D01*
X176484309Y-99049189D01*
X176508433Y-98997105D01*
X176553427Y-98961466D01*
X176752576Y-98868600D01*
X176946081Y-98733106D01*
X177113106Y-98566081D01*
X177248600Y-98372576D01*
X177348430Y-98158492D01*
X177364103Y-98100000D01*
X179244531Y-98100000D01*
X179264364Y-98326689D01*
X179323261Y-98546497D01*
X179419432Y-98752735D01*
X179549953Y-98939140D01*
X179710859Y-99100046D01*
X179897264Y-99230567D01*
X179897265Y-99230567D01*
X179897266Y-99230568D01*
X180103504Y-99326739D01*
X180323308Y-99385635D01*
X180550000Y-99405468D01*
X180776692Y-99385635D01*
X180996496Y-99326739D01*
X181003206Y-99323610D01*
X184179942Y-99323610D01*
X184226766Y-99360055D01*
X184445393Y-99478368D01*
X184680506Y-99559083D01*
X184925707Y-99600000D01*
X185174293Y-99600000D01*
X185419493Y-99559083D01*
X185654606Y-99478368D01*
X185873233Y-99360053D01*
X185920056Y-99323609D01*
X185050000Y-98453553D01*
X184179942Y-99323609D01*
X184179942Y-99323610D01*
X181003206Y-99323610D01*
X181202734Y-99230568D01*
X181389139Y-99100047D01*
X181550047Y-98939139D01*
X181680568Y-98752734D01*
X181776739Y-98546496D01*
X181835635Y-98326692D01*
X181855468Y-98100000D01*
X181855468Y-98099999D01*
X183544858Y-98099999D01*
X183565386Y-98347732D01*
X183626413Y-98588721D01*
X183726268Y-98816370D01*
X183826563Y-98969882D01*
X183826564Y-98969882D01*
X184696447Y-98100001D01*
X185403553Y-98100001D01*
X186273434Y-98969882D01*
X186373730Y-98816369D01*
X186473586Y-98588721D01*
X186534613Y-98347732D01*
X186555141Y-98099999D01*
X186534613Y-97852267D01*
X186473586Y-97611278D01*
X186373730Y-97383630D01*
X186273434Y-97230116D01*
X185403553Y-98100000D01*
X185403553Y-98100001D01*
X184696447Y-98100001D01*
X184696447Y-98100000D01*
X183826564Y-97230116D01*
X183726266Y-97383634D01*
X183626413Y-97611278D01*
X183565386Y-97852267D01*
X183544858Y-98099999D01*
X181855468Y-98099999D01*
X181835635Y-97873308D01*
X181776739Y-97653504D01*
X181680568Y-97447266D01*
X181678981Y-97445000D01*
X181550046Y-97260859D01*
X181389140Y-97099953D01*
X181202735Y-96969432D01*
X181003207Y-96876390D01*
X184179942Y-96876390D01*
X185050000Y-97746447D01*
X185050001Y-97746447D01*
X185920057Y-96876390D01*
X185920056Y-96876388D01*
X185873235Y-96839947D01*
X185654606Y-96721631D01*
X185419493Y-96640916D01*
X185174293Y-96600000D01*
X184925707Y-96600000D01*
X184680506Y-96640916D01*
X184445393Y-96721631D01*
X184226764Y-96839946D01*
X184179942Y-96876388D01*
X184179942Y-96876390D01*
X181003207Y-96876390D01*
X180996497Y-96873261D01*
X180776689Y-96814364D01*
X180550000Y-96794531D01*
X180323310Y-96814364D01*
X180103502Y-96873261D01*
X179897264Y-96969432D01*
X179710859Y-97099953D01*
X179549953Y-97260859D01*
X179419432Y-97447264D01*
X179323261Y-97653502D01*
X179264364Y-97873310D01*
X179244531Y-98100000D01*
X177364103Y-98100000D01*
X177405636Y-97945000D01*
X175949000Y-97945000D01*
X175887000Y-97928387D01*
X175841613Y-97883000D01*
X175825000Y-97821000D01*
X175825000Y-96364364D01*
X176325000Y-96364364D01*
X176325000Y-97445000D01*
X177405636Y-97445000D01*
X177405635Y-97444999D01*
X177348430Y-97231507D01*
X177248599Y-97017421D01*
X177113109Y-96823921D01*
X176946081Y-96656893D01*
X176752576Y-96521399D01*
X176538492Y-96421569D01*
X176325000Y-96364364D01*
X175825000Y-96364364D01*
X175824999Y-96364364D01*
X175611507Y-96421569D01*
X175397421Y-96521400D01*
X175203921Y-96656890D01*
X175036890Y-96823921D01*
X174901401Y-97017419D01*
X174807705Y-97218349D01*
X174762617Y-97270094D01*
X174696913Y-97289933D01*
X174630722Y-97271786D01*
X174584324Y-97221216D01*
X174517366Y-97086745D01*
X174517365Y-97086744D01*
X174517365Y-97086743D01*
X174388873Y-96916594D01*
X174344769Y-96876388D01*
X174231302Y-96772948D01*
X174231301Y-96772947D01*
X174050017Y-96660701D01*
X173851198Y-96583679D01*
X173641610Y-96544500D01*
X173428390Y-96544500D01*
X173288664Y-96570619D01*
X173218801Y-96583679D01*
X173019982Y-96660701D01*
X172838698Y-96772947D01*
X172681126Y-96916594D01*
X172552631Y-97086747D01*
X172457595Y-97277609D01*
X172399243Y-97482689D01*
X172379571Y-97695000D01*
X172399243Y-97907310D01*
X172457595Y-98112390D01*
X172552631Y-98303252D01*
X172681126Y-98473405D01*
X172681128Y-98473407D01*
X172838698Y-98617052D01*
X173019981Y-98729298D01*
X173218802Y-98806321D01*
X173415613Y-98843111D01*
X173476365Y-98873363D01*
X173512093Y-98931066D01*
X173512093Y-98998934D01*
X173476365Y-99056637D01*
X173415613Y-99086888D01*
X173285475Y-99111215D01*
X173218801Y-99123679D01*
X173019982Y-99200701D01*
X172838698Y-99312947D01*
X172681126Y-99456594D01*
X172552631Y-99626747D01*
X172457595Y-99817609D01*
X172403948Y-100006152D01*
X172371344Y-100060906D01*
X172315852Y-100092236D01*
X172252127Y-100091867D01*
X172197001Y-100059898D01*
X171940916Y-99803813D01*
X171911379Y-99756580D01*
X171905501Y-99701183D01*
X171905645Y-99700000D01*
X171885140Y-99531128D01*
X171824818Y-99372070D01*
X171728183Y-99232071D01*
X171600852Y-99119266D01*
X171576635Y-99106556D01*
X171450224Y-99040209D01*
X171325551Y-99009481D01*
X171285056Y-98999500D01*
X171114944Y-98999500D01*
X171082284Y-99007549D01*
X170949775Y-99040209D01*
X170799149Y-99119265D01*
X170671815Y-99232072D01*
X170575182Y-99372069D01*
X170514860Y-99531127D01*
X170494354Y-99700000D01*
X166000424Y-99700000D01*
X165965138Y-99678152D01*
X165774957Y-99604476D01*
X165708129Y-99591984D01*
X165574476Y-99567000D01*
X165370524Y-99567000D01*
X165270284Y-99585737D01*
X165170042Y-99604476D01*
X164979861Y-99678152D01*
X164806458Y-99785518D01*
X164655736Y-99922919D01*
X164532824Y-100085681D01*
X164441918Y-100268248D01*
X164386102Y-100464416D01*
X164367285Y-100667500D01*
X151337715Y-100667500D01*
X151318897Y-100464417D01*
X151303396Y-100409939D01*
X151289128Y-100359790D01*
X151263082Y-100268250D01*
X151233972Y-100209788D01*
X151172175Y-100085681D01*
X151049263Y-99922919D01*
X150898541Y-99785518D01*
X150725138Y-99678152D01*
X150534957Y-99604476D01*
X150468129Y-99591984D01*
X150334476Y-99567000D01*
X150130524Y-99567000D01*
X150030284Y-99585737D01*
X149930042Y-99604476D01*
X149739861Y-99678152D01*
X149566458Y-99785518D01*
X149415736Y-99922919D01*
X149292824Y-100085681D01*
X149201918Y-100268248D01*
X149146102Y-100464416D01*
X149127285Y-100667500D01*
X146750000Y-100667500D01*
X146750000Y-98127499D01*
X149127285Y-98127499D01*
X149146102Y-98330583D01*
X149201918Y-98526751D01*
X149292824Y-98709318D01*
X149415736Y-98872080D01*
X149566458Y-99009481D01*
X149739861Y-99116847D01*
X149739863Y-99116848D01*
X149930044Y-99190524D01*
X150130524Y-99228000D01*
X150334474Y-99228000D01*
X150334476Y-99228000D01*
X150534956Y-99190524D01*
X150725137Y-99116848D01*
X150898541Y-99009481D01*
X150951211Y-98961466D01*
X151049263Y-98872080D01*
X151066315Y-98849500D01*
X151172173Y-98709321D01*
X151172173Y-98709319D01*
X151172175Y-98709318D01*
X151235580Y-98581981D01*
X151263082Y-98526750D01*
X151318897Y-98330583D01*
X151337715Y-98127500D01*
X151337715Y-98127499D01*
X164367285Y-98127499D01*
X164386102Y-98330583D01*
X164441918Y-98526751D01*
X164532824Y-98709318D01*
X164655736Y-98872080D01*
X164806458Y-99009481D01*
X164979861Y-99116847D01*
X164979863Y-99116848D01*
X165170044Y-99190524D01*
X165370524Y-99228000D01*
X165574474Y-99228000D01*
X165574476Y-99228000D01*
X165774956Y-99190524D01*
X165965137Y-99116848D01*
X166138541Y-99009481D01*
X166191211Y-98961466D01*
X166289263Y-98872080D01*
X166306315Y-98849500D01*
X166412173Y-98709321D01*
X166412173Y-98709319D01*
X166412175Y-98709318D01*
X166475580Y-98581981D01*
X166503082Y-98526750D01*
X166558897Y-98330583D01*
X166577715Y-98127500D01*
X166558897Y-97924417D01*
X166503082Y-97728250D01*
X166489015Y-97699999D01*
X168252285Y-97699999D01*
X168271102Y-97903083D01*
X168326918Y-98099251D01*
X168417824Y-98281818D01*
X168540736Y-98444580D01*
X168691458Y-98581981D01*
X168864861Y-98689347D01*
X168864863Y-98689348D01*
X169055044Y-98763024D01*
X169255524Y-98800500D01*
X169459474Y-98800500D01*
X169459476Y-98800500D01*
X169659956Y-98763024D01*
X169850137Y-98689348D01*
X170023541Y-98581981D01*
X170023541Y-98581980D01*
X170174263Y-98444580D01*
X170247399Y-98347732D01*
X170297173Y-98281821D01*
X170297173Y-98281819D01*
X170297175Y-98281818D01*
X170374015Y-98127500D01*
X170388082Y-98099250D01*
X170443897Y-97903083D01*
X170462715Y-97700000D01*
X170443897Y-97496917D01*
X170388082Y-97300750D01*
X170368219Y-97260859D01*
X170297175Y-97118181D01*
X170174263Y-96955419D01*
X170023541Y-96818018D01*
X169850138Y-96710652D01*
X169659957Y-96636976D01*
X169593129Y-96624484D01*
X169459476Y-96599500D01*
X169255524Y-96599500D01*
X169155283Y-96618238D01*
X169055042Y-96636976D01*
X168864861Y-96710652D01*
X168691458Y-96818018D01*
X168540736Y-96955419D01*
X168417824Y-97118181D01*
X168326918Y-97300748D01*
X168271102Y-97496916D01*
X168252285Y-97699999D01*
X166489015Y-97699999D01*
X166486526Y-97695000D01*
X166412175Y-97545681D01*
X166289263Y-97382919D01*
X166138541Y-97245518D01*
X165965138Y-97138152D01*
X165774957Y-97064476D01*
X165708129Y-97051984D01*
X165574476Y-97027000D01*
X165370524Y-97027000D01*
X165270284Y-97045737D01*
X165170042Y-97064476D01*
X164979861Y-97138152D01*
X164806458Y-97245518D01*
X164655736Y-97382919D01*
X164532824Y-97545681D01*
X164441918Y-97728248D01*
X164386102Y-97924416D01*
X164367285Y-98127499D01*
X151337715Y-98127499D01*
X151318897Y-97924417D01*
X151263082Y-97728250D01*
X151246526Y-97695000D01*
X151172175Y-97545681D01*
X151049263Y-97382919D01*
X150898541Y-97245518D01*
X150725138Y-97138152D01*
X150534957Y-97064476D01*
X150468129Y-97051984D01*
X150334476Y-97027000D01*
X150130524Y-97027000D01*
X150030284Y-97045737D01*
X149930042Y-97064476D01*
X149739861Y-97138152D01*
X149566458Y-97245518D01*
X149415736Y-97382919D01*
X149292824Y-97545681D01*
X149201918Y-97728248D01*
X149146102Y-97924416D01*
X149127285Y-98127499D01*
X146750000Y-98127499D01*
X146750000Y-95379026D01*
X147174526Y-95379026D01*
X147247515Y-95430133D01*
X147453673Y-95526266D01*
X147673397Y-95585141D01*
X147900000Y-95604966D01*
X148126602Y-95585141D01*
X148346326Y-95526266D01*
X148552480Y-95430134D01*
X148625472Y-95379025D01*
X147900001Y-94653553D01*
X147900000Y-94653553D01*
X147174526Y-95379025D01*
X147174526Y-95379026D01*
X146750000Y-95379026D01*
X146750000Y-95147808D01*
X146759439Y-95100355D01*
X146786319Y-95060127D01*
X147546446Y-94300001D01*
X147546446Y-94300000D01*
X146786319Y-93539872D01*
X146759439Y-93499644D01*
X146750000Y-93452191D01*
X146750000Y-93220973D01*
X147174526Y-93220973D01*
X148979025Y-95025472D01*
X149030134Y-94952480D01*
X149126266Y-94746326D01*
X149185141Y-94526602D01*
X149204966Y-94300000D01*
X149192263Y-94154804D01*
X149205802Y-94086739D01*
X149253791Y-94036609D01*
X149321200Y-94020114D01*
X149386915Y-94042421D01*
X149580019Y-94177634D01*
X149786173Y-94273766D01*
X149887071Y-94300802D01*
X149940748Y-94331026D01*
X149973257Y-94383350D01*
X149976576Y-94444862D01*
X149949885Y-94500380D01*
X149899771Y-94536203D01*
X149848576Y-94556036D01*
X149739859Y-94598153D01*
X149566458Y-94705518D01*
X149415736Y-94842919D01*
X149292824Y-95005681D01*
X149201918Y-95188248D01*
X149146102Y-95384416D01*
X149127285Y-95587499D01*
X149146102Y-95790583D01*
X149201918Y-95986751D01*
X149292824Y-96169318D01*
X149415736Y-96332080D01*
X149566458Y-96469481D01*
X149650311Y-96521400D01*
X149739863Y-96576848D01*
X149930044Y-96650524D01*
X150130524Y-96688000D01*
X150334474Y-96688000D01*
X150334476Y-96688000D01*
X150534956Y-96650524D01*
X150725137Y-96576848D01*
X150898541Y-96469481D01*
X151049264Y-96332079D01*
X151172173Y-96169321D01*
X151172173Y-96169319D01*
X151172175Y-96169318D01*
X151217813Y-96077661D01*
X151263082Y-95986750D01*
X151318897Y-95790583D01*
X151337715Y-95587500D01*
X151337715Y-95587499D01*
X164367285Y-95587499D01*
X164386102Y-95790583D01*
X164441918Y-95986751D01*
X164532824Y-96169318D01*
X164655736Y-96332080D01*
X164806458Y-96469481D01*
X164890311Y-96521400D01*
X164979863Y-96576848D01*
X165170044Y-96650524D01*
X165370524Y-96688000D01*
X165574474Y-96688000D01*
X165574476Y-96688000D01*
X165774956Y-96650524D01*
X165965137Y-96576848D01*
X166138541Y-96469481D01*
X166289264Y-96332079D01*
X166412173Y-96169321D01*
X166412173Y-96169319D01*
X166412175Y-96169318D01*
X166457813Y-96077661D01*
X166503082Y-95986750D01*
X166558897Y-95790583D01*
X166577715Y-95587500D01*
X166558897Y-95384417D01*
X166503082Y-95188250D01*
X166483974Y-95149876D01*
X166412175Y-95005681D01*
X166289263Y-94842919D01*
X166138541Y-94705518D01*
X165965138Y-94598152D01*
X165774957Y-94524476D01*
X165708129Y-94511983D01*
X165574476Y-94487000D01*
X165370524Y-94487000D01*
X165298947Y-94500380D01*
X165170042Y-94524476D01*
X164979861Y-94598152D01*
X164806458Y-94705518D01*
X164655736Y-94842919D01*
X164532824Y-95005681D01*
X164441918Y-95188248D01*
X164386102Y-95384416D01*
X164367285Y-95587499D01*
X151337715Y-95587499D01*
X151318897Y-95384417D01*
X151263082Y-95188250D01*
X151243974Y-95149876D01*
X151172175Y-95005681D01*
X151049263Y-94842919D01*
X150898541Y-94705518D01*
X150725140Y-94598153D01*
X150673978Y-94578333D01*
X150565226Y-94536202D01*
X150515115Y-94500380D01*
X150488423Y-94444862D01*
X150491742Y-94383350D01*
X150524251Y-94331026D01*
X150577929Y-94300802D01*
X150678825Y-94273766D01*
X150884980Y-94177634D01*
X151071319Y-94047158D01*
X151232158Y-93886319D01*
X151362634Y-93699980D01*
X151458766Y-93493826D01*
X151511372Y-93297500D01*
X148953627Y-93297500D01*
X148945204Y-93308477D01*
X148889238Y-93349511D01*
X148819990Y-93354050D01*
X148759148Y-93320670D01*
X148738819Y-93300341D01*
X148666923Y-93249999D01*
X155594721Y-93249999D01*
X155613763Y-93406818D01*
X155669780Y-93554523D01*
X155759515Y-93684528D01*
X155759516Y-93684529D01*
X155759517Y-93684530D01*
X155877760Y-93789283D01*
X156017635Y-93862696D01*
X156171015Y-93900500D01*
X156328985Y-93900500D01*
X156482365Y-93862696D01*
X156622240Y-93789283D01*
X156666582Y-93750000D01*
X156687257Y-93731684D01*
X156725513Y-93708558D01*
X156769483Y-93700500D01*
X159480517Y-93700500D01*
X159524487Y-93708558D01*
X159562743Y-93731684D01*
X159583418Y-93750000D01*
X159627760Y-93789283D01*
X159767635Y-93862696D01*
X159921015Y-93900500D01*
X160078985Y-93900500D01*
X160232365Y-93862696D01*
X160372240Y-93789283D01*
X160490483Y-93684530D01*
X160580220Y-93554523D01*
X160636237Y-93406818D01*
X160655278Y-93250000D01*
X160636237Y-93093182D01*
X160580220Y-92945477D01*
X160510463Y-92844416D01*
X160490484Y-92815471D01*
X160470199Y-92797500D01*
X160372240Y-92710717D01*
X160253221Y-92648250D01*
X160232364Y-92637303D01*
X160078985Y-92599500D01*
X159921015Y-92599500D01*
X159767635Y-92637303D01*
X159627758Y-92710718D01*
X159562743Y-92768316D01*
X159524487Y-92791442D01*
X159480517Y-92799500D01*
X156769483Y-92799500D01*
X156725513Y-92791442D01*
X156687257Y-92768316D01*
X156622241Y-92710718D01*
X156622240Y-92710717D01*
X156503217Y-92648248D01*
X156482364Y-92637303D01*
X156328985Y-92599500D01*
X156171015Y-92599500D01*
X156017635Y-92637303D01*
X155877761Y-92710716D01*
X155759515Y-92815471D01*
X155669780Y-92945476D01*
X155613763Y-93093181D01*
X155594721Y-93249999D01*
X148666923Y-93249999D01*
X148552480Y-93169865D01*
X148346326Y-93073733D01*
X148126602Y-93014858D01*
X147899999Y-92995033D01*
X147673397Y-93014858D01*
X147453672Y-93073733D01*
X147247516Y-93169865D01*
X147174526Y-93220973D01*
X146750000Y-93220973D01*
X146750000Y-90750000D01*
X145108404Y-90750000D01*
X145049320Y-90735019D01*
X145004512Y-90693695D01*
X144984809Y-90636013D01*
X144994970Y-90575913D01*
X144997585Y-90569991D01*
X145000500Y-90544865D01*
X145000500Y-90144867D01*
X146799500Y-90144867D01*
X146802414Y-90169988D01*
X146802414Y-90169990D01*
X146802415Y-90169991D01*
X146841054Y-90257500D01*
X146847795Y-90272767D01*
X146927232Y-90352204D01*
X146927233Y-90352204D01*
X146927235Y-90352206D01*
X147030009Y-90397585D01*
X147055135Y-90400500D01*
X148744864Y-90400499D01*
X148744867Y-90400499D01*
X148757427Y-90399042D01*
X148769991Y-90397585D01*
X148872765Y-90352206D01*
X148926299Y-90298671D01*
X148977846Y-90267735D01*
X149037888Y-90264681D01*
X149092310Y-90290228D01*
X149128319Y-90338372D01*
X149137450Y-90397794D01*
X149127285Y-90507499D01*
X149146102Y-90710583D01*
X149201918Y-90906751D01*
X149292824Y-91089318D01*
X149415736Y-91252080D01*
X149566458Y-91389481D01*
X149739861Y-91496847D01*
X149739863Y-91496848D01*
X149899772Y-91558796D01*
X149949884Y-91594618D01*
X149976576Y-91650136D01*
X149973257Y-91711648D01*
X149940748Y-91763972D01*
X149887072Y-91794196D01*
X149786177Y-91821231D01*
X149580019Y-91917365D01*
X149393680Y-92047841D01*
X149232841Y-92208680D01*
X149102365Y-92395019D01*
X149006233Y-92601173D01*
X148953628Y-92797499D01*
X148953628Y-92797500D01*
X151511372Y-92797500D01*
X151511371Y-92797499D01*
X151458766Y-92601173D01*
X151362634Y-92395019D01*
X151232158Y-92208680D01*
X151071319Y-92047841D01*
X150884980Y-91917365D01*
X150678826Y-91821233D01*
X150577928Y-91794197D01*
X150524251Y-91763972D01*
X150491742Y-91711648D01*
X150488423Y-91650136D01*
X150515115Y-91594618D01*
X150565225Y-91558797D01*
X150725137Y-91496848D01*
X150898541Y-91389481D01*
X151049264Y-91252079D01*
X151172173Y-91089321D01*
X151172173Y-91089319D01*
X151172175Y-91089318D01*
X151219962Y-90993348D01*
X151263082Y-90906750D01*
X151305548Y-90757500D01*
X164193628Y-90757500D01*
X164246233Y-90953826D01*
X164342365Y-91159980D01*
X164472841Y-91346319D01*
X164633680Y-91507158D01*
X164820019Y-91637634D01*
X165026173Y-91733766D01*
X165127071Y-91760802D01*
X165180748Y-91791026D01*
X165213257Y-91843350D01*
X165216576Y-91904862D01*
X165189885Y-91960380D01*
X165139771Y-91996203D01*
X165088576Y-92016036D01*
X164979859Y-92058153D01*
X164806458Y-92165518D01*
X164655736Y-92302919D01*
X164532824Y-92465681D01*
X164441918Y-92648248D01*
X164386102Y-92844416D01*
X164367285Y-93047500D01*
X164386102Y-93250583D01*
X164441918Y-93446751D01*
X164532824Y-93629318D01*
X164655736Y-93792080D01*
X164806458Y-93929481D01*
X164979477Y-94036609D01*
X164979863Y-94036848D01*
X165170044Y-94110524D01*
X165370524Y-94148000D01*
X165574474Y-94148000D01*
X165574476Y-94148000D01*
X165774956Y-94110524D01*
X165965137Y-94036848D01*
X166138541Y-93929481D01*
X166289264Y-93792079D01*
X166412173Y-93629321D01*
X166412173Y-93629319D01*
X166412175Y-93629318D01*
X166479641Y-93493826D01*
X166503082Y-93446750D01*
X166558897Y-93250583D01*
X166577715Y-93047500D01*
X166560295Y-92859500D01*
X166558897Y-92844416D01*
X166520856Y-92710718D01*
X166503082Y-92648250D01*
X166479080Y-92600047D01*
X166412175Y-92465681D01*
X166289263Y-92302919D01*
X166138541Y-92165518D01*
X165965140Y-92058153D01*
X165933055Y-92045723D01*
X165805226Y-91996202D01*
X165755115Y-91960380D01*
X165728423Y-91904862D01*
X165731742Y-91843350D01*
X165764251Y-91791026D01*
X165817929Y-91760802D01*
X165918825Y-91733766D01*
X166124980Y-91637634D01*
X166311319Y-91507158D01*
X166472158Y-91346319D01*
X166595619Y-91169999D01*
X171274785Y-91169999D01*
X171293602Y-91373083D01*
X171349418Y-91569251D01*
X171440324Y-91751818D01*
X171563236Y-91914580D01*
X171713958Y-92051981D01*
X171868357Y-92147580D01*
X171887363Y-92159348D01*
X172077544Y-92233024D01*
X172278024Y-92270500D01*
X172481974Y-92270500D01*
X172481976Y-92270500D01*
X172682456Y-92233024D01*
X172872637Y-92159348D01*
X173046041Y-92051981D01*
X173052058Y-92046496D01*
X173196763Y-91914580D01*
X173247244Y-91847732D01*
X173319673Y-91751821D01*
X173319673Y-91751819D01*
X173319675Y-91751818D01*
X173397950Y-91594618D01*
X173410582Y-91569250D01*
X173466397Y-91373083D01*
X173485215Y-91170000D01*
X173466397Y-90966917D01*
X173410582Y-90770750D01*
X173379648Y-90708625D01*
X173317388Y-90583589D01*
X173310296Y-90545950D01*
X173307765Y-90545570D01*
X173257955Y-90506451D01*
X173196763Y-90425419D01*
X173046041Y-90288018D01*
X172872638Y-90180652D01*
X172811114Y-90156818D01*
X172687327Y-90108863D01*
X172637647Y-90073552D01*
X172610793Y-90018832D01*
X172613257Y-89957928D01*
X172644443Y-89905556D01*
X172650000Y-89899999D01*
X172650000Y-88850000D01*
X171600000Y-88850000D01*
X171600000Y-89447824D01*
X171606402Y-89507375D01*
X171656647Y-89642089D01*
X171742811Y-89757188D01*
X171857910Y-89843352D01*
X172007218Y-89899041D01*
X172006218Y-89901720D01*
X172043607Y-89916374D01*
X172083871Y-89967798D01*
X172092420Y-90032547D01*
X172066884Y-90092660D01*
X172014346Y-90131458D01*
X171956785Y-90153757D01*
X171887360Y-90180653D01*
X171713958Y-90288018D01*
X171563236Y-90425419D01*
X171440324Y-90588181D01*
X171349418Y-90770748D01*
X171293602Y-90966916D01*
X171274785Y-91169999D01*
X166595619Y-91169999D01*
X166602634Y-91159980D01*
X166698766Y-90953826D01*
X166751372Y-90757500D01*
X164193628Y-90757500D01*
X151305548Y-90757500D01*
X151318897Y-90710583D01*
X151337715Y-90507500D01*
X151318897Y-90304417D01*
X151316084Y-90294532D01*
X151305547Y-90257500D01*
X164193628Y-90257500D01*
X166751372Y-90257500D01*
X166751371Y-90257499D01*
X166698766Y-90061173D01*
X166602634Y-89855019D01*
X166472158Y-89668680D01*
X166311319Y-89507841D01*
X166124980Y-89377365D01*
X165918826Y-89281233D01*
X165817928Y-89254197D01*
X165764251Y-89223972D01*
X165731742Y-89171648D01*
X165728423Y-89110136D01*
X165755115Y-89054618D01*
X165805225Y-89018797D01*
X165965137Y-88956848D01*
X166138541Y-88849481D01*
X166289264Y-88712079D01*
X166373902Y-88600000D01*
X166794785Y-88600000D01*
X166813602Y-88803083D01*
X166869418Y-88999251D01*
X166960324Y-89181818D01*
X167083236Y-89344580D01*
X167233958Y-89481981D01*
X167407361Y-89589347D01*
X167407363Y-89589348D01*
X167597544Y-89663024D01*
X167798024Y-89700500D01*
X168001974Y-89700500D01*
X168001976Y-89700500D01*
X168202456Y-89663024D01*
X168392637Y-89589348D01*
X168566041Y-89481981D01*
X168589367Y-89460717D01*
X168716763Y-89344580D01*
X168731193Y-89325472D01*
X168839673Y-89181821D01*
X168839673Y-89181819D01*
X168839675Y-89181818D01*
X168915010Y-89030523D01*
X168930582Y-88999250D01*
X168986397Y-88803083D01*
X169005215Y-88600000D01*
X168986397Y-88396917D01*
X168977471Y-88365547D01*
X168973047Y-88350000D01*
X171600000Y-88350000D01*
X172650000Y-88350000D01*
X172650000Y-87300000D01*
X173150000Y-87300000D01*
X173150000Y-89900000D01*
X173222725Y-89900000D01*
X173280351Y-89914203D01*
X173324775Y-89953560D01*
X173345821Y-90009053D01*
X173363763Y-90156818D01*
X173419780Y-90304523D01*
X173458959Y-90361284D01*
X173480433Y-90420868D01*
X173480419Y-90420946D01*
X173510614Y-90435502D01*
X173627760Y-90539283D01*
X173767635Y-90612696D01*
X173921015Y-90650500D01*
X173962034Y-90650500D01*
X174009487Y-90659939D01*
X174049715Y-90686819D01*
X177408630Y-94045733D01*
X177417896Y-94056101D01*
X177440121Y-94083970D01*
X177457732Y-94095977D01*
X177487364Y-94116180D01*
X177491145Y-94118863D01*
X177541973Y-94156376D01*
X177546568Y-94158695D01*
X177552325Y-94160470D01*
X177552327Y-94160472D01*
X177577351Y-94168190D01*
X177606980Y-94177330D01*
X177611371Y-94178774D01*
X177665301Y-94197646D01*
X177665303Y-94197646D01*
X177670990Y-94199636D01*
X177676071Y-94200500D01*
X177682098Y-94200500D01*
X177739246Y-94200500D01*
X177743883Y-94200586D01*
X177801010Y-94202725D01*
X177801010Y-94202724D01*
X177807026Y-94202950D01*
X177825638Y-94200500D01*
X179230517Y-94200500D01*
X179274487Y-94208558D01*
X179312743Y-94231684D01*
X179360245Y-94273766D01*
X179377760Y-94289283D01*
X179517635Y-94362696D01*
X179671015Y-94400500D01*
X179828985Y-94400500D01*
X179982365Y-94362696D01*
X180122240Y-94289283D01*
X180240483Y-94184530D01*
X180330220Y-94054523D01*
X180386237Y-93906818D01*
X180405278Y-93750000D01*
X180386237Y-93593182D01*
X180330220Y-93445477D01*
X180263980Y-93349511D01*
X180240484Y-93315471D01*
X180232589Y-93308477D01*
X180122240Y-93210717D01*
X180044404Y-93169865D01*
X179982364Y-93137303D01*
X179828985Y-93099500D01*
X179671015Y-93099500D01*
X179517635Y-93137303D01*
X179377758Y-93210718D01*
X179312743Y-93268316D01*
X179274487Y-93291442D01*
X179230517Y-93299500D01*
X177987966Y-93299500D01*
X177940513Y-93290061D01*
X177900285Y-93263181D01*
X177166319Y-92529215D01*
X177139439Y-92488987D01*
X177130000Y-92441534D01*
X177130000Y-91420000D01*
X177630000Y-91420000D01*
X177630000Y-92470000D01*
X178227824Y-92470000D01*
X178287375Y-92463597D01*
X178422089Y-92413352D01*
X178537188Y-92327188D01*
X178623352Y-92212089D01*
X178673597Y-92077375D01*
X178680000Y-92017824D01*
X178680000Y-91600000D01*
X179244531Y-91600000D01*
X179264364Y-91826689D01*
X179323261Y-92046497D01*
X179419432Y-92252735D01*
X179549953Y-92439140D01*
X179710859Y-92600046D01*
X179897264Y-92730567D01*
X179897265Y-92730567D01*
X179897266Y-92730568D01*
X180103504Y-92826739D01*
X180323308Y-92885635D01*
X180550000Y-92905468D01*
X180776692Y-92885635D01*
X180996496Y-92826739D01*
X181003206Y-92823610D01*
X184179942Y-92823610D01*
X184226766Y-92860055D01*
X184445393Y-92978368D01*
X184680506Y-93059083D01*
X184925707Y-93100000D01*
X185174293Y-93100000D01*
X185419493Y-93059083D01*
X185654606Y-92978368D01*
X185873233Y-92860053D01*
X185920056Y-92823609D01*
X185050000Y-91953553D01*
X184179942Y-92823609D01*
X184179942Y-92823610D01*
X181003206Y-92823610D01*
X181202734Y-92730568D01*
X181389139Y-92600047D01*
X181550047Y-92439139D01*
X181680568Y-92252734D01*
X181776739Y-92046496D01*
X181835635Y-91826692D01*
X181855468Y-91600000D01*
X181855468Y-91599999D01*
X183544858Y-91599999D01*
X183565386Y-91847732D01*
X183626413Y-92088721D01*
X183726268Y-92316370D01*
X183826563Y-92469882D01*
X183826564Y-92469882D01*
X184696447Y-91600001D01*
X185403553Y-91600001D01*
X186273434Y-92469882D01*
X186373730Y-92316369D01*
X186473586Y-92088721D01*
X186534613Y-91847732D01*
X186555141Y-91599999D01*
X186534613Y-91352267D01*
X186473586Y-91111278D01*
X186373730Y-90883630D01*
X186273434Y-90730116D01*
X185403553Y-91600000D01*
X185403553Y-91600001D01*
X184696447Y-91600001D01*
X184696447Y-91600000D01*
X183826564Y-90730116D01*
X183726266Y-90883634D01*
X183626413Y-91111278D01*
X183565386Y-91352267D01*
X183544858Y-91599999D01*
X181855468Y-91599999D01*
X181835635Y-91373308D01*
X181776739Y-91153504D01*
X181680568Y-90947266D01*
X181675627Y-90940210D01*
X181550046Y-90760859D01*
X181389140Y-90599953D01*
X181202735Y-90469432D01*
X181003207Y-90376390D01*
X184179942Y-90376390D01*
X185050000Y-91246447D01*
X185050001Y-91246447D01*
X185920057Y-90376390D01*
X185920056Y-90376388D01*
X185873235Y-90339947D01*
X185654606Y-90221631D01*
X185419493Y-90140916D01*
X185174293Y-90100000D01*
X184925707Y-90100000D01*
X184680506Y-90140916D01*
X184445393Y-90221631D01*
X184226764Y-90339946D01*
X184179942Y-90376388D01*
X184179942Y-90376390D01*
X181003207Y-90376390D01*
X180996497Y-90373261D01*
X180776689Y-90314364D01*
X180550000Y-90294531D01*
X180323310Y-90314364D01*
X180103502Y-90373261D01*
X179897264Y-90469432D01*
X179710859Y-90599953D01*
X179549953Y-90760859D01*
X179419432Y-90947264D01*
X179323261Y-91153502D01*
X179264364Y-91373310D01*
X179244531Y-91600000D01*
X178680000Y-91600000D01*
X178680000Y-91420000D01*
X177630000Y-91420000D01*
X177130000Y-91420000D01*
X176108465Y-91420000D01*
X176061012Y-91410561D01*
X176020784Y-91383681D01*
X174688047Y-90050944D01*
X174664241Y-90017546D01*
X174652632Y-89978210D01*
X174650943Y-89964298D01*
X174636237Y-89843182D01*
X174636236Y-89843180D01*
X174635783Y-89839446D01*
X174646851Y-89771341D01*
X174692605Y-89719695D01*
X174758875Y-89700499D01*
X176267449Y-89700499D01*
X176326876Y-89715667D01*
X176371764Y-89757459D01*
X176391133Y-89815653D01*
X176380244Y-89876010D01*
X176341760Y-89923766D01*
X176222811Y-90012810D01*
X176136647Y-90127910D01*
X176086402Y-90262624D01*
X176080000Y-90322176D01*
X176080000Y-90920000D01*
X177130000Y-90920000D01*
X177130000Y-89870000D01*
X177630000Y-89870000D01*
X177630000Y-90920000D01*
X178680000Y-90920000D01*
X178680000Y-90322176D01*
X178673597Y-90262624D01*
X178623352Y-90127910D01*
X178537188Y-90012811D01*
X178422089Y-89926647D01*
X178287375Y-89876402D01*
X178227824Y-89870000D01*
X177630000Y-89870000D01*
X177130000Y-89870000D01*
X176554334Y-89870000D01*
X176498039Y-89856485D01*
X176454016Y-89818885D01*
X176431861Y-89765398D01*
X176436403Y-89707682D01*
X176453964Y-89679026D01*
X179774526Y-89679026D01*
X179847515Y-89730133D01*
X180053673Y-89826266D01*
X180273397Y-89885141D01*
X180500000Y-89904966D01*
X180726602Y-89885141D01*
X180946326Y-89826266D01*
X181152480Y-89730134D01*
X181225472Y-89679025D01*
X180500001Y-88953553D01*
X180500000Y-88953553D01*
X179774526Y-89679025D01*
X179774526Y-89679026D01*
X176453964Y-89679026D01*
X176466653Y-89658319D01*
X176552204Y-89572767D01*
X176552204Y-89572766D01*
X176552206Y-89572765D01*
X176597585Y-89469991D01*
X176600500Y-89444865D01*
X176600499Y-88600000D01*
X179195033Y-88600000D01*
X179214858Y-88826602D01*
X179273733Y-89046326D01*
X179369866Y-89252484D01*
X179420972Y-89325471D01*
X179420973Y-89325472D01*
X180146445Y-88600001D01*
X180853553Y-88600001D01*
X181579025Y-89325472D01*
X181630134Y-89252480D01*
X181726266Y-89046326D01*
X181785141Y-88826602D01*
X181804966Y-88600000D01*
X181785141Y-88373397D01*
X181726266Y-88153673D01*
X181630133Y-87947515D01*
X181579025Y-87874526D01*
X180853553Y-88600000D01*
X180853553Y-88600001D01*
X180146445Y-88600001D01*
X180500000Y-88246447D01*
X181225472Y-87520974D01*
X181225471Y-87520972D01*
X181152484Y-87469866D01*
X180946326Y-87373733D01*
X180726602Y-87314858D01*
X180716889Y-87314008D01*
X180655443Y-87291250D01*
X180614174Y-87240354D01*
X180604606Y-87175532D01*
X180605278Y-87170000D01*
X180586237Y-87013182D01*
X180530220Y-86865477D01*
X180473857Y-86783821D01*
X180431930Y-86723078D01*
X180431968Y-86723051D01*
X180411425Y-86695133D01*
X180400500Y-86644240D01*
X180400500Y-84005760D01*
X180411425Y-83954867D01*
X180431968Y-83926948D01*
X180431930Y-83926922D01*
X180485024Y-83850001D01*
X180530220Y-83784523D01*
X180586237Y-83636818D01*
X180605278Y-83480000D01*
X180586237Y-83323182D01*
X180530220Y-83175477D01*
X180458515Y-83071594D01*
X180440484Y-83045471D01*
X180411373Y-83019681D01*
X180322240Y-82940717D01*
X180220845Y-82887500D01*
X180182364Y-82867303D01*
X180028985Y-82829500D01*
X179871015Y-82829500D01*
X179717635Y-82867303D01*
X179577761Y-82940716D01*
X179459515Y-83045471D01*
X179369780Y-83175476D01*
X179313763Y-83323181D01*
X179294721Y-83479999D01*
X179313763Y-83636818D01*
X179369780Y-83784523D01*
X179468070Y-83926922D01*
X179468031Y-83926948D01*
X179488575Y-83954867D01*
X179499500Y-84005760D01*
X179499500Y-86644240D01*
X179488575Y-86695133D01*
X179468031Y-86723051D01*
X179468070Y-86723078D01*
X179369780Y-86865476D01*
X179313763Y-87013181D01*
X179294721Y-87170000D01*
X179313763Y-87326818D01*
X179369780Y-87474523D01*
X179427337Y-87557910D01*
X179459517Y-87604530D01*
X179466427Y-87610652D01*
X179469621Y-87613481D01*
X179503433Y-87662585D01*
X179510421Y-87721793D01*
X179488968Y-87777419D01*
X179369866Y-87947515D01*
X179273733Y-88153673D01*
X179214858Y-88373397D01*
X179195033Y-88600000D01*
X176600499Y-88600000D01*
X176600499Y-87755136D01*
X176600093Y-87751637D01*
X176597585Y-87730011D01*
X176597585Y-87730009D01*
X176552206Y-87627235D01*
X176552204Y-87627233D01*
X176552204Y-87627232D01*
X176472767Y-87547795D01*
X176472765Y-87547794D01*
X176369991Y-87502415D01*
X176344865Y-87499500D01*
X176344863Y-87499500D01*
X174655132Y-87499500D01*
X174630011Y-87502414D01*
X174527232Y-87547795D01*
X174447793Y-87627234D01*
X174419882Y-87690446D01*
X174384537Y-87736682D01*
X174331990Y-87761700D01*
X174273817Y-87759989D01*
X174222832Y-87731925D01*
X174190266Y-87683692D01*
X174143352Y-87557911D01*
X174057188Y-87442811D01*
X173942089Y-87356647D01*
X173807375Y-87306402D01*
X173747824Y-87300000D01*
X173150000Y-87300000D01*
X172650000Y-87300000D01*
X172052176Y-87300000D01*
X171992624Y-87306402D01*
X171857910Y-87356647D01*
X171742811Y-87442811D01*
X171656647Y-87557910D01*
X171606402Y-87692624D01*
X171600000Y-87752176D01*
X171600000Y-88350000D01*
X168973047Y-88350000D01*
X168945284Y-88252422D01*
X168930582Y-88200750D01*
X168907141Y-88153673D01*
X168839675Y-88018181D01*
X168716763Y-87855419D01*
X168566041Y-87718018D01*
X168392638Y-87610652D01*
X168202457Y-87536976D01*
X168116852Y-87520974D01*
X168001976Y-87499500D01*
X167798024Y-87499500D01*
X167697783Y-87518238D01*
X167597542Y-87536976D01*
X167407361Y-87610652D01*
X167233958Y-87718018D01*
X167083236Y-87855419D01*
X166960324Y-88018181D01*
X166869418Y-88200748D01*
X166813602Y-88396916D01*
X166794785Y-88600000D01*
X166373902Y-88600000D01*
X166412173Y-88549321D01*
X166412173Y-88549319D01*
X166412175Y-88549318D01*
X166459962Y-88453348D01*
X166503082Y-88366750D01*
X166558897Y-88170583D01*
X166577715Y-87967500D01*
X166558897Y-87764417D01*
X166556256Y-87755136D01*
X166519865Y-87627235D01*
X166503082Y-87568250D01*
X166488075Y-87538111D01*
X166412175Y-87385681D01*
X166289263Y-87222919D01*
X166138541Y-87085518D01*
X165965138Y-86978152D01*
X165774957Y-86904476D01*
X165708129Y-86891984D01*
X165574476Y-86867000D01*
X165370524Y-86867000D01*
X165270283Y-86885738D01*
X165170042Y-86904476D01*
X164979861Y-86978152D01*
X164806458Y-87085518D01*
X164655736Y-87222919D01*
X164532824Y-87385681D01*
X164441918Y-87568248D01*
X164386102Y-87764416D01*
X164367285Y-87967500D01*
X164386102Y-88170583D01*
X164441918Y-88366751D01*
X164532824Y-88549318D01*
X164655736Y-88712080D01*
X164806458Y-88849481D01*
X164974541Y-88953553D01*
X164979863Y-88956848D01*
X165139772Y-89018796D01*
X165189884Y-89054618D01*
X165216576Y-89110136D01*
X165213257Y-89171648D01*
X165180748Y-89223972D01*
X165127072Y-89254196D01*
X165026177Y-89281231D01*
X164820019Y-89377365D01*
X164633680Y-89507841D01*
X164472841Y-89668680D01*
X164342365Y-89855019D01*
X164246233Y-90061173D01*
X164193628Y-90257499D01*
X164193628Y-90257500D01*
X151305547Y-90257500D01*
X151276901Y-90156818D01*
X151263082Y-90108250D01*
X151225387Y-90032547D01*
X151172175Y-89925681D01*
X151049263Y-89762919D01*
X150898541Y-89625518D01*
X150725138Y-89518152D01*
X150534957Y-89444476D01*
X150468129Y-89431984D01*
X150334476Y-89407000D01*
X150130524Y-89407000D01*
X150030283Y-89425738D01*
X149930042Y-89444476D01*
X149739861Y-89518152D01*
X149566458Y-89625518D01*
X149415736Y-89762919D01*
X149292826Y-89925679D01*
X149235499Y-90040807D01*
X149191713Y-90089738D01*
X149129081Y-90109450D01*
X149065163Y-90094417D01*
X149017884Y-90048853D01*
X149000499Y-89985538D01*
X149000499Y-88489461D01*
X149017884Y-88426144D01*
X149065164Y-88380580D01*
X149129081Y-88365547D01*
X149191714Y-88385260D01*
X149235498Y-88434189D01*
X149245929Y-88455136D01*
X149292827Y-88549322D01*
X149415736Y-88712080D01*
X149566458Y-88849481D01*
X149734541Y-88953553D01*
X149739863Y-88956848D01*
X149930044Y-89030524D01*
X150130524Y-89068000D01*
X150334474Y-89068000D01*
X150334476Y-89068000D01*
X150534956Y-89030524D01*
X150725137Y-88956848D01*
X150898541Y-88849481D01*
X151049264Y-88712079D01*
X151172173Y-88549321D01*
X151172173Y-88549319D01*
X151172175Y-88549318D01*
X151219962Y-88453348D01*
X151263082Y-88366750D01*
X151318897Y-88170583D01*
X151337715Y-87967500D01*
X151318897Y-87764417D01*
X151316256Y-87755136D01*
X151279865Y-87627235D01*
X151263082Y-87568250D01*
X151248075Y-87538111D01*
X151172175Y-87385681D01*
X151049263Y-87222919D01*
X150898541Y-87085518D01*
X150725138Y-86978152D01*
X150534957Y-86904476D01*
X150468129Y-86891984D01*
X150334476Y-86867000D01*
X150130524Y-86867000D01*
X150030283Y-86885738D01*
X149930042Y-86904476D01*
X149739861Y-86978152D01*
X149566458Y-87085518D01*
X149415736Y-87222919D01*
X149292824Y-87385681D01*
X149201918Y-87568248D01*
X149146102Y-87764416D01*
X149127285Y-87967500D01*
X149146103Y-88170585D01*
X149154845Y-88201311D01*
X149155740Y-88265861D01*
X149124066Y-88322113D01*
X149068410Y-88354820D01*
X149003854Y-88355118D01*
X148947898Y-88322926D01*
X148872767Y-88247795D01*
X148869714Y-88246447D01*
X148769991Y-88202415D01*
X148744865Y-88199500D01*
X148744863Y-88199500D01*
X147055132Y-88199500D01*
X147030011Y-88202414D01*
X146927232Y-88247795D01*
X146847795Y-88327232D01*
X146802415Y-88430009D01*
X146799500Y-88455136D01*
X146799500Y-90144867D01*
X145000500Y-90144867D01*
X145000499Y-88855136D01*
X144999903Y-88850000D01*
X144997585Y-88830011D01*
X144997585Y-88830009D01*
X144952206Y-88727235D01*
X144952204Y-88727233D01*
X144952204Y-88727232D01*
X144872767Y-88647795D01*
X144872765Y-88647794D01*
X144769991Y-88602415D01*
X144744865Y-88599500D01*
X144744863Y-88599500D01*
X143055132Y-88599500D01*
X143030011Y-88602414D01*
X142927232Y-88647795D01*
X142847795Y-88727232D01*
X142802415Y-88830009D01*
X142799500Y-88855136D01*
X142799500Y-90544867D01*
X142802414Y-90569989D01*
X142802415Y-90569991D01*
X142805029Y-90575912D01*
X142805030Y-90575913D01*
X142815191Y-90636014D01*
X142795487Y-90693695D01*
X142750680Y-90735019D01*
X142691596Y-90750000D01*
X141000000Y-90750000D01*
X141000000Y-103000000D01*
X136056447Y-103000000D01*
X136350057Y-102706390D01*
X136350056Y-102706388D01*
X136303235Y-102669947D01*
X136084606Y-102551631D01*
X135849493Y-102470916D01*
X135604293Y-102430000D01*
X135355707Y-102430000D01*
X135110506Y-102470916D01*
X134875393Y-102551631D01*
X134656764Y-102669946D01*
X134609942Y-102706388D01*
X134609942Y-102706390D01*
X130385755Y-102706390D01*
X130508183Y-102597929D01*
X130604818Y-102457930D01*
X130665140Y-102298872D01*
X130685645Y-102130000D01*
X130665140Y-101961128D01*
X130604818Y-101802070D01*
X130521816Y-101681821D01*
X130508184Y-101662072D01*
X130501015Y-101655721D01*
X130380852Y-101549266D01*
X130349281Y-101532696D01*
X130230224Y-101470209D01*
X130105765Y-101439533D01*
X130065056Y-101429500D01*
X130065055Y-101429500D01*
X129967966Y-101429500D01*
X129920513Y-101420061D01*
X129880285Y-101393181D01*
X128334563Y-99847459D01*
X128308166Y-99808381D01*
X128298269Y-99762273D01*
X128303646Y-99731167D01*
X128305138Y-99718875D01*
X128305140Y-99718872D01*
X128325645Y-99550000D01*
X128305140Y-99381128D01*
X128244818Y-99222070D01*
X128160591Y-99100047D01*
X128148184Y-99082072D01*
X128119474Y-99056637D01*
X128020852Y-98969266D01*
X128005991Y-98961466D01*
X127870224Y-98890209D01*
X127745764Y-98859533D01*
X127705056Y-98849500D01*
X127534944Y-98849500D01*
X127502284Y-98857549D01*
X127369775Y-98890209D01*
X127219149Y-98969265D01*
X127091815Y-99082072D01*
X126995182Y-99222069D01*
X126934860Y-99381127D01*
X126914354Y-99549999D01*
X106500500Y-99549999D01*
X106500500Y-95120000D01*
X125654354Y-95120000D01*
X125674860Y-95288872D01*
X125735182Y-95447930D01*
X125831815Y-95587927D01*
X125831816Y-95587928D01*
X125831817Y-95587929D01*
X125959148Y-95700734D01*
X126109775Y-95779790D01*
X126274944Y-95820500D01*
X126445055Y-95820500D01*
X126445056Y-95820500D01*
X126610225Y-95779790D01*
X126760852Y-95700734D01*
X126888183Y-95587929D01*
X126984818Y-95447930D01*
X127045140Y-95288872D01*
X127065645Y-95120000D01*
X127045140Y-94951128D01*
X126984818Y-94792070D01*
X126888183Y-94652071D01*
X126888182Y-94652069D01*
X126852273Y-94620257D01*
X126821424Y-94578333D01*
X126810500Y-94527442D01*
X126810500Y-94009999D01*
X132344571Y-94009999D01*
X132364243Y-94222310D01*
X132422595Y-94427390D01*
X132517631Y-94618252D01*
X132646126Y-94788405D01*
X132646128Y-94788407D01*
X132803698Y-94932052D01*
X132984981Y-95044298D01*
X133183802Y-95121321D01*
X133393390Y-95160500D01*
X133606608Y-95160500D01*
X133606610Y-95160500D01*
X133816198Y-95121321D01*
X134015019Y-95044298D01*
X134196302Y-94932052D01*
X134353872Y-94788407D01*
X134482366Y-94618255D01*
X134482366Y-94618253D01*
X134482368Y-94618252D01*
X134541060Y-94500380D01*
X134577405Y-94427389D01*
X134635756Y-94222310D01*
X134642028Y-94154613D01*
X134663200Y-94095977D01*
X134710228Y-94055054D01*
X134771227Y-94042186D01*
X134830777Y-94060627D01*
X134873829Y-94105715D01*
X134889500Y-94166054D01*
X134889500Y-94653102D01*
X134894811Y-94697332D01*
X134900123Y-94741567D01*
X134940092Y-94842919D01*
X134955639Y-94882342D01*
X134986787Y-94923416D01*
X135047077Y-95002922D01*
X135101640Y-95044298D01*
X135167658Y-95094361D01*
X135182858Y-95100355D01*
X135308432Y-95149876D01*
X135308434Y-95149876D01*
X135308436Y-95149877D01*
X135396898Y-95160500D01*
X136683099Y-95160500D01*
X136683102Y-95160500D01*
X136771564Y-95149877D01*
X136912342Y-95094361D01*
X137032922Y-95002922D01*
X137124361Y-94882342D01*
X137179877Y-94741564D01*
X137190500Y-94653102D01*
X137190500Y-93366898D01*
X137179877Y-93278436D01*
X137179876Y-93278434D01*
X137179876Y-93278432D01*
X137124361Y-93137659D01*
X137124361Y-93137658D01*
X137055992Y-93047500D01*
X137032922Y-93017077D01*
X136920618Y-92931915D01*
X136912342Y-92925639D01*
X136912340Y-92925638D01*
X136771567Y-92870123D01*
X136727332Y-92864811D01*
X136683102Y-92859500D01*
X136206245Y-92859500D01*
X136147581Y-92844746D01*
X136102878Y-92803993D01*
X136082774Y-92746941D01*
X136092053Y-92687167D01*
X136128506Y-92638894D01*
X136183458Y-92613611D01*
X136356198Y-92581321D01*
X136555019Y-92504298D01*
X136736302Y-92392052D01*
X136893872Y-92248407D01*
X137022366Y-92078255D01*
X137022366Y-92078253D01*
X137022368Y-92078252D01*
X137081060Y-91960380D01*
X137117405Y-91887389D01*
X137175756Y-91682310D01*
X137195429Y-91470000D01*
X137175756Y-91257690D01*
X137117405Y-91052611D01*
X137113662Y-91045094D01*
X137022368Y-90861747D01*
X136893873Y-90691594D01*
X136736301Y-90547947D01*
X136555017Y-90435701D01*
X136356198Y-90358679D01*
X136356197Y-90358678D01*
X136159385Y-90321888D01*
X136098634Y-90291637D01*
X136062906Y-90233934D01*
X136062906Y-90166066D01*
X136098634Y-90108363D01*
X136159385Y-90078111D01*
X136356198Y-90041321D01*
X136555019Y-89964298D01*
X136736302Y-89852052D01*
X136893872Y-89708407D01*
X137022366Y-89538255D01*
X137022366Y-89538253D01*
X137022368Y-89538252D01*
X137070080Y-89442430D01*
X137117405Y-89347389D01*
X137175756Y-89142310D01*
X137195429Y-88930000D01*
X137175756Y-88717690D01*
X137117405Y-88512611D01*
X137059797Y-88396917D01*
X137022368Y-88321747D01*
X136893873Y-88151594D01*
X136736301Y-88007947D01*
X136555017Y-87895701D01*
X136356198Y-87818679D01*
X136159385Y-87781888D01*
X136098634Y-87751637D01*
X136062906Y-87693934D01*
X136062906Y-87626066D01*
X136098634Y-87568363D01*
X136159385Y-87538111D01*
X136356198Y-87501321D01*
X136555019Y-87424298D01*
X136736302Y-87312052D01*
X136893872Y-87168407D01*
X137022366Y-86998255D01*
X137022366Y-86998253D01*
X137022368Y-86998252D01*
X137070080Y-86902430D01*
X137117405Y-86807389D01*
X137175756Y-86602310D01*
X137195429Y-86390000D01*
X137175756Y-86177690D01*
X137117405Y-85972611D01*
X137094328Y-85926266D01*
X137022368Y-85781747D01*
X137020313Y-85779026D01*
X143174526Y-85779026D01*
X143247515Y-85830133D01*
X143453673Y-85926266D01*
X143673397Y-85985141D01*
X143900000Y-86004966D01*
X144126602Y-85985141D01*
X144346326Y-85926266D01*
X144552480Y-85830134D01*
X144625472Y-85779025D01*
X144273946Y-85427499D01*
X149127285Y-85427499D01*
X149146102Y-85630583D01*
X149201918Y-85826751D01*
X149292824Y-86009318D01*
X149415736Y-86172080D01*
X149566458Y-86309481D01*
X149739861Y-86416847D01*
X149739863Y-86416848D01*
X149930044Y-86490524D01*
X150130524Y-86528000D01*
X150334474Y-86528000D01*
X150334476Y-86528000D01*
X150534956Y-86490524D01*
X150725137Y-86416848D01*
X150898541Y-86309481D01*
X151049264Y-86172079D01*
X151172173Y-86009321D01*
X151172173Y-86009319D01*
X151172175Y-86009318D01*
X151234172Y-85884810D01*
X151263082Y-85826750D01*
X151318897Y-85630583D01*
X151337715Y-85427500D01*
X151337715Y-85427499D01*
X164367285Y-85427499D01*
X164386102Y-85630583D01*
X164441918Y-85826751D01*
X164532824Y-86009318D01*
X164655736Y-86172080D01*
X164806458Y-86309481D01*
X164979861Y-86416847D01*
X164979863Y-86416848D01*
X165170044Y-86490524D01*
X165370524Y-86528000D01*
X165574474Y-86528000D01*
X165574476Y-86528000D01*
X165774956Y-86490524D01*
X165965137Y-86416848D01*
X166138541Y-86309481D01*
X166289264Y-86172079D01*
X166412173Y-86009321D01*
X166412173Y-86009319D01*
X166412175Y-86009318D01*
X166474172Y-85884810D01*
X166503082Y-85826750D01*
X166506383Y-85815148D01*
X167268402Y-85815148D01*
X167422660Y-85920318D01*
X167648167Y-86028917D01*
X167887348Y-86102695D01*
X168134851Y-86140000D01*
X168385149Y-86140000D01*
X168632651Y-86102695D01*
X168871832Y-86028917D01*
X169097337Y-85920320D01*
X169251596Y-85815148D01*
X168260000Y-84823553D01*
X167268402Y-85815148D01*
X166506383Y-85815148D01*
X166558897Y-85630583D01*
X166577715Y-85427500D01*
X166571312Y-85358404D01*
X166583110Y-85293065D01*
X166626928Y-85243179D01*
X166690201Y-85223050D01*
X166754788Y-85238450D01*
X166802170Y-85284965D01*
X166876310Y-85413380D01*
X166914800Y-85461645D01*
X167906447Y-84470001D01*
X167906447Y-84470000D01*
X168613553Y-84470000D01*
X169605198Y-85461646D01*
X169605199Y-85461645D01*
X169643688Y-85413382D01*
X169768836Y-85196618D01*
X169860281Y-84963621D01*
X169915978Y-84719597D01*
X169934683Y-84469999D01*
X169915978Y-84220402D01*
X169860281Y-83976378D01*
X169768836Y-83743381D01*
X169643689Y-83526619D01*
X169605198Y-83478353D01*
X168613553Y-84470000D01*
X167906447Y-84470000D01*
X167906447Y-84469999D01*
X166914800Y-83478353D01*
X166914799Y-83478353D01*
X166876313Y-83526615D01*
X166751163Y-83743381D01*
X166659718Y-83976378D01*
X166604021Y-84220402D01*
X166585316Y-84470000D01*
X166604134Y-84721103D01*
X166592717Y-84783088D01*
X166552303Y-84831452D01*
X166493334Y-84853702D01*
X166431044Y-84844089D01*
X166381527Y-84805097D01*
X166289263Y-84682919D01*
X166138541Y-84545518D01*
X165965138Y-84438152D01*
X165774957Y-84364476D01*
X165678503Y-84346446D01*
X165574476Y-84327000D01*
X165370524Y-84327000D01*
X165270283Y-84345738D01*
X165170042Y-84364476D01*
X164979861Y-84438152D01*
X164806458Y-84545518D01*
X164655736Y-84682919D01*
X164532824Y-84845681D01*
X164441918Y-85028248D01*
X164386102Y-85224416D01*
X164367285Y-85427499D01*
X151337715Y-85427499D01*
X151318897Y-85224417D01*
X151310987Y-85196618D01*
X151273324Y-85064247D01*
X151263082Y-85028250D01*
X151196281Y-84894094D01*
X151172175Y-84845681D01*
X151049263Y-84682919D01*
X150898541Y-84545518D01*
X150725138Y-84438152D01*
X150534957Y-84364476D01*
X150438503Y-84346446D01*
X150334476Y-84327000D01*
X150130524Y-84327000D01*
X150030283Y-84345738D01*
X149930042Y-84364476D01*
X149739861Y-84438152D01*
X149566458Y-84545518D01*
X149415736Y-84682919D01*
X149292824Y-84845681D01*
X149201918Y-85028248D01*
X149146102Y-85224416D01*
X149127285Y-85427499D01*
X144273946Y-85427499D01*
X143900001Y-85053553D01*
X143900000Y-85053553D01*
X143174526Y-85779025D01*
X143174526Y-85779026D01*
X137020313Y-85779026D01*
X136893873Y-85611594D01*
X136736301Y-85467947D01*
X136624802Y-85398909D01*
X136555019Y-85355702D01*
X136555017Y-85355701D01*
X136356198Y-85278679D01*
X136159385Y-85241888D01*
X136098634Y-85211637D01*
X136062906Y-85153934D01*
X136062906Y-85086066D01*
X136098634Y-85028363D01*
X136159385Y-84998111D01*
X136356198Y-84961321D01*
X136555019Y-84884298D01*
X136736302Y-84772052D01*
X136815340Y-84699999D01*
X142595033Y-84699999D01*
X142614858Y-84926602D01*
X142673733Y-85146326D01*
X142769866Y-85352484D01*
X142820972Y-85425471D01*
X142820973Y-85425472D01*
X143546446Y-84700000D01*
X143546446Y-84699999D01*
X144253553Y-84699999D01*
X144979025Y-85425472D01*
X145030134Y-85352480D01*
X145126266Y-85146326D01*
X145185141Y-84926602D01*
X145204966Y-84699999D01*
X145185141Y-84473397D01*
X145126266Y-84253673D01*
X145030133Y-84047515D01*
X144979025Y-83974526D01*
X144253553Y-84699998D01*
X144253553Y-84699999D01*
X143546446Y-84699999D01*
X143546446Y-84699998D01*
X142820973Y-83974527D01*
X142769865Y-84047516D01*
X142673733Y-84253672D01*
X142614858Y-84473397D01*
X142595033Y-84699999D01*
X136815340Y-84699999D01*
X136893872Y-84628407D01*
X137022366Y-84458255D01*
X137022366Y-84458253D01*
X137022368Y-84458252D01*
X137078040Y-84346446D01*
X137117405Y-84267389D01*
X137175756Y-84062310D01*
X137195429Y-83850000D01*
X137175756Y-83637690D01*
X137171000Y-83620973D01*
X143174526Y-83620973D01*
X143900000Y-84346446D01*
X143900001Y-84346446D01*
X144625472Y-83620974D01*
X144625471Y-83620972D01*
X144552484Y-83569866D01*
X144346326Y-83473733D01*
X144126602Y-83414858D01*
X143900000Y-83395033D01*
X143673397Y-83414858D01*
X143453672Y-83473733D01*
X143247516Y-83569865D01*
X143174527Y-83620973D01*
X143174526Y-83620973D01*
X137171000Y-83620973D01*
X137117405Y-83432611D01*
X137087896Y-83373348D01*
X137022368Y-83241747D01*
X136893873Y-83071594D01*
X136736301Y-82927947D01*
X136670977Y-82887500D01*
X149127285Y-82887500D01*
X149146102Y-83090583D01*
X149201918Y-83286751D01*
X149292824Y-83469318D01*
X149415736Y-83632080D01*
X149566458Y-83769481D01*
X149739861Y-83876847D01*
X149739863Y-83876848D01*
X149930044Y-83950524D01*
X150130524Y-83988000D01*
X150334474Y-83988000D01*
X150334476Y-83988000D01*
X150534956Y-83950524D01*
X150725137Y-83876848D01*
X150898541Y-83769481D01*
X151049264Y-83632079D01*
X151172173Y-83469321D01*
X151172173Y-83469319D01*
X151172175Y-83469318D01*
X151244941Y-83323182D01*
X151263082Y-83286750D01*
X151318897Y-83090583D01*
X151337715Y-82887500D01*
X164367285Y-82887500D01*
X164386102Y-83090583D01*
X164441918Y-83286751D01*
X164532824Y-83469318D01*
X164655736Y-83632080D01*
X164806458Y-83769481D01*
X164979861Y-83876847D01*
X164979863Y-83876848D01*
X165170044Y-83950524D01*
X165370524Y-83988000D01*
X165574474Y-83988000D01*
X165574476Y-83988000D01*
X165774956Y-83950524D01*
X165965137Y-83876848D01*
X166138541Y-83769481D01*
X166289264Y-83632079D01*
X166412173Y-83469321D01*
X166412173Y-83469319D01*
X166412175Y-83469318D01*
X166484941Y-83323182D01*
X166503082Y-83286750D01*
X166549147Y-83124849D01*
X167268402Y-83124849D01*
X168260000Y-84116447D01*
X168260001Y-84116447D01*
X169251596Y-83124850D01*
X169097340Y-83019681D01*
X168871832Y-82911082D01*
X168632651Y-82837304D01*
X168385149Y-82800000D01*
X168134851Y-82800000D01*
X167887348Y-82837304D01*
X167648167Y-82911083D01*
X167422660Y-83019680D01*
X167268402Y-83124849D01*
X166549147Y-83124849D01*
X166558897Y-83090583D01*
X166577715Y-82887500D01*
X166558897Y-82684417D01*
X166503082Y-82488250D01*
X166457492Y-82396692D01*
X166412175Y-82305681D01*
X166289263Y-82142919D01*
X166138541Y-82005518D01*
X165965138Y-81898152D01*
X165774957Y-81824476D01*
X165708129Y-81811983D01*
X165574476Y-81787000D01*
X165370524Y-81787000D01*
X165270284Y-81805737D01*
X165170042Y-81824476D01*
X164979861Y-81898152D01*
X164806458Y-82005518D01*
X164655736Y-82142919D01*
X164532824Y-82305681D01*
X164441918Y-82488248D01*
X164386102Y-82684416D01*
X164367285Y-82887500D01*
X151337715Y-82887500D01*
X151318897Y-82684417D01*
X151263082Y-82488250D01*
X151217492Y-82396692D01*
X151172175Y-82305681D01*
X151049263Y-82142919D01*
X150898541Y-82005518D01*
X150725138Y-81898152D01*
X150534957Y-81824476D01*
X150468129Y-81811983D01*
X150334476Y-81787000D01*
X150130524Y-81787000D01*
X150030284Y-81805737D01*
X149930042Y-81824476D01*
X149739861Y-81898152D01*
X149566458Y-82005518D01*
X149415736Y-82142919D01*
X149292824Y-82305681D01*
X149201918Y-82488248D01*
X149146102Y-82684416D01*
X149127285Y-82887500D01*
X136670977Y-82887500D01*
X136577303Y-82829500D01*
X136555019Y-82815702D01*
X136555017Y-82815701D01*
X136356198Y-82738679D01*
X136336902Y-82735072D01*
X136146610Y-82699500D01*
X135933390Y-82699500D01*
X135793664Y-82725619D01*
X135723801Y-82738679D01*
X135524982Y-82815701D01*
X135343698Y-82927947D01*
X135186126Y-83071594D01*
X135057631Y-83241747D01*
X134990676Y-83376214D01*
X134944276Y-83426786D01*
X134878085Y-83444933D01*
X134812382Y-83425094D01*
X134767294Y-83373348D01*
X134673599Y-83172420D01*
X134614926Y-83088626D01*
X134614925Y-83088625D01*
X133853553Y-83850000D01*
X133853553Y-83850001D01*
X134614925Y-84611373D01*
X134673600Y-84527576D01*
X134767294Y-84326651D01*
X134812381Y-84274905D01*
X134878085Y-84255066D01*
X134944276Y-84273213D01*
X134990676Y-84323784D01*
X135010938Y-84364476D01*
X135057634Y-84458256D01*
X135123533Y-84545519D01*
X135186128Y-84628407D01*
X135343698Y-84772052D01*
X135524981Y-84884298D01*
X135723802Y-84961321D01*
X135920613Y-84998111D01*
X135981365Y-85028363D01*
X136017093Y-85086066D01*
X136017093Y-85153934D01*
X135981365Y-85211637D01*
X135920613Y-85241888D01*
X135790475Y-85266215D01*
X135723801Y-85278679D01*
X135524982Y-85355701D01*
X135343698Y-85467947D01*
X135186126Y-85611594D01*
X135057631Y-85781747D01*
X134990676Y-85916214D01*
X134944276Y-85966786D01*
X134878085Y-85984933D01*
X134812382Y-85965094D01*
X134767294Y-85913348D01*
X134673599Y-85712420D01*
X134614926Y-85628626D01*
X134614925Y-85628625D01*
X133853553Y-86390000D01*
X133853553Y-86390001D01*
X134614925Y-87151373D01*
X134673600Y-87067576D01*
X134767294Y-86866651D01*
X134812381Y-86814905D01*
X134878085Y-86795066D01*
X134944276Y-86813213D01*
X134990676Y-86863784D01*
X135010938Y-86904476D01*
X135057634Y-86998256D01*
X135123533Y-87085519D01*
X135186128Y-87168407D01*
X135343698Y-87312052D01*
X135524981Y-87424298D01*
X135723802Y-87501321D01*
X135920613Y-87538111D01*
X135981365Y-87568363D01*
X136017093Y-87626066D01*
X136017093Y-87693934D01*
X135981365Y-87751637D01*
X135920613Y-87781888D01*
X135790475Y-87806215D01*
X135723801Y-87818679D01*
X135524982Y-87895701D01*
X135343698Y-88007947D01*
X135186126Y-88151594D01*
X135057631Y-88321747D01*
X134990676Y-88456214D01*
X134944276Y-88506786D01*
X134878085Y-88524933D01*
X134812382Y-88505094D01*
X134767294Y-88453348D01*
X134673599Y-88252420D01*
X134614926Y-88168626D01*
X134614925Y-88168625D01*
X133853553Y-88930000D01*
X133853553Y-88930001D01*
X134614925Y-89691373D01*
X134673600Y-89607576D01*
X134767294Y-89406651D01*
X134812381Y-89354905D01*
X134878085Y-89335066D01*
X134944276Y-89353213D01*
X134990676Y-89403784D01*
X135010938Y-89444476D01*
X135057634Y-89538256D01*
X135186126Y-89708405D01*
X135186128Y-89708407D01*
X135343698Y-89852052D01*
X135524981Y-89964298D01*
X135723802Y-90041321D01*
X135920613Y-90078111D01*
X135981365Y-90108363D01*
X136017093Y-90166066D01*
X136017093Y-90233934D01*
X135981365Y-90291637D01*
X135920613Y-90321888D01*
X135824009Y-90339947D01*
X135723801Y-90358679D01*
X135524982Y-90435701D01*
X135343698Y-90547947D01*
X135186126Y-90691594D01*
X135057631Y-90861747D01*
X134990676Y-90996214D01*
X134944276Y-91046786D01*
X134878085Y-91064933D01*
X134812382Y-91045094D01*
X134767294Y-90993348D01*
X134673599Y-90792420D01*
X134614926Y-90708626D01*
X134614925Y-90708625D01*
X133853553Y-91470000D01*
X133853553Y-91470001D01*
X134614925Y-92231373D01*
X134673600Y-92147576D01*
X134767294Y-91946651D01*
X134812381Y-91894905D01*
X134878085Y-91875066D01*
X134944276Y-91893213D01*
X134990676Y-91943784D01*
X134998940Y-91960380D01*
X135057634Y-92078256D01*
X135173264Y-92231373D01*
X135186128Y-92248407D01*
X135343698Y-92392052D01*
X135524981Y-92504298D01*
X135723802Y-92581321D01*
X135896541Y-92613611D01*
X135951494Y-92638894D01*
X135987947Y-92687167D01*
X135997226Y-92746941D01*
X135977122Y-92803993D01*
X135932419Y-92844746D01*
X135873755Y-92859500D01*
X135396898Y-92859500D01*
X135358985Y-92864052D01*
X135308432Y-92870123D01*
X135167659Y-92925638D01*
X135047077Y-93017077D01*
X134955638Y-93137659D01*
X134900123Y-93278432D01*
X134889500Y-93366901D01*
X134889500Y-93853946D01*
X134873829Y-93914285D01*
X134830777Y-93959373D01*
X134771227Y-93977814D01*
X134710228Y-93964946D01*
X134663200Y-93924023D01*
X134642029Y-93865387D01*
X134635756Y-93797689D01*
X134577404Y-93592609D01*
X134482368Y-93401747D01*
X134353873Y-93231594D01*
X134196301Y-93087947D01*
X134015014Y-92975699D01*
X133986038Y-92964474D01*
X133938767Y-92931915D01*
X133911223Y-92881556D01*
X133909309Y-92824189D01*
X133933433Y-92772105D01*
X133978427Y-92736466D01*
X134177576Y-92643600D01*
X134261373Y-92584925D01*
X133500000Y-91823553D01*
X132738625Y-92584925D01*
X132822420Y-92643599D01*
X133021572Y-92736466D01*
X133066566Y-92772105D01*
X133090690Y-92824188D01*
X133088776Y-92881555D01*
X133061232Y-92931914D01*
X133013962Y-92964474D01*
X132984984Y-92975700D01*
X132803698Y-93087947D01*
X132646126Y-93231594D01*
X132517631Y-93401747D01*
X132422595Y-93592609D01*
X132364243Y-93797689D01*
X132344571Y-94009999D01*
X126810500Y-94009999D01*
X126810500Y-92201417D01*
X126821424Y-92150526D01*
X126852273Y-92108602D01*
X126872274Y-92090882D01*
X126898183Y-92067929D01*
X126994818Y-91927930D01*
X127055140Y-91768872D01*
X127075645Y-91600000D01*
X127074991Y-91594618D01*
X127070642Y-91558795D01*
X127059860Y-91470000D01*
X132144842Y-91470000D01*
X132165430Y-91705318D01*
X132226569Y-91933492D01*
X132326400Y-92147580D01*
X132385073Y-92231373D01*
X133146447Y-91470001D01*
X133146447Y-91470000D01*
X132385072Y-90708625D01*
X132326399Y-90792422D01*
X132226569Y-91006507D01*
X132165430Y-91234681D01*
X132144842Y-91470000D01*
X127059860Y-91470000D01*
X127055140Y-91431128D01*
X126994818Y-91272070D01*
X126924363Y-91169999D01*
X126898184Y-91132072D01*
X126849928Y-91089321D01*
X126770852Y-91019266D01*
X126721470Y-90993348D01*
X126620224Y-90940209D01*
X126484475Y-90906751D01*
X126455056Y-90899500D01*
X126284944Y-90899500D01*
X126255529Y-90906750D01*
X126119775Y-90940209D01*
X125969149Y-91019265D01*
X125841815Y-91132072D01*
X125745182Y-91272069D01*
X125684860Y-91431127D01*
X125664354Y-91600000D01*
X125680597Y-91733766D01*
X125684860Y-91768872D01*
X125745182Y-91927930D01*
X125841817Y-92067929D01*
X125865286Y-92088721D01*
X125867726Y-92090882D01*
X125898575Y-92132806D01*
X125909500Y-92183698D01*
X125909500Y-94527442D01*
X125898576Y-94578333D01*
X125867727Y-94620257D01*
X125831817Y-94652069D01*
X125735182Y-94792069D01*
X125674860Y-94951127D01*
X125654354Y-95120000D01*
X106500500Y-95120000D01*
X106500500Y-90355072D01*
X132738625Y-90355072D01*
X133500000Y-91116447D01*
X133500001Y-91116447D01*
X134261373Y-90355073D01*
X134261373Y-90355072D01*
X134184969Y-90301574D01*
X134146103Y-90257256D01*
X134132092Y-90199999D01*
X134146103Y-90142742D01*
X134184969Y-90098424D01*
X134261373Y-90044925D01*
X133500000Y-89283553D01*
X132738625Y-90044925D01*
X132815031Y-90098425D01*
X132853897Y-90142744D01*
X132867907Y-90200001D01*
X132853896Y-90257258D01*
X132815029Y-90301576D01*
X132738625Y-90355072D01*
X106500500Y-90355072D01*
X106500500Y-88930000D01*
X132144842Y-88930000D01*
X132165430Y-89165318D01*
X132226569Y-89393492D01*
X132326400Y-89607580D01*
X132385073Y-89691373D01*
X133146447Y-88930001D01*
X133146447Y-88930000D01*
X132385072Y-88168625D01*
X132326399Y-88252422D01*
X132226569Y-88466507D01*
X132165430Y-88694681D01*
X132144842Y-88930000D01*
X106500500Y-88930000D01*
X106500500Y-87815072D01*
X132738625Y-87815072D01*
X133500000Y-88576447D01*
X133500001Y-88576447D01*
X134261373Y-87815073D01*
X134261373Y-87815072D01*
X134184969Y-87761574D01*
X134146103Y-87717256D01*
X134132092Y-87659999D01*
X134146103Y-87602742D01*
X134184969Y-87558424D01*
X134261373Y-87504925D01*
X133500000Y-86743553D01*
X132738625Y-87504925D01*
X132815031Y-87558425D01*
X132853897Y-87602744D01*
X132867907Y-87660001D01*
X132853896Y-87717258D01*
X132815029Y-87761576D01*
X132738625Y-87815072D01*
X106500500Y-87815072D01*
X106500500Y-85672500D01*
X112324571Y-85672500D01*
X112344243Y-85884810D01*
X112402595Y-86089890D01*
X112497631Y-86280752D01*
X112626126Y-86450905D01*
X112626128Y-86450907D01*
X112783698Y-86594552D01*
X112964981Y-86706798D01*
X113163802Y-86783821D01*
X113373390Y-86823000D01*
X113586608Y-86823000D01*
X113586610Y-86823000D01*
X113796198Y-86783821D01*
X113995019Y-86706798D01*
X114176302Y-86594552D01*
X114333872Y-86450907D01*
X114462366Y-86280755D01*
X114462366Y-86280753D01*
X114462368Y-86280752D01*
X114551028Y-86102695D01*
X114557405Y-86089889D01*
X114615756Y-85884810D01*
X114626529Y-85768547D01*
X114646633Y-85711496D01*
X114689410Y-85672499D01*
X114810589Y-85672499D01*
X114853367Y-85711496D01*
X114873471Y-85768548D01*
X114884243Y-85884810D01*
X114942595Y-86089890D01*
X115037631Y-86280752D01*
X115166126Y-86450905D01*
X115166128Y-86450907D01*
X115323698Y-86594552D01*
X115504981Y-86706798D01*
X115703802Y-86783821D01*
X115913390Y-86823000D01*
X116126608Y-86823000D01*
X116126610Y-86823000D01*
X116336198Y-86783821D01*
X116535019Y-86706798D01*
X116716302Y-86594552D01*
X116873872Y-86450907D01*
X117002366Y-86280755D01*
X117002366Y-86280753D01*
X117002368Y-86280752D01*
X117091028Y-86102695D01*
X117097405Y-86089889D01*
X117155756Y-85884810D01*
X117166529Y-85768547D01*
X117186633Y-85711496D01*
X117229410Y-85672499D01*
X117350589Y-85672499D01*
X117393367Y-85711496D01*
X117413471Y-85768548D01*
X117424243Y-85884810D01*
X117482595Y-86089890D01*
X117577631Y-86280752D01*
X117706126Y-86450905D01*
X117706128Y-86450907D01*
X117863698Y-86594552D01*
X118044981Y-86706798D01*
X118243802Y-86783821D01*
X118453390Y-86823000D01*
X118666608Y-86823000D01*
X118666610Y-86823000D01*
X118876198Y-86783821D01*
X119075019Y-86706798D01*
X119256302Y-86594552D01*
X119413872Y-86450907D01*
X119542366Y-86280755D01*
X119542366Y-86280753D01*
X119542368Y-86280752D01*
X119631028Y-86102695D01*
X119637405Y-86089889D01*
X119695756Y-85884810D01*
X119706529Y-85768547D01*
X119726633Y-85711496D01*
X119769410Y-85672499D01*
X119890589Y-85672499D01*
X119933367Y-85711496D01*
X119953471Y-85768548D01*
X119964243Y-85884810D01*
X120022595Y-86089890D01*
X120117631Y-86280752D01*
X120246126Y-86450905D01*
X120246128Y-86450907D01*
X120403698Y-86594552D01*
X120584981Y-86706798D01*
X120783802Y-86783821D01*
X120993390Y-86823000D01*
X121206608Y-86823000D01*
X121206610Y-86823000D01*
X121416198Y-86783821D01*
X121615019Y-86706798D01*
X121796302Y-86594552D01*
X121953872Y-86450907D01*
X122082366Y-86280755D01*
X122082366Y-86280753D01*
X122082368Y-86280752D01*
X122171028Y-86102695D01*
X122177405Y-86089889D01*
X122235756Y-85884810D01*
X122246529Y-85768547D01*
X122266633Y-85711496D01*
X122309410Y-85672499D01*
X122430589Y-85672499D01*
X122473367Y-85711496D01*
X122493471Y-85768548D01*
X122504243Y-85884810D01*
X122562595Y-86089890D01*
X122657631Y-86280752D01*
X122786126Y-86450905D01*
X122786128Y-86450907D01*
X122943698Y-86594552D01*
X123124981Y-86706798D01*
X123323802Y-86783821D01*
X123533390Y-86823000D01*
X123746608Y-86823000D01*
X123746610Y-86823000D01*
X123956198Y-86783821D01*
X124155019Y-86706798D01*
X124336302Y-86594552D01*
X124493872Y-86450907D01*
X124539868Y-86389999D01*
X132144842Y-86389999D01*
X132165430Y-86625318D01*
X132226569Y-86853492D01*
X132326400Y-87067580D01*
X132385073Y-87151373D01*
X133146447Y-86390001D01*
X133146447Y-86390000D01*
X132385072Y-85628625D01*
X132326399Y-85712422D01*
X132226569Y-85926507D01*
X132165430Y-86154681D01*
X132144842Y-86389999D01*
X124539868Y-86389999D01*
X124622366Y-86280755D01*
X124622366Y-86280753D01*
X124622368Y-86280752D01*
X124711028Y-86102695D01*
X124717405Y-86089889D01*
X124775756Y-85884810D01*
X124795429Y-85672500D01*
X124775756Y-85460190D01*
X124766454Y-85427499D01*
X124725899Y-85284965D01*
X124723084Y-85275072D01*
X132738625Y-85275072D01*
X133500000Y-86036447D01*
X133500001Y-86036447D01*
X134261373Y-85275073D01*
X134261373Y-85275072D01*
X134184969Y-85221574D01*
X134146103Y-85177256D01*
X134132092Y-85119999D01*
X134146103Y-85062742D01*
X134184969Y-85018424D01*
X134261373Y-84964925D01*
X133500000Y-84203553D01*
X132738625Y-84964925D01*
X132815031Y-85018425D01*
X132853897Y-85062744D01*
X132867907Y-85120001D01*
X132853896Y-85177258D01*
X132815029Y-85221576D01*
X132738625Y-85275072D01*
X124723084Y-85275072D01*
X124717405Y-85255111D01*
X124709109Y-85238450D01*
X124622368Y-85064247D01*
X124493873Y-84894094D01*
X124336301Y-84750447D01*
X124155017Y-84638201D01*
X123956198Y-84561179D01*
X123746610Y-84522000D01*
X123533390Y-84522000D01*
X123407575Y-84545519D01*
X123323801Y-84561179D01*
X123124982Y-84638201D01*
X122943698Y-84750447D01*
X122786126Y-84894094D01*
X122657631Y-85064247D01*
X122562595Y-85255109D01*
X122504243Y-85460189D01*
X122493471Y-85576451D01*
X122473367Y-85633503D01*
X122430589Y-85672499D01*
X122309410Y-85672499D01*
X122266633Y-85633503D01*
X122246529Y-85576451D01*
X122235756Y-85460189D01*
X122185899Y-85284965D01*
X122177405Y-85255111D01*
X122169109Y-85238450D01*
X122082368Y-85064247D01*
X121953873Y-84894094D01*
X121796301Y-84750447D01*
X121615017Y-84638201D01*
X121416198Y-84561179D01*
X121206610Y-84522000D01*
X120993390Y-84522000D01*
X120867575Y-84545519D01*
X120783801Y-84561179D01*
X120584982Y-84638201D01*
X120403698Y-84750447D01*
X120246126Y-84894094D01*
X120117631Y-85064247D01*
X120022595Y-85255109D01*
X119964243Y-85460189D01*
X119953471Y-85576451D01*
X119933367Y-85633503D01*
X119890589Y-85672499D01*
X119769410Y-85672499D01*
X119726633Y-85633503D01*
X119706529Y-85576451D01*
X119695756Y-85460189D01*
X119645899Y-85284965D01*
X119637405Y-85255111D01*
X119629109Y-85238450D01*
X119542368Y-85064247D01*
X119413873Y-84894094D01*
X119256301Y-84750447D01*
X119075017Y-84638201D01*
X118876198Y-84561179D01*
X118666610Y-84522000D01*
X118453390Y-84522000D01*
X118327575Y-84545519D01*
X118243801Y-84561179D01*
X118044982Y-84638201D01*
X117863698Y-84750447D01*
X117706126Y-84894094D01*
X117577631Y-85064247D01*
X117482595Y-85255109D01*
X117424243Y-85460189D01*
X117413471Y-85576451D01*
X117393367Y-85633503D01*
X117350589Y-85672499D01*
X117229410Y-85672499D01*
X117186633Y-85633503D01*
X117166529Y-85576451D01*
X117155756Y-85460189D01*
X117105899Y-85284965D01*
X117097405Y-85255111D01*
X117089109Y-85238450D01*
X117002368Y-85064247D01*
X116873873Y-84894094D01*
X116716301Y-84750447D01*
X116535017Y-84638201D01*
X116336198Y-84561179D01*
X116126610Y-84522000D01*
X115913390Y-84522000D01*
X115787575Y-84545519D01*
X115703801Y-84561179D01*
X115504982Y-84638201D01*
X115323698Y-84750447D01*
X115166126Y-84894094D01*
X115037631Y-85064247D01*
X114942595Y-85255109D01*
X114884243Y-85460189D01*
X114873471Y-85576451D01*
X114853367Y-85633503D01*
X114810589Y-85672499D01*
X114689410Y-85672499D01*
X114646633Y-85633503D01*
X114626529Y-85576451D01*
X114615756Y-85460189D01*
X114565899Y-85284965D01*
X114557405Y-85255111D01*
X114549109Y-85238450D01*
X114462368Y-85064247D01*
X114333873Y-84894094D01*
X114176301Y-84750447D01*
X113995017Y-84638201D01*
X113796198Y-84561179D01*
X113586610Y-84522000D01*
X113373390Y-84522000D01*
X113247575Y-84545519D01*
X113163801Y-84561179D01*
X112964982Y-84638201D01*
X112783698Y-84750447D01*
X112626126Y-84894094D01*
X112497631Y-85064247D01*
X112402595Y-85255109D01*
X112344243Y-85460189D01*
X112324571Y-85672500D01*
X106500500Y-85672500D01*
X106500500Y-83850000D01*
X132144842Y-83850000D01*
X132165430Y-84085318D01*
X132226569Y-84313492D01*
X132326400Y-84527580D01*
X132385073Y-84611373D01*
X133146447Y-83850001D01*
X133146447Y-83850000D01*
X132385072Y-83088625D01*
X132326399Y-83172422D01*
X132226569Y-83386507D01*
X132165430Y-83614681D01*
X132144842Y-83850000D01*
X106500500Y-83850000D01*
X106500500Y-82170000D01*
X111964531Y-82170000D01*
X111984364Y-82396689D01*
X112043261Y-82616497D01*
X112139432Y-82822735D01*
X112269953Y-83009140D01*
X112430859Y-83170046D01*
X112617264Y-83300567D01*
X112617265Y-83300567D01*
X112617266Y-83300568D01*
X112823504Y-83396739D01*
X113043308Y-83455635D01*
X113128261Y-83463067D01*
X113213214Y-83470500D01*
X113213216Y-83470500D01*
X114826784Y-83470500D01*
X114826786Y-83470500D01*
X114894747Y-83464553D01*
X114996692Y-83455635D01*
X115216496Y-83396739D01*
X115422734Y-83300568D01*
X115609139Y-83170047D01*
X115770047Y-83009139D01*
X115900568Y-82822734D01*
X115941446Y-82735072D01*
X132738625Y-82735072D01*
X133500000Y-83496447D01*
X133500001Y-83496447D01*
X134261373Y-82735073D01*
X134261373Y-82735072D01*
X134177580Y-82676400D01*
X133963492Y-82576569D01*
X133735318Y-82515430D01*
X133500000Y-82494842D01*
X133264681Y-82515430D01*
X133036507Y-82576569D01*
X132822422Y-82676399D01*
X132738625Y-82735072D01*
X115941446Y-82735072D01*
X115996739Y-82616496D01*
X116055635Y-82396692D01*
X116075468Y-82170000D01*
X116055635Y-81943308D01*
X115996739Y-81723504D01*
X115900568Y-81517266D01*
X115825827Y-81410524D01*
X115770046Y-81330859D01*
X115609140Y-81169953D01*
X115422735Y-81039432D01*
X115216497Y-80943261D01*
X114996689Y-80884364D01*
X114826786Y-80869500D01*
X114826784Y-80869500D01*
X113213216Y-80869500D01*
X113213214Y-80869500D01*
X113043310Y-80884364D01*
X112823502Y-80943261D01*
X112617264Y-81039432D01*
X112430859Y-81169953D01*
X112269953Y-81330859D01*
X112139432Y-81517264D01*
X112043261Y-81723502D01*
X111984364Y-81943310D01*
X111964531Y-82170000D01*
X106500500Y-82170000D01*
X106500500Y-80347500D01*
X149127285Y-80347500D01*
X149146102Y-80550583D01*
X149201918Y-80746751D01*
X149292824Y-80929318D01*
X149415736Y-81092080D01*
X149566458Y-81229481D01*
X149739861Y-81336847D01*
X149739863Y-81336848D01*
X149930044Y-81410524D01*
X150130524Y-81448000D01*
X150334474Y-81448000D01*
X150334476Y-81448000D01*
X150534956Y-81410524D01*
X150725137Y-81336848D01*
X150898541Y-81229481D01*
X151049264Y-81092079D01*
X151172173Y-80929321D01*
X151172173Y-80929319D01*
X151172175Y-80929318D01*
X151225981Y-80821260D01*
X151263082Y-80746750D01*
X151318897Y-80550583D01*
X151337715Y-80347500D01*
X164367285Y-80347500D01*
X164386102Y-80550583D01*
X164441918Y-80746751D01*
X164532824Y-80929318D01*
X164655736Y-81092080D01*
X164806458Y-81229481D01*
X164979861Y-81336847D01*
X164979863Y-81336848D01*
X165170044Y-81410524D01*
X165370524Y-81448000D01*
X165574474Y-81448000D01*
X165574476Y-81448000D01*
X165774956Y-81410524D01*
X165965137Y-81336848D01*
X166138541Y-81229481D01*
X166289264Y-81092079D01*
X166412173Y-80929321D01*
X166412173Y-80929319D01*
X166412175Y-80929318D01*
X166465981Y-80821260D01*
X166503082Y-80746750D01*
X166558897Y-80550583D01*
X166577715Y-80347500D01*
X166558897Y-80144417D01*
X166503082Y-79948250D01*
X166490113Y-79922204D01*
X166412175Y-79765681D01*
X166289263Y-79602919D01*
X166143458Y-79470000D01*
X179284459Y-79470000D01*
X179304583Y-79712860D01*
X179304583Y-79712862D01*
X179304584Y-79712866D01*
X179364192Y-79948250D01*
X179364410Y-79949110D01*
X179372514Y-79967585D01*
X179462301Y-80172279D01*
X179595592Y-80376295D01*
X179756035Y-80550583D01*
X179760647Y-80555593D01*
X179856800Y-80630431D01*
X179952956Y-80705273D01*
X180167282Y-80821260D01*
X180397776Y-80900389D01*
X180638151Y-80940500D01*
X180881849Y-80940500D01*
X181122224Y-80900389D01*
X181352718Y-80821260D01*
X181567044Y-80705273D01*
X181759356Y-80555590D01*
X181924408Y-80376295D01*
X182057699Y-80172279D01*
X182155591Y-79949107D01*
X182215416Y-79712866D01*
X182235540Y-79470000D01*
X182215416Y-79227134D01*
X182155591Y-78990893D01*
X182057699Y-78767721D01*
X181924408Y-78563705D01*
X181759356Y-78384410D01*
X181759354Y-78384409D01*
X181759352Y-78384406D01*
X181631147Y-78284621D01*
X181567044Y-78234727D01*
X181352718Y-78118740D01*
X181352717Y-78118739D01*
X181352716Y-78118739D01*
X181122225Y-78039611D01*
X180881849Y-77999500D01*
X180638151Y-77999500D01*
X180397774Y-78039611D01*
X180167283Y-78118739D01*
X180049554Y-78182450D01*
X179952956Y-78234727D01*
X179952954Y-78234728D01*
X179952953Y-78234729D01*
X179760647Y-78384406D01*
X179595593Y-78563704D01*
X179462300Y-78767723D01*
X179364410Y-78990889D01*
X179304583Y-79227139D01*
X179284459Y-79470000D01*
X166143458Y-79470000D01*
X166138541Y-79465518D01*
X165965138Y-79358152D01*
X165774957Y-79284476D01*
X165708129Y-79271984D01*
X165574476Y-79247000D01*
X165370524Y-79247000D01*
X165270283Y-79265738D01*
X165170042Y-79284476D01*
X164979861Y-79358152D01*
X164806458Y-79465518D01*
X164655736Y-79602919D01*
X164532824Y-79765681D01*
X164441918Y-79948248D01*
X164386102Y-80144416D01*
X164367285Y-80347500D01*
X151337715Y-80347500D01*
X151318897Y-80144417D01*
X151263082Y-79948250D01*
X151250113Y-79922204D01*
X151172175Y-79765681D01*
X151049263Y-79602919D01*
X150898541Y-79465518D01*
X150725138Y-79358152D01*
X150534957Y-79284476D01*
X150468129Y-79271984D01*
X150334476Y-79247000D01*
X150130524Y-79247000D01*
X150030283Y-79265738D01*
X149930042Y-79284476D01*
X149739861Y-79358152D01*
X149566458Y-79465518D01*
X149415736Y-79602919D01*
X149292824Y-79765681D01*
X149201918Y-79948248D01*
X149146102Y-80144416D01*
X149127285Y-80347500D01*
X106500500Y-80347500D01*
X106500500Y-77920000D01*
X113520000Y-77920000D01*
X113520000Y-78382049D01*
X113535386Y-78567732D01*
X113596413Y-78808721D01*
X113696266Y-79036365D01*
X113832233Y-79244477D01*
X114000596Y-79427368D01*
X114196766Y-79580053D01*
X114415393Y-79698368D01*
X114650508Y-79779083D01*
X114769999Y-79799023D01*
X114770000Y-79799022D01*
X114770000Y-77920000D01*
X115270000Y-77920000D01*
X115270000Y-79799023D01*
X115389491Y-79779083D01*
X115576546Y-79714867D01*
X119719500Y-79714867D01*
X119722414Y-79739988D01*
X119722414Y-79739990D01*
X119722415Y-79739991D01*
X119733758Y-79765681D01*
X119767795Y-79842767D01*
X119847232Y-79922204D01*
X119847233Y-79922204D01*
X119847235Y-79922206D01*
X119950009Y-79967585D01*
X119975135Y-79970500D01*
X122064864Y-79970499D01*
X122064867Y-79970499D01*
X122077427Y-79969041D01*
X122089991Y-79967585D01*
X122192765Y-79922206D01*
X122272206Y-79842765D01*
X122317585Y-79739991D01*
X122320500Y-79714865D01*
X122320500Y-77807499D01*
X149127285Y-77807499D01*
X149146102Y-78010583D01*
X149201918Y-78206751D01*
X149292824Y-78389318D01*
X149415736Y-78552080D01*
X149566458Y-78689481D01*
X149692821Y-78767721D01*
X149739863Y-78796848D01*
X149930044Y-78870524D01*
X150130524Y-78908000D01*
X150334474Y-78908000D01*
X150334476Y-78908000D01*
X150534956Y-78870524D01*
X150725137Y-78796848D01*
X150898541Y-78689481D01*
X150898541Y-78689480D01*
X151049263Y-78552080D01*
X151172175Y-78389318D01*
X151249151Y-78234727D01*
X151263082Y-78206750D01*
X151318897Y-78010583D01*
X151337715Y-77807500D01*
X151337715Y-77807499D01*
X164367285Y-77807499D01*
X164386102Y-78010583D01*
X164441918Y-78206751D01*
X164532824Y-78389318D01*
X164655736Y-78552080D01*
X164806458Y-78689481D01*
X164932821Y-78767721D01*
X164979863Y-78796848D01*
X165170044Y-78870524D01*
X165370524Y-78908000D01*
X165574474Y-78908000D01*
X165574476Y-78908000D01*
X165774956Y-78870524D01*
X165965137Y-78796848D01*
X166138541Y-78689481D01*
X166138541Y-78689480D01*
X166289263Y-78552080D01*
X166412175Y-78389318D01*
X166489151Y-78234727D01*
X166503082Y-78206750D01*
X166558897Y-78010583D01*
X166577715Y-77807500D01*
X166558897Y-77604417D01*
X166503082Y-77408250D01*
X166502709Y-77407501D01*
X166412175Y-77225681D01*
X166289263Y-77062919D01*
X166138541Y-76925518D01*
X165965138Y-76818152D01*
X165774957Y-76744476D01*
X165708129Y-76731983D01*
X165574476Y-76707000D01*
X165370524Y-76707000D01*
X165270284Y-76725737D01*
X165170042Y-76744476D01*
X164979861Y-76818152D01*
X164806458Y-76925518D01*
X164655736Y-77062919D01*
X164532824Y-77225681D01*
X164441918Y-77408248D01*
X164386102Y-77604416D01*
X164367285Y-77807499D01*
X151337715Y-77807499D01*
X151318897Y-77604417D01*
X151263082Y-77408250D01*
X151262709Y-77407501D01*
X151172175Y-77225681D01*
X151049263Y-77062919D01*
X150898541Y-76925518D01*
X150725138Y-76818152D01*
X150534957Y-76744476D01*
X150468129Y-76731983D01*
X150334476Y-76707000D01*
X150130524Y-76707000D01*
X150030284Y-76725737D01*
X149930042Y-76744476D01*
X149739861Y-76818152D01*
X149566458Y-76925518D01*
X149415736Y-77062919D01*
X149292824Y-77225681D01*
X149201918Y-77408248D01*
X149146102Y-77604416D01*
X149127285Y-77807499D01*
X122320500Y-77807499D01*
X122320499Y-75625136D01*
X122317585Y-75600009D01*
X122272206Y-75497235D01*
X122272204Y-75497233D01*
X122272204Y-75497232D01*
X122192767Y-75417795D01*
X122192765Y-75417794D01*
X122089991Y-75372415D01*
X122064865Y-75369500D01*
X122064863Y-75369500D01*
X119975132Y-75369500D01*
X119950011Y-75372414D01*
X119847232Y-75417795D01*
X119767795Y-75497232D01*
X119722415Y-75600009D01*
X119719500Y-75625136D01*
X119719500Y-79714867D01*
X115576546Y-79714867D01*
X115624606Y-79698368D01*
X115843233Y-79580053D01*
X116039403Y-79427368D01*
X116207766Y-79244477D01*
X116343733Y-79036365D01*
X116443586Y-78808721D01*
X116504613Y-78567732D01*
X116520000Y-78382049D01*
X116520000Y-77920000D01*
X115270000Y-77920000D01*
X114770000Y-77920000D01*
X113520000Y-77920000D01*
X106500500Y-77920000D01*
X106500500Y-77420000D01*
X113520000Y-77420000D01*
X114770000Y-77420000D01*
X114770000Y-75540978D01*
X114769999Y-75540976D01*
X115270000Y-75540976D01*
X115270000Y-77420000D01*
X116520000Y-77420000D01*
X116520000Y-76957951D01*
X116504613Y-76772267D01*
X116443586Y-76531278D01*
X116343733Y-76303634D01*
X116207766Y-76095522D01*
X116039403Y-75912631D01*
X115843233Y-75759946D01*
X115624606Y-75641631D01*
X115389491Y-75560916D01*
X115270000Y-75540976D01*
X114769999Y-75540976D01*
X114650508Y-75560916D01*
X114415393Y-75641631D01*
X114196766Y-75759946D01*
X114000596Y-75912631D01*
X113832233Y-76095522D01*
X113696266Y-76303634D01*
X113596413Y-76531278D01*
X113535386Y-76772267D01*
X113520000Y-76957951D01*
X113520000Y-77420000D01*
X106500500Y-77420000D01*
X106500500Y-74999999D01*
X124494785Y-74999999D01*
X124513602Y-75203083D01*
X124569418Y-75399251D01*
X124660324Y-75581818D01*
X124783236Y-75744580D01*
X124933958Y-75881981D01*
X125107361Y-75989347D01*
X125107363Y-75989348D01*
X125297544Y-76063024D01*
X125498024Y-76100500D01*
X125701974Y-76100500D01*
X125701976Y-76100500D01*
X125902456Y-76063024D01*
X126092637Y-75989348D01*
X126266041Y-75881981D01*
X126416764Y-75744579D01*
X126539673Y-75581821D01*
X126539673Y-75581819D01*
X126539675Y-75581818D01*
X126585313Y-75490161D01*
X126630582Y-75399250D01*
X126686397Y-75203083D01*
X126705215Y-75000000D01*
X137194785Y-75000000D01*
X137213602Y-75203083D01*
X137269418Y-75399251D01*
X137360324Y-75581818D01*
X137483236Y-75744580D01*
X137633958Y-75881981D01*
X137807361Y-75989347D01*
X137807363Y-75989348D01*
X137997544Y-76063024D01*
X138198024Y-76100500D01*
X138401974Y-76100500D01*
X138401976Y-76100500D01*
X138602456Y-76063024D01*
X138792637Y-75989348D01*
X138966041Y-75881981D01*
X139116764Y-75744579D01*
X139239673Y-75581821D01*
X139239673Y-75581819D01*
X139239675Y-75581818D01*
X139285313Y-75490161D01*
X139330582Y-75399250D01*
X139360640Y-75293610D01*
X140737442Y-75293610D01*
X140784266Y-75330055D01*
X141002893Y-75448368D01*
X141238006Y-75529083D01*
X141483207Y-75570000D01*
X141731793Y-75570000D01*
X141976993Y-75529083D01*
X142212106Y-75448368D01*
X142430733Y-75330053D01*
X142477556Y-75293609D01*
X141607500Y-74423553D01*
X140737442Y-75293609D01*
X140737442Y-75293610D01*
X139360640Y-75293610D01*
X139386397Y-75203083D01*
X139405215Y-75000000D01*
X139386397Y-74796917D01*
X139330582Y-74600750D01*
X139291827Y-74522919D01*
X139239675Y-74418181D01*
X139116763Y-74255419D01*
X138966041Y-74118018D01*
X138888489Y-74070000D01*
X140102358Y-74070000D01*
X140122886Y-74317732D01*
X140183913Y-74558721D01*
X140283768Y-74786370D01*
X140384063Y-74939882D01*
X140384064Y-74939882D01*
X141253947Y-74070001D01*
X141961053Y-74070001D01*
X142830934Y-74939882D01*
X142931230Y-74786369D01*
X143031086Y-74558721D01*
X143092113Y-74317732D01*
X143112641Y-74070000D01*
X144802031Y-74070000D01*
X144821864Y-74296689D01*
X144880761Y-74516497D01*
X144976932Y-74722735D01*
X145107453Y-74909140D01*
X145268359Y-75070046D01*
X145454764Y-75200567D01*
X145454765Y-75200567D01*
X145454766Y-75200568D01*
X145661004Y-75296739D01*
X145880808Y-75355635D01*
X146031936Y-75368857D01*
X146107499Y-75375468D01*
X146107499Y-75375467D01*
X146107500Y-75375468D01*
X146334192Y-75355635D01*
X146553996Y-75296739D01*
X146616701Y-75267499D01*
X149127285Y-75267499D01*
X149146102Y-75470583D01*
X149201918Y-75666751D01*
X149292824Y-75849318D01*
X149415736Y-76012080D01*
X149566458Y-76149481D01*
X149739861Y-76256847D01*
X149739863Y-76256848D01*
X149930044Y-76330524D01*
X150130524Y-76368000D01*
X150334474Y-76368000D01*
X150334476Y-76368000D01*
X150534956Y-76330524D01*
X150725137Y-76256848D01*
X150898541Y-76149481D01*
X151049264Y-76012079D01*
X151172173Y-75849321D01*
X151172173Y-75849319D01*
X151172175Y-75849318D01*
X151217813Y-75757661D01*
X151263082Y-75666750D01*
X151318897Y-75470583D01*
X151337715Y-75267500D01*
X151337715Y-75267499D01*
X164367285Y-75267499D01*
X164386102Y-75470583D01*
X164441918Y-75666751D01*
X164532824Y-75849318D01*
X164655736Y-76012080D01*
X164806458Y-76149481D01*
X164979861Y-76256847D01*
X164979863Y-76256848D01*
X165170044Y-76330524D01*
X165370524Y-76368000D01*
X165574474Y-76368000D01*
X165574476Y-76368000D01*
X165774956Y-76330524D01*
X165965137Y-76256848D01*
X166138541Y-76149481D01*
X166289264Y-76012079D01*
X166412173Y-75849321D01*
X166412173Y-75849319D01*
X166412175Y-75849318D01*
X166457813Y-75757661D01*
X166503082Y-75666750D01*
X166558897Y-75470583D01*
X166577715Y-75267500D01*
X166558897Y-75064417D01*
X166503082Y-74868250D01*
X166462311Y-74786370D01*
X166412175Y-74685681D01*
X166289263Y-74522919D01*
X166231214Y-74470000D01*
X166784459Y-74470000D01*
X166804583Y-74712860D01*
X166804583Y-74712862D01*
X166804584Y-74712866D01*
X166843933Y-74868250D01*
X166864410Y-74949110D01*
X166913354Y-75060692D01*
X166962301Y-75172279D01*
X167095592Y-75376295D01*
X167161940Y-75448368D01*
X167260647Y-75555593D01*
X167294345Y-75581821D01*
X167452956Y-75705273D01*
X167667282Y-75821260D01*
X167897776Y-75900389D01*
X168138151Y-75940500D01*
X168381849Y-75940500D01*
X168622224Y-75900389D01*
X168852718Y-75821260D01*
X169067044Y-75705273D01*
X169259356Y-75555590D01*
X169424408Y-75376295D01*
X169557699Y-75172279D01*
X169655591Y-74949107D01*
X169715416Y-74712866D01*
X169735540Y-74470000D01*
X169715416Y-74227134D01*
X169655591Y-73990893D01*
X169557699Y-73767721D01*
X169424408Y-73563705D01*
X169259356Y-73384410D01*
X169259354Y-73384409D01*
X169259352Y-73384406D01*
X169131148Y-73284621D01*
X169067044Y-73234727D01*
X168852718Y-73118740D01*
X168852717Y-73118739D01*
X168852716Y-73118739D01*
X168622225Y-73039611D01*
X168381849Y-72999500D01*
X168138151Y-72999500D01*
X167897774Y-73039611D01*
X167667283Y-73118739D01*
X167572563Y-73169999D01*
X167452956Y-73234727D01*
X167452954Y-73234728D01*
X167452953Y-73234729D01*
X167260647Y-73384406D01*
X167230398Y-73417266D01*
X167095592Y-73563705D01*
X167056523Y-73623504D01*
X166962300Y-73767723D01*
X166864410Y-73990889D01*
X166804583Y-74227139D01*
X166784459Y-74470000D01*
X166231214Y-74470000D01*
X166138541Y-74385518D01*
X165965138Y-74278152D01*
X165774957Y-74204476D01*
X165708129Y-74191984D01*
X165574476Y-74167000D01*
X165370524Y-74167000D01*
X165270283Y-74185738D01*
X165170042Y-74204476D01*
X164979861Y-74278152D01*
X164806458Y-74385518D01*
X164655736Y-74522919D01*
X164532824Y-74685681D01*
X164441918Y-74868248D01*
X164386102Y-75064416D01*
X164367285Y-75267499D01*
X151337715Y-75267499D01*
X151318897Y-75064417D01*
X151263082Y-74868250D01*
X151222311Y-74786370D01*
X151172175Y-74685681D01*
X151049263Y-74522919D01*
X150898541Y-74385518D01*
X150725138Y-74278152D01*
X150534957Y-74204476D01*
X150468129Y-74191984D01*
X150334476Y-74167000D01*
X150130524Y-74167000D01*
X150030283Y-74185738D01*
X149930042Y-74204476D01*
X149739861Y-74278152D01*
X149566458Y-74385518D01*
X149415736Y-74522919D01*
X149292824Y-74685681D01*
X149201918Y-74868248D01*
X149146102Y-75064416D01*
X149127285Y-75267499D01*
X146616701Y-75267499D01*
X146760234Y-75200568D01*
X146946639Y-75070047D01*
X147107547Y-74909139D01*
X147238068Y-74722734D01*
X147334239Y-74516496D01*
X147393135Y-74296692D01*
X147412968Y-74070000D01*
X147393135Y-73843308D01*
X147334239Y-73623504D01*
X147238068Y-73417266D01*
X147215062Y-73384410D01*
X147107546Y-73230859D01*
X146946640Y-73069953D01*
X146760235Y-72939432D01*
X146553997Y-72843261D01*
X146334189Y-72784364D01*
X146107499Y-72764531D01*
X145880810Y-72784364D01*
X145661002Y-72843261D01*
X145454764Y-72939432D01*
X145268359Y-73069953D01*
X145107453Y-73230859D01*
X144976932Y-73417264D01*
X144880761Y-73623502D01*
X144821864Y-73843310D01*
X144802031Y-74070000D01*
X143112641Y-74070000D01*
X143092113Y-73822267D01*
X143031086Y-73581278D01*
X142931230Y-73353630D01*
X142830934Y-73200116D01*
X141961053Y-74070000D01*
X141961053Y-74070001D01*
X141253947Y-74070001D01*
X141253947Y-74070000D01*
X140384064Y-73200116D01*
X140283766Y-73353634D01*
X140183913Y-73581278D01*
X140122886Y-73822267D01*
X140102358Y-74070000D01*
X138888489Y-74070000D01*
X138792638Y-74010652D01*
X138602457Y-73936976D01*
X138535629Y-73924484D01*
X138401976Y-73899500D01*
X138198024Y-73899500D01*
X138097783Y-73918238D01*
X137997542Y-73936976D01*
X137807361Y-74010652D01*
X137633958Y-74118018D01*
X137483236Y-74255419D01*
X137360324Y-74418181D01*
X137269418Y-74600748D01*
X137213602Y-74796916D01*
X137194785Y-75000000D01*
X126705215Y-75000000D01*
X126686397Y-74796917D01*
X126630582Y-74600750D01*
X126591827Y-74522919D01*
X126539675Y-74418181D01*
X126416763Y-74255419D01*
X126266041Y-74118018D01*
X126092638Y-74010652D01*
X125902457Y-73936976D01*
X125835629Y-73924484D01*
X125701976Y-73899500D01*
X125498024Y-73899500D01*
X125397783Y-73918238D01*
X125297542Y-73936976D01*
X125107361Y-74010652D01*
X124933958Y-74118018D01*
X124783236Y-74255419D01*
X124660324Y-74418181D01*
X124569418Y-74600748D01*
X124513602Y-74796916D01*
X124494785Y-74999999D01*
X106500500Y-74999999D01*
X106500500Y-73169999D01*
X111964531Y-73169999D01*
X111984364Y-73396689D01*
X112043261Y-73616497D01*
X112139432Y-73822735D01*
X112269953Y-74009140D01*
X112430859Y-74170046D01*
X112617264Y-74300567D01*
X112617265Y-74300567D01*
X112617266Y-74300568D01*
X112823504Y-74396739D01*
X113043308Y-74455635D01*
X113128262Y-74463067D01*
X113213214Y-74470500D01*
X113213216Y-74470500D01*
X114826784Y-74470500D01*
X114826786Y-74470500D01*
X114894747Y-74464554D01*
X114996692Y-74455635D01*
X115216496Y-74396739D01*
X115422734Y-74300568D01*
X115609139Y-74170047D01*
X115770047Y-74009139D01*
X115900568Y-73822734D01*
X115996739Y-73616496D01*
X116055635Y-73396692D01*
X116075468Y-73170000D01*
X116055635Y-72943308D01*
X116029666Y-72846390D01*
X140737442Y-72846390D01*
X141607500Y-73716447D01*
X141607501Y-73716447D01*
X142477557Y-72846390D01*
X142477556Y-72846388D01*
X142430735Y-72809947D01*
X142278386Y-72727500D01*
X149127285Y-72727500D01*
X149146102Y-72930583D01*
X149201918Y-73126751D01*
X149292824Y-73309318D01*
X149415736Y-73472080D01*
X149566458Y-73609481D01*
X149739215Y-73716447D01*
X149739863Y-73716848D01*
X149930044Y-73790524D01*
X150130524Y-73828000D01*
X150334474Y-73828000D01*
X150334476Y-73828000D01*
X150534956Y-73790524D01*
X150725137Y-73716848D01*
X150898541Y-73609481D01*
X151049264Y-73472079D01*
X151172173Y-73309321D01*
X151172173Y-73309319D01*
X151172175Y-73309318D01*
X151241546Y-73170000D01*
X151263082Y-73126750D01*
X151318897Y-72930583D01*
X151337715Y-72727500D01*
X164367285Y-72727500D01*
X164386102Y-72930583D01*
X164441918Y-73126751D01*
X164532824Y-73309318D01*
X164655736Y-73472080D01*
X164806458Y-73609481D01*
X164979215Y-73716447D01*
X164979863Y-73716848D01*
X165170044Y-73790524D01*
X165370524Y-73828000D01*
X165574474Y-73828000D01*
X165574476Y-73828000D01*
X165774956Y-73790524D01*
X165965137Y-73716848D01*
X166138541Y-73609481D01*
X166289264Y-73472079D01*
X166412173Y-73309321D01*
X166412173Y-73309319D01*
X166412175Y-73309318D01*
X166481546Y-73170000D01*
X166503082Y-73126750D01*
X166558897Y-72930583D01*
X166577715Y-72727500D01*
X166558897Y-72524417D01*
X166556862Y-72517266D01*
X166536700Y-72446404D01*
X166503082Y-72328250D01*
X166502709Y-72327501D01*
X166412175Y-72145681D01*
X166289263Y-71982919D01*
X166138541Y-71845518D01*
X165965138Y-71738152D01*
X165774957Y-71664476D01*
X165708129Y-71651984D01*
X165574476Y-71627000D01*
X165370524Y-71627000D01*
X165270284Y-71645737D01*
X165170042Y-71664476D01*
X164979861Y-71738152D01*
X164806458Y-71845518D01*
X164655736Y-71982919D01*
X164532824Y-72145681D01*
X164441918Y-72328248D01*
X164386102Y-72524416D01*
X164367285Y-72727500D01*
X151337715Y-72727500D01*
X151318897Y-72524417D01*
X151316862Y-72517266D01*
X151296700Y-72446404D01*
X151263082Y-72328250D01*
X151262709Y-72327501D01*
X151172175Y-72145681D01*
X151049263Y-71982919D01*
X150898541Y-71845518D01*
X150725138Y-71738152D01*
X150534957Y-71664476D01*
X150468129Y-71651984D01*
X150334476Y-71627000D01*
X150130524Y-71627000D01*
X150030283Y-71645738D01*
X149930042Y-71664476D01*
X149739861Y-71738152D01*
X149566458Y-71845518D01*
X149415736Y-71982919D01*
X149292824Y-72145681D01*
X149201918Y-72328248D01*
X149146102Y-72524416D01*
X149127285Y-72727500D01*
X142278386Y-72727500D01*
X142212106Y-72691631D01*
X141976993Y-72610916D01*
X141731793Y-72570000D01*
X141483207Y-72570000D01*
X141238006Y-72610916D01*
X141002893Y-72691631D01*
X140784264Y-72809946D01*
X140737442Y-72846388D01*
X140737442Y-72846390D01*
X116029666Y-72846390D01*
X115996739Y-72723504D01*
X115900568Y-72517266D01*
X115770047Y-72330861D01*
X115770046Y-72330859D01*
X115609140Y-72169953D01*
X115422735Y-72039432D01*
X115216497Y-71943261D01*
X114996689Y-71884364D01*
X114826786Y-71869500D01*
X114826784Y-71869500D01*
X113213216Y-71869500D01*
X113213214Y-71869500D01*
X113043310Y-71884364D01*
X112823502Y-71943261D01*
X112617264Y-72039432D01*
X112430859Y-72169953D01*
X112269953Y-72330859D01*
X112139432Y-72517264D01*
X112043261Y-72723502D01*
X111984364Y-72943310D01*
X111964531Y-73169999D01*
X106500500Y-73169999D01*
X106500500Y-68002872D01*
X106500566Y-68000000D01*
X107344536Y-68000000D01*
X107347834Y-68058721D01*
X107364377Y-68353301D01*
X107423648Y-68702152D01*
X107459053Y-68825045D01*
X107521610Y-69042184D01*
X107577598Y-69177351D01*
X107638717Y-69324907D01*
X107657025Y-69369105D01*
X107828192Y-69678808D01*
X107905844Y-69788248D01*
X108032962Y-69967405D01*
X108179537Y-70131421D01*
X108268750Y-70231250D01*
X108380456Y-70331077D01*
X108532594Y-70467037D01*
X108532600Y-70467041D01*
X108821192Y-70671808D01*
X109130895Y-70842975D01*
X109457816Y-70978390D01*
X109797843Y-71076350D01*
X109797844Y-71076350D01*
X109797847Y-71076351D01*
X109887345Y-71091557D01*
X110146700Y-71135623D01*
X110500000Y-71155464D01*
X110853300Y-71135623D01*
X111148620Y-71085446D01*
X111202152Y-71076351D01*
X111202153Y-71076350D01*
X111202157Y-71076350D01*
X111542184Y-70978390D01*
X111869105Y-70842975D01*
X112178808Y-70671808D01*
X112467400Y-70467041D01*
X112467402Y-70467038D01*
X112467405Y-70467037D01*
X112552956Y-70390583D01*
X112731250Y-70231250D01*
X112967041Y-69967400D01*
X113171808Y-69678808D01*
X113342975Y-69369105D01*
X113478390Y-69042184D01*
X113576350Y-68702157D01*
X113576767Y-68699706D01*
X113600053Y-68562648D01*
X113635623Y-68353300D01*
X113636089Y-68345000D01*
X134390000Y-68345000D01*
X134390000Y-69042824D01*
X134396402Y-69102375D01*
X134446647Y-69237089D01*
X134532811Y-69352188D01*
X134647910Y-69438352D01*
X134782624Y-69488597D01*
X134842176Y-69495000D01*
X134938478Y-69495000D01*
X134995791Y-69509040D01*
X135040126Y-69547981D01*
X135061442Y-69603004D01*
X135054913Y-69661650D01*
X135022016Y-69710637D01*
X134899019Y-69822762D01*
X134764941Y-70000311D01*
X134665769Y-70199473D01*
X134604885Y-70413462D01*
X134584357Y-70634999D01*
X134604885Y-70856537D01*
X134665769Y-71070526D01*
X134764941Y-71269688D01*
X134899019Y-71447237D01*
X135063437Y-71597124D01*
X135252595Y-71714245D01*
X135252597Y-71714245D01*
X135252599Y-71714247D01*
X135460060Y-71794618D01*
X135678757Y-71835500D01*
X135901241Y-71835500D01*
X135901243Y-71835500D01*
X136119940Y-71794618D01*
X136327401Y-71714247D01*
X136516562Y-71597124D01*
X136680981Y-71447236D01*
X136815058Y-71269689D01*
X136914229Y-71070528D01*
X136975115Y-70856536D01*
X136995643Y-70635000D01*
X136975115Y-70413464D01*
X136923271Y-70231250D01*
X136914230Y-70199473D01*
X136908268Y-70187500D01*
X149127285Y-70187500D01*
X149146102Y-70390583D01*
X149201918Y-70586751D01*
X149292824Y-70769318D01*
X149415736Y-70932080D01*
X149566458Y-71069481D01*
X149739861Y-71176847D01*
X149739863Y-71176848D01*
X149930044Y-71250524D01*
X150130524Y-71288000D01*
X150334474Y-71288000D01*
X150334476Y-71288000D01*
X150534956Y-71250524D01*
X150725137Y-71176848D01*
X150898541Y-71069481D01*
X151049264Y-70932079D01*
X151172173Y-70769321D01*
X151172173Y-70769319D01*
X151172175Y-70769318D01*
X151220729Y-70671807D01*
X151263082Y-70586750D01*
X151318897Y-70390583D01*
X151337715Y-70187500D01*
X164367285Y-70187500D01*
X164386102Y-70390583D01*
X164441918Y-70586751D01*
X164532824Y-70769318D01*
X164655736Y-70932080D01*
X164806458Y-71069481D01*
X164979861Y-71176847D01*
X164979863Y-71176848D01*
X165170044Y-71250524D01*
X165370524Y-71288000D01*
X165574474Y-71288000D01*
X165574476Y-71288000D01*
X165774956Y-71250524D01*
X165965137Y-71176848D01*
X166138541Y-71069481D01*
X166289264Y-70932079D01*
X166412173Y-70769321D01*
X166412173Y-70769319D01*
X166412175Y-70769318D01*
X166460729Y-70671807D01*
X166503082Y-70586750D01*
X166558897Y-70390583D01*
X166558951Y-70390000D01*
X168719715Y-70390000D01*
X168763441Y-70534150D01*
X168858620Y-70712215D01*
X168986707Y-70868292D01*
X169142784Y-70996379D01*
X169320848Y-71091557D01*
X169514067Y-71150170D01*
X169664639Y-71165000D01*
X169690000Y-71165000D01*
X169690000Y-70390000D01*
X170190000Y-70390000D01*
X170190000Y-71165000D01*
X170215361Y-71165000D01*
X170365932Y-71150170D01*
X170559151Y-71091557D01*
X170737215Y-70996379D01*
X170893292Y-70868292D01*
X171021379Y-70712215D01*
X171116558Y-70534150D01*
X171160285Y-70390000D01*
X170190000Y-70390000D01*
X169690000Y-70390000D01*
X168719715Y-70390000D01*
X166558951Y-70390000D01*
X166577715Y-70187500D01*
X166558897Y-69984417D01*
X166532033Y-69890000D01*
X168719715Y-69890000D01*
X171160285Y-69890000D01*
X171116558Y-69745849D01*
X171021381Y-69567787D01*
X170898259Y-69417762D01*
X170874266Y-69370918D01*
X170871862Y-69318342D01*
X170891481Y-69269509D01*
X170898640Y-69258951D01*
X170965101Y-69092147D01*
X170994150Y-68914955D01*
X170984429Y-68735661D01*
X170936393Y-68562649D01*
X170913844Y-68520118D01*
X170889556Y-68474305D01*
X170875358Y-68424052D01*
X170883108Y-68372411D01*
X170911431Y-68328540D01*
X170942205Y-68297766D01*
X170942205Y-68297765D01*
X170942206Y-68297765D01*
X170987585Y-68194991D01*
X170990500Y-68169865D01*
X170990500Y-68000000D01*
X180844536Y-68000000D01*
X180864377Y-68353301D01*
X180923648Y-68702152D01*
X180959053Y-68825045D01*
X181021610Y-69042184D01*
X181077598Y-69177351D01*
X181138717Y-69324907D01*
X181157025Y-69369105D01*
X181328192Y-69678808D01*
X181405844Y-69788248D01*
X181532962Y-69967405D01*
X181679537Y-70131421D01*
X181768750Y-70231250D01*
X181880456Y-70331077D01*
X182032594Y-70467037D01*
X182032600Y-70467041D01*
X182321192Y-70671808D01*
X182630895Y-70842975D01*
X182957816Y-70978390D01*
X183297843Y-71076350D01*
X183297844Y-71076350D01*
X183297847Y-71076351D01*
X183387345Y-71091557D01*
X183646700Y-71135623D01*
X184000000Y-71155464D01*
X184353300Y-71135623D01*
X184648620Y-71085446D01*
X184702152Y-71076351D01*
X184702153Y-71076350D01*
X184702157Y-71076350D01*
X185042184Y-70978390D01*
X185369105Y-70842975D01*
X185678808Y-70671808D01*
X185967400Y-70467041D01*
X185967402Y-70467038D01*
X185967405Y-70467037D01*
X186052956Y-70390583D01*
X186231250Y-70231250D01*
X186467041Y-69967400D01*
X186671808Y-69678808D01*
X186842975Y-69369105D01*
X186978390Y-69042184D01*
X187076350Y-68702157D01*
X187076767Y-68699706D01*
X187100053Y-68562648D01*
X187135623Y-68353300D01*
X187155464Y-68000000D01*
X187135623Y-67646700D01*
X187076350Y-67297843D01*
X186978390Y-66957816D01*
X186842975Y-66630895D01*
X186671808Y-66321192D01*
X186467041Y-66032600D01*
X186467037Y-66032594D01*
X186331077Y-65880456D01*
X186231250Y-65768750D01*
X186131389Y-65679509D01*
X185967405Y-65532962D01*
X185838591Y-65441564D01*
X185678808Y-65328192D01*
X185369105Y-65157025D01*
X185042184Y-65021610D01*
X184894792Y-64979147D01*
X184702152Y-64923648D01*
X184353301Y-64864377D01*
X184000000Y-64844536D01*
X183646698Y-64864377D01*
X183297847Y-64923648D01*
X182957813Y-65021611D01*
X182630896Y-65157024D01*
X182321192Y-65328192D01*
X182032594Y-65532962D01*
X181768750Y-65768750D01*
X181532962Y-66032594D01*
X181328192Y-66321192D01*
X181157024Y-66630896D01*
X181021611Y-66957813D01*
X180923648Y-67297847D01*
X180864377Y-67646698D01*
X180844536Y-68000000D01*
X170990500Y-68000000D01*
X170990499Y-67030136D01*
X170987585Y-67005009D01*
X170942206Y-66902235D01*
X170942204Y-66902233D01*
X170942204Y-66902232D01*
X170862767Y-66822795D01*
X170817111Y-66802636D01*
X170759991Y-66777415D01*
X170734865Y-66774500D01*
X170734863Y-66774500D01*
X169145132Y-66774500D01*
X169120011Y-66777414D01*
X169017232Y-66822795D01*
X168937795Y-66902232D01*
X168892415Y-67005009D01*
X168889500Y-67030136D01*
X168889500Y-68169867D01*
X168892414Y-68194988D01*
X168937795Y-68297767D01*
X168965357Y-68325329D01*
X168995185Y-68373415D01*
X169000541Y-68429747D01*
X168985785Y-68468295D01*
X168986351Y-68468521D01*
X168914899Y-68647850D01*
X168900504Y-68735660D01*
X168891004Y-68793610D01*
X168885850Y-68825047D01*
X168895570Y-69004339D01*
X168943607Y-69177351D01*
X168997339Y-69278700D01*
X169011214Y-69324907D01*
X169006404Y-69372911D01*
X168983638Y-69415447D01*
X168858620Y-69567784D01*
X168763441Y-69745849D01*
X168719715Y-69890000D01*
X166532033Y-69890000D01*
X166503082Y-69788250D01*
X166464436Y-69710637D01*
X166412175Y-69605681D01*
X166289263Y-69442919D01*
X166138541Y-69305518D01*
X165965138Y-69198152D01*
X165774957Y-69124476D01*
X165656725Y-69102375D01*
X165574476Y-69087000D01*
X165370524Y-69087000D01*
X165288275Y-69102375D01*
X165170042Y-69124476D01*
X164979861Y-69198152D01*
X164806458Y-69305518D01*
X164655736Y-69442919D01*
X164532824Y-69605681D01*
X164441918Y-69788248D01*
X164386102Y-69984416D01*
X164367285Y-70187500D01*
X151337715Y-70187500D01*
X151318897Y-69984417D01*
X151263082Y-69788250D01*
X151224436Y-69710637D01*
X151172175Y-69605681D01*
X151049263Y-69442919D01*
X150898541Y-69305518D01*
X150725138Y-69198152D01*
X150534957Y-69124476D01*
X150416725Y-69102375D01*
X150334476Y-69087000D01*
X150130524Y-69087000D01*
X150048275Y-69102375D01*
X149930042Y-69124476D01*
X149739861Y-69198152D01*
X149566458Y-69305518D01*
X149415736Y-69442919D01*
X149292824Y-69605681D01*
X149201918Y-69788248D01*
X149146102Y-69984416D01*
X149127285Y-70187500D01*
X136908268Y-70187500D01*
X136815058Y-70000311D01*
X136680980Y-69822762D01*
X136557984Y-69710637D01*
X136525087Y-69661650D01*
X136518558Y-69603004D01*
X136539874Y-69547981D01*
X136584209Y-69509040D01*
X136641522Y-69495000D01*
X136737824Y-69495000D01*
X136797375Y-69488597D01*
X136932089Y-69438352D01*
X137047188Y-69352188D01*
X137133352Y-69237089D01*
X137183597Y-69102375D01*
X137190000Y-69042824D01*
X137190000Y-68793610D01*
X140737442Y-68793610D01*
X140784266Y-68830055D01*
X141002893Y-68948368D01*
X141238006Y-69029083D01*
X141483207Y-69070000D01*
X141731793Y-69070000D01*
X141976993Y-69029083D01*
X142212106Y-68948368D01*
X142430733Y-68830053D01*
X142477556Y-68793609D01*
X141607500Y-67923553D01*
X140737442Y-68793609D01*
X140737442Y-68793610D01*
X137190000Y-68793610D01*
X137190000Y-68345000D01*
X134390000Y-68345000D01*
X113636089Y-68345000D01*
X113655464Y-68000000D01*
X113646759Y-67845000D01*
X134390000Y-67845000D01*
X135540000Y-67845000D01*
X135540000Y-66695000D01*
X136040000Y-66695000D01*
X136040000Y-67845000D01*
X137190000Y-67845000D01*
X137190000Y-67570000D01*
X140102358Y-67570000D01*
X140122886Y-67817732D01*
X140183913Y-68058721D01*
X140283768Y-68286370D01*
X140384063Y-68439882D01*
X140384064Y-68439882D01*
X141253947Y-67570001D01*
X141961053Y-67570001D01*
X142830934Y-68439882D01*
X142931230Y-68286369D01*
X143031086Y-68058721D01*
X143092113Y-67817732D01*
X143112641Y-67570000D01*
X144802031Y-67570000D01*
X144821864Y-67796689D01*
X144880761Y-68016497D01*
X144976932Y-68222735D01*
X145107453Y-68409140D01*
X145268359Y-68570046D01*
X145454764Y-68700567D01*
X145454765Y-68700567D01*
X145454766Y-68700568D01*
X145661004Y-68796739D01*
X145880808Y-68855635D01*
X146031936Y-68868857D01*
X146107499Y-68875468D01*
X146107499Y-68875467D01*
X146107500Y-68875468D01*
X146334192Y-68855635D01*
X146553996Y-68796739D01*
X146760234Y-68700568D01*
X146946639Y-68570047D01*
X147024319Y-68492367D01*
X149132000Y-68492367D01*
X149134914Y-68517488D01*
X149180295Y-68620267D01*
X149259732Y-68699704D01*
X149259733Y-68699704D01*
X149259735Y-68699706D01*
X149362509Y-68745085D01*
X149387635Y-68748000D01*
X151077364Y-68747999D01*
X151077367Y-68747999D01*
X151089927Y-68746542D01*
X151102491Y-68745085D01*
X151205265Y-68699706D01*
X151284706Y-68620265D01*
X151330085Y-68517491D01*
X151333000Y-68492365D01*
X151332999Y-67647500D01*
X164367285Y-67647500D01*
X164386102Y-67850583D01*
X164441918Y-68046751D01*
X164532824Y-68229318D01*
X164655736Y-68392080D01*
X164806458Y-68529481D01*
X164979861Y-68636847D01*
X164979863Y-68636848D01*
X165170044Y-68710524D01*
X165370524Y-68748000D01*
X165574474Y-68748000D01*
X165574476Y-68748000D01*
X165774956Y-68710524D01*
X165965137Y-68636848D01*
X166138541Y-68529481D01*
X166270550Y-68409139D01*
X166289263Y-68392080D01*
X166292434Y-68387881D01*
X166412173Y-68229321D01*
X166412173Y-68229319D01*
X166412175Y-68229318D01*
X166497121Y-68058721D01*
X166503082Y-68046750D01*
X166558897Y-67850583D01*
X166577715Y-67647500D01*
X166558897Y-67444417D01*
X166503082Y-67248250D01*
X166487246Y-67216447D01*
X166412175Y-67065681D01*
X166289263Y-66902919D01*
X166138541Y-66765518D01*
X165965138Y-66658152D01*
X165774957Y-66584476D01*
X165697264Y-66569953D01*
X165574476Y-66547000D01*
X165370524Y-66547000D01*
X165270284Y-66565737D01*
X165170042Y-66584476D01*
X164979861Y-66658152D01*
X164806458Y-66765518D01*
X164655736Y-66902919D01*
X164532824Y-67065681D01*
X164441918Y-67248248D01*
X164386102Y-67444416D01*
X164367285Y-67647500D01*
X151332999Y-67647500D01*
X151332999Y-66802636D01*
X151330085Y-66777509D01*
X151284706Y-66674735D01*
X151284704Y-66674733D01*
X151284704Y-66674732D01*
X151205267Y-66595295D01*
X151180764Y-66584476D01*
X151102491Y-66549915D01*
X151077365Y-66547000D01*
X151077363Y-66547000D01*
X149387632Y-66547000D01*
X149362511Y-66549914D01*
X149259732Y-66595295D01*
X149180295Y-66674732D01*
X149134915Y-66777509D01*
X149132000Y-66802636D01*
X149132000Y-68492367D01*
X147024319Y-68492367D01*
X147107547Y-68409139D01*
X147238068Y-68222734D01*
X147334239Y-68016496D01*
X147393135Y-67796692D01*
X147412968Y-67570000D01*
X147393135Y-67343308D01*
X147334239Y-67123504D01*
X147238068Y-66917266D01*
X147228022Y-66902919D01*
X147107546Y-66730859D01*
X146946640Y-66569953D01*
X146760235Y-66439432D01*
X146553997Y-66343261D01*
X146334189Y-66284364D01*
X146107500Y-66264531D01*
X145880810Y-66284364D01*
X145661002Y-66343261D01*
X145454764Y-66439432D01*
X145268359Y-66569953D01*
X145107453Y-66730859D01*
X144976932Y-66917264D01*
X144880761Y-67123502D01*
X144821864Y-67343310D01*
X144802031Y-67570000D01*
X143112641Y-67570000D01*
X143092113Y-67322267D01*
X143031086Y-67081278D01*
X142931230Y-66853630D01*
X142830934Y-66700116D01*
X141961053Y-67570000D01*
X141961053Y-67570001D01*
X141253947Y-67570001D01*
X141253947Y-67570000D01*
X140384064Y-66700116D01*
X140283766Y-66853634D01*
X140183913Y-67081278D01*
X140122886Y-67322267D01*
X140102358Y-67570000D01*
X137190000Y-67570000D01*
X137190000Y-67147176D01*
X137183597Y-67087624D01*
X137133352Y-66952910D01*
X137047188Y-66837811D01*
X136932089Y-66751647D01*
X136797375Y-66701402D01*
X136737824Y-66695000D01*
X136040000Y-66695000D01*
X135540000Y-66695000D01*
X134842176Y-66695000D01*
X134782624Y-66701402D01*
X134647910Y-66751647D01*
X134532811Y-66837811D01*
X134446647Y-66952910D01*
X134396402Y-67087624D01*
X134390000Y-67147176D01*
X134390000Y-67845000D01*
X113646759Y-67845000D01*
X113635623Y-67646700D01*
X113576350Y-67297843D01*
X113478390Y-66957816D01*
X113342975Y-66630895D01*
X113185734Y-66346390D01*
X140737442Y-66346390D01*
X141607500Y-67216447D01*
X141607501Y-67216447D01*
X142477557Y-66346390D01*
X142477556Y-66346388D01*
X142430735Y-66309947D01*
X142212106Y-66191631D01*
X141976993Y-66110916D01*
X141731793Y-66070000D01*
X141483207Y-66070000D01*
X141238006Y-66110916D01*
X141002893Y-66191631D01*
X140784264Y-66309946D01*
X140737442Y-66346388D01*
X140737442Y-66346390D01*
X113185734Y-66346390D01*
X113171808Y-66321192D01*
X112967041Y-66032600D01*
X112967037Y-66032594D01*
X112831077Y-65880456D01*
X112731250Y-65768750D01*
X112631389Y-65679509D01*
X112467405Y-65532962D01*
X112338591Y-65441564D01*
X112178808Y-65328192D01*
X111869105Y-65157025D01*
X111542184Y-65021610D01*
X111394792Y-64979147D01*
X111202152Y-64923648D01*
X110853301Y-64864377D01*
X110500000Y-64844536D01*
X110146698Y-64864377D01*
X109797847Y-64923648D01*
X109457813Y-65021611D01*
X109130896Y-65157024D01*
X108821192Y-65328192D01*
X108532594Y-65532962D01*
X108268750Y-65768750D01*
X108032962Y-66032594D01*
X107828192Y-66321192D01*
X107657024Y-66630896D01*
X107521611Y-66957813D01*
X107423648Y-67297847D01*
X107369052Y-67619184D01*
X107364377Y-67646700D01*
X107344536Y-68000000D01*
X106500566Y-68000000D01*
X106500632Y-67997146D01*
X106504034Y-67923553D01*
X106508490Y-67827169D01*
X106509988Y-67796689D01*
X106518166Y-67630200D01*
X106519200Y-67619217D01*
X106544611Y-67437054D01*
X106544722Y-67436286D01*
X106571950Y-67252729D01*
X106573890Y-67242595D01*
X106616526Y-67061318D01*
X106616837Y-67060037D01*
X106661405Y-66882111D01*
X106664091Y-66872922D01*
X106723572Y-66695457D01*
X106724270Y-66693442D01*
X106785699Y-66521759D01*
X106788996Y-66513497D01*
X106864713Y-66342015D01*
X106866051Y-66339089D01*
X106943727Y-66174855D01*
X106947452Y-66167612D01*
X107038864Y-66003497D01*
X107040745Y-66000243D01*
X107134036Y-65844598D01*
X107138034Y-65838363D01*
X107244270Y-65683278D01*
X107246899Y-65679590D01*
X107354909Y-65533954D01*
X107359011Y-65528728D01*
X107479239Y-65383944D01*
X107482577Y-65380097D01*
X107604340Y-65245752D01*
X107608437Y-65241450D01*
X107741450Y-65108437D01*
X107745752Y-65104340D01*
X107880097Y-64982577D01*
X107883944Y-64979239D01*
X108028728Y-64859011D01*
X108033954Y-64854909D01*
X108179590Y-64746899D01*
X108183278Y-64744270D01*
X108338363Y-64638034D01*
X108344598Y-64634036D01*
X108500243Y-64540745D01*
X108503497Y-64538864D01*
X108667612Y-64447452D01*
X108674855Y-64443727D01*
X108839098Y-64366046D01*
X108842018Y-64364712D01*
X108906007Y-64336458D01*
X109013497Y-64288996D01*
X109021759Y-64285699D01*
X109193442Y-64224270D01*
X109195457Y-64223572D01*
X109372922Y-64164091D01*
X109382111Y-64161405D01*
X109560037Y-64116837D01*
X109561318Y-64116526D01*
X109742595Y-64073890D01*
X109752729Y-64071950D01*
X109936286Y-64044722D01*
X109937054Y-64044611D01*
X110119217Y-64019200D01*
X110130200Y-64018166D01*
X110326898Y-64008502D01*
X110491674Y-64000884D01*
X110497146Y-64000632D01*
X110502872Y-64000500D01*
X183997128Y-64000500D01*
X184002854Y-64000632D01*
G37*
%TD.AperFunction*%
%TD*%
M02*
