%TF.GenerationSoftware,KiCad,Pcbnew,7.0.1*%
%TF.CreationDate,2023-05-16T22:34:38+02:00*%
%TF.ProjectId,PPURS projekt,50505552-5320-4707-926f-6a656b742e6b,rev?*%
%TF.SameCoordinates,Original*%
%TF.FileFunction,Legend,Top*%
%TF.FilePolarity,Positive*%
%FSLAX46Y46*%
G04 Gerber Fmt 4.6, Leading zero omitted, Abs format (unit mm)*
G04 Created by KiCad (PCBNEW 7.0.1) date 2023-05-16 22:34:38*
%MOMM*%
%LPD*%
G01*
G04 APERTURE LIST*
%ADD10C,0.150000*%
%ADD11C,0.100000*%
%ADD12C,0.120000*%
G04 APERTURE END LIST*
D10*
X157153142Y-84671428D02*
X158010285Y-84671428D01*
X158010285Y-84671428D02*
X158181714Y-84728571D01*
X158181714Y-84728571D02*
X158296000Y-84842857D01*
X158296000Y-84842857D02*
X158353142Y-85014285D01*
X158353142Y-85014285D02*
X158353142Y-85128571D01*
X158353142Y-83528571D02*
X158353142Y-84099999D01*
X158353142Y-84099999D02*
X157153142Y-84099999D01*
X158238857Y-82442856D02*
X158296000Y-82499999D01*
X158296000Y-82499999D02*
X158353142Y-82671427D01*
X158353142Y-82671427D02*
X158353142Y-82785713D01*
X158353142Y-82785713D02*
X158296000Y-82957142D01*
X158296000Y-82957142D02*
X158181714Y-83071427D01*
X158181714Y-83071427D02*
X158067428Y-83128570D01*
X158067428Y-83128570D02*
X157838857Y-83185713D01*
X157838857Y-83185713D02*
X157667428Y-83185713D01*
X157667428Y-83185713D02*
X157438857Y-83128570D01*
X157438857Y-83128570D02*
X157324571Y-83071427D01*
X157324571Y-83071427D02*
X157210285Y-82957142D01*
X157210285Y-82957142D02*
X157153142Y-82785713D01*
X157153142Y-82785713D02*
X157153142Y-82671427D01*
X157153142Y-82671427D02*
X157210285Y-82499999D01*
X157210285Y-82499999D02*
X157267428Y-82442856D01*
X157153142Y-81585713D02*
X158010285Y-81585713D01*
X158010285Y-81585713D02*
X158181714Y-81642856D01*
X158181714Y-81642856D02*
X158296000Y-81757142D01*
X158296000Y-81757142D02*
X158353142Y-81928570D01*
X158353142Y-81928570D02*
X158353142Y-82042856D01*
X158353142Y-80442856D02*
X158353142Y-81014284D01*
X158353142Y-81014284D02*
X157153142Y-81014284D01*
X158238857Y-79357141D02*
X158296000Y-79414284D01*
X158296000Y-79414284D02*
X158353142Y-79585712D01*
X158353142Y-79585712D02*
X158353142Y-79699998D01*
X158353142Y-79699998D02*
X158296000Y-79871427D01*
X158296000Y-79871427D02*
X158181714Y-79985712D01*
X158181714Y-79985712D02*
X158067428Y-80042855D01*
X158067428Y-80042855D02*
X157838857Y-80099998D01*
X157838857Y-80099998D02*
X157667428Y-80099998D01*
X157667428Y-80099998D02*
X157438857Y-80042855D01*
X157438857Y-80042855D02*
X157324571Y-79985712D01*
X157324571Y-79985712D02*
X157210285Y-79871427D01*
X157210285Y-79871427D02*
X157153142Y-79699998D01*
X157153142Y-79699998D02*
X157153142Y-79585712D01*
X157153142Y-79585712D02*
X157210285Y-79414284D01*
X157210285Y-79414284D02*
X157267428Y-79357141D01*
X157153142Y-78499998D02*
X158010285Y-78499998D01*
X158010285Y-78499998D02*
X158181714Y-78557141D01*
X158181714Y-78557141D02*
X158296000Y-78671427D01*
X158296000Y-78671427D02*
X158353142Y-78842855D01*
X158353142Y-78842855D02*
X158353142Y-78957141D01*
X158353142Y-77357141D02*
X158353142Y-77928569D01*
X158353142Y-77928569D02*
X157153142Y-77928569D01*
X158238857Y-76271426D02*
X158296000Y-76328569D01*
X158296000Y-76328569D02*
X158353142Y-76499997D01*
X158353142Y-76499997D02*
X158353142Y-76614283D01*
X158353142Y-76614283D02*
X158296000Y-76785712D01*
X158296000Y-76785712D02*
X158181714Y-76899997D01*
X158181714Y-76899997D02*
X158067428Y-76957140D01*
X158067428Y-76957140D02*
X157838857Y-77014283D01*
X157838857Y-77014283D02*
X157667428Y-77014283D01*
X157667428Y-77014283D02*
X157438857Y-76957140D01*
X157438857Y-76957140D02*
X157324571Y-76899997D01*
X157324571Y-76899997D02*
X157210285Y-76785712D01*
X157210285Y-76785712D02*
X157153142Y-76614283D01*
X157153142Y-76614283D02*
X157153142Y-76499997D01*
X157153142Y-76499997D02*
X157210285Y-76328569D01*
X157210285Y-76328569D02*
X157267428Y-76271426D01*
X157153142Y-75414283D02*
X158010285Y-75414283D01*
X158010285Y-75414283D02*
X158181714Y-75471426D01*
X158181714Y-75471426D02*
X158296000Y-75585712D01*
X158296000Y-75585712D02*
X158353142Y-75757140D01*
X158353142Y-75757140D02*
X158353142Y-75871426D01*
X158353142Y-74271426D02*
X158353142Y-74842854D01*
X158353142Y-74842854D02*
X157153142Y-74842854D01*
X158238857Y-73185711D02*
X158296000Y-73242854D01*
X158296000Y-73242854D02*
X158353142Y-73414282D01*
X158353142Y-73414282D02*
X158353142Y-73528568D01*
X158353142Y-73528568D02*
X158296000Y-73699997D01*
X158296000Y-73699997D02*
X158181714Y-73814282D01*
X158181714Y-73814282D02*
X158067428Y-73871425D01*
X158067428Y-73871425D02*
X157838857Y-73928568D01*
X157838857Y-73928568D02*
X157667428Y-73928568D01*
X157667428Y-73928568D02*
X157438857Y-73871425D01*
X157438857Y-73871425D02*
X157324571Y-73814282D01*
X157324571Y-73814282D02*
X157210285Y-73699997D01*
X157210285Y-73699997D02*
X157153142Y-73528568D01*
X157153142Y-73528568D02*
X157153142Y-73414282D01*
X157153142Y-73414282D02*
X157210285Y-73242854D01*
X157210285Y-73242854D02*
X157267428Y-73185711D01*
%TO.C,C3*%
X144267380Y-106766666D02*
X144315000Y-106814285D01*
X144315000Y-106814285D02*
X144362619Y-106957142D01*
X144362619Y-106957142D02*
X144362619Y-107052380D01*
X144362619Y-107052380D02*
X144315000Y-107195237D01*
X144315000Y-107195237D02*
X144219761Y-107290475D01*
X144219761Y-107290475D02*
X144124523Y-107338094D01*
X144124523Y-107338094D02*
X143934047Y-107385713D01*
X143934047Y-107385713D02*
X143791190Y-107385713D01*
X143791190Y-107385713D02*
X143600714Y-107338094D01*
X143600714Y-107338094D02*
X143505476Y-107290475D01*
X143505476Y-107290475D02*
X143410238Y-107195237D01*
X143410238Y-107195237D02*
X143362619Y-107052380D01*
X143362619Y-107052380D02*
X143362619Y-106957142D01*
X143362619Y-106957142D02*
X143410238Y-106814285D01*
X143410238Y-106814285D02*
X143457857Y-106766666D01*
X143362619Y-106433332D02*
X143362619Y-105814285D01*
X143362619Y-105814285D02*
X143743571Y-106147618D01*
X143743571Y-106147618D02*
X143743571Y-106004761D01*
X143743571Y-106004761D02*
X143791190Y-105909523D01*
X143791190Y-105909523D02*
X143838809Y-105861904D01*
X143838809Y-105861904D02*
X143934047Y-105814285D01*
X143934047Y-105814285D02*
X144172142Y-105814285D01*
X144172142Y-105814285D02*
X144267380Y-105861904D01*
X144267380Y-105861904D02*
X144315000Y-105909523D01*
X144315000Y-105909523D02*
X144362619Y-106004761D01*
X144362619Y-106004761D02*
X144362619Y-106290475D01*
X144362619Y-106290475D02*
X144315000Y-106385713D01*
X144315000Y-106385713D02*
X144267380Y-106433332D01*
%TO.C,Y1*%
X143493809Y-96796428D02*
X143493809Y-97272619D01*
X143160476Y-96272619D02*
X143493809Y-96796428D01*
X143493809Y-96796428D02*
X143827142Y-96272619D01*
X144684285Y-97272619D02*
X144112857Y-97272619D01*
X144398571Y-97272619D02*
X144398571Y-96272619D01*
X144398571Y-96272619D02*
X144303333Y-96415476D01*
X144303333Y-96415476D02*
X144208095Y-96510714D01*
X144208095Y-96510714D02*
X144112857Y-96558333D01*
%TO.C,Senseair S8*%
X115096666Y-118675000D02*
X115239523Y-118722619D01*
X115239523Y-118722619D02*
X115477618Y-118722619D01*
X115477618Y-118722619D02*
X115572856Y-118675000D01*
X115572856Y-118675000D02*
X115620475Y-118627380D01*
X115620475Y-118627380D02*
X115668094Y-118532142D01*
X115668094Y-118532142D02*
X115668094Y-118436904D01*
X115668094Y-118436904D02*
X115620475Y-118341666D01*
X115620475Y-118341666D02*
X115572856Y-118294047D01*
X115572856Y-118294047D02*
X115477618Y-118246428D01*
X115477618Y-118246428D02*
X115287142Y-118198809D01*
X115287142Y-118198809D02*
X115191904Y-118151190D01*
X115191904Y-118151190D02*
X115144285Y-118103571D01*
X115144285Y-118103571D02*
X115096666Y-118008333D01*
X115096666Y-118008333D02*
X115096666Y-117913095D01*
X115096666Y-117913095D02*
X115144285Y-117817857D01*
X115144285Y-117817857D02*
X115191904Y-117770238D01*
X115191904Y-117770238D02*
X115287142Y-117722619D01*
X115287142Y-117722619D02*
X115525237Y-117722619D01*
X115525237Y-117722619D02*
X115668094Y-117770238D01*
X116477618Y-118675000D02*
X116382380Y-118722619D01*
X116382380Y-118722619D02*
X116191904Y-118722619D01*
X116191904Y-118722619D02*
X116096666Y-118675000D01*
X116096666Y-118675000D02*
X116049047Y-118579761D01*
X116049047Y-118579761D02*
X116049047Y-118198809D01*
X116049047Y-118198809D02*
X116096666Y-118103571D01*
X116096666Y-118103571D02*
X116191904Y-118055952D01*
X116191904Y-118055952D02*
X116382380Y-118055952D01*
X116382380Y-118055952D02*
X116477618Y-118103571D01*
X116477618Y-118103571D02*
X116525237Y-118198809D01*
X116525237Y-118198809D02*
X116525237Y-118294047D01*
X116525237Y-118294047D02*
X116049047Y-118389285D01*
X116953809Y-118055952D02*
X116953809Y-118722619D01*
X116953809Y-118151190D02*
X117001428Y-118103571D01*
X117001428Y-118103571D02*
X117096666Y-118055952D01*
X117096666Y-118055952D02*
X117239523Y-118055952D01*
X117239523Y-118055952D02*
X117334761Y-118103571D01*
X117334761Y-118103571D02*
X117382380Y-118198809D01*
X117382380Y-118198809D02*
X117382380Y-118722619D01*
X117810952Y-118675000D02*
X117906190Y-118722619D01*
X117906190Y-118722619D02*
X118096666Y-118722619D01*
X118096666Y-118722619D02*
X118191904Y-118675000D01*
X118191904Y-118675000D02*
X118239523Y-118579761D01*
X118239523Y-118579761D02*
X118239523Y-118532142D01*
X118239523Y-118532142D02*
X118191904Y-118436904D01*
X118191904Y-118436904D02*
X118096666Y-118389285D01*
X118096666Y-118389285D02*
X117953809Y-118389285D01*
X117953809Y-118389285D02*
X117858571Y-118341666D01*
X117858571Y-118341666D02*
X117810952Y-118246428D01*
X117810952Y-118246428D02*
X117810952Y-118198809D01*
X117810952Y-118198809D02*
X117858571Y-118103571D01*
X117858571Y-118103571D02*
X117953809Y-118055952D01*
X117953809Y-118055952D02*
X118096666Y-118055952D01*
X118096666Y-118055952D02*
X118191904Y-118103571D01*
X119049047Y-118675000D02*
X118953809Y-118722619D01*
X118953809Y-118722619D02*
X118763333Y-118722619D01*
X118763333Y-118722619D02*
X118668095Y-118675000D01*
X118668095Y-118675000D02*
X118620476Y-118579761D01*
X118620476Y-118579761D02*
X118620476Y-118198809D01*
X118620476Y-118198809D02*
X118668095Y-118103571D01*
X118668095Y-118103571D02*
X118763333Y-118055952D01*
X118763333Y-118055952D02*
X118953809Y-118055952D01*
X118953809Y-118055952D02*
X119049047Y-118103571D01*
X119049047Y-118103571D02*
X119096666Y-118198809D01*
X119096666Y-118198809D02*
X119096666Y-118294047D01*
X119096666Y-118294047D02*
X118620476Y-118389285D01*
X119953809Y-118722619D02*
X119953809Y-118198809D01*
X119953809Y-118198809D02*
X119906190Y-118103571D01*
X119906190Y-118103571D02*
X119810952Y-118055952D01*
X119810952Y-118055952D02*
X119620476Y-118055952D01*
X119620476Y-118055952D02*
X119525238Y-118103571D01*
X119953809Y-118675000D02*
X119858571Y-118722619D01*
X119858571Y-118722619D02*
X119620476Y-118722619D01*
X119620476Y-118722619D02*
X119525238Y-118675000D01*
X119525238Y-118675000D02*
X119477619Y-118579761D01*
X119477619Y-118579761D02*
X119477619Y-118484523D01*
X119477619Y-118484523D02*
X119525238Y-118389285D01*
X119525238Y-118389285D02*
X119620476Y-118341666D01*
X119620476Y-118341666D02*
X119858571Y-118341666D01*
X119858571Y-118341666D02*
X119953809Y-118294047D01*
X120430000Y-118722619D02*
X120430000Y-118055952D01*
X120430000Y-117722619D02*
X120382381Y-117770238D01*
X120382381Y-117770238D02*
X120430000Y-117817857D01*
X120430000Y-117817857D02*
X120477619Y-117770238D01*
X120477619Y-117770238D02*
X120430000Y-117722619D01*
X120430000Y-117722619D02*
X120430000Y-117817857D01*
X120906190Y-118722619D02*
X120906190Y-118055952D01*
X120906190Y-118246428D02*
X120953809Y-118151190D01*
X120953809Y-118151190D02*
X121001428Y-118103571D01*
X121001428Y-118103571D02*
X121096666Y-118055952D01*
X121096666Y-118055952D02*
X121191904Y-118055952D01*
X122239524Y-118675000D02*
X122382381Y-118722619D01*
X122382381Y-118722619D02*
X122620476Y-118722619D01*
X122620476Y-118722619D02*
X122715714Y-118675000D01*
X122715714Y-118675000D02*
X122763333Y-118627380D01*
X122763333Y-118627380D02*
X122810952Y-118532142D01*
X122810952Y-118532142D02*
X122810952Y-118436904D01*
X122810952Y-118436904D02*
X122763333Y-118341666D01*
X122763333Y-118341666D02*
X122715714Y-118294047D01*
X122715714Y-118294047D02*
X122620476Y-118246428D01*
X122620476Y-118246428D02*
X122430000Y-118198809D01*
X122430000Y-118198809D02*
X122334762Y-118151190D01*
X122334762Y-118151190D02*
X122287143Y-118103571D01*
X122287143Y-118103571D02*
X122239524Y-118008333D01*
X122239524Y-118008333D02*
X122239524Y-117913095D01*
X122239524Y-117913095D02*
X122287143Y-117817857D01*
X122287143Y-117817857D02*
X122334762Y-117770238D01*
X122334762Y-117770238D02*
X122430000Y-117722619D01*
X122430000Y-117722619D02*
X122668095Y-117722619D01*
X122668095Y-117722619D02*
X122810952Y-117770238D01*
X123382381Y-118151190D02*
X123287143Y-118103571D01*
X123287143Y-118103571D02*
X123239524Y-118055952D01*
X123239524Y-118055952D02*
X123191905Y-117960714D01*
X123191905Y-117960714D02*
X123191905Y-117913095D01*
X123191905Y-117913095D02*
X123239524Y-117817857D01*
X123239524Y-117817857D02*
X123287143Y-117770238D01*
X123287143Y-117770238D02*
X123382381Y-117722619D01*
X123382381Y-117722619D02*
X123572857Y-117722619D01*
X123572857Y-117722619D02*
X123668095Y-117770238D01*
X123668095Y-117770238D02*
X123715714Y-117817857D01*
X123715714Y-117817857D02*
X123763333Y-117913095D01*
X123763333Y-117913095D02*
X123763333Y-117960714D01*
X123763333Y-117960714D02*
X123715714Y-118055952D01*
X123715714Y-118055952D02*
X123668095Y-118103571D01*
X123668095Y-118103571D02*
X123572857Y-118151190D01*
X123572857Y-118151190D02*
X123382381Y-118151190D01*
X123382381Y-118151190D02*
X123287143Y-118198809D01*
X123287143Y-118198809D02*
X123239524Y-118246428D01*
X123239524Y-118246428D02*
X123191905Y-118341666D01*
X123191905Y-118341666D02*
X123191905Y-118532142D01*
X123191905Y-118532142D02*
X123239524Y-118627380D01*
X123239524Y-118627380D02*
X123287143Y-118675000D01*
X123287143Y-118675000D02*
X123382381Y-118722619D01*
X123382381Y-118722619D02*
X123572857Y-118722619D01*
X123572857Y-118722619D02*
X123668095Y-118675000D01*
X123668095Y-118675000D02*
X123715714Y-118627380D01*
X123715714Y-118627380D02*
X123763333Y-118532142D01*
X123763333Y-118532142D02*
X123763333Y-118341666D01*
X123763333Y-118341666D02*
X123715714Y-118246428D01*
X123715714Y-118246428D02*
X123668095Y-118198809D01*
X123668095Y-118198809D02*
X123572857Y-118151190D01*
%TO.C,C6*%
X177803333Y-89007380D02*
X177755714Y-89055000D01*
X177755714Y-89055000D02*
X177612857Y-89102619D01*
X177612857Y-89102619D02*
X177517619Y-89102619D01*
X177517619Y-89102619D02*
X177374762Y-89055000D01*
X177374762Y-89055000D02*
X177279524Y-88959761D01*
X177279524Y-88959761D02*
X177231905Y-88864523D01*
X177231905Y-88864523D02*
X177184286Y-88674047D01*
X177184286Y-88674047D02*
X177184286Y-88531190D01*
X177184286Y-88531190D02*
X177231905Y-88340714D01*
X177231905Y-88340714D02*
X177279524Y-88245476D01*
X177279524Y-88245476D02*
X177374762Y-88150238D01*
X177374762Y-88150238D02*
X177517619Y-88102619D01*
X177517619Y-88102619D02*
X177612857Y-88102619D01*
X177612857Y-88102619D02*
X177755714Y-88150238D01*
X177755714Y-88150238D02*
X177803333Y-88197857D01*
X178660476Y-88102619D02*
X178470000Y-88102619D01*
X178470000Y-88102619D02*
X178374762Y-88150238D01*
X178374762Y-88150238D02*
X178327143Y-88197857D01*
X178327143Y-88197857D02*
X178231905Y-88340714D01*
X178231905Y-88340714D02*
X178184286Y-88531190D01*
X178184286Y-88531190D02*
X178184286Y-88912142D01*
X178184286Y-88912142D02*
X178231905Y-89007380D01*
X178231905Y-89007380D02*
X178279524Y-89055000D01*
X178279524Y-89055000D02*
X178374762Y-89102619D01*
X178374762Y-89102619D02*
X178565238Y-89102619D01*
X178565238Y-89102619D02*
X178660476Y-89055000D01*
X178660476Y-89055000D02*
X178708095Y-89007380D01*
X178708095Y-89007380D02*
X178755714Y-88912142D01*
X178755714Y-88912142D02*
X178755714Y-88674047D01*
X178755714Y-88674047D02*
X178708095Y-88578809D01*
X178708095Y-88578809D02*
X178660476Y-88531190D01*
X178660476Y-88531190D02*
X178565238Y-88483571D01*
X178565238Y-88483571D02*
X178374762Y-88483571D01*
X178374762Y-88483571D02*
X178279524Y-88531190D01*
X178279524Y-88531190D02*
X178231905Y-88578809D01*
X178231905Y-88578809D02*
X178184286Y-88674047D01*
%TO.C,U3*%
X173575714Y-69332619D02*
X173099524Y-69332619D01*
X173099524Y-69332619D02*
X173099524Y-68332619D01*
X173909048Y-69332619D02*
X173909048Y-68332619D01*
X173909048Y-68332619D02*
X174242381Y-69046904D01*
X174242381Y-69046904D02*
X174575714Y-68332619D01*
X174575714Y-68332619D02*
X174575714Y-69332619D01*
X174956667Y-68332619D02*
X175575714Y-68332619D01*
X175575714Y-68332619D02*
X175242381Y-68713571D01*
X175242381Y-68713571D02*
X175385238Y-68713571D01*
X175385238Y-68713571D02*
X175480476Y-68761190D01*
X175480476Y-68761190D02*
X175528095Y-68808809D01*
X175528095Y-68808809D02*
X175575714Y-68904047D01*
X175575714Y-68904047D02*
X175575714Y-69142142D01*
X175575714Y-69142142D02*
X175528095Y-69237380D01*
X175528095Y-69237380D02*
X175480476Y-69285000D01*
X175480476Y-69285000D02*
X175385238Y-69332619D01*
X175385238Y-69332619D02*
X175099524Y-69332619D01*
X175099524Y-69332619D02*
X175004286Y-69285000D01*
X175004286Y-69285000D02*
X174956667Y-69237380D01*
X176480476Y-68332619D02*
X176004286Y-68332619D01*
X176004286Y-68332619D02*
X175956667Y-68808809D01*
X175956667Y-68808809D02*
X176004286Y-68761190D01*
X176004286Y-68761190D02*
X176099524Y-68713571D01*
X176099524Y-68713571D02*
X176337619Y-68713571D01*
X176337619Y-68713571D02*
X176432857Y-68761190D01*
X176432857Y-68761190D02*
X176480476Y-68808809D01*
X176480476Y-68808809D02*
X176528095Y-68904047D01*
X176528095Y-68904047D02*
X176528095Y-69142142D01*
X176528095Y-69142142D02*
X176480476Y-69237380D01*
X176480476Y-69237380D02*
X176432857Y-69285000D01*
X176432857Y-69285000D02*
X176337619Y-69332619D01*
X176337619Y-69332619D02*
X176099524Y-69332619D01*
X176099524Y-69332619D02*
X176004286Y-69285000D01*
X176004286Y-69285000D02*
X175956667Y-69237380D01*
%TO.C,R1*%
X180073333Y-107742619D02*
X179740000Y-107266428D01*
X179501905Y-107742619D02*
X179501905Y-106742619D01*
X179501905Y-106742619D02*
X179882857Y-106742619D01*
X179882857Y-106742619D02*
X179978095Y-106790238D01*
X179978095Y-106790238D02*
X180025714Y-106837857D01*
X180025714Y-106837857D02*
X180073333Y-106933095D01*
X180073333Y-106933095D02*
X180073333Y-107075952D01*
X180073333Y-107075952D02*
X180025714Y-107171190D01*
X180025714Y-107171190D02*
X179978095Y-107218809D01*
X179978095Y-107218809D02*
X179882857Y-107266428D01*
X179882857Y-107266428D02*
X179501905Y-107266428D01*
X181025714Y-107742619D02*
X180454286Y-107742619D01*
X180740000Y-107742619D02*
X180740000Y-106742619D01*
X180740000Y-106742619D02*
X180644762Y-106885476D01*
X180644762Y-106885476D02*
X180549524Y-106980714D01*
X180549524Y-106980714D02*
X180454286Y-107028333D01*
%TO.C,BZ1*%
X133551428Y-107668809D02*
X133694285Y-107716428D01*
X133694285Y-107716428D02*
X133741904Y-107764047D01*
X133741904Y-107764047D02*
X133789523Y-107859285D01*
X133789523Y-107859285D02*
X133789523Y-108002142D01*
X133789523Y-108002142D02*
X133741904Y-108097380D01*
X133741904Y-108097380D02*
X133694285Y-108145000D01*
X133694285Y-108145000D02*
X133599047Y-108192619D01*
X133599047Y-108192619D02*
X133218095Y-108192619D01*
X133218095Y-108192619D02*
X133218095Y-107192619D01*
X133218095Y-107192619D02*
X133551428Y-107192619D01*
X133551428Y-107192619D02*
X133646666Y-107240238D01*
X133646666Y-107240238D02*
X133694285Y-107287857D01*
X133694285Y-107287857D02*
X133741904Y-107383095D01*
X133741904Y-107383095D02*
X133741904Y-107478333D01*
X133741904Y-107478333D02*
X133694285Y-107573571D01*
X133694285Y-107573571D02*
X133646666Y-107621190D01*
X133646666Y-107621190D02*
X133551428Y-107668809D01*
X133551428Y-107668809D02*
X133218095Y-107668809D01*
X134646666Y-107525952D02*
X134646666Y-108192619D01*
X134218095Y-107525952D02*
X134218095Y-108049761D01*
X134218095Y-108049761D02*
X134265714Y-108145000D01*
X134265714Y-108145000D02*
X134360952Y-108192619D01*
X134360952Y-108192619D02*
X134503809Y-108192619D01*
X134503809Y-108192619D02*
X134599047Y-108145000D01*
X134599047Y-108145000D02*
X134646666Y-108097380D01*
X135027619Y-107525952D02*
X135551428Y-107525952D01*
X135551428Y-107525952D02*
X135027619Y-108192619D01*
X135027619Y-108192619D02*
X135551428Y-108192619D01*
X135837143Y-107525952D02*
X136360952Y-107525952D01*
X136360952Y-107525952D02*
X135837143Y-108192619D01*
X135837143Y-108192619D02*
X136360952Y-108192619D01*
X137122857Y-108145000D02*
X137027619Y-108192619D01*
X137027619Y-108192619D02*
X136837143Y-108192619D01*
X136837143Y-108192619D02*
X136741905Y-108145000D01*
X136741905Y-108145000D02*
X136694286Y-108049761D01*
X136694286Y-108049761D02*
X136694286Y-107668809D01*
X136694286Y-107668809D02*
X136741905Y-107573571D01*
X136741905Y-107573571D02*
X136837143Y-107525952D01*
X136837143Y-107525952D02*
X137027619Y-107525952D01*
X137027619Y-107525952D02*
X137122857Y-107573571D01*
X137122857Y-107573571D02*
X137170476Y-107668809D01*
X137170476Y-107668809D02*
X137170476Y-107764047D01*
X137170476Y-107764047D02*
X136694286Y-107859285D01*
X137599048Y-108192619D02*
X137599048Y-107525952D01*
X137599048Y-107716428D02*
X137646667Y-107621190D01*
X137646667Y-107621190D02*
X137694286Y-107573571D01*
X137694286Y-107573571D02*
X137789524Y-107525952D01*
X137789524Y-107525952D02*
X137884762Y-107525952D01*
%TO.C,LCD*%
X173989523Y-118722619D02*
X173513333Y-118722619D01*
X173513333Y-118722619D02*
X173513333Y-117722619D01*
X174894285Y-118627380D02*
X174846666Y-118675000D01*
X174846666Y-118675000D02*
X174703809Y-118722619D01*
X174703809Y-118722619D02*
X174608571Y-118722619D01*
X174608571Y-118722619D02*
X174465714Y-118675000D01*
X174465714Y-118675000D02*
X174370476Y-118579761D01*
X174370476Y-118579761D02*
X174322857Y-118484523D01*
X174322857Y-118484523D02*
X174275238Y-118294047D01*
X174275238Y-118294047D02*
X174275238Y-118151190D01*
X174275238Y-118151190D02*
X174322857Y-117960714D01*
X174322857Y-117960714D02*
X174370476Y-117865476D01*
X174370476Y-117865476D02*
X174465714Y-117770238D01*
X174465714Y-117770238D02*
X174608571Y-117722619D01*
X174608571Y-117722619D02*
X174703809Y-117722619D01*
X174703809Y-117722619D02*
X174846666Y-117770238D01*
X174846666Y-117770238D02*
X174894285Y-117817857D01*
X175322857Y-118722619D02*
X175322857Y-117722619D01*
X175322857Y-117722619D02*
X175560952Y-117722619D01*
X175560952Y-117722619D02*
X175703809Y-117770238D01*
X175703809Y-117770238D02*
X175799047Y-117865476D01*
X175799047Y-117865476D02*
X175846666Y-117960714D01*
X175846666Y-117960714D02*
X175894285Y-118151190D01*
X175894285Y-118151190D02*
X175894285Y-118294047D01*
X175894285Y-118294047D02*
X175846666Y-118484523D01*
X175846666Y-118484523D02*
X175799047Y-118579761D01*
X175799047Y-118579761D02*
X175703809Y-118675000D01*
X175703809Y-118675000D02*
X175560952Y-118722619D01*
X175560952Y-118722619D02*
X175322857Y-118722619D01*
%TO.C,RV1*%
X175164761Y-83362619D02*
X174831428Y-82886428D01*
X174593333Y-83362619D02*
X174593333Y-82362619D01*
X174593333Y-82362619D02*
X174974285Y-82362619D01*
X174974285Y-82362619D02*
X175069523Y-82410238D01*
X175069523Y-82410238D02*
X175117142Y-82457857D01*
X175117142Y-82457857D02*
X175164761Y-82553095D01*
X175164761Y-82553095D02*
X175164761Y-82695952D01*
X175164761Y-82695952D02*
X175117142Y-82791190D01*
X175117142Y-82791190D02*
X175069523Y-82838809D01*
X175069523Y-82838809D02*
X174974285Y-82886428D01*
X174974285Y-82886428D02*
X174593333Y-82886428D01*
X175450476Y-82362619D02*
X175783809Y-83362619D01*
X175783809Y-83362619D02*
X176117142Y-82362619D01*
X176974285Y-83362619D02*
X176402857Y-83362619D01*
X176688571Y-83362619D02*
X176688571Y-82362619D01*
X176688571Y-82362619D02*
X176593333Y-82505476D01*
X176593333Y-82505476D02*
X176498095Y-82600714D01*
X176498095Y-82600714D02*
X176402857Y-82648333D01*
%TO.C,C5*%
X174623333Y-91527380D02*
X174575714Y-91575000D01*
X174575714Y-91575000D02*
X174432857Y-91622619D01*
X174432857Y-91622619D02*
X174337619Y-91622619D01*
X174337619Y-91622619D02*
X174194762Y-91575000D01*
X174194762Y-91575000D02*
X174099524Y-91479761D01*
X174099524Y-91479761D02*
X174051905Y-91384523D01*
X174051905Y-91384523D02*
X174004286Y-91194047D01*
X174004286Y-91194047D02*
X174004286Y-91051190D01*
X174004286Y-91051190D02*
X174051905Y-90860714D01*
X174051905Y-90860714D02*
X174099524Y-90765476D01*
X174099524Y-90765476D02*
X174194762Y-90670238D01*
X174194762Y-90670238D02*
X174337619Y-90622619D01*
X174337619Y-90622619D02*
X174432857Y-90622619D01*
X174432857Y-90622619D02*
X174575714Y-90670238D01*
X174575714Y-90670238D02*
X174623333Y-90717857D01*
X175528095Y-90622619D02*
X175051905Y-90622619D01*
X175051905Y-90622619D02*
X175004286Y-91098809D01*
X175004286Y-91098809D02*
X175051905Y-91051190D01*
X175051905Y-91051190D02*
X175147143Y-91003571D01*
X175147143Y-91003571D02*
X175385238Y-91003571D01*
X175385238Y-91003571D02*
X175480476Y-91051190D01*
X175480476Y-91051190D02*
X175528095Y-91098809D01*
X175528095Y-91098809D02*
X175575714Y-91194047D01*
X175575714Y-91194047D02*
X175575714Y-91432142D01*
X175575714Y-91432142D02*
X175528095Y-91527380D01*
X175528095Y-91527380D02*
X175480476Y-91575000D01*
X175480476Y-91575000D02*
X175385238Y-91622619D01*
X175385238Y-91622619D02*
X175147143Y-91622619D01*
X175147143Y-91622619D02*
X175051905Y-91575000D01*
X175051905Y-91575000D02*
X175004286Y-91527380D01*
%TO.C,C1*%
X148267380Y-92066666D02*
X148315000Y-92114285D01*
X148315000Y-92114285D02*
X148362619Y-92257142D01*
X148362619Y-92257142D02*
X148362619Y-92352380D01*
X148362619Y-92352380D02*
X148315000Y-92495237D01*
X148315000Y-92495237D02*
X148219761Y-92590475D01*
X148219761Y-92590475D02*
X148124523Y-92638094D01*
X148124523Y-92638094D02*
X147934047Y-92685713D01*
X147934047Y-92685713D02*
X147791190Y-92685713D01*
X147791190Y-92685713D02*
X147600714Y-92638094D01*
X147600714Y-92638094D02*
X147505476Y-92590475D01*
X147505476Y-92590475D02*
X147410238Y-92495237D01*
X147410238Y-92495237D02*
X147362619Y-92352380D01*
X147362619Y-92352380D02*
X147362619Y-92257142D01*
X147362619Y-92257142D02*
X147410238Y-92114285D01*
X147410238Y-92114285D02*
X147457857Y-92066666D01*
X148362619Y-91114285D02*
X148362619Y-91685713D01*
X148362619Y-91399999D02*
X147362619Y-91399999D01*
X147362619Y-91399999D02*
X147505476Y-91495237D01*
X147505476Y-91495237D02*
X147600714Y-91590475D01*
X147600714Y-91590475D02*
X147648333Y-91685713D01*
%TO.C,C4*%
X144237380Y-87206666D02*
X144285000Y-87254285D01*
X144285000Y-87254285D02*
X144332619Y-87397142D01*
X144332619Y-87397142D02*
X144332619Y-87492380D01*
X144332619Y-87492380D02*
X144285000Y-87635237D01*
X144285000Y-87635237D02*
X144189761Y-87730475D01*
X144189761Y-87730475D02*
X144094523Y-87778094D01*
X144094523Y-87778094D02*
X143904047Y-87825713D01*
X143904047Y-87825713D02*
X143761190Y-87825713D01*
X143761190Y-87825713D02*
X143570714Y-87778094D01*
X143570714Y-87778094D02*
X143475476Y-87730475D01*
X143475476Y-87730475D02*
X143380238Y-87635237D01*
X143380238Y-87635237D02*
X143332619Y-87492380D01*
X143332619Y-87492380D02*
X143332619Y-87397142D01*
X143332619Y-87397142D02*
X143380238Y-87254285D01*
X143380238Y-87254285D02*
X143427857Y-87206666D01*
X143665952Y-86349523D02*
X144332619Y-86349523D01*
X143285000Y-86587618D02*
X143999285Y-86825713D01*
X143999285Y-86825713D02*
X143999285Y-86206666D01*
%TO.C,R3*%
X131713333Y-75422619D02*
X131380000Y-74946428D01*
X131141905Y-75422619D02*
X131141905Y-74422619D01*
X131141905Y-74422619D02*
X131522857Y-74422619D01*
X131522857Y-74422619D02*
X131618095Y-74470238D01*
X131618095Y-74470238D02*
X131665714Y-74517857D01*
X131665714Y-74517857D02*
X131713333Y-74613095D01*
X131713333Y-74613095D02*
X131713333Y-74755952D01*
X131713333Y-74755952D02*
X131665714Y-74851190D01*
X131665714Y-74851190D02*
X131618095Y-74898809D01*
X131618095Y-74898809D02*
X131522857Y-74946428D01*
X131522857Y-74946428D02*
X131141905Y-74946428D01*
X132046667Y-74422619D02*
X132665714Y-74422619D01*
X132665714Y-74422619D02*
X132332381Y-74803571D01*
X132332381Y-74803571D02*
X132475238Y-74803571D01*
X132475238Y-74803571D02*
X132570476Y-74851190D01*
X132570476Y-74851190D02*
X132618095Y-74898809D01*
X132618095Y-74898809D02*
X132665714Y-74994047D01*
X132665714Y-74994047D02*
X132665714Y-75232142D01*
X132665714Y-75232142D02*
X132618095Y-75327380D01*
X132618095Y-75327380D02*
X132570476Y-75375000D01*
X132570476Y-75375000D02*
X132475238Y-75422619D01*
X132475238Y-75422619D02*
X132189524Y-75422619D01*
X132189524Y-75422619D02*
X132094286Y-75375000D01*
X132094286Y-75375000D02*
X132046667Y-75327380D01*
%TO.C,SW1*%
X181437618Y-100442619D02*
X181104285Y-99966428D01*
X180866190Y-100442619D02*
X180866190Y-99442619D01*
X180866190Y-99442619D02*
X181247142Y-99442619D01*
X181247142Y-99442619D02*
X181342380Y-99490238D01*
X181342380Y-99490238D02*
X181389999Y-99537857D01*
X181389999Y-99537857D02*
X181437618Y-99633095D01*
X181437618Y-99633095D02*
X181437618Y-99775952D01*
X181437618Y-99775952D02*
X181389999Y-99871190D01*
X181389999Y-99871190D02*
X181342380Y-99918809D01*
X181342380Y-99918809D02*
X181247142Y-99966428D01*
X181247142Y-99966428D02*
X180866190Y-99966428D01*
X181866190Y-99918809D02*
X182199523Y-99918809D01*
X182342380Y-100442619D02*
X181866190Y-100442619D01*
X181866190Y-100442619D02*
X181866190Y-99442619D01*
X181866190Y-99442619D02*
X182342380Y-99442619D01*
X182723333Y-100395000D02*
X182866190Y-100442619D01*
X182866190Y-100442619D02*
X183104285Y-100442619D01*
X183104285Y-100442619D02*
X183199523Y-100395000D01*
X183199523Y-100395000D02*
X183247142Y-100347380D01*
X183247142Y-100347380D02*
X183294761Y-100252142D01*
X183294761Y-100252142D02*
X183294761Y-100156904D01*
X183294761Y-100156904D02*
X183247142Y-100061666D01*
X183247142Y-100061666D02*
X183199523Y-100014047D01*
X183199523Y-100014047D02*
X183104285Y-99966428D01*
X183104285Y-99966428D02*
X182913809Y-99918809D01*
X182913809Y-99918809D02*
X182818571Y-99871190D01*
X182818571Y-99871190D02*
X182770952Y-99823571D01*
X182770952Y-99823571D02*
X182723333Y-99728333D01*
X182723333Y-99728333D02*
X182723333Y-99633095D01*
X182723333Y-99633095D02*
X182770952Y-99537857D01*
X182770952Y-99537857D02*
X182818571Y-99490238D01*
X182818571Y-99490238D02*
X182913809Y-99442619D01*
X182913809Y-99442619D02*
X183151904Y-99442619D01*
X183151904Y-99442619D02*
X183294761Y-99490238D01*
X183723333Y-99918809D02*
X184056666Y-99918809D01*
X184199523Y-100442619D02*
X183723333Y-100442619D01*
X183723333Y-100442619D02*
X183723333Y-99442619D01*
X183723333Y-99442619D02*
X184199523Y-99442619D01*
X184485238Y-99442619D02*
X185056666Y-99442619D01*
X184770952Y-100442619D02*
X184770952Y-99442619D01*
%TO.C,C2*%
X170133333Y-88937380D02*
X170085714Y-88985000D01*
X170085714Y-88985000D02*
X169942857Y-89032619D01*
X169942857Y-89032619D02*
X169847619Y-89032619D01*
X169847619Y-89032619D02*
X169704762Y-88985000D01*
X169704762Y-88985000D02*
X169609524Y-88889761D01*
X169609524Y-88889761D02*
X169561905Y-88794523D01*
X169561905Y-88794523D02*
X169514286Y-88604047D01*
X169514286Y-88604047D02*
X169514286Y-88461190D01*
X169514286Y-88461190D02*
X169561905Y-88270714D01*
X169561905Y-88270714D02*
X169609524Y-88175476D01*
X169609524Y-88175476D02*
X169704762Y-88080238D01*
X169704762Y-88080238D02*
X169847619Y-88032619D01*
X169847619Y-88032619D02*
X169942857Y-88032619D01*
X169942857Y-88032619D02*
X170085714Y-88080238D01*
X170085714Y-88080238D02*
X170133333Y-88127857D01*
X170514286Y-88127857D02*
X170561905Y-88080238D01*
X170561905Y-88080238D02*
X170657143Y-88032619D01*
X170657143Y-88032619D02*
X170895238Y-88032619D01*
X170895238Y-88032619D02*
X170990476Y-88080238D01*
X170990476Y-88080238D02*
X171038095Y-88127857D01*
X171038095Y-88127857D02*
X171085714Y-88223095D01*
X171085714Y-88223095D02*
X171085714Y-88318333D01*
X171085714Y-88318333D02*
X171038095Y-88461190D01*
X171038095Y-88461190D02*
X170466667Y-89032619D01*
X170466667Y-89032619D02*
X171085714Y-89032619D01*
%TO.C,L1*%
X169233333Y-103362619D02*
X168757143Y-103362619D01*
X168757143Y-103362619D02*
X168757143Y-102362619D01*
X170090476Y-103362619D02*
X169519048Y-103362619D01*
X169804762Y-103362619D02*
X169804762Y-102362619D01*
X169804762Y-102362619D02*
X169709524Y-102505476D01*
X169709524Y-102505476D02*
X169614286Y-102600714D01*
X169614286Y-102600714D02*
X169519048Y-102648333D01*
%TO.C,ATmega 16A-P*%
X152352500Y-118426904D02*
X152828690Y-118426904D01*
X152257262Y-118712619D02*
X152590595Y-117712619D01*
X152590595Y-117712619D02*
X152923928Y-118712619D01*
X153114405Y-117712619D02*
X153685833Y-117712619D01*
X153400119Y-118712619D02*
X153400119Y-117712619D01*
X154019167Y-118712619D02*
X154019167Y-118045952D01*
X154019167Y-118141190D02*
X154066786Y-118093571D01*
X154066786Y-118093571D02*
X154162024Y-118045952D01*
X154162024Y-118045952D02*
X154304881Y-118045952D01*
X154304881Y-118045952D02*
X154400119Y-118093571D01*
X154400119Y-118093571D02*
X154447738Y-118188809D01*
X154447738Y-118188809D02*
X154447738Y-118712619D01*
X154447738Y-118188809D02*
X154495357Y-118093571D01*
X154495357Y-118093571D02*
X154590595Y-118045952D01*
X154590595Y-118045952D02*
X154733452Y-118045952D01*
X154733452Y-118045952D02*
X154828691Y-118093571D01*
X154828691Y-118093571D02*
X154876310Y-118188809D01*
X154876310Y-118188809D02*
X154876310Y-118712619D01*
X155733452Y-118665000D02*
X155638214Y-118712619D01*
X155638214Y-118712619D02*
X155447738Y-118712619D01*
X155447738Y-118712619D02*
X155352500Y-118665000D01*
X155352500Y-118665000D02*
X155304881Y-118569761D01*
X155304881Y-118569761D02*
X155304881Y-118188809D01*
X155304881Y-118188809D02*
X155352500Y-118093571D01*
X155352500Y-118093571D02*
X155447738Y-118045952D01*
X155447738Y-118045952D02*
X155638214Y-118045952D01*
X155638214Y-118045952D02*
X155733452Y-118093571D01*
X155733452Y-118093571D02*
X155781071Y-118188809D01*
X155781071Y-118188809D02*
X155781071Y-118284047D01*
X155781071Y-118284047D02*
X155304881Y-118379285D01*
X156638214Y-118045952D02*
X156638214Y-118855476D01*
X156638214Y-118855476D02*
X156590595Y-118950714D01*
X156590595Y-118950714D02*
X156542976Y-118998333D01*
X156542976Y-118998333D02*
X156447738Y-119045952D01*
X156447738Y-119045952D02*
X156304881Y-119045952D01*
X156304881Y-119045952D02*
X156209643Y-118998333D01*
X156638214Y-118665000D02*
X156542976Y-118712619D01*
X156542976Y-118712619D02*
X156352500Y-118712619D01*
X156352500Y-118712619D02*
X156257262Y-118665000D01*
X156257262Y-118665000D02*
X156209643Y-118617380D01*
X156209643Y-118617380D02*
X156162024Y-118522142D01*
X156162024Y-118522142D02*
X156162024Y-118236428D01*
X156162024Y-118236428D02*
X156209643Y-118141190D01*
X156209643Y-118141190D02*
X156257262Y-118093571D01*
X156257262Y-118093571D02*
X156352500Y-118045952D01*
X156352500Y-118045952D02*
X156542976Y-118045952D01*
X156542976Y-118045952D02*
X156638214Y-118093571D01*
X157542976Y-118712619D02*
X157542976Y-118188809D01*
X157542976Y-118188809D02*
X157495357Y-118093571D01*
X157495357Y-118093571D02*
X157400119Y-118045952D01*
X157400119Y-118045952D02*
X157209643Y-118045952D01*
X157209643Y-118045952D02*
X157114405Y-118093571D01*
X157542976Y-118665000D02*
X157447738Y-118712619D01*
X157447738Y-118712619D02*
X157209643Y-118712619D01*
X157209643Y-118712619D02*
X157114405Y-118665000D01*
X157114405Y-118665000D02*
X157066786Y-118569761D01*
X157066786Y-118569761D02*
X157066786Y-118474523D01*
X157066786Y-118474523D02*
X157114405Y-118379285D01*
X157114405Y-118379285D02*
X157209643Y-118331666D01*
X157209643Y-118331666D02*
X157447738Y-118331666D01*
X157447738Y-118331666D02*
X157542976Y-118284047D01*
X159304881Y-118712619D02*
X158733453Y-118712619D01*
X159019167Y-118712619D02*
X159019167Y-117712619D01*
X159019167Y-117712619D02*
X158923929Y-117855476D01*
X158923929Y-117855476D02*
X158828691Y-117950714D01*
X158828691Y-117950714D02*
X158733453Y-117998333D01*
X160162024Y-117712619D02*
X159971548Y-117712619D01*
X159971548Y-117712619D02*
X159876310Y-117760238D01*
X159876310Y-117760238D02*
X159828691Y-117807857D01*
X159828691Y-117807857D02*
X159733453Y-117950714D01*
X159733453Y-117950714D02*
X159685834Y-118141190D01*
X159685834Y-118141190D02*
X159685834Y-118522142D01*
X159685834Y-118522142D02*
X159733453Y-118617380D01*
X159733453Y-118617380D02*
X159781072Y-118665000D01*
X159781072Y-118665000D02*
X159876310Y-118712619D01*
X159876310Y-118712619D02*
X160066786Y-118712619D01*
X160066786Y-118712619D02*
X160162024Y-118665000D01*
X160162024Y-118665000D02*
X160209643Y-118617380D01*
X160209643Y-118617380D02*
X160257262Y-118522142D01*
X160257262Y-118522142D02*
X160257262Y-118284047D01*
X160257262Y-118284047D02*
X160209643Y-118188809D01*
X160209643Y-118188809D02*
X160162024Y-118141190D01*
X160162024Y-118141190D02*
X160066786Y-118093571D01*
X160066786Y-118093571D02*
X159876310Y-118093571D01*
X159876310Y-118093571D02*
X159781072Y-118141190D01*
X159781072Y-118141190D02*
X159733453Y-118188809D01*
X159733453Y-118188809D02*
X159685834Y-118284047D01*
X160638215Y-118426904D02*
X161114405Y-118426904D01*
X160542977Y-118712619D02*
X160876310Y-117712619D01*
X160876310Y-117712619D02*
X161209643Y-118712619D01*
X161542977Y-118331666D02*
X162304882Y-118331666D01*
X162781072Y-118712619D02*
X162781072Y-117712619D01*
X162781072Y-117712619D02*
X163162024Y-117712619D01*
X163162024Y-117712619D02*
X163257262Y-117760238D01*
X163257262Y-117760238D02*
X163304881Y-117807857D01*
X163304881Y-117807857D02*
X163352500Y-117903095D01*
X163352500Y-117903095D02*
X163352500Y-118045952D01*
X163352500Y-118045952D02*
X163304881Y-118141190D01*
X163304881Y-118141190D02*
X163257262Y-118188809D01*
X163257262Y-118188809D02*
X163162024Y-118236428D01*
X163162024Y-118236428D02*
X162781072Y-118236428D01*
%TO.C,PROGRAMATOR*%
X129650952Y-100572619D02*
X129650952Y-99572619D01*
X129650952Y-99572619D02*
X130031904Y-99572619D01*
X130031904Y-99572619D02*
X130127142Y-99620238D01*
X130127142Y-99620238D02*
X130174761Y-99667857D01*
X130174761Y-99667857D02*
X130222380Y-99763095D01*
X130222380Y-99763095D02*
X130222380Y-99905952D01*
X130222380Y-99905952D02*
X130174761Y-100001190D01*
X130174761Y-100001190D02*
X130127142Y-100048809D01*
X130127142Y-100048809D02*
X130031904Y-100096428D01*
X130031904Y-100096428D02*
X129650952Y-100096428D01*
X131222380Y-100572619D02*
X130889047Y-100096428D01*
X130650952Y-100572619D02*
X130650952Y-99572619D01*
X130650952Y-99572619D02*
X131031904Y-99572619D01*
X131031904Y-99572619D02*
X131127142Y-99620238D01*
X131127142Y-99620238D02*
X131174761Y-99667857D01*
X131174761Y-99667857D02*
X131222380Y-99763095D01*
X131222380Y-99763095D02*
X131222380Y-99905952D01*
X131222380Y-99905952D02*
X131174761Y-100001190D01*
X131174761Y-100001190D02*
X131127142Y-100048809D01*
X131127142Y-100048809D02*
X131031904Y-100096428D01*
X131031904Y-100096428D02*
X130650952Y-100096428D01*
X131841428Y-99572619D02*
X132031904Y-99572619D01*
X132031904Y-99572619D02*
X132127142Y-99620238D01*
X132127142Y-99620238D02*
X132222380Y-99715476D01*
X132222380Y-99715476D02*
X132269999Y-99905952D01*
X132269999Y-99905952D02*
X132269999Y-100239285D01*
X132269999Y-100239285D02*
X132222380Y-100429761D01*
X132222380Y-100429761D02*
X132127142Y-100525000D01*
X132127142Y-100525000D02*
X132031904Y-100572619D01*
X132031904Y-100572619D02*
X131841428Y-100572619D01*
X131841428Y-100572619D02*
X131746190Y-100525000D01*
X131746190Y-100525000D02*
X131650952Y-100429761D01*
X131650952Y-100429761D02*
X131603333Y-100239285D01*
X131603333Y-100239285D02*
X131603333Y-99905952D01*
X131603333Y-99905952D02*
X131650952Y-99715476D01*
X131650952Y-99715476D02*
X131746190Y-99620238D01*
X131746190Y-99620238D02*
X131841428Y-99572619D01*
X133222380Y-99620238D02*
X133127142Y-99572619D01*
X133127142Y-99572619D02*
X132984285Y-99572619D01*
X132984285Y-99572619D02*
X132841428Y-99620238D01*
X132841428Y-99620238D02*
X132746190Y-99715476D01*
X132746190Y-99715476D02*
X132698571Y-99810714D01*
X132698571Y-99810714D02*
X132650952Y-100001190D01*
X132650952Y-100001190D02*
X132650952Y-100144047D01*
X132650952Y-100144047D02*
X132698571Y-100334523D01*
X132698571Y-100334523D02*
X132746190Y-100429761D01*
X132746190Y-100429761D02*
X132841428Y-100525000D01*
X132841428Y-100525000D02*
X132984285Y-100572619D01*
X132984285Y-100572619D02*
X133079523Y-100572619D01*
X133079523Y-100572619D02*
X133222380Y-100525000D01*
X133222380Y-100525000D02*
X133269999Y-100477380D01*
X133269999Y-100477380D02*
X133269999Y-100144047D01*
X133269999Y-100144047D02*
X133079523Y-100144047D01*
X134269999Y-100572619D02*
X133936666Y-100096428D01*
X133698571Y-100572619D02*
X133698571Y-99572619D01*
X133698571Y-99572619D02*
X134079523Y-99572619D01*
X134079523Y-99572619D02*
X134174761Y-99620238D01*
X134174761Y-99620238D02*
X134222380Y-99667857D01*
X134222380Y-99667857D02*
X134269999Y-99763095D01*
X134269999Y-99763095D02*
X134269999Y-99905952D01*
X134269999Y-99905952D02*
X134222380Y-100001190D01*
X134222380Y-100001190D02*
X134174761Y-100048809D01*
X134174761Y-100048809D02*
X134079523Y-100096428D01*
X134079523Y-100096428D02*
X133698571Y-100096428D01*
X134650952Y-100286904D02*
X135127142Y-100286904D01*
X134555714Y-100572619D02*
X134889047Y-99572619D01*
X134889047Y-99572619D02*
X135222380Y-100572619D01*
X135555714Y-100572619D02*
X135555714Y-99572619D01*
X135555714Y-99572619D02*
X135889047Y-100286904D01*
X135889047Y-100286904D02*
X136222380Y-99572619D01*
X136222380Y-99572619D02*
X136222380Y-100572619D01*
X136650952Y-100286904D02*
X137127142Y-100286904D01*
X136555714Y-100572619D02*
X136889047Y-99572619D01*
X136889047Y-99572619D02*
X137222380Y-100572619D01*
X137412857Y-99572619D02*
X137984285Y-99572619D01*
X137698571Y-100572619D02*
X137698571Y-99572619D01*
X138508095Y-99572619D02*
X138698571Y-99572619D01*
X138698571Y-99572619D02*
X138793809Y-99620238D01*
X138793809Y-99620238D02*
X138889047Y-99715476D01*
X138889047Y-99715476D02*
X138936666Y-99905952D01*
X138936666Y-99905952D02*
X138936666Y-100239285D01*
X138936666Y-100239285D02*
X138889047Y-100429761D01*
X138889047Y-100429761D02*
X138793809Y-100525000D01*
X138793809Y-100525000D02*
X138698571Y-100572619D01*
X138698571Y-100572619D02*
X138508095Y-100572619D01*
X138508095Y-100572619D02*
X138412857Y-100525000D01*
X138412857Y-100525000D02*
X138317619Y-100429761D01*
X138317619Y-100429761D02*
X138270000Y-100239285D01*
X138270000Y-100239285D02*
X138270000Y-99905952D01*
X138270000Y-99905952D02*
X138317619Y-99715476D01*
X138317619Y-99715476D02*
X138412857Y-99620238D01*
X138412857Y-99620238D02*
X138508095Y-99572619D01*
X139936666Y-100572619D02*
X139603333Y-100096428D01*
X139365238Y-100572619D02*
X139365238Y-99572619D01*
X139365238Y-99572619D02*
X139746190Y-99572619D01*
X139746190Y-99572619D02*
X139841428Y-99620238D01*
X139841428Y-99620238D02*
X139889047Y-99667857D01*
X139889047Y-99667857D02*
X139936666Y-99763095D01*
X139936666Y-99763095D02*
X139936666Y-99905952D01*
X139936666Y-99905952D02*
X139889047Y-100001190D01*
X139889047Y-100001190D02*
X139841428Y-100048809D01*
X139841428Y-100048809D02*
X139746190Y-100096428D01*
X139746190Y-100096428D02*
X139365238Y-100096428D01*
%TO.C,R2*%
X139813333Y-116512619D02*
X139480000Y-116036428D01*
X139241905Y-116512619D02*
X139241905Y-115512619D01*
X139241905Y-115512619D02*
X139622857Y-115512619D01*
X139622857Y-115512619D02*
X139718095Y-115560238D01*
X139718095Y-115560238D02*
X139765714Y-115607857D01*
X139765714Y-115607857D02*
X139813333Y-115703095D01*
X139813333Y-115703095D02*
X139813333Y-115845952D01*
X139813333Y-115845952D02*
X139765714Y-115941190D01*
X139765714Y-115941190D02*
X139718095Y-115988809D01*
X139718095Y-115988809D02*
X139622857Y-116036428D01*
X139622857Y-116036428D02*
X139241905Y-116036428D01*
X140194286Y-115607857D02*
X140241905Y-115560238D01*
X140241905Y-115560238D02*
X140337143Y-115512619D01*
X140337143Y-115512619D02*
X140575238Y-115512619D01*
X140575238Y-115512619D02*
X140670476Y-115560238D01*
X140670476Y-115560238D02*
X140718095Y-115607857D01*
X140718095Y-115607857D02*
X140765714Y-115703095D01*
X140765714Y-115703095D02*
X140765714Y-115798333D01*
X140765714Y-115798333D02*
X140718095Y-115941190D01*
X140718095Y-115941190D02*
X140146667Y-116512619D01*
X140146667Y-116512619D02*
X140765714Y-116512619D01*
%TO.C,PB0*%
X142761905Y-76062619D02*
X142761905Y-75062619D01*
X142761905Y-75062619D02*
X143142857Y-75062619D01*
X143142857Y-75062619D02*
X143238095Y-75110238D01*
X143238095Y-75110238D02*
X143285714Y-75157857D01*
X143285714Y-75157857D02*
X143333333Y-75253095D01*
X143333333Y-75253095D02*
X143333333Y-75395952D01*
X143333333Y-75395952D02*
X143285714Y-75491190D01*
X143285714Y-75491190D02*
X143238095Y-75538809D01*
X143238095Y-75538809D02*
X143142857Y-75586428D01*
X143142857Y-75586428D02*
X142761905Y-75586428D01*
X144095238Y-75538809D02*
X144238095Y-75586428D01*
X144238095Y-75586428D02*
X144285714Y-75634047D01*
X144285714Y-75634047D02*
X144333333Y-75729285D01*
X144333333Y-75729285D02*
X144333333Y-75872142D01*
X144333333Y-75872142D02*
X144285714Y-75967380D01*
X144285714Y-75967380D02*
X144238095Y-76015000D01*
X144238095Y-76015000D02*
X144142857Y-76062619D01*
X144142857Y-76062619D02*
X143761905Y-76062619D01*
X143761905Y-76062619D02*
X143761905Y-75062619D01*
X143761905Y-75062619D02*
X144095238Y-75062619D01*
X144095238Y-75062619D02*
X144190476Y-75110238D01*
X144190476Y-75110238D02*
X144238095Y-75157857D01*
X144238095Y-75157857D02*
X144285714Y-75253095D01*
X144285714Y-75253095D02*
X144285714Y-75348333D01*
X144285714Y-75348333D02*
X144238095Y-75443571D01*
X144238095Y-75443571D02*
X144190476Y-75491190D01*
X144190476Y-75491190D02*
X144095238Y-75538809D01*
X144095238Y-75538809D02*
X143761905Y-75538809D01*
X144952381Y-75062619D02*
X145047619Y-75062619D01*
X145047619Y-75062619D02*
X145142857Y-75110238D01*
X145142857Y-75110238D02*
X145190476Y-75157857D01*
X145190476Y-75157857D02*
X145238095Y-75253095D01*
X145238095Y-75253095D02*
X145285714Y-75443571D01*
X145285714Y-75443571D02*
X145285714Y-75681666D01*
X145285714Y-75681666D02*
X145238095Y-75872142D01*
X145238095Y-75872142D02*
X145190476Y-75967380D01*
X145190476Y-75967380D02*
X145142857Y-76015000D01*
X145142857Y-76015000D02*
X145047619Y-76062619D01*
X145047619Y-76062619D02*
X144952381Y-76062619D01*
X144952381Y-76062619D02*
X144857143Y-76015000D01*
X144857143Y-76015000D02*
X144809524Y-75967380D01*
X144809524Y-75967380D02*
X144761905Y-75872142D01*
X144761905Y-75872142D02*
X144714286Y-75681666D01*
X144714286Y-75681666D02*
X144714286Y-75443571D01*
X144714286Y-75443571D02*
X144761905Y-75253095D01*
X144761905Y-75253095D02*
X144809524Y-75157857D01*
X144809524Y-75157857D02*
X144857143Y-75110238D01*
X144857143Y-75110238D02*
X144952381Y-75062619D01*
D11*
%TO.C,C3*%
X144900000Y-110100000D02*
X142900000Y-110100000D01*
X142900000Y-110100000D02*
X142900000Y-103100000D01*
X142900000Y-103100000D02*
X144900000Y-103100000D01*
X144900000Y-103100000D02*
X144900000Y-110100000D01*
D12*
%TO.C,D1*%
X137335000Y-66805000D02*
X134245000Y-66805000D01*
X135789538Y-72354999D02*
G75*
G03*
X137334830Y-66805001I462J2989999D01*
G01*
X134245170Y-66805000D02*
G75*
G03*
X135790462Y-72355000I1544830J-2560000D01*
G01*
X138290000Y-69365000D02*
G75*
G03*
X138290000Y-69365000I-2500000J0D01*
G01*
%TO.C,Y1*%
X146425000Y-93660000D02*
X146425000Y-100060000D01*
X141375000Y-93660000D02*
X141375000Y-100060000D01*
X146425000Y-93660000D02*
G75*
G03*
X141375000Y-93660000I-2525000J0D01*
G01*
X141375000Y-100060000D02*
G75*
G03*
X146425000Y-100060000I2525000J0D01*
G01*
%TO.C,Senseair S8*%
X125530000Y-116952500D02*
X122960000Y-116952500D01*
X114330000Y-116752500D02*
X125330000Y-116752500D01*
X125530000Y-114522500D02*
X125530000Y-116952500D01*
X114330000Y-113822500D02*
X114330000Y-116752500D01*
X114330000Y-113822500D02*
X108610000Y-113822500D01*
X125330000Y-113822500D02*
X125330000Y-116752500D01*
X128510000Y-113822500D02*
X125330000Y-113822500D01*
X128510000Y-113822500D02*
X128510000Y-87222500D01*
X108610000Y-87222500D02*
X108610000Y-113822500D01*
X108610000Y-87222500D02*
X111830000Y-87222500D01*
X125330000Y-87222500D02*
X128510000Y-87222500D01*
X111830000Y-84252500D02*
X111830000Y-87222500D01*
X111830000Y-84252500D02*
X125330000Y-84252500D01*
X125330000Y-84252500D02*
X125330000Y-87222500D01*
D11*
%TO.C,C6*%
X181500000Y-87600000D02*
X174500000Y-87600000D01*
X174500000Y-87600000D02*
X174500000Y-89600000D01*
X174500000Y-89600000D02*
X181500000Y-89600000D01*
X181500000Y-89600000D02*
X181500000Y-87600000D01*
D12*
%TO.C,U3*%
X168090000Y-67070000D02*
X168090000Y-70670000D01*
X172540000Y-68870000D02*
G75*
G03*
X168101522Y-67031522I-2600000J0D01*
G01*
X168101522Y-70708478D02*
G75*
G03*
X172540000Y-68870000I1838478J1838478D01*
G01*
%TO.C,R1*%
X180100000Y-112760000D02*
X180100000Y-112070000D01*
X178380000Y-112070000D02*
X181820000Y-112070000D01*
X181820000Y-112070000D02*
X181820000Y-102830000D01*
X178380000Y-102830000D02*
X178380000Y-112070000D01*
X181820000Y-102830000D02*
X178380000Y-102830000D01*
X180100000Y-102140000D02*
X180100000Y-102830000D01*
%TO.C,BZ1*%
X141580000Y-107730000D02*
G75*
G03*
X141580000Y-107730000I-6100000J0D01*
G01*
%TO.C,LCD*%
X177405000Y-116805000D02*
X176075000Y-116805000D01*
X177405000Y-115475000D02*
X177405000Y-116805000D01*
X177405000Y-114205000D02*
X177405000Y-96365000D01*
X177405000Y-114205000D02*
X174805000Y-114205000D01*
X177405000Y-96365000D02*
X172205000Y-96365000D01*
X174805000Y-116805000D02*
X172205000Y-116805000D01*
X174805000Y-114205000D02*
X174805000Y-116805000D01*
X172205000Y-116805000D02*
X172205000Y-96365000D01*
%TO.C,RV1*%
X169033001Y-75892000D02*
G75*
G03*
X169032014Y-83046144I6726999J-3578000D01*
G01*
X169299001Y-75432000D02*
G75*
G03*
X169162013Y-75659945I6456999J-4035600D01*
G01*
X169161001Y-83279000D02*
G75*
G03*
X169297952Y-83506981I6598199J3808500D01*
G01*
X175760000Y-87089999D02*
G75*
G03*
X169595292Y-74991076I0J7619999D01*
G01*
X169595000Y-83948000D02*
G75*
G03*
X175892064Y-87088547I6165000J4478000D01*
G01*
D11*
%TO.C,C5*%
X171380000Y-92170000D02*
X178380000Y-92170000D01*
X178380000Y-92170000D02*
X178380000Y-90170000D01*
X178380000Y-90170000D02*
X171380000Y-90170000D01*
X171380000Y-90170000D02*
X171380000Y-92170000D01*
%TO.C,G\u002A\u002A\u002A*%
G36*
X119280320Y-67486704D02*
G01*
X119312912Y-67602520D01*
X119317407Y-67671118D01*
X119285836Y-67704842D01*
X119210230Y-67716037D01*
X119131604Y-67717079D01*
X118941179Y-67717079D01*
X119092310Y-67541717D01*
X119243441Y-67366354D01*
X119280320Y-67486704D01*
G37*
G36*
X127824887Y-66720221D02*
G01*
X127811978Y-66758086D01*
X127802358Y-66774010D01*
X127745933Y-66822884D01*
X127677151Y-66834418D01*
X127621112Y-66807164D01*
X127607945Y-66785228D01*
X127599628Y-66728040D01*
X127629072Y-66717726D01*
X127664635Y-66739621D01*
X127711947Y-66759154D01*
X127730121Y-66744101D01*
X127776555Y-66713792D01*
X127796058Y-66711139D01*
X127824887Y-66720221D01*
G37*
G36*
X129703651Y-67662067D02*
G01*
X129728246Y-67702278D01*
X129740961Y-67803043D01*
X129742946Y-67889975D01*
X129737090Y-68026377D01*
X129719432Y-68101774D01*
X129703651Y-68117884D01*
X129682589Y-68107283D01*
X129670085Y-68052995D01*
X129664774Y-67947087D01*
X129664357Y-67889975D01*
X129667230Y-67761748D01*
X129676761Y-67688238D01*
X129694317Y-67661515D01*
X129703651Y-67662067D01*
G37*
G36*
X122649860Y-66727602D02*
G01*
X122640065Y-66771210D01*
X122616485Y-66799158D01*
X122544648Y-66834792D01*
X122472305Y-66816923D01*
X122434159Y-66774010D01*
X122416476Y-66725063D01*
X122440569Y-66711157D01*
X122442483Y-66711139D01*
X122500363Y-66731681D01*
X122522178Y-66748861D01*
X122553328Y-66770732D01*
X122559901Y-66748861D01*
X122585256Y-66715439D01*
X122607055Y-66711139D01*
X122649860Y-66727602D01*
G37*
G36*
X126579315Y-66727602D02*
G01*
X126569520Y-66771210D01*
X126545941Y-66799158D01*
X126474103Y-66834792D01*
X126401760Y-66816923D01*
X126363614Y-66774010D01*
X126345932Y-66725063D01*
X126370024Y-66711157D01*
X126371939Y-66711139D01*
X126429819Y-66731681D01*
X126451634Y-66748861D01*
X126482783Y-66770732D01*
X126489357Y-66748861D01*
X126514712Y-66715439D01*
X126536510Y-66711139D01*
X126579315Y-66727602D01*
G37*
G36*
X123040590Y-68421014D02*
G01*
X123055190Y-68465644D01*
X123061791Y-68553925D01*
X123062872Y-68644431D01*
X123060401Y-68768792D01*
X123051475Y-68841790D01*
X123033819Y-68874796D01*
X123015718Y-68880198D01*
X122990846Y-68867848D01*
X122976246Y-68823217D01*
X122969645Y-68734936D01*
X122968565Y-68644431D01*
X122971035Y-68520070D01*
X122979961Y-68447071D01*
X122997617Y-68414065D01*
X123015718Y-68408663D01*
X123040590Y-68421014D01*
G37*
G36*
X125209650Y-68421014D02*
G01*
X125224249Y-68465644D01*
X125230851Y-68553925D01*
X125231931Y-68644431D01*
X125229461Y-68768792D01*
X125220535Y-68841790D01*
X125202879Y-68874796D01*
X125184777Y-68880198D01*
X125159905Y-68867848D01*
X125145306Y-68823217D01*
X125138704Y-68734936D01*
X125137624Y-68644431D01*
X125140094Y-68520070D01*
X125149020Y-68447071D01*
X125166676Y-68414065D01*
X125184777Y-68408663D01*
X125209650Y-68421014D01*
G37*
G36*
X127762622Y-67683462D02*
G01*
X127773662Y-67762653D01*
X127778189Y-67878919D01*
X127778218Y-67889975D01*
X127774317Y-68008772D01*
X127763759Y-68091575D01*
X127748257Y-68125522D01*
X127746782Y-68125743D01*
X127730943Y-68096488D01*
X127719903Y-68017298D01*
X127715376Y-67901032D01*
X127715347Y-67889975D01*
X127719247Y-67771178D01*
X127729806Y-67688376D01*
X127745308Y-67654429D01*
X127746782Y-67654208D01*
X127762622Y-67683462D01*
G37*
G36*
X122697306Y-68423149D02*
G01*
X122712006Y-68474498D01*
X122716986Y-68574551D01*
X122717079Y-68597277D01*
X122717079Y-68785891D01*
X122811386Y-68785891D01*
X122886257Y-68799950D01*
X122905693Y-68833045D01*
X122887180Y-68864124D01*
X122824232Y-68878281D01*
X122764233Y-68880198D01*
X122622773Y-68880198D01*
X122622773Y-68644431D01*
X122625243Y-68520070D01*
X122634169Y-68447071D01*
X122651825Y-68414065D01*
X122669926Y-68408663D01*
X122697306Y-68423149D01*
G37*
G36*
X125015561Y-66875199D02*
G01*
X125034535Y-66905431D01*
X125042161Y-66973390D01*
X125043317Y-67056931D01*
X125043317Y-67245545D01*
X125137624Y-67245545D01*
X125212495Y-67259603D01*
X125231931Y-67292698D01*
X125215104Y-67322351D01*
X125156847Y-67336834D01*
X125074753Y-67339852D01*
X124917575Y-67339852D01*
X124917575Y-67104084D01*
X124919059Y-66983539D01*
X124925831Y-66912811D01*
X124941362Y-66878869D01*
X124969129Y-66868687D01*
X124980446Y-66868317D01*
X125015561Y-66875199D01*
G37*
G36*
X127027442Y-66875199D02*
G01*
X127046416Y-66905431D01*
X127054042Y-66973390D01*
X127055198Y-67056931D01*
X127055198Y-67245545D01*
X127149505Y-67245545D01*
X127224376Y-67259603D01*
X127243812Y-67292698D01*
X127226986Y-67322351D01*
X127168728Y-67336834D01*
X127086634Y-67339852D01*
X126929456Y-67339852D01*
X126929456Y-67104084D01*
X126930941Y-66983539D01*
X126937712Y-66912811D01*
X126953243Y-66878869D01*
X126981010Y-66868687D01*
X126992327Y-66868317D01*
X127027442Y-66875199D01*
G37*
G36*
X122214819Y-66873885D02*
G01*
X122233680Y-66899277D01*
X122242731Y-66957520D01*
X122245446Y-67061645D01*
X122245545Y-67104084D01*
X122244060Y-67224629D01*
X122237289Y-67295358D01*
X122221757Y-67329299D01*
X122193991Y-67339482D01*
X122182674Y-67339852D01*
X122150528Y-67334283D01*
X122131667Y-67308892D01*
X122122616Y-67250648D01*
X122119901Y-67146524D01*
X122119802Y-67104084D01*
X122121287Y-66983539D01*
X122128058Y-66912811D01*
X122143590Y-66878869D01*
X122171356Y-66868687D01*
X122182674Y-66868317D01*
X122214819Y-66873885D01*
G37*
G36*
X126804423Y-66873885D02*
G01*
X126823284Y-66899277D01*
X126832335Y-66957520D01*
X126835050Y-67061645D01*
X126835149Y-67104084D01*
X126833664Y-67224629D01*
X126826893Y-67295358D01*
X126811361Y-67329299D01*
X126783595Y-67339482D01*
X126772277Y-67339852D01*
X126740132Y-67334283D01*
X126721271Y-67308892D01*
X126712220Y-67250648D01*
X126709505Y-67146524D01*
X126709406Y-67104084D01*
X126710891Y-66983539D01*
X126717662Y-66912811D01*
X126733194Y-66878869D01*
X126760960Y-66868687D01*
X126772277Y-66868317D01*
X126804423Y-66873885D01*
G37*
G36*
X127401700Y-66873885D02*
G01*
X127420561Y-66899277D01*
X127429612Y-66957520D01*
X127432327Y-67061645D01*
X127432426Y-67104084D01*
X127430941Y-67224629D01*
X127424170Y-67295358D01*
X127408638Y-67329299D01*
X127380872Y-67339482D01*
X127369555Y-67339852D01*
X127337409Y-67334283D01*
X127318548Y-67308892D01*
X127309497Y-67250648D01*
X127306782Y-67146524D01*
X127306683Y-67104084D01*
X127308168Y-66983539D01*
X127314939Y-66912811D01*
X127330471Y-66878869D01*
X127358237Y-66868687D01*
X127369555Y-66868317D01*
X127401700Y-66873885D01*
G37*
G36*
X124974849Y-68427724D02*
G01*
X125037435Y-68460977D01*
X125042466Y-68490223D01*
X124995159Y-68507919D01*
X124919070Y-68508363D01*
X124812704Y-68519947D01*
X124750712Y-68570996D01*
X124738996Y-68653915D01*
X124758304Y-68715264D01*
X124789456Y-68765496D01*
X124835098Y-68783134D01*
X124918545Y-68777174D01*
X124918711Y-68777151D01*
X125010113Y-68773490D01*
X125057674Y-68788974D01*
X125054561Y-68818626D01*
X125014829Y-68847185D01*
X124898965Y-68878574D01*
X124788172Y-68853981D01*
X124737344Y-68818390D01*
X124663791Y-68721574D01*
X124651240Y-68620335D01*
X124680759Y-68536433D01*
X124757467Y-68449238D01*
X124863633Y-68412503D01*
X124974849Y-68427724D01*
G37*
G36*
X124053083Y-66889886D02*
G01*
X124081373Y-66945520D01*
X124108278Y-67034814D01*
X124135633Y-67110557D01*
X124170517Y-67198391D01*
X124224385Y-67041213D01*
X124266348Y-66940299D01*
X124309880Y-66888380D01*
X124349930Y-66873531D01*
X124400518Y-66875271D01*
X124410247Y-66890543D01*
X124394507Y-66932036D01*
X124363851Y-67015148D01*
X124324734Y-67122370D01*
X124322343Y-67128956D01*
X124278443Y-67241446D01*
X124242991Y-67305821D01*
X124207200Y-67334425D01*
X124172245Y-67339852D01*
X124099338Y-67312250D01*
X124071239Y-67269121D01*
X124044156Y-67200051D01*
X124004569Y-67099876D01*
X123978169Y-67033354D01*
X123912551Y-66868317D01*
X123987274Y-66868317D01*
X124053083Y-66889886D01*
G37*
G36*
X126573652Y-68426172D02*
G01*
X126639107Y-68460293D01*
X126645420Y-68490996D01*
X126596270Y-68512339D01*
X126516366Y-68518688D01*
X126403944Y-68534703D01*
X126345466Y-68582349D01*
X126341425Y-68661034D01*
X126358598Y-68708847D01*
X126390722Y-68763166D01*
X126434743Y-68782928D01*
X126514554Y-68778126D01*
X126521934Y-68777151D01*
X126609079Y-68773814D01*
X126644277Y-68790835D01*
X126623518Y-68823781D01*
X126585730Y-68847656D01*
X126471522Y-68877845D01*
X126362379Y-68849990D01*
X126359878Y-68848551D01*
X126311887Y-68799261D01*
X126270589Y-68726113D01*
X126253638Y-68616616D01*
X126287532Y-68519994D01*
X126360252Y-68448142D01*
X126459779Y-68412955D01*
X126573652Y-68426172D01*
G37*
G36*
X120967474Y-68431954D02*
G01*
X121018751Y-68450119D01*
X121019634Y-68472048D01*
X120965689Y-68490912D01*
X120917389Y-68497009D01*
X120832453Y-68516559D01*
X120799210Y-68548849D01*
X120819744Y-68581673D01*
X120896144Y-68602825D01*
X120899250Y-68603144D01*
X120981653Y-68622788D01*
X121012941Y-68652294D01*
X120991315Y-68679332D01*
X120914976Y-68691574D01*
X120912150Y-68691584D01*
X120837084Y-68696533D01*
X120805832Y-68721922D01*
X120799507Y-68783562D01*
X120799505Y-68785891D01*
X120787154Y-68854962D01*
X120758482Y-68880474D01*
X120726065Y-68854458D01*
X120718231Y-68837384D01*
X120710847Y-68784183D01*
X120708873Y-68691305D01*
X120711359Y-68609475D01*
X120720916Y-68424381D01*
X120870235Y-68424381D01*
X120967474Y-68431954D01*
G37*
G36*
X120495029Y-67658233D02*
G01*
X120559061Y-67675498D01*
X120569949Y-67713785D01*
X120530425Y-67780878D01*
X120452307Y-67874257D01*
X120327839Y-68015718D01*
X120453647Y-68025384D01*
X120546498Y-68043245D01*
X120579375Y-68078102D01*
X120579456Y-68080397D01*
X120564918Y-68105269D01*
X120514031Y-68119479D01*
X120415880Y-68125276D01*
X120359406Y-68125743D01*
X120231856Y-68120930D01*
X120157299Y-68107055D01*
X120139357Y-68090811D01*
X120158283Y-68050025D01*
X120207602Y-67978485D01*
X120268026Y-67902197D01*
X120396696Y-67748515D01*
X120283744Y-67748515D01*
X120201216Y-67738829D01*
X120171230Y-67707655D01*
X120170792Y-67701361D01*
X120184434Y-67674912D01*
X120233177Y-67660212D01*
X120328751Y-67654553D01*
X120375124Y-67654208D01*
X120495029Y-67658233D01*
G37*
G36*
X122631322Y-66879454D02*
G01*
X122696130Y-66903845D01*
X122727948Y-66940184D01*
X122715808Y-66979873D01*
X122667521Y-67007503D01*
X122619472Y-66992293D01*
X122542648Y-66977911D01*
X122479649Y-67009442D01*
X122440873Y-67070020D01*
X122436717Y-67142779D01*
X122477581Y-67210854D01*
X122482243Y-67214882D01*
X122539417Y-67238706D01*
X122605598Y-67220492D01*
X122671663Y-67202443D01*
X122715254Y-67227655D01*
X122716722Y-67229396D01*
X122726254Y-67272561D01*
X122688956Y-67307574D01*
X122620695Y-67330931D01*
X122537340Y-67339129D01*
X122454759Y-67328664D01*
X122394429Y-67300557D01*
X122325524Y-67212992D01*
X122303282Y-67104511D01*
X122327633Y-66996255D01*
X122395703Y-66911463D01*
X122465434Y-66879913D01*
X122549199Y-66870360D01*
X122631322Y-66879454D01*
G37*
G36*
X127072008Y-67681413D02*
G01*
X127088632Y-67750581D01*
X127090071Y-67843041D01*
X127077041Y-67940122D01*
X127050261Y-68023152D01*
X127023763Y-68062871D01*
X126936171Y-68113757D01*
X126835447Y-68121068D01*
X126747116Y-68084335D01*
X126729996Y-68068255D01*
X126699173Y-68007004D01*
X126680746Y-67917538D01*
X126674938Y-67818805D01*
X126681973Y-67729757D01*
X126702074Y-67669342D01*
X126725124Y-67654208D01*
X126753673Y-67669846D01*
X126768303Y-67724656D01*
X126772277Y-67825542D01*
X126785286Y-67954711D01*
X126823623Y-68028550D01*
X126886252Y-68045787D01*
X126936503Y-68027664D01*
X126971091Y-67992692D01*
X126988225Y-67925194D01*
X126992327Y-67825998D01*
X126996610Y-67722107D01*
X127011627Y-67668796D01*
X127039480Y-67654208D01*
X127072008Y-67681413D01*
G37*
G36*
X127921118Y-67681289D02*
G01*
X127962699Y-67750472D01*
X127985146Y-67803527D01*
X128028985Y-67914653D01*
X128061255Y-67967464D01*
X128088638Y-67963809D01*
X128117815Y-67905537D01*
X128138667Y-67846015D01*
X128186878Y-67724543D01*
X128230552Y-67663104D01*
X128268798Y-67662915D01*
X128271033Y-67665010D01*
X128271464Y-67703959D01*
X128249230Y-67780617D01*
X128211915Y-67877580D01*
X128167103Y-67977440D01*
X128122378Y-68062792D01*
X128085324Y-68116230D01*
X128070286Y-68125743D01*
X128030964Y-68099328D01*
X127989118Y-68033989D01*
X127980946Y-68015718D01*
X127935881Y-67906874D01*
X127889735Y-67795433D01*
X127888243Y-67791829D01*
X127854742Y-67708755D01*
X127844808Y-67668413D01*
X127858151Y-67655366D01*
X127885643Y-67654208D01*
X127921118Y-67681289D01*
G37*
G36*
X128254341Y-66871465D02*
G01*
X128318043Y-66882713D01*
X128342563Y-66904769D01*
X128344060Y-66915470D01*
X128316733Y-66953395D01*
X128265471Y-66962624D01*
X128221915Y-66966617D01*
X128198400Y-66988440D01*
X128188773Y-67042856D01*
X128186883Y-67144627D01*
X128186881Y-67151238D01*
X128184587Y-67256582D01*
X128174510Y-67313505D01*
X128151857Y-67336384D01*
X128124010Y-67339852D01*
X128088895Y-67332969D01*
X128069921Y-67302738D01*
X128062295Y-67234778D01*
X128061139Y-67151238D01*
X128058845Y-67045893D01*
X128048768Y-66988970D01*
X128026114Y-66966091D01*
X127998268Y-66962624D01*
X127947066Y-66942968D01*
X127935396Y-66915470D01*
X127949038Y-66889021D01*
X127997781Y-66874321D01*
X128093355Y-66868662D01*
X128139728Y-66868317D01*
X128254341Y-66871465D01*
G37*
G36*
X120458301Y-66871465D02*
G01*
X120522003Y-66882713D01*
X120546524Y-66904769D01*
X120548020Y-66915470D01*
X120521812Y-66953872D01*
X120485149Y-66962624D01*
X120450034Y-66969506D01*
X120431060Y-66999738D01*
X120423433Y-67067697D01*
X120422277Y-67151238D01*
X120420613Y-67255770D01*
X120411521Y-67312207D01*
X120388847Y-67335312D01*
X120346443Y-67339847D01*
X120343688Y-67339852D01*
X120300133Y-67335858D01*
X120276618Y-67314035D01*
X120266991Y-67259620D01*
X120265101Y-67157849D01*
X120265099Y-67151238D01*
X120262805Y-67045893D01*
X120252728Y-66988970D01*
X120230075Y-66966091D01*
X120202228Y-66962624D01*
X120151026Y-66942968D01*
X120139357Y-66915470D01*
X120152998Y-66889021D01*
X120201741Y-66874321D01*
X120297315Y-66868662D01*
X120343688Y-66868317D01*
X120458301Y-66871465D01*
G37*
G36*
X123597277Y-68644431D02*
G01*
X123691584Y-68644431D01*
X123694505Y-68731494D01*
X123710321Y-68772737D01*
X123749615Y-68785166D01*
X123779604Y-68785891D01*
X123858150Y-68773153D01*
X123905347Y-68748168D01*
X123936841Y-68686882D01*
X123943070Y-68644431D01*
X123917765Y-68558207D01*
X123844753Y-68511000D01*
X123779604Y-68502970D01*
X123725431Y-68507664D01*
X123699769Y-68533082D01*
X123692036Y-68596234D01*
X123691584Y-68644431D01*
X123597277Y-68644431D01*
X123597277Y-68408663D01*
X123740167Y-68408663D01*
X123850792Y-68419457D01*
X123929608Y-68458464D01*
X123960216Y-68485824D01*
X124023717Y-68583621D01*
X124032039Y-68683033D01*
X123991523Y-68772698D01*
X123908507Y-68841255D01*
X123789331Y-68877341D01*
X123740167Y-68880198D01*
X123597277Y-68880198D01*
X123597277Y-68644431D01*
G37*
G36*
X124985341Y-67691347D02*
G01*
X124998014Y-67700362D01*
X125033275Y-67733690D01*
X125021168Y-67749778D01*
X124955617Y-67751933D01*
X124908132Y-67749311D01*
X124805370Y-67764807D01*
X124745018Y-67826173D01*
X124728961Y-67910555D01*
X124746688Y-67989577D01*
X124798518Y-68027757D01*
X124889414Y-68043037D01*
X124955358Y-68019984D01*
X124980446Y-67964898D01*
X124994336Y-67915841D01*
X125011881Y-67905693D01*
X125037798Y-67930752D01*
X125043575Y-67988739D01*
X125031559Y-68053868D01*
X125004097Y-68100354D01*
X124993593Y-68106662D01*
X124867149Y-68123636D01*
X124745361Y-68080302D01*
X124717482Y-68060590D01*
X124651042Y-67977617D01*
X124634697Y-67885209D01*
X124659331Y-67795072D01*
X124715829Y-67718913D01*
X124795073Y-67668435D01*
X124887949Y-67655344D01*
X124985341Y-67691347D01*
G37*
G36*
X126153737Y-68422472D02*
G01*
X126167910Y-68471115D01*
X126174171Y-68565417D01*
X126175000Y-68644431D01*
X126170173Y-68781732D01*
X126153191Y-68858424D01*
X126120299Y-68876203D01*
X126067744Y-68836768D01*
X125991773Y-68741816D01*
X125983856Y-68730879D01*
X125876362Y-68581559D01*
X125866780Y-68730879D01*
X125853040Y-68831188D01*
X125826871Y-68876175D01*
X125811768Y-68880198D01*
X125787600Y-68866389D01*
X125773428Y-68817746D01*
X125767166Y-68723444D01*
X125766337Y-68644431D01*
X125771164Y-68507129D01*
X125788146Y-68430438D01*
X125821038Y-68412658D01*
X125873593Y-68452093D01*
X125949564Y-68547046D01*
X125957481Y-68557983D01*
X126064975Y-68707302D01*
X126074557Y-68557983D01*
X126088297Y-68457674D01*
X126114466Y-68412687D01*
X126129569Y-68408663D01*
X126153737Y-68422472D01*
G37*
G36*
X126562060Y-66880031D02*
G01*
X126626195Y-66905344D01*
X126657131Y-66942096D01*
X126645264Y-66979873D01*
X126596976Y-67007503D01*
X126548927Y-66992293D01*
X126472103Y-66977911D01*
X126409104Y-67009442D01*
X126370328Y-67070020D01*
X126366173Y-67142779D01*
X126407036Y-67210854D01*
X126411699Y-67214882D01*
X126468872Y-67238706D01*
X126535054Y-67220492D01*
X126601118Y-67202443D01*
X126644710Y-67227655D01*
X126646177Y-67229396D01*
X126657708Y-67273951D01*
X126621909Y-67308689D01*
X126553941Y-67330712D01*
X126468964Y-67337121D01*
X126382140Y-67325016D01*
X126311329Y-67293431D01*
X126241916Y-67211278D01*
X126221805Y-67108575D01*
X126250177Y-67002726D01*
X126326212Y-66911136D01*
X126329454Y-66908611D01*
X126397790Y-66878077D01*
X126480625Y-66869747D01*
X126562060Y-66880031D01*
G37*
G36*
X127568341Y-67668017D02*
G01*
X127582513Y-67716660D01*
X127588775Y-67810962D01*
X127589604Y-67889975D01*
X127584777Y-68027277D01*
X127567795Y-68103968D01*
X127534903Y-68121748D01*
X127482348Y-68082313D01*
X127406377Y-67987360D01*
X127398460Y-67976423D01*
X127290966Y-67827104D01*
X127281384Y-67976423D01*
X127267644Y-68076732D01*
X127241475Y-68121719D01*
X127226372Y-68125743D01*
X127202204Y-68111934D01*
X127188032Y-68063291D01*
X127181770Y-67968989D01*
X127180941Y-67889975D01*
X127185768Y-67752674D01*
X127202750Y-67675982D01*
X127235642Y-67658203D01*
X127288197Y-67697638D01*
X127364168Y-67792590D01*
X127372085Y-67803527D01*
X127479579Y-67952847D01*
X127489161Y-67803527D01*
X127502901Y-67703218D01*
X127529070Y-67658231D01*
X127544173Y-67654208D01*
X127568341Y-67668017D01*
G37*
G36*
X120167677Y-68679911D02*
G01*
X120247710Y-68679911D01*
X120262971Y-68719043D01*
X120321170Y-68769659D01*
X120405360Y-68786529D01*
X120486457Y-68766227D01*
X120510297Y-68748168D01*
X120541792Y-68686882D01*
X120548020Y-68644431D01*
X120522745Y-68558241D01*
X120449687Y-68511064D01*
X120383881Y-68502970D01*
X120299958Y-68528789D01*
X120251121Y-68593928D01*
X120247710Y-68679911D01*
X120167677Y-68679911D01*
X120175412Y-68576337D01*
X120225214Y-68482595D01*
X120258080Y-68451810D01*
X120353756Y-68413134D01*
X120457877Y-68421370D01*
X120552551Y-68468105D01*
X120619886Y-68544932D01*
X120642327Y-68632423D01*
X120615347Y-68743965D01*
X120544111Y-68824965D01*
X120443180Y-68867105D01*
X120327111Y-68862064D01*
X120274617Y-68842571D01*
X120200956Y-68776228D01*
X120167607Y-68680848D01*
X120167677Y-68679911D01*
G37*
G36*
X127377104Y-68418418D02*
G01*
X127439135Y-68444819D01*
X127456848Y-68473211D01*
X127449987Y-68504989D01*
X127403342Y-68513093D01*
X127354951Y-68509067D01*
X127273043Y-68508785D01*
X127247701Y-68530447D01*
X127278625Y-68569181D01*
X127361696Y-68618265D01*
X127456386Y-68681578D01*
X127488481Y-68748266D01*
X127457882Y-68818089D01*
X127447469Y-68829229D01*
X127361428Y-68873818D01*
X127253821Y-68866259D01*
X127187814Y-68838156D01*
X127137453Y-68800150D01*
X127145410Y-68777095D01*
X127208437Y-68771191D01*
X127277230Y-68777570D01*
X127366489Y-68780182D01*
X127399202Y-68760092D01*
X127375080Y-68722665D01*
X127293834Y-68673266D01*
X127283107Y-68668132D01*
X127194241Y-68608122D01*
X127154566Y-68540961D01*
X127167515Y-68477659D01*
X127212023Y-68440288D01*
X127293602Y-68415859D01*
X127377104Y-68418418D01*
G37*
G36*
X120878850Y-66872237D02*
G01*
X120938062Y-66885744D01*
X120956624Y-66911457D01*
X120956683Y-66913573D01*
X120926932Y-66949797D01*
X120841230Y-66968585D01*
X120750258Y-66986706D01*
X120712150Y-67014328D01*
X120728438Y-67040970D01*
X120800652Y-67056153D01*
X120828321Y-67056931D01*
X120921083Y-67068930D01*
X120960542Y-67096960D01*
X120945161Y-67129068D01*
X120873400Y-67153301D01*
X120841230Y-67157199D01*
X120746509Y-67175727D01*
X120710783Y-67203403D01*
X120733723Y-67229883D01*
X120815000Y-67244824D01*
X120844039Y-67245545D01*
X120938225Y-67251501D01*
X120981698Y-67271822D01*
X120988119Y-67292698D01*
X120974478Y-67319147D01*
X120925735Y-67333848D01*
X120830161Y-67339506D01*
X120783787Y-67339852D01*
X120579456Y-67339852D01*
X120579456Y-67104084D01*
X120579456Y-66868317D01*
X120768070Y-66868317D01*
X120878850Y-66872237D01*
G37*
G36*
X121392164Y-67660488D02*
G01*
X121487262Y-67672776D01*
X121535044Y-67698024D01*
X121548931Y-67729127D01*
X121547646Y-67769427D01*
X121510590Y-67774684D01*
X121475810Y-67767152D01*
X121370565Y-67760253D01*
X121294907Y-67790948D01*
X121257895Y-67848215D01*
X121268584Y-67921032D01*
X121306773Y-67972862D01*
X121375725Y-68019186D01*
X121427061Y-68007832D01*
X121453981Y-67942525D01*
X121486095Y-67885231D01*
X121524711Y-67874257D01*
X121570230Y-67898675D01*
X121588083Y-67956697D01*
X121578284Y-68025475D01*
X121540844Y-68082163D01*
X121524592Y-68093201D01*
X121415168Y-68123330D01*
X121298294Y-68113078D01*
X121211746Y-68070730D01*
X121141693Y-67976175D01*
X121125739Y-67864901D01*
X121165751Y-67755187D01*
X121177799Y-67738581D01*
X121229757Y-67683960D01*
X121287488Y-67660837D01*
X121377408Y-67659590D01*
X121392164Y-67660488D01*
G37*
G36*
X121742575Y-68583647D02*
G01*
X121836881Y-68583647D01*
X121845942Y-68641129D01*
X121886151Y-68656982D01*
X121923329Y-68654378D01*
X121994413Y-68628330D01*
X122019823Y-68573701D01*
X122017341Y-68523874D01*
X121978994Y-68505041D01*
X121933375Y-68502970D01*
X121865086Y-68510867D01*
X121839606Y-68545251D01*
X121836881Y-68583647D01*
X121742575Y-68583647D01*
X121742575Y-68408663D01*
X121879163Y-68408663D01*
X122003925Y-68428862D01*
X122086417Y-68485952D01*
X122119488Y-68574676D01*
X122119802Y-68585606D01*
X122094380Y-68668548D01*
X122019120Y-68714052D01*
X121940619Y-68723020D01*
X121868963Y-68729768D01*
X121840788Y-68759495D01*
X121836881Y-68801609D01*
X121820485Y-68864816D01*
X121789728Y-68880198D01*
X121764856Y-68867848D01*
X121750256Y-68823217D01*
X121743655Y-68734936D01*
X121742575Y-68644431D01*
X121742575Y-68583647D01*
G37*
G36*
X122182674Y-68583647D02*
G01*
X122276980Y-68583647D01*
X122286041Y-68641129D01*
X122326250Y-68656982D01*
X122363428Y-68654378D01*
X122434512Y-68628330D01*
X122459922Y-68573701D01*
X122457440Y-68523874D01*
X122419093Y-68505041D01*
X122373474Y-68502970D01*
X122305185Y-68510867D01*
X122279705Y-68545251D01*
X122276980Y-68583647D01*
X122182674Y-68583647D01*
X122182674Y-68408663D01*
X122319262Y-68408663D01*
X122444024Y-68428862D01*
X122526516Y-68485952D01*
X122559587Y-68574676D01*
X122559901Y-68585606D01*
X122534479Y-68668548D01*
X122459219Y-68714052D01*
X122380718Y-68723020D01*
X122309062Y-68729768D01*
X122280887Y-68759495D01*
X122276980Y-68801609D01*
X122260584Y-68864816D01*
X122229827Y-68880198D01*
X122204955Y-68867848D01*
X122190355Y-68823217D01*
X122183754Y-68734936D01*
X122182674Y-68644431D01*
X122182674Y-68583647D01*
G37*
G36*
X123238012Y-67098903D02*
G01*
X123377228Y-67098903D01*
X123398897Y-67184594D01*
X123451955Y-67233989D01*
X123518483Y-67241805D01*
X123580559Y-67202762D01*
X123603604Y-67165623D01*
X123622913Y-67099323D01*
X123599268Y-67046796D01*
X123575325Y-67021007D01*
X123518601Y-66977907D01*
X123465939Y-66981451D01*
X123443929Y-66992010D01*
X123390024Y-67049234D01*
X123377228Y-67098903D01*
X123238012Y-67098903D01*
X123263791Y-67002726D01*
X123339826Y-66911136D01*
X123343068Y-66908611D01*
X123438103Y-66871310D01*
X123549774Y-66877337D01*
X123652076Y-66923826D01*
X123677295Y-66945477D01*
X123742111Y-67045518D01*
X123744611Y-67152108D01*
X123689303Y-67257023D01*
X123603640Y-67319697D01*
X123491616Y-67341875D01*
X123376852Y-67321195D01*
X123324943Y-67293431D01*
X123255530Y-67211278D01*
X123235419Y-67108575D01*
X123238012Y-67098903D01*
G37*
G36*
X127021403Y-68417236D02*
G01*
X127076002Y-68438017D01*
X127077283Y-68463599D01*
X127022377Y-68486576D01*
X126950602Y-68497009D01*
X126864620Y-68517029D01*
X126831564Y-68549234D01*
X126852156Y-68580290D01*
X126927119Y-68596860D01*
X126945174Y-68597277D01*
X127026550Y-68607502D01*
X127054999Y-68640136D01*
X127055198Y-68644431D01*
X127031340Y-68679306D01*
X126955194Y-68691499D01*
X126945174Y-68691584D01*
X126863797Y-68701809D01*
X126835348Y-68734443D01*
X126835149Y-68738738D01*
X126855912Y-68771525D01*
X126924741Y-68785035D01*
X126960891Y-68785891D01*
X127048324Y-68793677D01*
X127084352Y-68819488D01*
X127086634Y-68833045D01*
X127071112Y-68861481D01*
X127016645Y-68876121D01*
X126913738Y-68880198D01*
X126740842Y-68880198D01*
X126740842Y-68644431D01*
X126740842Y-68408663D01*
X126916358Y-68408663D01*
X127021403Y-68417236D01*
G37*
G36*
X129534783Y-67682610D02*
G01*
X129565742Y-67719585D01*
X129544702Y-67747841D01*
X129482533Y-67758493D01*
X129445691Y-67755424D01*
X129372497Y-67755421D01*
X129352376Y-67779506D01*
X129384290Y-67819754D01*
X129460025Y-67864871D01*
X129542877Y-67926456D01*
X129572135Y-68000257D01*
X129544130Y-68074954D01*
X129532327Y-68088020D01*
X129464272Y-68118846D01*
X129370702Y-68120808D01*
X129282187Y-68093450D01*
X129279270Y-68091789D01*
X129229307Y-68051189D01*
X129237357Y-68025411D01*
X129299539Y-68018238D01*
X129350000Y-68022848D01*
X129440928Y-68024725D01*
X129475480Y-68003461D01*
X129452240Y-67966449D01*
X129369790Y-67921086D01*
X129369531Y-67920978D01*
X129274991Y-67863502D01*
X129239729Y-67796831D01*
X129265399Y-67724633D01*
X129275525Y-67712533D01*
X129354277Y-67666222D01*
X129454014Y-67656687D01*
X129534783Y-67682610D01*
G37*
G36*
X123475345Y-67661155D02*
G01*
X123494317Y-67691618D01*
X123501873Y-67760034D01*
X123502971Y-67841039D01*
X123499168Y-67951995D01*
X123483994Y-68019412D01*
X123451795Y-68062361D01*
X123433105Y-68076807D01*
X123325899Y-68120118D01*
X123214763Y-68114139D01*
X123125743Y-68062871D01*
X123085087Y-68002293D01*
X123066111Y-67913775D01*
X123062872Y-67827104D01*
X123065600Y-67727188D01*
X123077399Y-67675137D01*
X123103686Y-67656052D01*
X123125743Y-67654208D01*
X123163819Y-67662701D01*
X123182583Y-67698570D01*
X123188424Y-67777399D01*
X123188614Y-67807537D01*
X123200566Y-67926245D01*
X123233361Y-68000052D01*
X123282414Y-68022717D01*
X123330075Y-68000000D01*
X123363723Y-67935933D01*
X123377102Y-67821915D01*
X123377228Y-67807537D01*
X123380710Y-67714677D01*
X123395418Y-67668917D01*
X123427742Y-67654673D01*
X123440099Y-67654208D01*
X123475345Y-67661155D01*
G37*
G36*
X124516082Y-68419524D02*
G01*
X124523519Y-68421294D01*
X124581813Y-68448930D01*
X124587153Y-68480421D01*
X124547607Y-68504494D01*
X124471247Y-68509875D01*
X124460857Y-68508831D01*
X124379844Y-68507341D01*
X124356965Y-68527078D01*
X124392036Y-68565777D01*
X124469330Y-68612995D01*
X124563934Y-68680411D01*
X124596037Y-68748382D01*
X124566011Y-68817839D01*
X124555389Y-68829229D01*
X124470587Y-68873407D01*
X124367781Y-68869500D01*
X124312438Y-68846244D01*
X124262475Y-68805645D01*
X124270526Y-68779867D01*
X124332708Y-68772693D01*
X124383169Y-68777304D01*
X124474035Y-68779253D01*
X124508570Y-68758134D01*
X124485506Y-68721225D01*
X124403576Y-68675806D01*
X124401036Y-68674739D01*
X124308215Y-68627251D01*
X124267625Y-68578243D01*
X124269668Y-68514800D01*
X124273210Y-68502762D01*
X124321726Y-68444344D01*
X124409291Y-68414447D01*
X124516082Y-68419524D01*
G37*
G36*
X126149053Y-66876143D02*
G01*
X126167938Y-66909716D01*
X126174522Y-66984177D01*
X126175000Y-67034218D01*
X126161643Y-67182227D01*
X126118832Y-67278488D01*
X126042457Y-67328792D01*
X125958040Y-67339852D01*
X125846347Y-67321068D01*
X125786927Y-67282364D01*
X125749816Y-67204887D01*
X125735245Y-67075998D01*
X125734901Y-67046597D01*
X125737558Y-66944617D01*
X125748880Y-66890787D01*
X125773894Y-66870487D01*
X125796204Y-66868317D01*
X125831730Y-66876974D01*
X125852177Y-66912506D01*
X125863166Y-66989258D01*
X125866934Y-67048766D01*
X125876224Y-67154840D01*
X125893503Y-67212853D01*
X125924043Y-67237558D01*
X125935466Y-67240473D01*
X125995284Y-67232623D01*
X126031666Y-67177630D01*
X126047529Y-67069758D01*
X126048776Y-67017636D01*
X126052776Y-66926234D01*
X126068444Y-66881790D01*
X126102447Y-66868590D01*
X126112129Y-66868317D01*
X126149053Y-66876143D01*
G37*
G36*
X122887720Y-66882039D02*
G01*
X122904527Y-66934179D01*
X122905693Y-66968790D01*
X122905693Y-67069264D01*
X123012394Y-66965845D01*
X123088690Y-66904988D01*
X123155020Y-66874189D01*
X123174846Y-66873231D01*
X123206016Y-66885613D01*
X123200656Y-66913580D01*
X123155374Y-66971446D01*
X123150109Y-66977583D01*
X123069621Y-67071131D01*
X123162063Y-67205491D01*
X123254506Y-67339852D01*
X123175131Y-67339852D01*
X123089992Y-67310340D01*
X123044263Y-67261262D01*
X122999347Y-67205210D01*
X122965548Y-67182673D01*
X122938483Y-67209305D01*
X122918602Y-67261262D01*
X122880923Y-67325508D01*
X122839414Y-67339852D01*
X122808921Y-67333375D01*
X122791022Y-67305348D01*
X122782466Y-67242874D01*
X122779999Y-67133059D01*
X122779951Y-67104084D01*
X122781436Y-66983539D01*
X122788207Y-66912811D01*
X122803738Y-66878869D01*
X122831505Y-66868687D01*
X122842822Y-66868317D01*
X122887720Y-66882039D01*
G37*
G36*
X123444636Y-68413711D02*
G01*
X123492913Y-68431189D01*
X123502971Y-68455817D01*
X123482207Y-68488604D01*
X123413378Y-68502115D01*
X123377228Y-68502970D01*
X123289795Y-68510757D01*
X123253767Y-68536568D01*
X123251485Y-68550124D01*
X123275344Y-68584999D01*
X123351490Y-68597192D01*
X123361510Y-68597277D01*
X123442886Y-68607502D01*
X123471336Y-68640136D01*
X123471535Y-68644431D01*
X123447676Y-68679306D01*
X123371531Y-68691499D01*
X123361510Y-68691584D01*
X123280134Y-68701809D01*
X123251684Y-68734443D01*
X123251485Y-68738738D01*
X123272249Y-68771525D01*
X123341078Y-68785035D01*
X123377228Y-68785891D01*
X123464661Y-68793677D01*
X123500688Y-68819488D01*
X123502971Y-68833045D01*
X123486144Y-68862698D01*
X123427886Y-68877181D01*
X123345792Y-68880198D01*
X123188614Y-68880198D01*
X123188614Y-68644431D01*
X123188614Y-68408663D01*
X123345792Y-68408663D01*
X123444636Y-68413711D01*
G37*
G36*
X125896616Y-67659256D02*
G01*
X125944893Y-67676733D01*
X125954951Y-67701361D01*
X125934187Y-67734149D01*
X125865358Y-67747659D01*
X125829208Y-67748515D01*
X125741776Y-67756301D01*
X125705748Y-67782112D01*
X125703466Y-67795668D01*
X125727324Y-67830544D01*
X125803470Y-67842737D01*
X125813490Y-67842822D01*
X125894866Y-67853047D01*
X125923316Y-67885681D01*
X125923515Y-67889975D01*
X125899656Y-67924851D01*
X125823511Y-67937044D01*
X125813490Y-67937129D01*
X125732114Y-67947354D01*
X125703664Y-67979988D01*
X125703466Y-67984282D01*
X125724229Y-68017069D01*
X125793058Y-68030580D01*
X125829208Y-68031436D01*
X125916641Y-68039222D01*
X125952669Y-68065033D01*
X125954951Y-68078589D01*
X125938124Y-68108242D01*
X125879866Y-68122725D01*
X125797773Y-68125743D01*
X125640594Y-68125743D01*
X125640594Y-67889975D01*
X125640594Y-67654208D01*
X125797773Y-67654208D01*
X125896616Y-67659256D01*
G37*
G36*
X128621222Y-67658441D02*
G01*
X128674903Y-67673296D01*
X128689852Y-67701361D01*
X128669088Y-67734149D01*
X128600259Y-67747659D01*
X128564109Y-67748515D01*
X128476677Y-67756301D01*
X128440649Y-67782112D01*
X128438367Y-67795668D01*
X128462225Y-67830544D01*
X128538371Y-67842737D01*
X128548391Y-67842822D01*
X128629767Y-67853047D01*
X128658217Y-67885681D01*
X128658416Y-67889975D01*
X128634557Y-67924851D01*
X128558412Y-67937044D01*
X128548391Y-67937129D01*
X128467015Y-67947354D01*
X128438565Y-67979988D01*
X128438367Y-67984282D01*
X128459130Y-68017069D01*
X128527959Y-68030580D01*
X128564109Y-68031436D01*
X128651542Y-68039222D01*
X128687570Y-68065033D01*
X128689852Y-68078589D01*
X128674329Y-68107026D01*
X128619863Y-68121666D01*
X128516956Y-68125743D01*
X128344060Y-68125743D01*
X128344060Y-67889975D01*
X128344060Y-67654208D01*
X128516956Y-67654208D01*
X128621222Y-67658441D01*
G37*
G36*
X129385281Y-66875280D02*
G01*
X129404252Y-66905805D01*
X129411788Y-66974341D01*
X129412872Y-67054685D01*
X129403789Y-67192065D01*
X129375685Y-67275262D01*
X129363473Y-67290453D01*
X129292810Y-67326684D01*
X129195884Y-67338912D01*
X129100554Y-67327171D01*
X129034679Y-67291493D01*
X129033449Y-67290053D01*
X129008734Y-67232657D01*
X128988073Y-67136449D01*
X128978668Y-67054286D01*
X128972975Y-66950638D01*
X128977857Y-66894872D01*
X128997509Y-66872326D01*
X129031866Y-66868317D01*
X129074016Y-66876915D01*
X129093510Y-66913753D01*
X129098498Y-66995395D01*
X129098515Y-67003769D01*
X129111881Y-67121824D01*
X129147902Y-67204036D01*
X129200460Y-67240037D01*
X129235430Y-67235921D01*
X129267260Y-67206637D01*
X129283246Y-67141045D01*
X129287129Y-67042200D01*
X129289827Y-66941936D01*
X129301504Y-66889575D01*
X129327535Y-66870250D01*
X129350000Y-66868317D01*
X129385281Y-66875280D01*
G37*
G36*
X121293066Y-68668107D02*
G01*
X121382539Y-68668107D01*
X121400280Y-68689011D01*
X121444610Y-68691584D01*
X121503394Y-68682800D01*
X121522525Y-68666157D01*
X121505772Y-68622749D01*
X121481659Y-68584842D01*
X121450189Y-68550376D01*
X121426838Y-68564214D01*
X121403744Y-68610270D01*
X121382539Y-68668107D01*
X121293066Y-68668107D01*
X121351483Y-68542680D01*
X121397339Y-68460984D01*
X121431981Y-68421115D01*
X121452944Y-68415231D01*
X121486313Y-68445989D01*
X121531418Y-68516876D01*
X121580289Y-68610759D01*
X121624954Y-68710502D01*
X121657439Y-68798970D01*
X121669773Y-68859030D01*
X121665933Y-68873011D01*
X121632557Y-68869832D01*
X121602937Y-68840854D01*
X121546603Y-68802910D01*
X121464720Y-68785919D01*
X121382237Y-68790556D01*
X121324106Y-68817494D01*
X121313843Y-68833045D01*
X121272800Y-68874848D01*
X121249339Y-68880198D01*
X121214018Y-68866890D01*
X121213408Y-68854912D01*
X121291233Y-68672043D01*
X121293066Y-68668107D01*
G37*
G36*
X121995698Y-66874344D02*
G01*
X122014046Y-66901070D01*
X122022836Y-66961459D01*
X122025424Y-67068477D01*
X122025495Y-67104084D01*
X122023878Y-67224944D01*
X122016844Y-67295882D01*
X122001115Y-67329810D01*
X121973415Y-67339640D01*
X121965673Y-67339852D01*
X121911453Y-67316827D01*
X121842316Y-67258464D01*
X121809549Y-67221968D01*
X121713247Y-67104084D01*
X121712193Y-67221968D01*
X121705313Y-67301170D01*
X121680607Y-67334693D01*
X121648268Y-67339852D01*
X121616122Y-67334283D01*
X121597261Y-67308892D01*
X121588210Y-67250648D01*
X121585495Y-67146524D01*
X121585396Y-67104084D01*
X121587247Y-66982529D01*
X121594761Y-66911211D01*
X121610881Y-66877554D01*
X121638550Y-66868982D01*
X121640409Y-66868988D01*
X121688985Y-66893461D01*
X121752554Y-66955248D01*
X121789728Y-67002590D01*
X121884035Y-67135520D01*
X121893701Y-67001918D01*
X121905592Y-66915313D01*
X121929999Y-66876026D01*
X121964431Y-66868317D01*
X121995698Y-66874344D01*
G37*
G36*
X122449371Y-67657829D02*
G01*
X122508172Y-67670667D01*
X122528094Y-67695680D01*
X122528466Y-67701361D01*
X122507702Y-67734149D01*
X122438873Y-67747659D01*
X122402723Y-67748515D01*
X122315290Y-67756301D01*
X122279263Y-67782112D01*
X122276980Y-67795668D01*
X122300839Y-67830544D01*
X122376985Y-67842737D01*
X122387005Y-67842822D01*
X122468381Y-67853047D01*
X122496831Y-67885681D01*
X122497030Y-67889975D01*
X122473171Y-67924851D01*
X122397026Y-67937044D01*
X122387005Y-67937129D01*
X122305629Y-67947354D01*
X122277179Y-67979988D01*
X122276980Y-67984282D01*
X122297744Y-68017069D01*
X122366573Y-68030580D01*
X122402723Y-68031436D01*
X122490156Y-68039222D01*
X122526183Y-68065033D01*
X122528466Y-68078589D01*
X122513980Y-68105969D01*
X122462631Y-68120669D01*
X122362578Y-68125650D01*
X122339852Y-68125743D01*
X122151238Y-68125743D01*
X122151238Y-67889975D01*
X122151238Y-67654208D01*
X122339852Y-67654208D01*
X122449371Y-67657829D01*
G37*
G36*
X124828875Y-66879748D02*
G01*
X124852608Y-66899880D01*
X124854703Y-66913970D01*
X124835635Y-66947435D01*
X124770936Y-66961473D01*
X124728961Y-66962624D01*
X124641528Y-66970410D01*
X124605500Y-66996221D01*
X124603218Y-67009777D01*
X124627077Y-67044653D01*
X124703222Y-67056845D01*
X124713243Y-67056931D01*
X124794619Y-67067156D01*
X124823069Y-67099790D01*
X124823268Y-67104084D01*
X124799409Y-67138960D01*
X124723263Y-67151152D01*
X124713243Y-67151238D01*
X124631867Y-67161463D01*
X124603417Y-67194097D01*
X124603218Y-67198391D01*
X124623982Y-67231178D01*
X124692811Y-67244689D01*
X124728961Y-67245545D01*
X124816393Y-67253331D01*
X124852421Y-67279142D01*
X124854703Y-67292698D01*
X124841128Y-67319071D01*
X124792593Y-67333769D01*
X124697382Y-67339479D01*
X124648994Y-67339852D01*
X124443285Y-67339852D01*
X124452522Y-67111943D01*
X124461758Y-66884035D01*
X124658230Y-66874676D01*
X124768356Y-66872201D01*
X124828875Y-66879748D01*
G37*
G36*
X125592936Y-66871938D02*
G01*
X125651736Y-66884775D01*
X125671658Y-66909789D01*
X125672030Y-66915470D01*
X125651266Y-66948258D01*
X125582437Y-66961768D01*
X125546287Y-66962624D01*
X125458855Y-66970410D01*
X125422827Y-66996221D01*
X125420545Y-67009777D01*
X125444404Y-67044653D01*
X125520549Y-67056845D01*
X125530570Y-67056931D01*
X125611946Y-67067156D01*
X125640395Y-67099790D01*
X125640594Y-67104084D01*
X125616736Y-67138960D01*
X125540590Y-67151152D01*
X125530570Y-67151238D01*
X125449193Y-67161463D01*
X125420744Y-67194097D01*
X125420545Y-67198391D01*
X125441308Y-67231178D01*
X125510137Y-67244689D01*
X125546287Y-67245545D01*
X125633720Y-67253331D01*
X125669748Y-67279142D01*
X125672030Y-67292698D01*
X125657545Y-67320078D01*
X125606195Y-67334778D01*
X125506142Y-67339759D01*
X125483416Y-67339852D01*
X125294802Y-67339852D01*
X125294802Y-67104084D01*
X125294802Y-66868317D01*
X125483416Y-66868317D01*
X125592936Y-66871938D01*
G37*
G36*
X127777217Y-66875268D02*
G01*
X127843714Y-66904855D01*
X127867485Y-66943125D01*
X127867259Y-66980692D01*
X127836115Y-66990964D01*
X127765591Y-66980995D01*
X127682929Y-66973977D01*
X127655728Y-66990931D01*
X127683732Y-67026697D01*
X127766689Y-67076115D01*
X127770359Y-67077918D01*
X127865050Y-67141232D01*
X127897144Y-67207920D01*
X127866545Y-67277742D01*
X127856132Y-67288882D01*
X127787417Y-67323369D01*
X127688257Y-67338475D01*
X127588638Y-67332157D01*
X127530011Y-67311107D01*
X127501755Y-67261937D01*
X127505968Y-67231644D01*
X127533999Y-67197433D01*
X127585777Y-67212064D01*
X127587071Y-67212753D01*
X127659313Y-67239856D01*
X127697562Y-67245545D01*
X127742487Y-67232173D01*
X127738635Y-67200605D01*
X127691917Y-67163664D01*
X127651812Y-67146296D01*
X127556243Y-67093542D01*
X127518384Y-67024575D01*
X127540520Y-66944010D01*
X127546893Y-66934385D01*
X127606833Y-66889434D01*
X127690932Y-66869928D01*
X127777217Y-66875268D01*
G37*
G36*
X128673629Y-66871938D02*
G01*
X128732429Y-66884775D01*
X128752351Y-66909789D01*
X128752723Y-66915470D01*
X128731959Y-66948258D01*
X128663130Y-66961768D01*
X128626980Y-66962624D01*
X128539548Y-66970410D01*
X128503520Y-66996221D01*
X128501238Y-67009777D01*
X128525097Y-67044653D01*
X128601242Y-67056845D01*
X128611263Y-67056931D01*
X128692639Y-67067156D01*
X128721088Y-67099790D01*
X128721287Y-67104084D01*
X128697429Y-67138960D01*
X128621283Y-67151152D01*
X128611263Y-67151238D01*
X128529886Y-67161463D01*
X128501437Y-67194097D01*
X128501238Y-67198391D01*
X128522001Y-67231178D01*
X128590830Y-67244689D01*
X128626980Y-67245545D01*
X128714413Y-67253331D01*
X128750441Y-67279142D01*
X128752723Y-67292698D01*
X128738238Y-67320078D01*
X128686889Y-67334778D01*
X128586835Y-67339759D01*
X128564109Y-67339852D01*
X128375495Y-67339852D01*
X128375495Y-67104084D01*
X128375495Y-66868317D01*
X128564109Y-66868317D01*
X128673629Y-66871938D01*
G37*
G36*
X120689366Y-67920009D02*
G01*
X120813603Y-67920009D01*
X120837555Y-67936189D01*
X120861270Y-67937129D01*
X120912767Y-67927400D01*
X120924766Y-67913552D01*
X120909298Y-67868821D01*
X120896710Y-67846434D01*
X120870219Y-67824348D01*
X120841148Y-67855761D01*
X120833214Y-67870011D01*
X120813603Y-67920009D01*
X120689366Y-67920009D01*
X120699442Y-67896900D01*
X120709407Y-67874534D01*
X120765627Y-67757265D01*
X120809791Y-67688836D01*
X120850006Y-67658539D01*
X120876201Y-67654208D01*
X120915974Y-67665208D01*
X120953764Y-67705408D01*
X120997203Y-67785606D01*
X121042889Y-67889975D01*
X121141299Y-68125743D01*
X121064709Y-68125743D01*
X121003001Y-68108986D01*
X120988119Y-68078589D01*
X120963455Y-68043207D01*
X120885570Y-68031451D01*
X120881458Y-68031436D01*
X120795598Y-68045273D01*
X120756702Y-68078589D01*
X120723943Y-68108381D01*
X120670335Y-68126105D01*
X120623989Y-68125649D01*
X120610891Y-68110301D01*
X120622838Y-68076236D01*
X120654462Y-68000059D01*
X120689366Y-67920009D01*
G37*
G36*
X121648268Y-67811386D02*
G01*
X121774010Y-67811386D01*
X121792429Y-67860687D01*
X121852599Y-67874257D01*
X121914226Y-67859522D01*
X121931188Y-67811386D01*
X121912769Y-67762085D01*
X121852599Y-67748515D01*
X121790973Y-67763250D01*
X121774010Y-67811386D01*
X121648268Y-67811386D01*
X121648268Y-67654208D01*
X121814876Y-67654208D01*
X121916372Y-67660948D01*
X121993970Y-67678194D01*
X122019208Y-67691931D01*
X122050412Y-67759033D01*
X122053631Y-67846738D01*
X122028625Y-67919993D01*
X122020822Y-67929228D01*
X122003633Y-67971645D01*
X122030388Y-68034785D01*
X122037265Y-68045539D01*
X122070636Y-68101521D01*
X122063505Y-68122552D01*
X122012621Y-68125743D01*
X121940188Y-68101804D01*
X121915471Y-68062871D01*
X121873791Y-68011774D01*
X121834763Y-68000000D01*
X121783740Y-68023250D01*
X121774010Y-68062871D01*
X121751782Y-68115410D01*
X121711139Y-68125743D01*
X121678994Y-68120174D01*
X121660133Y-68094783D01*
X121651082Y-68036539D01*
X121648366Y-67932415D01*
X121648268Y-67889975D01*
X121648268Y-67811386D01*
G37*
G36*
X122591337Y-67797855D02*
G01*
X122717079Y-67797855D01*
X122740342Y-67831058D01*
X122791777Y-67836952D01*
X122843856Y-67817388D01*
X122866556Y-67787809D01*
X122851064Y-67757108D01*
X122798288Y-67748515D01*
X122732372Y-67764990D01*
X122717079Y-67797855D01*
X122591337Y-67797855D01*
X122591337Y-67654208D01*
X122760384Y-67654208D01*
X122889854Y-67666398D01*
X122970194Y-67700919D01*
X122996976Y-67754693D01*
X122979029Y-67806162D01*
X122964282Y-67869790D01*
X122988211Y-67922989D01*
X123013803Y-67980715D01*
X122996129Y-68035283D01*
X122982000Y-68056590D01*
X122940650Y-68098536D01*
X122879636Y-68119454D01*
X122778839Y-68125682D01*
X122762450Y-68125743D01*
X122591337Y-68125743D01*
X122591337Y-67986469D01*
X122717079Y-67986469D01*
X122740342Y-68019671D01*
X122791777Y-68025566D01*
X122843856Y-68006002D01*
X122866556Y-67976423D01*
X122851064Y-67945722D01*
X122798288Y-67937129D01*
X122732372Y-67953604D01*
X122717079Y-67986469D01*
X122591337Y-67986469D01*
X122591337Y-67889975D01*
X122591337Y-67797855D01*
G37*
G36*
X125603401Y-68412897D02*
G01*
X125657081Y-68427751D01*
X125672030Y-68455817D01*
X125651266Y-68488604D01*
X125582437Y-68502115D01*
X125546287Y-68502970D01*
X125458855Y-68510757D01*
X125422827Y-68536568D01*
X125420545Y-68550124D01*
X125444404Y-68584999D01*
X125520549Y-68597192D01*
X125530570Y-68597277D01*
X125611946Y-68607502D01*
X125640395Y-68640136D01*
X125640594Y-68644431D01*
X125616736Y-68679306D01*
X125540590Y-68691499D01*
X125530570Y-68691584D01*
X125449193Y-68701809D01*
X125420744Y-68734443D01*
X125420545Y-68738738D01*
X125441308Y-68771525D01*
X125510137Y-68785035D01*
X125546287Y-68785891D01*
X125633720Y-68793677D01*
X125669748Y-68819488D01*
X125672030Y-68833045D01*
X125654691Y-68863147D01*
X125594983Y-68877545D01*
X125520091Y-68880198D01*
X125426966Y-68876188D01*
X125362113Y-68866001D01*
X125347195Y-68859241D01*
X125336653Y-68819346D01*
X125329126Y-68734851D01*
X125326238Y-68624008D01*
X125326238Y-68623474D01*
X125326238Y-68408663D01*
X125499134Y-68408663D01*
X125603401Y-68412897D01*
G37*
G36*
X128784159Y-67829192D02*
G01*
X128878466Y-67829192D01*
X128887526Y-67886673D01*
X128927735Y-67902527D01*
X128964914Y-67899922D01*
X129035997Y-67873875D01*
X129061407Y-67819245D01*
X129058925Y-67769418D01*
X129020578Y-67750586D01*
X128974959Y-67748515D01*
X128906670Y-67756411D01*
X128881190Y-67790795D01*
X128878466Y-67829192D01*
X128784159Y-67829192D01*
X128784159Y-67654208D01*
X128902907Y-67654208D01*
X129029125Y-67672624D01*
X129115385Y-67722331D01*
X129155017Y-67795016D01*
X129141347Y-67882367D01*
X129117764Y-67921898D01*
X129090817Y-67975058D01*
X129105375Y-68027647D01*
X129121380Y-68053649D01*
X129151223Y-68105576D01*
X129142958Y-68123890D01*
X129118954Y-68125743D01*
X129065939Y-68100689D01*
X129035644Y-68062871D01*
X128983785Y-68012507D01*
X128940231Y-68000000D01*
X128888471Y-68022770D01*
X128878466Y-68062871D01*
X128858810Y-68114073D01*
X128831312Y-68125743D01*
X128806440Y-68113392D01*
X128791840Y-68068762D01*
X128785239Y-67980481D01*
X128784159Y-67889975D01*
X128784159Y-67829192D01*
G37*
G36*
X125145226Y-67827104D02*
G01*
X125231931Y-67827104D01*
X125239026Y-67883146D01*
X125273059Y-67902207D01*
X125334097Y-67899826D01*
X125408093Y-67882572D01*
X125435097Y-67843509D01*
X125436263Y-67827104D01*
X125419818Y-67779982D01*
X125360572Y-67757652D01*
X125334097Y-67754382D01*
X125263910Y-67753349D01*
X125236266Y-67778190D01*
X125231931Y-67827104D01*
X125145226Y-67827104D01*
X125153342Y-67669926D01*
X125279084Y-67660671D01*
X125379268Y-67665384D01*
X125456886Y-67690041D01*
X125463769Y-67694558D01*
X125505946Y-67754028D01*
X125521880Y-67833999D01*
X125509223Y-67906519D01*
X125484100Y-67936706D01*
X125461333Y-67968930D01*
X125480401Y-68025753D01*
X125482717Y-68030130D01*
X125505339Y-68097571D01*
X125487916Y-68121396D01*
X125441827Y-68094160D01*
X125420659Y-68070730D01*
X125356173Y-68016951D01*
X125291534Y-68000262D01*
X125244656Y-68021410D01*
X125231931Y-68062871D01*
X125214886Y-68115744D01*
X125178949Y-68120581D01*
X125150657Y-68082928D01*
X125143273Y-68029727D01*
X125141298Y-67936850D01*
X125143785Y-67855020D01*
X125145226Y-67827104D01*
G37*
G36*
X126049258Y-67797756D02*
G01*
X126143565Y-67797756D01*
X126168050Y-67829626D01*
X126223817Y-67838254D01*
X126284330Y-67825097D01*
X126323056Y-67791615D01*
X126324515Y-67787809D01*
X126308102Y-67757896D01*
X126240491Y-67748515D01*
X126165850Y-67760909D01*
X126143565Y-67797756D01*
X126049258Y-67797756D01*
X126049258Y-67654208D01*
X126188473Y-67654208D01*
X126301777Y-67668274D01*
X126381948Y-67705197D01*
X126419950Y-67757067D01*
X126406749Y-67815973D01*
X126392469Y-67832829D01*
X126376612Y-67880008D01*
X126400098Y-67933531D01*
X126426104Y-68012764D01*
X126393598Y-68071292D01*
X126303853Y-68107859D01*
X126211057Y-68119527D01*
X126049258Y-68129028D01*
X126049258Y-68000000D01*
X126143565Y-68000000D01*
X126149643Y-68046614D01*
X126179215Y-68059972D01*
X126249284Y-68046284D01*
X126261448Y-68043058D01*
X126322257Y-68010282D01*
X126328408Y-67971101D01*
X126283651Y-67942370D01*
X126237872Y-67937129D01*
X126168842Y-67947009D01*
X126144538Y-67983771D01*
X126143565Y-68000000D01*
X126049258Y-68000000D01*
X126049258Y-67891618D01*
X126049258Y-67797756D01*
G37*
G36*
X121460363Y-66873885D02*
G01*
X121479224Y-66899277D01*
X121488275Y-66957520D01*
X121490991Y-67061645D01*
X121491089Y-67104084D01*
X121489516Y-67224833D01*
X121482569Y-67295698D01*
X121466909Y-67329632D01*
X121439197Y-67339590D01*
X121430306Y-67339852D01*
X121379895Y-67317514D01*
X121359576Y-67253404D01*
X121337061Y-67186074D01*
X121277596Y-67158985D01*
X121263181Y-67157009D01*
X121202662Y-67157251D01*
X121179794Y-67189360D01*
X121176733Y-67243457D01*
X121167321Y-67313416D01*
X121132039Y-67338601D01*
X121113862Y-67339852D01*
X121081716Y-67334283D01*
X121062855Y-67308892D01*
X121053804Y-67250648D01*
X121051089Y-67146524D01*
X121050990Y-67104084D01*
X121052475Y-66983539D01*
X121059246Y-66912811D01*
X121074778Y-66878869D01*
X121102544Y-66868687D01*
X121113862Y-66868317D01*
X121159881Y-66883137D01*
X121176084Y-66938280D01*
X121176733Y-66962624D01*
X121184522Y-67029421D01*
X121221265Y-67054042D01*
X121271040Y-67056931D01*
X121337837Y-67049141D01*
X121362458Y-67012399D01*
X121365347Y-66962624D01*
X121375227Y-66893594D01*
X121411989Y-66869290D01*
X121428218Y-66868317D01*
X121460363Y-66873885D01*
G37*
G36*
X130573851Y-67665933D02*
G01*
X130575990Y-67682435D01*
X130561472Y-67724162D01*
X130524473Y-67799076D01*
X130497780Y-67847472D01*
X130451401Y-67942292D01*
X130423160Y-68026397D01*
X130419191Y-68055012D01*
X130407049Y-68110228D01*
X130387376Y-68125743D01*
X130362310Y-68099263D01*
X130355941Y-68059267D01*
X130344048Y-68003823D01*
X130313859Y-67926548D01*
X130273609Y-67843048D01*
X130231532Y-67768928D01*
X130195865Y-67719795D01*
X130174841Y-67711254D01*
X130173654Y-67713817D01*
X130136786Y-67742793D01*
X130101836Y-67748515D01*
X130068086Y-67756151D01*
X130049849Y-67788540D01*
X130042580Y-67859903D01*
X130041584Y-67937129D01*
X130037963Y-68046648D01*
X130025126Y-68105449D01*
X130000112Y-68125371D01*
X129994431Y-68125743D01*
X129966912Y-68111126D01*
X129952216Y-68059377D01*
X129947346Y-67958646D01*
X129947277Y-67939315D01*
X129945005Y-67834518D01*
X129934453Y-67776981D01*
X129910023Y-67751153D01*
X129876547Y-67742842D01*
X129812189Y-67726398D01*
X129803413Y-67706305D01*
X129843353Y-67686186D01*
X129925143Y-67669663D01*
X130032222Y-67660720D01*
X130149789Y-67657053D01*
X130221057Y-67661392D01*
X130262534Y-67678911D01*
X130290731Y-67714781D01*
X130308091Y-67747168D01*
X130356712Y-67821729D01*
X130399308Y-67835132D01*
X130444129Y-67787445D01*
X130465966Y-67748515D01*
X130509663Y-67683744D01*
X130549919Y-67653637D01*
X130573851Y-67665933D01*
G37*
G36*
X124240111Y-67886477D02*
G01*
X124321967Y-67886477D01*
X124344817Y-67929080D01*
X124383169Y-67937129D01*
X124434322Y-67929653D01*
X124446040Y-67919344D01*
X124432799Y-67880670D01*
X124411225Y-67836508D01*
X124380337Y-67794194D01*
X124354461Y-67806699D01*
X124348835Y-67814998D01*
X124321967Y-67886477D01*
X124240111Y-67886477D01*
X124245367Y-67875386D01*
X124303298Y-67761796D01*
X124352498Y-67687179D01*
X124386624Y-67660975D01*
X124389116Y-67661430D01*
X124420747Y-67694842D01*
X124463493Y-67767799D01*
X124509720Y-67862906D01*
X124551796Y-67962772D01*
X124582085Y-68050003D01*
X124592956Y-68107207D01*
X124589650Y-68118353D01*
X124556119Y-68115336D01*
X124526452Y-68086399D01*
X124471440Y-68049660D01*
X124390371Y-68032206D01*
X124308185Y-68035042D01*
X124249821Y-68059170D01*
X124238805Y-68074820D01*
X124202221Y-68097692D01*
X124124092Y-68114126D01*
X124021971Y-68123698D01*
X123913414Y-68125984D01*
X123815977Y-68120562D01*
X123747214Y-68107010D01*
X123724360Y-68087214D01*
X123744627Y-68043528D01*
X123795756Y-67971459D01*
X123850229Y-67905693D01*
X123974757Y-67764233D01*
X123859205Y-67748515D01*
X123780375Y-67728571D01*
X123733917Y-67699511D01*
X123730717Y-67693503D01*
X123742530Y-67670295D01*
X123802144Y-67657754D01*
X123909014Y-67654208D01*
X124025884Y-67659252D01*
X124086075Y-67679403D01*
X124092480Y-67722192D01*
X124047989Y-67795150D01*
X123990223Y-67865737D01*
X123928896Y-67940559D01*
X123888955Y-67995382D01*
X123880198Y-68012856D01*
X123907834Y-68025227D01*
X123975631Y-68031307D01*
X123988368Y-68031436D01*
X124067476Y-68040856D01*
X124116175Y-68063837D01*
X124118415Y-68066835D01*
X124140702Y-68057837D01*
X124180423Y-68000838D01*
X124230905Y-67905901D01*
X124240111Y-67886477D01*
G37*
G36*
X117608028Y-66068445D02*
G01*
X117946546Y-66135726D01*
X118262498Y-66260827D01*
X118552795Y-66442586D01*
X118766939Y-66630480D01*
X118869786Y-66738387D01*
X118960956Y-66841600D01*
X119027323Y-66924903D01*
X119048745Y-66957155D01*
X119105535Y-67056931D01*
X118836555Y-67056931D01*
X118567575Y-67056931D01*
X118567575Y-67166955D01*
X118567575Y-67276980D01*
X118756188Y-67276980D01*
X118855561Y-67280548D01*
X118923689Y-67289823D01*
X118944256Y-67300557D01*
X118924539Y-67333135D01*
X118872209Y-67400531D01*
X118796721Y-67490837D01*
X118755642Y-67538135D01*
X118654449Y-67660259D01*
X118594449Y-67751540D01*
X118569310Y-67822296D01*
X118567575Y-67844633D01*
X118567575Y-67937129D01*
X118965179Y-67937129D01*
X119362784Y-67937129D01*
X119342893Y-68180755D01*
X119284752Y-68520794D01*
X119170569Y-68839787D01*
X119005318Y-69131853D01*
X118793974Y-69391108D01*
X118541508Y-69611670D01*
X118252896Y-69787655D01*
X117933111Y-69913182D01*
X117861527Y-69932820D01*
X117656341Y-69967842D01*
X117419779Y-69981009D01*
X117175636Y-69972936D01*
X116947706Y-69944234D01*
X116787792Y-69905154D01*
X116518439Y-69798925D01*
X116280730Y-69661121D01*
X116055318Y-69479631D01*
X115957846Y-69385639D01*
X115731158Y-69118699D01*
X115564126Y-68833668D01*
X115455488Y-68527215D01*
X115403979Y-68196008D01*
X115402486Y-67921411D01*
X115448282Y-67571848D01*
X115548301Y-67252875D01*
X115594141Y-67166955D01*
X116681436Y-67166955D01*
X116685243Y-67237400D01*
X116708747Y-67268707D01*
X116770075Y-67276734D01*
X116807178Y-67276980D01*
X116932921Y-67276980D01*
X116932921Y-67607055D01*
X116932921Y-67937129D01*
X117073282Y-67937129D01*
X117213642Y-67937129D01*
X117222601Y-67614913D01*
X117231560Y-67292698D01*
X117349443Y-67282942D01*
X117426718Y-67271941D01*
X117459779Y-67243997D01*
X117467259Y-67180473D01*
X117467327Y-67165058D01*
X117467327Y-67088070D01*
X117561634Y-67088070D01*
X117573252Y-67131829D01*
X117607490Y-67231365D01*
X117663424Y-67384158D01*
X117740131Y-67587690D01*
X117836685Y-67839441D01*
X117847098Y-67866399D01*
X117874255Y-67910416D01*
X117923699Y-67931411D01*
X118014742Y-67937079D01*
X118024532Y-67937101D01*
X118174629Y-67937073D01*
X118241805Y-67756346D01*
X118285871Y-67638015D01*
X118341259Y-67489584D01*
X118397231Y-67339824D01*
X118406685Y-67314559D01*
X118504387Y-67053499D01*
X118357575Y-67063074D01*
X118210763Y-67072649D01*
X118142433Y-67296945D01*
X118095672Y-67449400D01*
X118062292Y-67543554D01*
X118036225Y-67580894D01*
X118011400Y-67562905D01*
X117981747Y-67491072D01*
X117941196Y-67366883D01*
X117935046Y-67347710D01*
X117841622Y-67056931D01*
X117701628Y-67056931D01*
X117617774Y-67063177D01*
X117567780Y-67078962D01*
X117561634Y-67088070D01*
X117467327Y-67088070D01*
X117467327Y-67056931D01*
X117074381Y-67056931D01*
X116681436Y-67056931D01*
X116681436Y-67166955D01*
X115594141Y-67166955D01*
X115652840Y-67056931D01*
X115704422Y-66960249D01*
X115918525Y-66689731D01*
X115973971Y-66632387D01*
X116242485Y-66404075D01*
X116534121Y-66233979D01*
X116851418Y-66120961D01*
X117196919Y-66063879D01*
X117250037Y-66060148D01*
X117608028Y-66068445D01*
G37*
%TO.C,C1*%
X148900000Y-95300000D02*
X146900000Y-95300000D01*
X146900000Y-95300000D02*
X146900000Y-88300000D01*
X146900000Y-88300000D02*
X148900000Y-88300000D01*
X148900000Y-88300000D02*
X148900000Y-95300000D01*
D12*
%TO.C,J3*%
X122130000Y-72560000D02*
X122130000Y-75370000D01*
X116070000Y-72560000D02*
X122130000Y-72560000D01*
X108910000Y-72560000D02*
X111970000Y-72560000D01*
X122320000Y-76670000D02*
X122320000Y-78670000D01*
X122130000Y-79970000D02*
X122130000Y-82780000D01*
X122130000Y-82780000D02*
X116070000Y-82780000D01*
X111970000Y-82780000D02*
X108910000Y-82780000D01*
X108910000Y-82780000D02*
X108910000Y-72560000D01*
D11*
%TO.C,C4*%
X142900000Y-83700000D02*
X144900000Y-83700000D01*
X144900000Y-83700000D02*
X144900000Y-90700000D01*
X144900000Y-90700000D02*
X142900000Y-90700000D01*
X142900000Y-90700000D02*
X142900000Y-83700000D01*
D12*
%TO.C,R3*%
X126640000Y-75000000D02*
X127330000Y-75000000D01*
X127330000Y-73280000D02*
X127330000Y-76720000D01*
X127330000Y-76720000D02*
X136570000Y-76720000D01*
X136570000Y-73280000D02*
X127330000Y-73280000D01*
X136570000Y-76720000D02*
X136570000Y-73280000D01*
X137260000Y-75000000D02*
X136570000Y-75000000D01*
%TO.C,SW1*%
X183550000Y-91350000D02*
X182050000Y-91350000D01*
X179550000Y-92600000D02*
X179550000Y-97100000D01*
X186050000Y-97100000D02*
X186050000Y-92600000D01*
X182050000Y-98350000D02*
X183550000Y-98350000D01*
D11*
%TO.C,C2*%
X166900000Y-89600000D02*
X173900000Y-89600000D01*
X173900000Y-89600000D02*
X173900000Y-87600000D01*
X173900000Y-87600000D02*
X166900000Y-87600000D01*
X166900000Y-87600000D02*
X166900000Y-89600000D01*
D12*
%TO.C,L1*%
X169357500Y-106820000D02*
X169357500Y-105550000D01*
X168137500Y-105550000D02*
X170577500Y-105550000D01*
X170577500Y-105550000D02*
X170577500Y-100010000D01*
X168137500Y-100010000D02*
X168137500Y-105550000D01*
X170577500Y-100010000D02*
X168137500Y-100010000D01*
X169357500Y-98740000D02*
X169357500Y-100010000D01*
%TO.C,ATmega 16A-P*%
X151392500Y-66317500D02*
X151392500Y-117237500D01*
X151392500Y-117237500D02*
X164312500Y-117237500D01*
X156852500Y-66317500D02*
X151392500Y-66317500D01*
X164312500Y-66317500D02*
X158852500Y-66317500D01*
X164312500Y-117237500D02*
X164312500Y-66317500D01*
X156852500Y-66317500D02*
G75*
G03*
X158852500Y-66317500I1000000J0D01*
G01*
%TO.C,PROGRAMATOR*%
X140720000Y-94510000D02*
X140720000Y-93510000D01*
X140720000Y-93510000D02*
X139720000Y-94010000D01*
X139720000Y-94010000D02*
X140720000Y-94510000D01*
X139330000Y-99220000D02*
X130210000Y-99220000D01*
X139330000Y-90980000D02*
X138020000Y-90980000D01*
X139330000Y-78640000D02*
X139330000Y-99220000D01*
X138020000Y-97920000D02*
X131520000Y-97920000D01*
X138020000Y-90980000D02*
X138020000Y-97920000D01*
X138020000Y-86880000D02*
X139330000Y-86880000D01*
X138020000Y-86880000D02*
X138020000Y-86880000D01*
X138020000Y-79940000D02*
X138020000Y-86880000D01*
X131520000Y-97920000D02*
X131520000Y-79940000D01*
X131520000Y-79940000D02*
X138020000Y-79940000D01*
X130210000Y-99220000D02*
X130210000Y-78640000D01*
X130210000Y-78640000D02*
X139330000Y-78640000D01*
%TO.C,R2*%
X134660000Y-116050000D02*
X135350000Y-116050000D01*
X135350000Y-114330000D02*
X135350000Y-117770000D01*
X135350000Y-117770000D02*
X144590000Y-117770000D01*
X144590000Y-114330000D02*
X135350000Y-114330000D01*
X144590000Y-117770000D02*
X144590000Y-114330000D01*
X145280000Y-116050000D02*
X144590000Y-116050000D01*
%TO.C,PB0*%
X144607500Y-67320000D02*
X143107500Y-67320000D01*
X140607500Y-68570000D02*
X140607500Y-73070000D01*
X147107500Y-73070000D02*
X147107500Y-68570000D01*
X143107500Y-74320000D02*
X144607500Y-74320000D01*
%TD*%
M02*
