%TF.GenerationSoftware,KiCad,Pcbnew,7.0.1*%
%TF.CreationDate,2023-05-16T22:34:38+02:00*%
%TF.ProjectId,PPURS projekt,50505552-5320-4707-926f-6a656b742e6b,rev?*%
%TF.SameCoordinates,Original*%
%TF.FileFunction,Soldermask,Top*%
%TF.FilePolarity,Negative*%
%FSLAX46Y46*%
G04 Gerber Fmt 4.6, Leading zero omitted, Abs format (unit mm)*
G04 Created by KiCad (PCBNEW 7.0.1) date 2023-05-16 22:34:38*
%MOMM*%
%LPD*%
G01*
G04 APERTURE LIST*
G04 Aperture macros list*
%AMRoundRect*
0 Rectangle with rounded corners*
0 $1 Rounding radius*
0 $2 $3 $4 $5 $6 $7 $8 $9 X,Y pos of 4 corners*
0 Add a 4 corners polygon primitive as box body*
4,1,4,$2,$3,$4,$5,$6,$7,$8,$9,$2,$3,0*
0 Add four circle primitives for the rounded corners*
1,1,$1+$1,$2,$3*
1,1,$1+$1,$4,$5*
1,1,$1+$1,$6,$7*
1,1,$1+$1,$8,$9*
0 Add four rect primitives between the rounded corners*
20,1,$1+$1,$2,$3,$4,$5,0*
20,1,$1+$1,$4,$5,$6,$7,0*
20,1,$1+$1,$6,$7,$8,$9,0*
20,1,$1+$1,$8,$9,$2,$3,0*%
G04 Aperture macros list end*
%ADD10R,1.600000X1.600000*%
%ADD11C,1.600000*%
%ADD12R,1.800000X1.800000*%
%ADD13C,1.800000*%
%ADD14C,1.500000*%
%ADD15R,1.700000X1.700000*%
%ADD16C,1.700000*%
%ADD17R,1.500000X1.050000*%
%ADD18O,1.500000X1.050000*%
%ADD19O,1.600000X1.600000*%
%ADD20C,3.600000*%
%ADD21C,5.700000*%
%ADD22R,2.000000X2.000000*%
%ADD23C,2.000000*%
%ADD24O,1.700000X1.700000*%
%ADD25C,2.340000*%
%ADD26R,2.000000X4.000000*%
%ADD27O,2.000000X3.300000*%
%ADD28O,3.500000X2.000000*%
%ADD29RoundRect,0.250000X0.600000X0.600000X-0.600000X0.600000X-0.600000X-0.600000X0.600000X-0.600000X0*%
G04 APERTURE END LIST*
D10*
%TO.C,C3*%
X143900000Y-104100000D03*
D11*
X143900000Y-109100000D03*
%TD*%
D12*
%TO.C,D1*%
X135790000Y-68095000D03*
D13*
X135790000Y-70635000D03*
%TD*%
D14*
%TO.C,Y1*%
X143900000Y-94420000D03*
X143900000Y-99300000D03*
%TD*%
D15*
%TO.C,Senseair S8*%
X123640000Y-115372500D03*
D16*
X121100000Y-115372500D03*
X118560000Y-115372500D03*
X116020000Y-115372500D03*
X113480000Y-85672500D03*
X116020000Y-85672500D03*
X118560000Y-85672500D03*
X121100000Y-85672500D03*
X123640000Y-85672500D03*
%TD*%
D10*
%TO.C,C6*%
X175500000Y-88600000D03*
D11*
X180500000Y-88600000D03*
%TD*%
D17*
%TO.C,U3*%
X169940000Y-67600000D03*
D18*
X169940000Y-68870000D03*
X169940000Y-70140000D03*
%TD*%
D11*
%TO.C,R1*%
X180100000Y-113800000D03*
D19*
X180100000Y-101100000D03*
%TD*%
D20*
%TO.C,H3*%
X184000000Y-117250000D03*
D21*
X184000000Y-117250000D03*
%TD*%
D20*
%TO.C,H2*%
X110500000Y-68000000D03*
D21*
X110500000Y-68000000D03*
%TD*%
D22*
%TO.C,BZ1*%
X135480000Y-111530000D03*
D23*
X135480000Y-103930000D03*
%TD*%
D24*
%TO.C,LCD*%
X173535000Y-115475000D03*
D15*
X176075000Y-115475000D03*
D24*
X173535000Y-112935000D03*
X176075000Y-112935000D03*
X173535000Y-110395000D03*
X176075000Y-110395000D03*
X173535000Y-107855000D03*
X176075000Y-107855000D03*
X173535000Y-105315000D03*
X176075000Y-105315000D03*
X173535000Y-102775000D03*
X176075000Y-102775000D03*
X173535000Y-100235000D03*
X176075000Y-100235000D03*
X173535000Y-97695000D03*
X176075000Y-97695000D03*
%TD*%
D25*
%TO.C,RV1*%
X168260000Y-84470000D03*
X180760000Y-79470000D03*
X168260000Y-74470000D03*
%TD*%
D10*
%TO.C,C5*%
X177380000Y-91170000D03*
D11*
X172380000Y-91170000D03*
%TD*%
D20*
%TO.C,H1*%
X184000000Y-68000000D03*
D21*
X184000000Y-68000000D03*
%TD*%
D20*
%TO.C,H4*%
X110500000Y-117250000D03*
D21*
X110500000Y-117250000D03*
%TD*%
D10*
%TO.C,C1*%
X147900000Y-89300000D03*
D11*
X147900000Y-94300000D03*
%TD*%
D26*
%TO.C,J3*%
X121020000Y-77670000D03*
D27*
X115020000Y-77670000D03*
D28*
X114020000Y-73170000D03*
X114020000Y-82170000D03*
%TD*%
D10*
%TO.C,C4*%
X143900000Y-89700000D03*
D11*
X143900000Y-84700000D03*
%TD*%
%TO.C,R3*%
X125600000Y-75000000D03*
D19*
X138300000Y-75000000D03*
%TD*%
D23*
%TO.C,SW1*%
X185050000Y-91600000D03*
X185050000Y-98100000D03*
X180550000Y-91600000D03*
X180550000Y-98100000D03*
%TD*%
D10*
%TO.C,C2*%
X172900000Y-88600000D03*
D11*
X167900000Y-88600000D03*
%TD*%
%TO.C,L1*%
X169357500Y-107860000D03*
D19*
X169357500Y-97700000D03*
%TD*%
D10*
%TO.C,ATmega 16A-P*%
X150232500Y-67647500D03*
D19*
X150232500Y-70187500D03*
X150232500Y-72727500D03*
X150232500Y-75267500D03*
X150232500Y-77807500D03*
X150232500Y-80347500D03*
X150232500Y-82887500D03*
X150232500Y-85427500D03*
X150232500Y-87967500D03*
X150232500Y-90507500D03*
X150232500Y-93047500D03*
X150232500Y-95587500D03*
X150232500Y-98127500D03*
X150232500Y-100667500D03*
X150232500Y-103207500D03*
X150232500Y-105747500D03*
X150232500Y-108287500D03*
X150232500Y-110827500D03*
X150232500Y-113367500D03*
X150232500Y-115907500D03*
X165472500Y-115907500D03*
X165472500Y-113367500D03*
X165472500Y-110827500D03*
X165472500Y-108287500D03*
X165472500Y-105747500D03*
X165472500Y-103207500D03*
X165472500Y-100667500D03*
X165472500Y-98127500D03*
X165472500Y-95587500D03*
X165472500Y-93047500D03*
X165472500Y-90507500D03*
X165472500Y-87967500D03*
X165472500Y-85427500D03*
X165472500Y-82887500D03*
X165472500Y-80347500D03*
X165472500Y-77807500D03*
X165472500Y-75267500D03*
X165472500Y-72727500D03*
X165472500Y-70187500D03*
X165472500Y-67647500D03*
%TD*%
D29*
%TO.C,PROGRAMATOR*%
X136040000Y-94010000D03*
D16*
X133500000Y-94010000D03*
X136040000Y-91470000D03*
X133500000Y-91470000D03*
X136040000Y-88930000D03*
X133500000Y-88930000D03*
X136040000Y-86390000D03*
X133500000Y-86390000D03*
X136040000Y-83850000D03*
X133500000Y-83850000D03*
%TD*%
D11*
%TO.C,R2*%
X133620000Y-116050000D03*
D19*
X146320000Y-116050000D03*
%TD*%
D23*
%TO.C,PB0*%
X146107500Y-67570000D03*
X146107500Y-74070000D03*
X141607500Y-67570000D03*
X141607500Y-74070000D03*
%TD*%
M02*
