%TF.GenerationSoftware,KiCad,Pcbnew,7.0.1*%
%TF.CreationDate,2023-05-16T22:34:38+02:00*%
%TF.ProjectId,PPURS projekt,50505552-5320-4707-926f-6a656b742e6b,rev?*%
%TF.SameCoordinates,Original*%
%TF.FileFunction,Legend,Bot*%
%TF.FilePolarity,Positive*%
%FSLAX46Y46*%
G04 Gerber Fmt 4.6, Leading zero omitted, Abs format (unit mm)*
G04 Created by KiCad (PCBNEW 7.0.1) date 2023-05-16 22:34:38*
%MOMM*%
%LPD*%
G01*
G04 APERTURE LIST*
%ADD10C,0.150000*%
G04 APERTURE END LIST*
D10*
X125096190Y-107817619D02*
X125096190Y-108531904D01*
X125096190Y-108531904D02*
X125143809Y-108674761D01*
X125143809Y-108674761D02*
X125239047Y-108770000D01*
X125239047Y-108770000D02*
X125381904Y-108817619D01*
X125381904Y-108817619D02*
X125477142Y-108817619D01*
X124191428Y-108817619D02*
X124191428Y-108293809D01*
X124191428Y-108293809D02*
X124239047Y-108198571D01*
X124239047Y-108198571D02*
X124334285Y-108150952D01*
X124334285Y-108150952D02*
X124524761Y-108150952D01*
X124524761Y-108150952D02*
X124619999Y-108198571D01*
X124191428Y-108770000D02*
X124286666Y-108817619D01*
X124286666Y-108817619D02*
X124524761Y-108817619D01*
X124524761Y-108817619D02*
X124619999Y-108770000D01*
X124619999Y-108770000D02*
X124667618Y-108674761D01*
X124667618Y-108674761D02*
X124667618Y-108579523D01*
X124667618Y-108579523D02*
X124619999Y-108484285D01*
X124619999Y-108484285D02*
X124524761Y-108436666D01*
X124524761Y-108436666D02*
X124286666Y-108436666D01*
X124286666Y-108436666D02*
X124191428Y-108389047D01*
X123286666Y-108817619D02*
X123286666Y-107817619D01*
X123286666Y-108770000D02*
X123381904Y-108817619D01*
X123381904Y-108817619D02*
X123572380Y-108817619D01*
X123572380Y-108817619D02*
X123667618Y-108770000D01*
X123667618Y-108770000D02*
X123715237Y-108722380D01*
X123715237Y-108722380D02*
X123762856Y-108627142D01*
X123762856Y-108627142D02*
X123762856Y-108341428D01*
X123762856Y-108341428D02*
X123715237Y-108246190D01*
X123715237Y-108246190D02*
X123667618Y-108198571D01*
X123667618Y-108198571D02*
X123572380Y-108150952D01*
X123572380Y-108150952D02*
X123381904Y-108150952D01*
X123381904Y-108150952D02*
X123286666Y-108198571D01*
X122810475Y-108817619D02*
X122810475Y-108150952D01*
X122810475Y-108341428D02*
X122762856Y-108246190D01*
X122762856Y-108246190D02*
X122715237Y-108198571D01*
X122715237Y-108198571D02*
X122619999Y-108150952D01*
X122619999Y-108150952D02*
X122524761Y-108150952D01*
X121762856Y-108817619D02*
X121762856Y-108293809D01*
X121762856Y-108293809D02*
X121810475Y-108198571D01*
X121810475Y-108198571D02*
X121905713Y-108150952D01*
X121905713Y-108150952D02*
X122096189Y-108150952D01*
X122096189Y-108150952D02*
X122191427Y-108198571D01*
X121762856Y-108770000D02*
X121858094Y-108817619D01*
X121858094Y-108817619D02*
X122096189Y-108817619D01*
X122096189Y-108817619D02*
X122191427Y-108770000D01*
X122191427Y-108770000D02*
X122239046Y-108674761D01*
X122239046Y-108674761D02*
X122239046Y-108579523D01*
X122239046Y-108579523D02*
X122191427Y-108484285D01*
X122191427Y-108484285D02*
X122096189Y-108436666D01*
X122096189Y-108436666D02*
X121858094Y-108436666D01*
X121858094Y-108436666D02*
X121762856Y-108389047D01*
X121286665Y-108150952D02*
X121286665Y-108817619D01*
X121286665Y-108246190D02*
X121239046Y-108198571D01*
X121239046Y-108198571D02*
X121143808Y-108150952D01*
X121143808Y-108150952D02*
X121000951Y-108150952D01*
X121000951Y-108150952D02*
X120905713Y-108198571D01*
X120905713Y-108198571D02*
X120858094Y-108293809D01*
X120858094Y-108293809D02*
X120858094Y-108817619D01*
X119619998Y-108817619D02*
X119619998Y-107817619D01*
X119619998Y-107817619D02*
X119286665Y-108531904D01*
X119286665Y-108531904D02*
X118953332Y-107817619D01*
X118953332Y-107817619D02*
X118953332Y-108817619D01*
X118048570Y-108817619D02*
X118048570Y-108293809D01*
X118048570Y-108293809D02*
X118096189Y-108198571D01*
X118096189Y-108198571D02*
X118191427Y-108150952D01*
X118191427Y-108150952D02*
X118381903Y-108150952D01*
X118381903Y-108150952D02*
X118477141Y-108198571D01*
X118048570Y-108770000D02*
X118143808Y-108817619D01*
X118143808Y-108817619D02*
X118381903Y-108817619D01*
X118381903Y-108817619D02*
X118477141Y-108770000D01*
X118477141Y-108770000D02*
X118524760Y-108674761D01*
X118524760Y-108674761D02*
X118524760Y-108579523D01*
X118524760Y-108579523D02*
X118477141Y-108484285D01*
X118477141Y-108484285D02*
X118381903Y-108436666D01*
X118381903Y-108436666D02*
X118143808Y-108436666D01*
X118143808Y-108436666D02*
X118048570Y-108389047D01*
X117572379Y-108817619D02*
X117572379Y-108150952D01*
X117572379Y-108341428D02*
X117524760Y-108246190D01*
X117524760Y-108246190D02*
X117477141Y-108198571D01*
X117477141Y-108198571D02*
X117381903Y-108150952D01*
X117381903Y-108150952D02*
X117286665Y-108150952D01*
X116953331Y-108817619D02*
X116953331Y-108150952D01*
X116953331Y-107817619D02*
X117000950Y-107865238D01*
X117000950Y-107865238D02*
X116953331Y-107912857D01*
X116953331Y-107912857D02*
X116905712Y-107865238D01*
X116905712Y-107865238D02*
X116953331Y-107817619D01*
X116953331Y-107817619D02*
X116953331Y-107912857D01*
X116477141Y-108150952D02*
X116477141Y-108817619D01*
X116477141Y-108246190D02*
X116429522Y-108198571D01*
X116429522Y-108198571D02*
X116334284Y-108150952D01*
X116334284Y-108150952D02*
X116191427Y-108150952D01*
X116191427Y-108150952D02*
X116096189Y-108198571D01*
X116096189Y-108198571D02*
X116048570Y-108293809D01*
X116048570Y-108293809D02*
X116048570Y-108817619D01*
X115429522Y-108817619D02*
X115524760Y-108770000D01*
X115524760Y-108770000D02*
X115572379Y-108722380D01*
X115572379Y-108722380D02*
X115619998Y-108627142D01*
X115619998Y-108627142D02*
X115619998Y-108341428D01*
X115619998Y-108341428D02*
X115572379Y-108246190D01*
X115572379Y-108246190D02*
X115524760Y-108198571D01*
X115524760Y-108198571D02*
X115429522Y-108150952D01*
X115429522Y-108150952D02*
X115286665Y-108150952D01*
X115286665Y-108150952D02*
X115191427Y-108198571D01*
X115191427Y-108198571D02*
X115143808Y-108246190D01*
X115143808Y-108246190D02*
X115096189Y-108341428D01*
X115096189Y-108341428D02*
X115096189Y-108627142D01*
X115096189Y-108627142D02*
X115143808Y-108722380D01*
X115143808Y-108722380D02*
X115191427Y-108770000D01*
X115191427Y-108770000D02*
X115286665Y-108817619D01*
X115286665Y-108817619D02*
X115429522Y-108817619D01*
X114762855Y-108150952D02*
X114524760Y-108817619D01*
X114524760Y-108817619D02*
X114286665Y-108150952D01*
X113905712Y-108817619D02*
X113905712Y-108150952D01*
X113810474Y-107770000D02*
X113953331Y-107912857D01*
X113000951Y-108770000D02*
X113096189Y-108817619D01*
X113096189Y-108817619D02*
X113286665Y-108817619D01*
X113286665Y-108817619D02*
X113381903Y-108770000D01*
X113381903Y-108770000D02*
X113429522Y-108722380D01*
X113429522Y-108722380D02*
X113477141Y-108627142D01*
X113477141Y-108627142D02*
X113477141Y-108341428D01*
X113477141Y-108341428D02*
X113429522Y-108246190D01*
X113429522Y-108246190D02*
X113381903Y-108198571D01*
X113381903Y-108198571D02*
X113286665Y-108150952D01*
X113286665Y-108150952D02*
X113096189Y-108150952D01*
X113096189Y-108150952D02*
X113000951Y-108198571D01*
X113096189Y-107770000D02*
X113239046Y-107912857D01*
X125381904Y-109770952D02*
X125381904Y-110628095D01*
X125381904Y-110628095D02*
X125429523Y-110723333D01*
X125429523Y-110723333D02*
X125524761Y-110770952D01*
X125524761Y-110770952D02*
X125572380Y-110770952D01*
X125381904Y-109437619D02*
X125429523Y-109485238D01*
X125429523Y-109485238D02*
X125381904Y-109532857D01*
X125381904Y-109532857D02*
X125334285Y-109485238D01*
X125334285Y-109485238D02*
X125381904Y-109437619D01*
X125381904Y-109437619D02*
X125381904Y-109532857D01*
X124905714Y-110437619D02*
X124905714Y-109770952D01*
X124905714Y-109866190D02*
X124858095Y-109818571D01*
X124858095Y-109818571D02*
X124762857Y-109770952D01*
X124762857Y-109770952D02*
X124620000Y-109770952D01*
X124620000Y-109770952D02*
X124524762Y-109818571D01*
X124524762Y-109818571D02*
X124477143Y-109913809D01*
X124477143Y-109913809D02*
X124477143Y-110437619D01*
X124477143Y-109913809D02*
X124429524Y-109818571D01*
X124429524Y-109818571D02*
X124334286Y-109770952D01*
X124334286Y-109770952D02*
X124191429Y-109770952D01*
X124191429Y-109770952D02*
X124096190Y-109818571D01*
X124096190Y-109818571D02*
X124048571Y-109913809D01*
X124048571Y-109913809D02*
X124048571Y-110437619D01*
X123143810Y-110437619D02*
X123143810Y-109913809D01*
X123143810Y-109913809D02*
X123191429Y-109818571D01*
X123191429Y-109818571D02*
X123286667Y-109770952D01*
X123286667Y-109770952D02*
X123477143Y-109770952D01*
X123477143Y-109770952D02*
X123572381Y-109818571D01*
X123143810Y-110390000D02*
X123239048Y-110437619D01*
X123239048Y-110437619D02*
X123477143Y-110437619D01*
X123477143Y-110437619D02*
X123572381Y-110390000D01*
X123572381Y-110390000D02*
X123620000Y-110294761D01*
X123620000Y-110294761D02*
X123620000Y-110199523D01*
X123620000Y-110199523D02*
X123572381Y-110104285D01*
X123572381Y-110104285D02*
X123477143Y-110056666D01*
X123477143Y-110056666D02*
X123239048Y-110056666D01*
X123239048Y-110056666D02*
X123143810Y-110009047D01*
X122667619Y-110437619D02*
X122667619Y-109770952D01*
X122667619Y-109961428D02*
X122620000Y-109866190D01*
X122620000Y-109866190D02*
X122572381Y-109818571D01*
X122572381Y-109818571D02*
X122477143Y-109770952D01*
X122477143Y-109770952D02*
X122381905Y-109770952D01*
X122048571Y-110437619D02*
X122048571Y-109770952D01*
X122048571Y-109437619D02*
X122096190Y-109485238D01*
X122096190Y-109485238D02*
X122048571Y-109532857D01*
X122048571Y-109532857D02*
X122000952Y-109485238D01*
X122000952Y-109485238D02*
X122048571Y-109437619D01*
X122048571Y-109437619D02*
X122048571Y-109532857D01*
X121572381Y-109770952D02*
X121572381Y-110437619D01*
X121572381Y-109866190D02*
X121524762Y-109818571D01*
X121524762Y-109818571D02*
X121429524Y-109770952D01*
X121429524Y-109770952D02*
X121286667Y-109770952D01*
X121286667Y-109770952D02*
X121191429Y-109818571D01*
X121191429Y-109818571D02*
X121143810Y-109913809D01*
X121143810Y-109913809D02*
X121143810Y-110437619D01*
X120524762Y-110437619D02*
X120620000Y-110390000D01*
X120620000Y-110390000D02*
X120667619Y-110342380D01*
X120667619Y-110342380D02*
X120715238Y-110247142D01*
X120715238Y-110247142D02*
X120715238Y-109961428D01*
X120715238Y-109961428D02*
X120667619Y-109866190D01*
X120667619Y-109866190D02*
X120620000Y-109818571D01*
X120620000Y-109818571D02*
X120524762Y-109770952D01*
X120524762Y-109770952D02*
X120381905Y-109770952D01*
X120381905Y-109770952D02*
X120286667Y-109818571D01*
X120286667Y-109818571D02*
X120239048Y-109866190D01*
X120239048Y-109866190D02*
X120191429Y-109961428D01*
X120191429Y-109961428D02*
X120191429Y-110247142D01*
X120191429Y-110247142D02*
X120239048Y-110342380D01*
X120239048Y-110342380D02*
X120286667Y-110390000D01*
X120286667Y-110390000D02*
X120381905Y-110437619D01*
X120381905Y-110437619D02*
X120524762Y-110437619D01*
X119858095Y-109770952D02*
X119620000Y-110437619D01*
X119620000Y-110437619D02*
X119381905Y-109770952D01*
X119000952Y-110437619D02*
X119000952Y-109770952D01*
X119000952Y-109437619D02*
X119048571Y-109485238D01*
X119048571Y-109485238D02*
X119000952Y-109532857D01*
X119000952Y-109532857D02*
X118953333Y-109485238D01*
X118953333Y-109485238D02*
X119000952Y-109437619D01*
X119000952Y-109437619D02*
X119000952Y-109532857D01*
X117905715Y-109961428D02*
X117953334Y-109913809D01*
X117953334Y-109913809D02*
X118048572Y-109866190D01*
X118048572Y-109866190D02*
X118143810Y-109866190D01*
X118143810Y-109866190D02*
X118239048Y-109913809D01*
X118239048Y-109913809D02*
X118286667Y-109961428D01*
X118286667Y-109961428D02*
X118334286Y-110056666D01*
X118334286Y-110056666D02*
X118334286Y-110151904D01*
X118334286Y-110151904D02*
X118286667Y-110247142D01*
X118286667Y-110247142D02*
X118239048Y-110294761D01*
X118239048Y-110294761D02*
X118143810Y-110342380D01*
X118143810Y-110342380D02*
X118048572Y-110342380D01*
X118048572Y-110342380D02*
X117953334Y-110294761D01*
X117953334Y-110294761D02*
X117905715Y-110247142D01*
X117905715Y-109866190D02*
X117905715Y-110247142D01*
X117905715Y-110247142D02*
X117858096Y-110294761D01*
X117858096Y-110294761D02*
X117810477Y-110294761D01*
X117810477Y-110294761D02*
X117715238Y-110247142D01*
X117715238Y-110247142D02*
X117667619Y-110151904D01*
X117667619Y-110151904D02*
X117667619Y-109913809D01*
X117667619Y-109913809D02*
X117762858Y-109770952D01*
X117762858Y-109770952D02*
X117905715Y-109675714D01*
X117905715Y-109675714D02*
X118096191Y-109628095D01*
X118096191Y-109628095D02*
X118286667Y-109675714D01*
X118286667Y-109675714D02*
X118429524Y-109770952D01*
X118429524Y-109770952D02*
X118524762Y-109913809D01*
X118524762Y-109913809D02*
X118572381Y-110104285D01*
X118572381Y-110104285D02*
X118524762Y-110294761D01*
X118524762Y-110294761D02*
X118429524Y-110437619D01*
X118429524Y-110437619D02*
X118286667Y-110532857D01*
X118286667Y-110532857D02*
X118096191Y-110580476D01*
X118096191Y-110580476D02*
X117905715Y-110532857D01*
X117905715Y-110532857D02*
X117762858Y-110437619D01*
X117381905Y-109770952D02*
X117000953Y-109770952D01*
X117239048Y-109437619D02*
X117239048Y-110294761D01*
X117239048Y-110294761D02*
X117191429Y-110390000D01*
X117191429Y-110390000D02*
X117096191Y-110437619D01*
X117096191Y-110437619D02*
X117000953Y-110437619D01*
X116762857Y-109770952D02*
X116524762Y-110437619D01*
X116524762Y-110437619D02*
X116286667Y-109770952D01*
X116000952Y-109770952D02*
X115477143Y-109770952D01*
X115477143Y-109770952D02*
X116000952Y-110437619D01*
X116000952Y-110437619D02*
X115477143Y-110437619D01*
X115096190Y-110342380D02*
X115048571Y-110390000D01*
X115048571Y-110390000D02*
X115096190Y-110437619D01*
X115096190Y-110437619D02*
X115143809Y-110390000D01*
X115143809Y-110390000D02*
X115096190Y-110342380D01*
X115096190Y-110342380D02*
X115096190Y-110437619D01*
X114620000Y-110437619D02*
X114620000Y-109437619D01*
X114191429Y-110437619D02*
X114191429Y-109913809D01*
X114191429Y-109913809D02*
X114239048Y-109818571D01*
X114239048Y-109818571D02*
X114334286Y-109770952D01*
X114334286Y-109770952D02*
X114477143Y-109770952D01*
X114477143Y-109770952D02*
X114572381Y-109818571D01*
X114572381Y-109818571D02*
X114620000Y-109866190D01*
X113715238Y-110437619D02*
X113715238Y-109770952D01*
X113715238Y-109961428D02*
X113667619Y-109866190D01*
X113667619Y-109866190D02*
X113620000Y-109818571D01*
X113620000Y-109818571D02*
X113524762Y-109770952D01*
X113524762Y-109770952D02*
X113429524Y-109770952D01*
X125429523Y-111152857D02*
X125381904Y-111105238D01*
X125381904Y-111105238D02*
X125286666Y-111057619D01*
X125286666Y-111057619D02*
X125048571Y-111057619D01*
X125048571Y-111057619D02*
X124953333Y-111105238D01*
X124953333Y-111105238D02*
X124905714Y-111152857D01*
X124905714Y-111152857D02*
X124858095Y-111248095D01*
X124858095Y-111248095D02*
X124858095Y-111343333D01*
X124858095Y-111343333D02*
X124905714Y-111486190D01*
X124905714Y-111486190D02*
X125477142Y-112057619D01*
X125477142Y-112057619D02*
X124858095Y-112057619D01*
X124239047Y-111057619D02*
X124143809Y-111057619D01*
X124143809Y-111057619D02*
X124048571Y-111105238D01*
X124048571Y-111105238D02*
X124000952Y-111152857D01*
X124000952Y-111152857D02*
X123953333Y-111248095D01*
X123953333Y-111248095D02*
X123905714Y-111438571D01*
X123905714Y-111438571D02*
X123905714Y-111676666D01*
X123905714Y-111676666D02*
X123953333Y-111867142D01*
X123953333Y-111867142D02*
X124000952Y-111962380D01*
X124000952Y-111962380D02*
X124048571Y-112010000D01*
X124048571Y-112010000D02*
X124143809Y-112057619D01*
X124143809Y-112057619D02*
X124239047Y-112057619D01*
X124239047Y-112057619D02*
X124334285Y-112010000D01*
X124334285Y-112010000D02*
X124381904Y-111962380D01*
X124381904Y-111962380D02*
X124429523Y-111867142D01*
X124429523Y-111867142D02*
X124477142Y-111676666D01*
X124477142Y-111676666D02*
X124477142Y-111438571D01*
X124477142Y-111438571D02*
X124429523Y-111248095D01*
X124429523Y-111248095D02*
X124381904Y-111152857D01*
X124381904Y-111152857D02*
X124334285Y-111105238D01*
X124334285Y-111105238D02*
X124239047Y-111057619D01*
X123524761Y-111152857D02*
X123477142Y-111105238D01*
X123477142Y-111105238D02*
X123381904Y-111057619D01*
X123381904Y-111057619D02*
X123143809Y-111057619D01*
X123143809Y-111057619D02*
X123048571Y-111105238D01*
X123048571Y-111105238D02*
X123000952Y-111152857D01*
X123000952Y-111152857D02*
X122953333Y-111248095D01*
X122953333Y-111248095D02*
X122953333Y-111343333D01*
X122953333Y-111343333D02*
X123000952Y-111486190D01*
X123000952Y-111486190D02*
X123572380Y-112057619D01*
X123572380Y-112057619D02*
X122953333Y-112057619D01*
X122619999Y-111057619D02*
X122000952Y-111057619D01*
X122000952Y-111057619D02*
X122334285Y-111438571D01*
X122334285Y-111438571D02*
X122191428Y-111438571D01*
X122191428Y-111438571D02*
X122096190Y-111486190D01*
X122096190Y-111486190D02*
X122048571Y-111533809D01*
X122048571Y-111533809D02*
X122000952Y-111629047D01*
X122000952Y-111629047D02*
X122000952Y-111867142D01*
X122000952Y-111867142D02*
X122048571Y-111962380D01*
X122048571Y-111962380D02*
X122096190Y-112010000D01*
X122096190Y-112010000D02*
X122191428Y-112057619D01*
X122191428Y-112057619D02*
X122477142Y-112057619D01*
X122477142Y-112057619D02*
X122572380Y-112010000D01*
X122572380Y-112010000D02*
X122619999Y-111962380D01*
%TO.C,G\u002A\u002A\u002A*%
G36*
X121907690Y-104791717D02*
G01*
X122058821Y-104967079D01*
X121868396Y-104967079D01*
X121789770Y-104966037D01*
X121714164Y-104954842D01*
X121682593Y-104921118D01*
X121687088Y-104852520D01*
X121719680Y-104736704D01*
X121756559Y-104616354D01*
X121907690Y-104791717D01*
G37*
G36*
X113223445Y-103963792D02*
G01*
X113269879Y-103994101D01*
X113288053Y-104009154D01*
X113335365Y-103989621D01*
X113370928Y-103967726D01*
X113400372Y-103978040D01*
X113392055Y-104035228D01*
X113378888Y-104057164D01*
X113322849Y-104084418D01*
X113254067Y-104072884D01*
X113197642Y-104024010D01*
X113188022Y-104008086D01*
X113175113Y-103970221D01*
X113203942Y-103961139D01*
X113223445Y-103963792D01*
G37*
G36*
X111323239Y-104938238D02*
G01*
X111332770Y-105011748D01*
X111335643Y-105139975D01*
X111335226Y-105197087D01*
X111329915Y-105302995D01*
X111317411Y-105357283D01*
X111296349Y-105367884D01*
X111280568Y-105351774D01*
X111262910Y-105276377D01*
X111257054Y-105139975D01*
X111259039Y-105053043D01*
X111271754Y-104952278D01*
X111296349Y-104912067D01*
X111305683Y-104911515D01*
X111323239Y-104938238D01*
G37*
G36*
X118559431Y-103961157D02*
G01*
X118583524Y-103975063D01*
X118565841Y-104024010D01*
X118527695Y-104066923D01*
X118455352Y-104084792D01*
X118383515Y-104049158D01*
X118359935Y-104021210D01*
X118350140Y-103977602D01*
X118392945Y-103961139D01*
X118414744Y-103965439D01*
X118440099Y-103998861D01*
X118446672Y-104020732D01*
X118477822Y-103998861D01*
X118499637Y-103981681D01*
X118557517Y-103961139D01*
X118559431Y-103961157D01*
G37*
G36*
X114629976Y-103961157D02*
G01*
X114654068Y-103975063D01*
X114636386Y-104024010D01*
X114598240Y-104066923D01*
X114525897Y-104084792D01*
X114454059Y-104049158D01*
X114430480Y-104021210D01*
X114420685Y-103977602D01*
X114463490Y-103961139D01*
X114485288Y-103965439D01*
X114510643Y-103998861D01*
X114517217Y-104020732D01*
X114548366Y-103998861D01*
X114570181Y-103981681D01*
X114628061Y-103961139D01*
X114629976Y-103961157D01*
G37*
G36*
X118002383Y-105664065D02*
G01*
X118020039Y-105697071D01*
X118028965Y-105770070D01*
X118031435Y-105894431D01*
X118030355Y-105984936D01*
X118023754Y-106073217D01*
X118009154Y-106117848D01*
X117984282Y-106130198D01*
X117966181Y-106124796D01*
X117948525Y-106091790D01*
X117939599Y-106018792D01*
X117937128Y-105894431D01*
X117938209Y-105803925D01*
X117944810Y-105715644D01*
X117959410Y-105671014D01*
X117984282Y-105658663D01*
X118002383Y-105664065D01*
G37*
G36*
X115833324Y-105664065D02*
G01*
X115850980Y-105697071D01*
X115859906Y-105770070D01*
X115862376Y-105894431D01*
X115861296Y-105984936D01*
X115854694Y-106073217D01*
X115840095Y-106117848D01*
X115815223Y-106130198D01*
X115797121Y-106124796D01*
X115779465Y-106091790D01*
X115770539Y-106018792D01*
X115768069Y-105894431D01*
X115769149Y-105803925D01*
X115775751Y-105715644D01*
X115790350Y-105671014D01*
X115815223Y-105658663D01*
X115833324Y-105664065D01*
G37*
G36*
X113254692Y-104904429D02*
G01*
X113270194Y-104938376D01*
X113280753Y-105021178D01*
X113284653Y-105139975D01*
X113284624Y-105151032D01*
X113280097Y-105267298D01*
X113269057Y-105346488D01*
X113253218Y-105375743D01*
X113251743Y-105375522D01*
X113236241Y-105341575D01*
X113225683Y-105258772D01*
X113221782Y-105139975D01*
X113221811Y-105128919D01*
X113226338Y-105012653D01*
X113237378Y-104933462D01*
X113253218Y-104904208D01*
X113254692Y-104904429D01*
G37*
G36*
X118348175Y-105664065D02*
G01*
X118365831Y-105697071D01*
X118374757Y-105770070D01*
X118377227Y-105894431D01*
X118377227Y-106130198D01*
X118235767Y-106130198D01*
X118175768Y-106128281D01*
X118112820Y-106114124D01*
X118094307Y-106083045D01*
X118113743Y-106049950D01*
X118188614Y-106035891D01*
X118282921Y-106035891D01*
X118282921Y-105847277D01*
X118283014Y-105824551D01*
X118287994Y-105724498D01*
X118302694Y-105673149D01*
X118330074Y-105658663D01*
X118348175Y-105664065D01*
G37*
G36*
X116030871Y-104118687D02*
G01*
X116058638Y-104128869D01*
X116074169Y-104162811D01*
X116080941Y-104233539D01*
X116082425Y-104354084D01*
X116082425Y-104589852D01*
X115925247Y-104589852D01*
X115843153Y-104586834D01*
X115784896Y-104572351D01*
X115768069Y-104542698D01*
X115787505Y-104509603D01*
X115862376Y-104495545D01*
X115956683Y-104495545D01*
X115956683Y-104306931D01*
X115957839Y-104223390D01*
X115965465Y-104155431D01*
X115984439Y-104125199D01*
X116019554Y-104118317D01*
X116030871Y-104118687D01*
G37*
G36*
X114018990Y-104118687D02*
G01*
X114046757Y-104128869D01*
X114062288Y-104162811D01*
X114069059Y-104233539D01*
X114070544Y-104354084D01*
X114070544Y-104589852D01*
X113913366Y-104589852D01*
X113831272Y-104586834D01*
X113773014Y-104572351D01*
X113756188Y-104542698D01*
X113775624Y-104509603D01*
X113850495Y-104495545D01*
X113944802Y-104495545D01*
X113944802Y-104306931D01*
X113945958Y-104223390D01*
X113953584Y-104155431D01*
X113972558Y-104125199D01*
X114007673Y-104118317D01*
X114018990Y-104118687D01*
G37*
G36*
X118828644Y-104118687D02*
G01*
X118856410Y-104128869D01*
X118871942Y-104162811D01*
X118878713Y-104233539D01*
X118880198Y-104354084D01*
X118880099Y-104396524D01*
X118877384Y-104500648D01*
X118868333Y-104558892D01*
X118849472Y-104584283D01*
X118817326Y-104589852D01*
X118806009Y-104589482D01*
X118778243Y-104579299D01*
X118762711Y-104545358D01*
X118755940Y-104474629D01*
X118754455Y-104354084D01*
X118754554Y-104311645D01*
X118757269Y-104207520D01*
X118766320Y-104149277D01*
X118785181Y-104123885D01*
X118817326Y-104118317D01*
X118828644Y-104118687D01*
G37*
G36*
X114239040Y-104118687D02*
G01*
X114266806Y-104128869D01*
X114282338Y-104162811D01*
X114289109Y-104233539D01*
X114290594Y-104354084D01*
X114290495Y-104396524D01*
X114287780Y-104500648D01*
X114278729Y-104558892D01*
X114259868Y-104584283D01*
X114227723Y-104589852D01*
X114216405Y-104589482D01*
X114188639Y-104579299D01*
X114173107Y-104545358D01*
X114166336Y-104474629D01*
X114164851Y-104354084D01*
X114164950Y-104311645D01*
X114167665Y-104207520D01*
X114176716Y-104149277D01*
X114195577Y-104123885D01*
X114227723Y-104118317D01*
X114239040Y-104118687D01*
G37*
G36*
X113641763Y-104118687D02*
G01*
X113669529Y-104128869D01*
X113685061Y-104162811D01*
X113691832Y-104233539D01*
X113693317Y-104354084D01*
X113693218Y-104396524D01*
X113690503Y-104500648D01*
X113681452Y-104558892D01*
X113662591Y-104584283D01*
X113630445Y-104589852D01*
X113619128Y-104589482D01*
X113591362Y-104579299D01*
X113575830Y-104545358D01*
X113569059Y-104474629D01*
X113567574Y-104354084D01*
X113567673Y-104311645D01*
X113570388Y-104207520D01*
X113579439Y-104149277D01*
X113598300Y-104123885D01*
X113630445Y-104118317D01*
X113641763Y-104118687D01*
G37*
G36*
X116242533Y-105699238D02*
G01*
X116319241Y-105786433D01*
X116348760Y-105870335D01*
X116336209Y-105971574D01*
X116262656Y-106068390D01*
X116211828Y-106103981D01*
X116101035Y-106128574D01*
X115985171Y-106097185D01*
X115945439Y-106068626D01*
X115942326Y-106038974D01*
X115989887Y-106023490D01*
X116081289Y-106027151D01*
X116081455Y-106027174D01*
X116164902Y-106033134D01*
X116210544Y-106015496D01*
X116241696Y-105965264D01*
X116261004Y-105903915D01*
X116249288Y-105820996D01*
X116187296Y-105769947D01*
X116080930Y-105758363D01*
X116004841Y-105757919D01*
X115957534Y-105740223D01*
X115962565Y-105710977D01*
X116025151Y-105677724D01*
X116136367Y-105662503D01*
X116242533Y-105699238D01*
G37*
G36*
X117021831Y-104283354D02*
G01*
X116995431Y-104349876D01*
X116955844Y-104450051D01*
X116928761Y-104519121D01*
X116900662Y-104562250D01*
X116827755Y-104589852D01*
X116792800Y-104584425D01*
X116757009Y-104555821D01*
X116721557Y-104491446D01*
X116677657Y-104378956D01*
X116675266Y-104372370D01*
X116636149Y-104265148D01*
X116605493Y-104182036D01*
X116589753Y-104140543D01*
X116599482Y-104125271D01*
X116650070Y-104123531D01*
X116690120Y-104138380D01*
X116733652Y-104190299D01*
X116775615Y-104291213D01*
X116829483Y-104448391D01*
X116864367Y-104360557D01*
X116891722Y-104284814D01*
X116918627Y-104195520D01*
X116946917Y-104139886D01*
X117012726Y-104118317D01*
X117087449Y-104118317D01*
X117021831Y-104283354D01*
G37*
G36*
X114639748Y-105698142D02*
G01*
X114712468Y-105769994D01*
X114746362Y-105866616D01*
X114729411Y-105976113D01*
X114688113Y-106049261D01*
X114640122Y-106098551D01*
X114637621Y-106099990D01*
X114528478Y-106127845D01*
X114414270Y-106097656D01*
X114376482Y-106073781D01*
X114355723Y-106040835D01*
X114390921Y-106023814D01*
X114478066Y-106027151D01*
X114485446Y-106028126D01*
X114565257Y-106032928D01*
X114609278Y-106013166D01*
X114641402Y-105958847D01*
X114658575Y-105911034D01*
X114654534Y-105832349D01*
X114596056Y-105784703D01*
X114483634Y-105768688D01*
X114403730Y-105762339D01*
X114354580Y-105740996D01*
X114360893Y-105710293D01*
X114426348Y-105676172D01*
X114540221Y-105662955D01*
X114639748Y-105698142D01*
G37*
G36*
X120288641Y-105859475D02*
G01*
X120291127Y-105941305D01*
X120289153Y-106034183D01*
X120281769Y-106087384D01*
X120273935Y-106104458D01*
X120241518Y-106130474D01*
X120212846Y-106104962D01*
X120200495Y-106035891D01*
X120200493Y-106033562D01*
X120194168Y-105971922D01*
X120162916Y-105946533D01*
X120087850Y-105941584D01*
X120085024Y-105941574D01*
X120008685Y-105929332D01*
X119987059Y-105902294D01*
X120018347Y-105872788D01*
X120100750Y-105853144D01*
X120103856Y-105852825D01*
X120180256Y-105831673D01*
X120200790Y-105798849D01*
X120167547Y-105766559D01*
X120082611Y-105747009D01*
X120034311Y-105740912D01*
X119980366Y-105722048D01*
X119981249Y-105700119D01*
X120032526Y-105681954D01*
X120129765Y-105674381D01*
X120279084Y-105674381D01*
X120288641Y-105859475D01*
G37*
G36*
X120671249Y-104904553D02*
G01*
X120766823Y-104910212D01*
X120815566Y-104924912D01*
X120829208Y-104951361D01*
X120828770Y-104957655D01*
X120798784Y-104988829D01*
X120716256Y-104998515D01*
X120603304Y-104998515D01*
X120731974Y-105152197D01*
X120792398Y-105228485D01*
X120841717Y-105300025D01*
X120860643Y-105340811D01*
X120842701Y-105357055D01*
X120768144Y-105370930D01*
X120640594Y-105375743D01*
X120584120Y-105375276D01*
X120485969Y-105369479D01*
X120435082Y-105355269D01*
X120420544Y-105330397D01*
X120420625Y-105328102D01*
X120453502Y-105293245D01*
X120546353Y-105275384D01*
X120672161Y-105265718D01*
X120547693Y-105124257D01*
X120469575Y-105030878D01*
X120430051Y-104963785D01*
X120440939Y-104925498D01*
X120504971Y-104908233D01*
X120624876Y-104904208D01*
X120671249Y-104904553D01*
G37*
G36*
X118534566Y-104129913D02*
G01*
X118604297Y-104161463D01*
X118672367Y-104246255D01*
X118696718Y-104354511D01*
X118674476Y-104462992D01*
X118605571Y-104550557D01*
X118545241Y-104578664D01*
X118462660Y-104589129D01*
X118379305Y-104580931D01*
X118311044Y-104557574D01*
X118273746Y-104522561D01*
X118283278Y-104479396D01*
X118284746Y-104477655D01*
X118328337Y-104452443D01*
X118394402Y-104470492D01*
X118460583Y-104488706D01*
X118517757Y-104464882D01*
X118522419Y-104460854D01*
X118563283Y-104392779D01*
X118559127Y-104320020D01*
X118520351Y-104259442D01*
X118457352Y-104227911D01*
X118380528Y-104242293D01*
X118332479Y-104257503D01*
X118284192Y-104229873D01*
X118272052Y-104190184D01*
X118303870Y-104153845D01*
X118368678Y-104129454D01*
X118450801Y-104120360D01*
X118534566Y-104129913D01*
G37*
G36*
X114297926Y-104919342D02*
G01*
X114318027Y-104979757D01*
X114325062Y-105068805D01*
X114319254Y-105167538D01*
X114300827Y-105257004D01*
X114270004Y-105318255D01*
X114252884Y-105334335D01*
X114164553Y-105371068D01*
X114063829Y-105363757D01*
X113976237Y-105312871D01*
X113949739Y-105273152D01*
X113922959Y-105190122D01*
X113909929Y-105093041D01*
X113911368Y-105000581D01*
X113927992Y-104931413D01*
X113960520Y-104904208D01*
X113988373Y-104918796D01*
X114003390Y-104972107D01*
X114007673Y-105075998D01*
X114011775Y-105175194D01*
X114028909Y-105242692D01*
X114063497Y-105277664D01*
X114113748Y-105295787D01*
X114176377Y-105278550D01*
X114214714Y-105204711D01*
X114227723Y-105075542D01*
X114231697Y-104974656D01*
X114246327Y-104919846D01*
X114274876Y-104904208D01*
X114297926Y-104919342D01*
G37*
G36*
X113141849Y-104905366D02*
G01*
X113155192Y-104918413D01*
X113145258Y-104958755D01*
X113111757Y-105041829D01*
X113110265Y-105045433D01*
X113064119Y-105156874D01*
X113019054Y-105265718D01*
X113010882Y-105283989D01*
X112969036Y-105349328D01*
X112929714Y-105375743D01*
X112914676Y-105366230D01*
X112877622Y-105312792D01*
X112832897Y-105227440D01*
X112788085Y-105127580D01*
X112750770Y-105030617D01*
X112728536Y-104953959D01*
X112728967Y-104915010D01*
X112731202Y-104912915D01*
X112769448Y-104913104D01*
X112813122Y-104974543D01*
X112861333Y-105096015D01*
X112882185Y-105155537D01*
X112911362Y-105213809D01*
X112938745Y-105217464D01*
X112971015Y-105164653D01*
X113014854Y-105053527D01*
X113037301Y-105000472D01*
X113078882Y-104931289D01*
X113114357Y-104904208D01*
X113141849Y-104905366D01*
G37*
G36*
X112906645Y-104118662D02*
G01*
X113002219Y-104124321D01*
X113050962Y-104139021D01*
X113064604Y-104165470D01*
X113052934Y-104192968D01*
X113001732Y-104212624D01*
X112973886Y-104216091D01*
X112951232Y-104238970D01*
X112941155Y-104295893D01*
X112938861Y-104401238D01*
X112937705Y-104484778D01*
X112930079Y-104552738D01*
X112911105Y-104582969D01*
X112875990Y-104589852D01*
X112848143Y-104586384D01*
X112825490Y-104563505D01*
X112815413Y-104506582D01*
X112813119Y-104401238D01*
X112813117Y-104394627D01*
X112811227Y-104292856D01*
X112801600Y-104238440D01*
X112778085Y-104216617D01*
X112734529Y-104212624D01*
X112683267Y-104203395D01*
X112655940Y-104165470D01*
X112657437Y-104154769D01*
X112681957Y-104132713D01*
X112745659Y-104121465D01*
X112860272Y-104118317D01*
X112906645Y-104118662D01*
G37*
G36*
X120702685Y-104118662D02*
G01*
X120798259Y-104124321D01*
X120847002Y-104139021D01*
X120860643Y-104165470D01*
X120848974Y-104192968D01*
X120797772Y-104212624D01*
X120769925Y-104216091D01*
X120747272Y-104238970D01*
X120737195Y-104295893D01*
X120734901Y-104401238D01*
X120734899Y-104407849D01*
X120733009Y-104509620D01*
X120723382Y-104564035D01*
X120699867Y-104585858D01*
X120656312Y-104589852D01*
X120653557Y-104589847D01*
X120611153Y-104585312D01*
X120588479Y-104562207D01*
X120579387Y-104505770D01*
X120577723Y-104401238D01*
X120576567Y-104317697D01*
X120568940Y-104249738D01*
X120549966Y-104219506D01*
X120514851Y-104212624D01*
X120478188Y-104203872D01*
X120451980Y-104165470D01*
X120453476Y-104154769D01*
X120477997Y-104132713D01*
X120541699Y-104121465D01*
X120656312Y-104118317D01*
X120702685Y-104118662D01*
G37*
G36*
X117402723Y-105894431D02*
G01*
X117402723Y-106130198D01*
X117259833Y-106130198D01*
X117210669Y-106127341D01*
X117091493Y-106091255D01*
X117008477Y-106022698D01*
X116967961Y-105933033D01*
X116971192Y-105894431D01*
X117056930Y-105894431D01*
X117063159Y-105936882D01*
X117094653Y-105998168D01*
X117141850Y-106023153D01*
X117220396Y-106035891D01*
X117250385Y-106035166D01*
X117289679Y-106022737D01*
X117305495Y-105981494D01*
X117308416Y-105894431D01*
X117307964Y-105846234D01*
X117300231Y-105783082D01*
X117274569Y-105757664D01*
X117220396Y-105752970D01*
X117155247Y-105761000D01*
X117082235Y-105808207D01*
X117056930Y-105894431D01*
X116971192Y-105894431D01*
X116976283Y-105833621D01*
X117039784Y-105735824D01*
X117070392Y-105708464D01*
X117149208Y-105669457D01*
X117259833Y-105658663D01*
X117402723Y-105658663D01*
X117402723Y-105894431D01*
G37*
G36*
X116204927Y-104918435D02*
G01*
X116284171Y-104968913D01*
X116340669Y-105045072D01*
X116365303Y-105135209D01*
X116348958Y-105227617D01*
X116282518Y-105310590D01*
X116254639Y-105330302D01*
X116132851Y-105373636D01*
X116006407Y-105356662D01*
X115995903Y-105350354D01*
X115968441Y-105303868D01*
X115956425Y-105238739D01*
X115962202Y-105180752D01*
X115988119Y-105155693D01*
X116005664Y-105165841D01*
X116019554Y-105214898D01*
X116044642Y-105269984D01*
X116110586Y-105293037D01*
X116201482Y-105277757D01*
X116253312Y-105239577D01*
X116271039Y-105160555D01*
X116254982Y-105076173D01*
X116194630Y-105014807D01*
X116091868Y-104999311D01*
X116044383Y-105001933D01*
X115978832Y-104999778D01*
X115966725Y-104983690D01*
X116001986Y-104950362D01*
X116014659Y-104941347D01*
X116112051Y-104905344D01*
X116204927Y-104918435D01*
G37*
G36*
X114885534Y-105662687D02*
G01*
X114911703Y-105707674D01*
X114925443Y-105807983D01*
X114935025Y-105957302D01*
X115042519Y-105807983D01*
X115050436Y-105797046D01*
X115126407Y-105702093D01*
X115178962Y-105662658D01*
X115211854Y-105680438D01*
X115228836Y-105757129D01*
X115233663Y-105894431D01*
X115232834Y-105973444D01*
X115226572Y-106067746D01*
X115212400Y-106116389D01*
X115188232Y-106130198D01*
X115173129Y-106126175D01*
X115146960Y-106081188D01*
X115133220Y-105980879D01*
X115123638Y-105831559D01*
X115016144Y-105980879D01*
X115008227Y-105991816D01*
X114932256Y-106086768D01*
X114879701Y-106126203D01*
X114846809Y-106108424D01*
X114829827Y-106031732D01*
X114825000Y-105894431D01*
X114825829Y-105815417D01*
X114832090Y-105721115D01*
X114846263Y-105672472D01*
X114870431Y-105658663D01*
X114885534Y-105662687D01*
G37*
G36*
X114602210Y-104128077D02*
G01*
X114670546Y-104158611D01*
X114673788Y-104161136D01*
X114749823Y-104252726D01*
X114778195Y-104358575D01*
X114758084Y-104461278D01*
X114688671Y-104543431D01*
X114617860Y-104575016D01*
X114531036Y-104587121D01*
X114446059Y-104580712D01*
X114378091Y-104558689D01*
X114342292Y-104523951D01*
X114353823Y-104479396D01*
X114355290Y-104477655D01*
X114398882Y-104452443D01*
X114464946Y-104470492D01*
X114531128Y-104488706D01*
X114588301Y-104464882D01*
X114592964Y-104460854D01*
X114633827Y-104392779D01*
X114629672Y-104320020D01*
X114590896Y-104259442D01*
X114527897Y-104227911D01*
X114451073Y-104242293D01*
X114403024Y-104257503D01*
X114354736Y-104229873D01*
X114342869Y-104192096D01*
X114373805Y-104155344D01*
X114437940Y-104130031D01*
X114519375Y-104119747D01*
X114602210Y-104128077D01*
G37*
G36*
X113470930Y-104908231D02*
G01*
X113497099Y-104953218D01*
X113510839Y-105053527D01*
X113520421Y-105202847D01*
X113627915Y-105053527D01*
X113635832Y-105042590D01*
X113711803Y-104947638D01*
X113764358Y-104908203D01*
X113797250Y-104925982D01*
X113814232Y-105002674D01*
X113819059Y-105139975D01*
X113818230Y-105218989D01*
X113811968Y-105313291D01*
X113797796Y-105361934D01*
X113773628Y-105375743D01*
X113758525Y-105371719D01*
X113732356Y-105326732D01*
X113718616Y-105226423D01*
X113709034Y-105077104D01*
X113601540Y-105226423D01*
X113593623Y-105237360D01*
X113517652Y-105332313D01*
X113465097Y-105371748D01*
X113432205Y-105353968D01*
X113415223Y-105277277D01*
X113410396Y-105139975D01*
X113411225Y-105060962D01*
X113417487Y-104966660D01*
X113431659Y-104918017D01*
X113455827Y-104904208D01*
X113470930Y-104908231D01*
G37*
G36*
X120832323Y-105929911D02*
G01*
X120832393Y-105930848D01*
X120799044Y-106026228D01*
X120725383Y-106092571D01*
X120672889Y-106112064D01*
X120556820Y-106117105D01*
X120455889Y-106074965D01*
X120384653Y-105993965D01*
X120360578Y-105894431D01*
X120451980Y-105894431D01*
X120458208Y-105936882D01*
X120489703Y-105998168D01*
X120513543Y-106016227D01*
X120594640Y-106036529D01*
X120678830Y-106019659D01*
X120737029Y-105969043D01*
X120752290Y-105929911D01*
X120748879Y-105843928D01*
X120700042Y-105778789D01*
X120616119Y-105752970D01*
X120550313Y-105761064D01*
X120477255Y-105808241D01*
X120451980Y-105894431D01*
X120360578Y-105894431D01*
X120357673Y-105882423D01*
X120380114Y-105794932D01*
X120447449Y-105718105D01*
X120542123Y-105671370D01*
X120646244Y-105663134D01*
X120741920Y-105701810D01*
X120774786Y-105732595D01*
X120824588Y-105826337D01*
X120832323Y-105929911D01*
G37*
G36*
X113787977Y-105690288D02*
G01*
X113832485Y-105727659D01*
X113845434Y-105790961D01*
X113805759Y-105858122D01*
X113716893Y-105918132D01*
X113706166Y-105923266D01*
X113624920Y-105972665D01*
X113600798Y-106010092D01*
X113633511Y-106030182D01*
X113722770Y-106027570D01*
X113791563Y-106021191D01*
X113854590Y-106027095D01*
X113862547Y-106050150D01*
X113812186Y-106088156D01*
X113746179Y-106116259D01*
X113638572Y-106123818D01*
X113552531Y-106079229D01*
X113542118Y-106068089D01*
X113511519Y-105998266D01*
X113543614Y-105931578D01*
X113638304Y-105868265D01*
X113721375Y-105819181D01*
X113752299Y-105780447D01*
X113726957Y-105758785D01*
X113645049Y-105759067D01*
X113596658Y-105763093D01*
X113550013Y-105754989D01*
X113543152Y-105723211D01*
X113560865Y-105694819D01*
X113622896Y-105668418D01*
X113706398Y-105665859D01*
X113787977Y-105690288D01*
G37*
G36*
X120420544Y-104354084D02*
G01*
X120420544Y-104589852D01*
X120216213Y-104589852D01*
X120169839Y-104589506D01*
X120074265Y-104583848D01*
X120025522Y-104569147D01*
X120011881Y-104542698D01*
X120018302Y-104521822D01*
X120061775Y-104501501D01*
X120155961Y-104495545D01*
X120185000Y-104494824D01*
X120266277Y-104479883D01*
X120289217Y-104453403D01*
X120253491Y-104425727D01*
X120158770Y-104407199D01*
X120126600Y-104403301D01*
X120054839Y-104379068D01*
X120039458Y-104346960D01*
X120078917Y-104318930D01*
X120171679Y-104306931D01*
X120199348Y-104306153D01*
X120271562Y-104290970D01*
X120287850Y-104264328D01*
X120249742Y-104236706D01*
X120158770Y-104218585D01*
X120073068Y-104199797D01*
X120043317Y-104163573D01*
X120043376Y-104161457D01*
X120061938Y-104135744D01*
X120121150Y-104122237D01*
X120231930Y-104118317D01*
X120420544Y-104118317D01*
X120420544Y-104354084D01*
G37*
G36*
X119712512Y-104910837D02*
G01*
X119770243Y-104933960D01*
X119822201Y-104988581D01*
X119834249Y-105005187D01*
X119874261Y-105114901D01*
X119858307Y-105226175D01*
X119788254Y-105320730D01*
X119701706Y-105363078D01*
X119584832Y-105373330D01*
X119475408Y-105343201D01*
X119459156Y-105332163D01*
X119421716Y-105275475D01*
X119411917Y-105206697D01*
X119429770Y-105148675D01*
X119475289Y-105124257D01*
X119513905Y-105135231D01*
X119546019Y-105192525D01*
X119572939Y-105257832D01*
X119624275Y-105269186D01*
X119693227Y-105222862D01*
X119731416Y-105171032D01*
X119742105Y-105098215D01*
X119705093Y-105040948D01*
X119629435Y-105010253D01*
X119524190Y-105017152D01*
X119489410Y-105024684D01*
X119452354Y-105019427D01*
X119451069Y-104979127D01*
X119464956Y-104948024D01*
X119512738Y-104922776D01*
X119607836Y-104910488D01*
X119622592Y-104909590D01*
X119712512Y-104910837D01*
G37*
G36*
X119257425Y-105833647D02*
G01*
X119257425Y-105894431D01*
X119256345Y-105984936D01*
X119249744Y-106073217D01*
X119235144Y-106117848D01*
X119210272Y-106130198D01*
X119179515Y-106114816D01*
X119163119Y-106051609D01*
X119159212Y-106009495D01*
X119131037Y-105979768D01*
X119059381Y-105973020D01*
X118980880Y-105964052D01*
X118905620Y-105918548D01*
X118880198Y-105835606D01*
X118880512Y-105824676D01*
X118880875Y-105823701D01*
X118980177Y-105823701D01*
X119005587Y-105878330D01*
X119076671Y-105904378D01*
X119113849Y-105906982D01*
X119154058Y-105891129D01*
X119163119Y-105833647D01*
X119160394Y-105795251D01*
X119134914Y-105760867D01*
X119066625Y-105752970D01*
X119021006Y-105755041D01*
X118982659Y-105773874D01*
X118980177Y-105823701D01*
X118880875Y-105823701D01*
X118913583Y-105735952D01*
X118996075Y-105678862D01*
X119120837Y-105658663D01*
X119257425Y-105658663D01*
X119257425Y-105833647D01*
G37*
G36*
X118817326Y-105833647D02*
G01*
X118817326Y-105894431D01*
X118816246Y-105984936D01*
X118809645Y-106073217D01*
X118795045Y-106117848D01*
X118770173Y-106130198D01*
X118739416Y-106114816D01*
X118723020Y-106051609D01*
X118719113Y-106009495D01*
X118690938Y-105979768D01*
X118619282Y-105973020D01*
X118540781Y-105964052D01*
X118465521Y-105918548D01*
X118440099Y-105835606D01*
X118440413Y-105824676D01*
X118440776Y-105823701D01*
X118540078Y-105823701D01*
X118565488Y-105878330D01*
X118636572Y-105904378D01*
X118673750Y-105906982D01*
X118713959Y-105891129D01*
X118723020Y-105833647D01*
X118720295Y-105795251D01*
X118694815Y-105760867D01*
X118626526Y-105752970D01*
X118580907Y-105755041D01*
X118542560Y-105773874D01*
X118540078Y-105823701D01*
X118440776Y-105823701D01*
X118473484Y-105735952D01*
X118555976Y-105678862D01*
X118680738Y-105658663D01*
X118817326Y-105658663D01*
X118817326Y-105833647D01*
G37*
G36*
X117761988Y-104348903D02*
G01*
X117764581Y-104358575D01*
X117744470Y-104461278D01*
X117675057Y-104543431D01*
X117623148Y-104571195D01*
X117508384Y-104591875D01*
X117396360Y-104569697D01*
X117310697Y-104507023D01*
X117255389Y-104402108D01*
X117256627Y-104349323D01*
X117377087Y-104349323D01*
X117396396Y-104415623D01*
X117419441Y-104452762D01*
X117481517Y-104491805D01*
X117548045Y-104483989D01*
X117601103Y-104434594D01*
X117622772Y-104348903D01*
X117609976Y-104299234D01*
X117556071Y-104242010D01*
X117534061Y-104231451D01*
X117481399Y-104227907D01*
X117424675Y-104271007D01*
X117400732Y-104296796D01*
X117377087Y-104349323D01*
X117256627Y-104349323D01*
X117257889Y-104295518D01*
X117322705Y-104195477D01*
X117347924Y-104173826D01*
X117450226Y-104127337D01*
X117561897Y-104121310D01*
X117656932Y-104158611D01*
X117660174Y-104161136D01*
X117736209Y-104252726D01*
X117761988Y-104348903D01*
G37*
G36*
X114259158Y-105894431D02*
G01*
X114259158Y-106130198D01*
X114086262Y-106130198D01*
X113983355Y-106126121D01*
X113928888Y-106111481D01*
X113913366Y-106083045D01*
X113915648Y-106069488D01*
X113951676Y-106043677D01*
X114039109Y-106035891D01*
X114075259Y-106035035D01*
X114144088Y-106021525D01*
X114164851Y-105988738D01*
X114164652Y-105984443D01*
X114136203Y-105951809D01*
X114054826Y-105941584D01*
X114044806Y-105941499D01*
X113968660Y-105929306D01*
X113944802Y-105894431D01*
X113945001Y-105890136D01*
X113973450Y-105857502D01*
X114054826Y-105847277D01*
X114072881Y-105846860D01*
X114147844Y-105830290D01*
X114168436Y-105799234D01*
X114135380Y-105767029D01*
X114049398Y-105747009D01*
X113977623Y-105736576D01*
X113922717Y-105713599D01*
X113923998Y-105688017D01*
X113978597Y-105667236D01*
X114083642Y-105658663D01*
X114259158Y-105658663D01*
X114259158Y-105894431D01*
G37*
G36*
X111645723Y-104916222D02*
G01*
X111724475Y-104962533D01*
X111734601Y-104974633D01*
X111760271Y-105046831D01*
X111725009Y-105113502D01*
X111630469Y-105170978D01*
X111630210Y-105171086D01*
X111547760Y-105216449D01*
X111524520Y-105253461D01*
X111559072Y-105274725D01*
X111650000Y-105272848D01*
X111700461Y-105268238D01*
X111762643Y-105275411D01*
X111770693Y-105301189D01*
X111720730Y-105341789D01*
X111717813Y-105343450D01*
X111629298Y-105370808D01*
X111535728Y-105368846D01*
X111467673Y-105338020D01*
X111455870Y-105324954D01*
X111427865Y-105250257D01*
X111457123Y-105176456D01*
X111539975Y-105114871D01*
X111615710Y-105069754D01*
X111647624Y-105029506D01*
X111627503Y-105005421D01*
X111554309Y-105005424D01*
X111517467Y-105008493D01*
X111455298Y-104997841D01*
X111434258Y-104969585D01*
X111465217Y-104932610D01*
X111545986Y-104906687D01*
X111645723Y-104916222D01*
G37*
G36*
X117896314Y-104906052D02*
G01*
X117922601Y-104925137D01*
X117934400Y-104977188D01*
X117937128Y-105077104D01*
X117933889Y-105163775D01*
X117914913Y-105252293D01*
X117874257Y-105312871D01*
X117785237Y-105364139D01*
X117674101Y-105370118D01*
X117566895Y-105326807D01*
X117548205Y-105312361D01*
X117516006Y-105269412D01*
X117500832Y-105201995D01*
X117497029Y-105091039D01*
X117498127Y-105010034D01*
X117505683Y-104941618D01*
X117524655Y-104911155D01*
X117559901Y-104904208D01*
X117572258Y-104904673D01*
X117604582Y-104918917D01*
X117619290Y-104964677D01*
X117622772Y-105057537D01*
X117622898Y-105071915D01*
X117636277Y-105185933D01*
X117669925Y-105250000D01*
X117717586Y-105272717D01*
X117766639Y-105250052D01*
X117799434Y-105176245D01*
X117811386Y-105057537D01*
X117811576Y-105027399D01*
X117817417Y-104948570D01*
X117836181Y-104912701D01*
X117874257Y-104904208D01*
X117896314Y-104906052D01*
G37*
G36*
X116678274Y-105694344D02*
G01*
X116726790Y-105752762D01*
X116730332Y-105764800D01*
X116732375Y-105828243D01*
X116691785Y-105877251D01*
X116598964Y-105924739D01*
X116596424Y-105925806D01*
X116514494Y-105971225D01*
X116491430Y-106008134D01*
X116525965Y-106029253D01*
X116616831Y-106027304D01*
X116667292Y-106022693D01*
X116729474Y-106029867D01*
X116737525Y-106055645D01*
X116687562Y-106096244D01*
X116632219Y-106119500D01*
X116529413Y-106123407D01*
X116444611Y-106079229D01*
X116433989Y-106067839D01*
X116403963Y-105998382D01*
X116436066Y-105930411D01*
X116530670Y-105862995D01*
X116607964Y-105815777D01*
X116643035Y-105777078D01*
X116620156Y-105757341D01*
X116539143Y-105758831D01*
X116528753Y-105759875D01*
X116452393Y-105754494D01*
X116412847Y-105730421D01*
X116418187Y-105698930D01*
X116476481Y-105671294D01*
X116483918Y-105669524D01*
X116590709Y-105664447D01*
X116678274Y-105694344D01*
G37*
G36*
X115226106Y-104120487D02*
G01*
X115251120Y-104140787D01*
X115262442Y-104194617D01*
X115265099Y-104296597D01*
X115264755Y-104325998D01*
X115250184Y-104454887D01*
X115213073Y-104532364D01*
X115153653Y-104571068D01*
X115041960Y-104589852D01*
X114957543Y-104578792D01*
X114881168Y-104528488D01*
X114838357Y-104432227D01*
X114825000Y-104284218D01*
X114825478Y-104234177D01*
X114832062Y-104159716D01*
X114850947Y-104126143D01*
X114887871Y-104118317D01*
X114897553Y-104118590D01*
X114931556Y-104131790D01*
X114947224Y-104176234D01*
X114951224Y-104267636D01*
X114952471Y-104319758D01*
X114968334Y-104427630D01*
X115004716Y-104482623D01*
X115064534Y-104490473D01*
X115075957Y-104487558D01*
X115106497Y-104462853D01*
X115123776Y-104404840D01*
X115133066Y-104298766D01*
X115136834Y-104239258D01*
X115147823Y-104162506D01*
X115168270Y-104126974D01*
X115203796Y-104118317D01*
X115226106Y-104120487D01*
G37*
G36*
X118168495Y-104118687D02*
G01*
X118196262Y-104128869D01*
X118211793Y-104162811D01*
X118218564Y-104233539D01*
X118220049Y-104354084D01*
X118220001Y-104383059D01*
X118217534Y-104492874D01*
X118208978Y-104555348D01*
X118191079Y-104583375D01*
X118160586Y-104589852D01*
X118119077Y-104575508D01*
X118081398Y-104511262D01*
X118061517Y-104459305D01*
X118034452Y-104432673D01*
X118000653Y-104455210D01*
X117955737Y-104511262D01*
X117910008Y-104560340D01*
X117824869Y-104589852D01*
X117745494Y-104589852D01*
X117837937Y-104455491D01*
X117930379Y-104321131D01*
X117849891Y-104227583D01*
X117844626Y-104221446D01*
X117799344Y-104163580D01*
X117793984Y-104135613D01*
X117825154Y-104123231D01*
X117844980Y-104124189D01*
X117911310Y-104154988D01*
X117987606Y-104215845D01*
X118094307Y-104319264D01*
X118094307Y-104218790D01*
X118095473Y-104184179D01*
X118112280Y-104132039D01*
X118157178Y-104118317D01*
X118168495Y-104118687D01*
G37*
G36*
X117811386Y-105894431D02*
G01*
X117811386Y-106130198D01*
X117654208Y-106130198D01*
X117572114Y-106127181D01*
X117513856Y-106112698D01*
X117497029Y-106083045D01*
X117499312Y-106069488D01*
X117535339Y-106043677D01*
X117622772Y-106035891D01*
X117658922Y-106035035D01*
X117727751Y-106021525D01*
X117748515Y-105988738D01*
X117748316Y-105984443D01*
X117719866Y-105951809D01*
X117638490Y-105941584D01*
X117628469Y-105941499D01*
X117552324Y-105929306D01*
X117528465Y-105894431D01*
X117528664Y-105890136D01*
X117557114Y-105857502D01*
X117638490Y-105847277D01*
X117648510Y-105847192D01*
X117724656Y-105834999D01*
X117748515Y-105800124D01*
X117746233Y-105786568D01*
X117710205Y-105760757D01*
X117622772Y-105752970D01*
X117586622Y-105752115D01*
X117517793Y-105738604D01*
X117497029Y-105705817D01*
X117507087Y-105681189D01*
X117555364Y-105663711D01*
X117654208Y-105658663D01*
X117811386Y-105658663D01*
X117811386Y-105894431D01*
G37*
G36*
X115359406Y-105139975D02*
G01*
X115359406Y-105375743D01*
X115202227Y-105375743D01*
X115120134Y-105372725D01*
X115061876Y-105358242D01*
X115045049Y-105328589D01*
X115047331Y-105315033D01*
X115083359Y-105289222D01*
X115170792Y-105281436D01*
X115206942Y-105280580D01*
X115275771Y-105267069D01*
X115296534Y-105234282D01*
X115296336Y-105229988D01*
X115267886Y-105197354D01*
X115186510Y-105187129D01*
X115176489Y-105187044D01*
X115100344Y-105174851D01*
X115076485Y-105139975D01*
X115076684Y-105135681D01*
X115105134Y-105103047D01*
X115186510Y-105092822D01*
X115196530Y-105092737D01*
X115272676Y-105080544D01*
X115296534Y-105045668D01*
X115294252Y-105032112D01*
X115258224Y-105006301D01*
X115170792Y-104998515D01*
X115134642Y-104997659D01*
X115065813Y-104984149D01*
X115045049Y-104951361D01*
X115055107Y-104926733D01*
X115103384Y-104909256D01*
X115202227Y-104904208D01*
X115359406Y-104904208D01*
X115359406Y-105139975D01*
G37*
G36*
X112655940Y-105139975D02*
G01*
X112655940Y-105375743D01*
X112483044Y-105375743D01*
X112380137Y-105371666D01*
X112325671Y-105357026D01*
X112310148Y-105328589D01*
X112312430Y-105315033D01*
X112348458Y-105289222D01*
X112435891Y-105281436D01*
X112472041Y-105280580D01*
X112540870Y-105267069D01*
X112561633Y-105234282D01*
X112561435Y-105229988D01*
X112532985Y-105197354D01*
X112451609Y-105187129D01*
X112441588Y-105187044D01*
X112365443Y-105174851D01*
X112341584Y-105139975D01*
X112341783Y-105135681D01*
X112370233Y-105103047D01*
X112451609Y-105092822D01*
X112461629Y-105092737D01*
X112537775Y-105080544D01*
X112561633Y-105045668D01*
X112559351Y-105032112D01*
X112523323Y-105006301D01*
X112435891Y-104998515D01*
X112399741Y-104997659D01*
X112330912Y-104984149D01*
X112310148Y-104951361D01*
X112325097Y-104923296D01*
X112378778Y-104908441D01*
X112483044Y-104904208D01*
X112655940Y-104904208D01*
X112655940Y-105139975D01*
G37*
G36*
X112002491Y-104122326D02*
G01*
X112022143Y-104144872D01*
X112027025Y-104200638D01*
X112021332Y-104304286D01*
X112011927Y-104386449D01*
X111991266Y-104482657D01*
X111966551Y-104540053D01*
X111965321Y-104541493D01*
X111899446Y-104577171D01*
X111804116Y-104588912D01*
X111707190Y-104576684D01*
X111636527Y-104540453D01*
X111624315Y-104525262D01*
X111596211Y-104442065D01*
X111587128Y-104304685D01*
X111588212Y-104224341D01*
X111595748Y-104155805D01*
X111614719Y-104125280D01*
X111650000Y-104118317D01*
X111672465Y-104120250D01*
X111698496Y-104139575D01*
X111710173Y-104191936D01*
X111712871Y-104292200D01*
X111716754Y-104391045D01*
X111732740Y-104456637D01*
X111764570Y-104485921D01*
X111799540Y-104490037D01*
X111852098Y-104454036D01*
X111888119Y-104371824D01*
X111901485Y-104253769D01*
X111901502Y-104245395D01*
X111906490Y-104163753D01*
X111925984Y-104126915D01*
X111968134Y-104118317D01*
X112002491Y-104122326D01*
G37*
G36*
X119706934Y-105918107D02*
G01*
X119708767Y-105922043D01*
X119786592Y-106104912D01*
X119785982Y-106116890D01*
X119750661Y-106130198D01*
X119727200Y-106124848D01*
X119686157Y-106083045D01*
X119675894Y-106067494D01*
X119617763Y-106040556D01*
X119535280Y-106035919D01*
X119453397Y-106052910D01*
X119397063Y-106090854D01*
X119367443Y-106119832D01*
X119334067Y-106123011D01*
X119330227Y-106109030D01*
X119342561Y-106048970D01*
X119375046Y-105960502D01*
X119394904Y-105916157D01*
X119477475Y-105916157D01*
X119496606Y-105932800D01*
X119555390Y-105941584D01*
X119599720Y-105939011D01*
X119617461Y-105918107D01*
X119596256Y-105860270D01*
X119573162Y-105814214D01*
X119549811Y-105800376D01*
X119518341Y-105834842D01*
X119494228Y-105872749D01*
X119477475Y-105916157D01*
X119394904Y-105916157D01*
X119419711Y-105860759D01*
X119468582Y-105766876D01*
X119513687Y-105695989D01*
X119547056Y-105665231D01*
X119568019Y-105671115D01*
X119602661Y-105710984D01*
X119648517Y-105792680D01*
X119706934Y-105918107D01*
G37*
G36*
X119070001Y-104126026D02*
G01*
X119094408Y-104165313D01*
X119106299Y-104251918D01*
X119115965Y-104385520D01*
X119210272Y-104252590D01*
X119247446Y-104205248D01*
X119311015Y-104143461D01*
X119359591Y-104118988D01*
X119361450Y-104118982D01*
X119389119Y-104127554D01*
X119405239Y-104161211D01*
X119412753Y-104232529D01*
X119414604Y-104354084D01*
X119414505Y-104396524D01*
X119411790Y-104500648D01*
X119402739Y-104558892D01*
X119383878Y-104584283D01*
X119351732Y-104589852D01*
X119319393Y-104584693D01*
X119294687Y-104551170D01*
X119287807Y-104471968D01*
X119286753Y-104354084D01*
X119190451Y-104471968D01*
X119157684Y-104508464D01*
X119088547Y-104566827D01*
X119034327Y-104589852D01*
X119026585Y-104589640D01*
X118998885Y-104579810D01*
X118983156Y-104545882D01*
X118976122Y-104474944D01*
X118974505Y-104354084D01*
X118974576Y-104318477D01*
X118977164Y-104211459D01*
X118985954Y-104151070D01*
X119004302Y-104124344D01*
X119035569Y-104118317D01*
X119070001Y-104126026D01*
G37*
G36*
X118848762Y-105139975D02*
G01*
X118848762Y-105375743D01*
X118660148Y-105375743D01*
X118637422Y-105375650D01*
X118537369Y-105370669D01*
X118486020Y-105355969D01*
X118471534Y-105328589D01*
X118473817Y-105315033D01*
X118509844Y-105289222D01*
X118597277Y-105281436D01*
X118633427Y-105280580D01*
X118702256Y-105267069D01*
X118723020Y-105234282D01*
X118722821Y-105229988D01*
X118694371Y-105197354D01*
X118612995Y-105187129D01*
X118602974Y-105187044D01*
X118526829Y-105174851D01*
X118502970Y-105139975D01*
X118503169Y-105135681D01*
X118531619Y-105103047D01*
X118612995Y-105092822D01*
X118623015Y-105092737D01*
X118699161Y-105080544D01*
X118723020Y-105045668D01*
X118720737Y-105032112D01*
X118684710Y-105006301D01*
X118597277Y-104998515D01*
X118561127Y-104997659D01*
X118492298Y-104984149D01*
X118471534Y-104951361D01*
X118471906Y-104945680D01*
X118491828Y-104920667D01*
X118550629Y-104907829D01*
X118660148Y-104904208D01*
X118848762Y-104904208D01*
X118848762Y-105139975D01*
G37*
G36*
X116341770Y-104124676D02*
G01*
X116538242Y-104134035D01*
X116547478Y-104361943D01*
X116556715Y-104589852D01*
X116351006Y-104589852D01*
X116302618Y-104589479D01*
X116207407Y-104583769D01*
X116158872Y-104569071D01*
X116145297Y-104542698D01*
X116147579Y-104529142D01*
X116183607Y-104503331D01*
X116271039Y-104495545D01*
X116307189Y-104494689D01*
X116376018Y-104481178D01*
X116396782Y-104448391D01*
X116396583Y-104444097D01*
X116368133Y-104411463D01*
X116286757Y-104401238D01*
X116276737Y-104401152D01*
X116200591Y-104388960D01*
X116176732Y-104354084D01*
X116176931Y-104349790D01*
X116205381Y-104317156D01*
X116286757Y-104306931D01*
X116296778Y-104306845D01*
X116372923Y-104294653D01*
X116396782Y-104259777D01*
X116394500Y-104246221D01*
X116358472Y-104220410D01*
X116271039Y-104212624D01*
X116229064Y-104211473D01*
X116164365Y-104197435D01*
X116145297Y-104163970D01*
X116147392Y-104149880D01*
X116171125Y-104129748D01*
X116231644Y-104122201D01*
X116341770Y-104124676D01*
G37*
G36*
X115705198Y-104354084D02*
G01*
X115705198Y-104589852D01*
X115516584Y-104589852D01*
X115493858Y-104589759D01*
X115393805Y-104584778D01*
X115342455Y-104570078D01*
X115327970Y-104542698D01*
X115330252Y-104529142D01*
X115366280Y-104503331D01*
X115453713Y-104495545D01*
X115489863Y-104494689D01*
X115558692Y-104481178D01*
X115579455Y-104448391D01*
X115579256Y-104444097D01*
X115550807Y-104411463D01*
X115469430Y-104401238D01*
X115459410Y-104401152D01*
X115383264Y-104388960D01*
X115359406Y-104354084D01*
X115359605Y-104349790D01*
X115388054Y-104317156D01*
X115469430Y-104306931D01*
X115479451Y-104306845D01*
X115555596Y-104294653D01*
X115579455Y-104259777D01*
X115577173Y-104246221D01*
X115541145Y-104220410D01*
X115453713Y-104212624D01*
X115417563Y-104211768D01*
X115348734Y-104198258D01*
X115327970Y-104165470D01*
X115328342Y-104159789D01*
X115348264Y-104134775D01*
X115407064Y-104121938D01*
X115516584Y-104118317D01*
X115705198Y-104118317D01*
X115705198Y-104354084D01*
G37*
G36*
X113393167Y-104139434D02*
G01*
X113453107Y-104184385D01*
X113459480Y-104194010D01*
X113481616Y-104274575D01*
X113443757Y-104343542D01*
X113348188Y-104396296D01*
X113308083Y-104413664D01*
X113261365Y-104450605D01*
X113257513Y-104482173D01*
X113302438Y-104495545D01*
X113340687Y-104489856D01*
X113412929Y-104462753D01*
X113414223Y-104462064D01*
X113466001Y-104447433D01*
X113494032Y-104481644D01*
X113498245Y-104511937D01*
X113469989Y-104561107D01*
X113411362Y-104582157D01*
X113311743Y-104588475D01*
X113212583Y-104573369D01*
X113143868Y-104538882D01*
X113133455Y-104527742D01*
X113102856Y-104457920D01*
X113134950Y-104391232D01*
X113229641Y-104327918D01*
X113233311Y-104326115D01*
X113316268Y-104276697D01*
X113344272Y-104240931D01*
X113317071Y-104223977D01*
X113234409Y-104230995D01*
X113163885Y-104240964D01*
X113132741Y-104230692D01*
X113132515Y-104193125D01*
X113156286Y-104154855D01*
X113222783Y-104125268D01*
X113309068Y-104119928D01*
X113393167Y-104139434D01*
G37*
G36*
X112624505Y-104354084D02*
G01*
X112624505Y-104589852D01*
X112435891Y-104589852D01*
X112413165Y-104589759D01*
X112313111Y-104584778D01*
X112261762Y-104570078D01*
X112247277Y-104542698D01*
X112249559Y-104529142D01*
X112285587Y-104503331D01*
X112373020Y-104495545D01*
X112409170Y-104494689D01*
X112477999Y-104481178D01*
X112498762Y-104448391D01*
X112498563Y-104444097D01*
X112470114Y-104411463D01*
X112388737Y-104401238D01*
X112378717Y-104401152D01*
X112302571Y-104388960D01*
X112278713Y-104354084D01*
X112278912Y-104349790D01*
X112307361Y-104317156D01*
X112388737Y-104306931D01*
X112398758Y-104306845D01*
X112474903Y-104294653D01*
X112498762Y-104259777D01*
X112496480Y-104246221D01*
X112460452Y-104220410D01*
X112373020Y-104212624D01*
X112336870Y-104211768D01*
X112268041Y-104198258D01*
X112247277Y-104165470D01*
X112247649Y-104159789D01*
X112267571Y-104134775D01*
X112326371Y-104121938D01*
X112435891Y-104118317D01*
X112624505Y-104118317D01*
X112624505Y-104354084D01*
G37*
G36*
X120310634Y-105170009D02*
G01*
X120345538Y-105250059D01*
X120377162Y-105326236D01*
X120389109Y-105360301D01*
X120376011Y-105375649D01*
X120329665Y-105376105D01*
X120276057Y-105358381D01*
X120243298Y-105328589D01*
X120204402Y-105295273D01*
X120118542Y-105281436D01*
X120114430Y-105281451D01*
X120036545Y-105293207D01*
X120011881Y-105328589D01*
X119996999Y-105358986D01*
X119935291Y-105375743D01*
X119858701Y-105375743D01*
X119947270Y-105163552D01*
X120075234Y-105163552D01*
X120087233Y-105177400D01*
X120138730Y-105187129D01*
X120162445Y-105186189D01*
X120186397Y-105170009D01*
X120166786Y-105120011D01*
X120158852Y-105105761D01*
X120129781Y-105074348D01*
X120103290Y-105096434D01*
X120090702Y-105118821D01*
X120075234Y-105163552D01*
X119947270Y-105163552D01*
X119957111Y-105139975D01*
X120002797Y-105035606D01*
X120046236Y-104955408D01*
X120084026Y-104915208D01*
X120123799Y-104904208D01*
X120149994Y-104908539D01*
X120190209Y-104938836D01*
X120234373Y-105007265D01*
X120290593Y-105124534D01*
X120300558Y-105146900D01*
X120310634Y-105170009D01*
G37*
G36*
X119351732Y-105061386D02*
G01*
X119351732Y-105139975D01*
X119351634Y-105182415D01*
X119348918Y-105286539D01*
X119339867Y-105344783D01*
X119321006Y-105370174D01*
X119288861Y-105375743D01*
X119248218Y-105365410D01*
X119225990Y-105312871D01*
X119216260Y-105273250D01*
X119165237Y-105250000D01*
X119126209Y-105261774D01*
X119084529Y-105312871D01*
X119059812Y-105351804D01*
X118987379Y-105375743D01*
X118936495Y-105372552D01*
X118929364Y-105351521D01*
X118962735Y-105295539D01*
X118969612Y-105284785D01*
X118996367Y-105221645D01*
X118979178Y-105179228D01*
X118971375Y-105169993D01*
X118946369Y-105096738D01*
X118947667Y-105061386D01*
X119068812Y-105061386D01*
X119085774Y-105109522D01*
X119147401Y-105124257D01*
X119207571Y-105110687D01*
X119225990Y-105061386D01*
X119209027Y-105013250D01*
X119147401Y-104998515D01*
X119087231Y-105012085D01*
X119068812Y-105061386D01*
X118947667Y-105061386D01*
X118949588Y-105009033D01*
X118980792Y-104941931D01*
X119006030Y-104928194D01*
X119083628Y-104910948D01*
X119185124Y-104904208D01*
X119351732Y-104904208D01*
X119351732Y-105061386D01*
G37*
G36*
X118408663Y-105047855D02*
G01*
X118408663Y-105139975D01*
X118408663Y-105236469D01*
X118408663Y-105375743D01*
X118237550Y-105375743D01*
X118221161Y-105375682D01*
X118120364Y-105369454D01*
X118059350Y-105348536D01*
X118018000Y-105306590D01*
X118003871Y-105285283D01*
X117986197Y-105230715D01*
X117988100Y-105226423D01*
X118133444Y-105226423D01*
X118156144Y-105256002D01*
X118208223Y-105275566D01*
X118259658Y-105269671D01*
X118282921Y-105236469D01*
X118267628Y-105203604D01*
X118201712Y-105187129D01*
X118148936Y-105195722D01*
X118133444Y-105226423D01*
X117988100Y-105226423D01*
X118011789Y-105172989D01*
X118035718Y-105119790D01*
X118020971Y-105056162D01*
X118014571Y-105037809D01*
X118133444Y-105037809D01*
X118156144Y-105067388D01*
X118208223Y-105086952D01*
X118259658Y-105081058D01*
X118282921Y-105047855D01*
X118267628Y-105014990D01*
X118201712Y-104998515D01*
X118148936Y-105007108D01*
X118133444Y-105037809D01*
X118014571Y-105037809D01*
X118003024Y-105004693D01*
X118029806Y-104950919D01*
X118110146Y-104916398D01*
X118239616Y-104904208D01*
X118408663Y-104904208D01*
X118408663Y-105047855D01*
G37*
G36*
X115673762Y-105873474D02*
G01*
X115673762Y-105874008D01*
X115670874Y-105984851D01*
X115663347Y-106069346D01*
X115652805Y-106109241D01*
X115637887Y-106116001D01*
X115573034Y-106126188D01*
X115479909Y-106130198D01*
X115405017Y-106127545D01*
X115345309Y-106113147D01*
X115327970Y-106083045D01*
X115330252Y-106069488D01*
X115366280Y-106043677D01*
X115453713Y-106035891D01*
X115489863Y-106035035D01*
X115558692Y-106021525D01*
X115579455Y-105988738D01*
X115579256Y-105984443D01*
X115550807Y-105951809D01*
X115469430Y-105941584D01*
X115459410Y-105941499D01*
X115383264Y-105929306D01*
X115359406Y-105894431D01*
X115359605Y-105890136D01*
X115388054Y-105857502D01*
X115469430Y-105847277D01*
X115479451Y-105847192D01*
X115555596Y-105834999D01*
X115579455Y-105800124D01*
X115577173Y-105786568D01*
X115541145Y-105760757D01*
X115453713Y-105752970D01*
X115417563Y-105752115D01*
X115348734Y-105738604D01*
X115327970Y-105705817D01*
X115342919Y-105677751D01*
X115396599Y-105662897D01*
X115500866Y-105658663D01*
X115673762Y-105658663D01*
X115673762Y-105873474D01*
G37*
G36*
X112215841Y-105079192D02*
G01*
X112215841Y-105139975D01*
X112214761Y-105230481D01*
X112208160Y-105318762D01*
X112193560Y-105363392D01*
X112168688Y-105375743D01*
X112141190Y-105364073D01*
X112121534Y-105312871D01*
X112111529Y-105272770D01*
X112059769Y-105250000D01*
X112016215Y-105262507D01*
X111964356Y-105312871D01*
X111934061Y-105350689D01*
X111881046Y-105375743D01*
X111857042Y-105373890D01*
X111848777Y-105355576D01*
X111878620Y-105303649D01*
X111894625Y-105277647D01*
X111909183Y-105225058D01*
X111882236Y-105171898D01*
X111858653Y-105132367D01*
X111848775Y-105069245D01*
X111938593Y-105069245D01*
X111964003Y-105123875D01*
X112035086Y-105149922D01*
X112072265Y-105152527D01*
X112112474Y-105136673D01*
X112121534Y-105079192D01*
X112118810Y-105040795D01*
X112093330Y-105006411D01*
X112025041Y-104998515D01*
X111979422Y-105000586D01*
X111941075Y-105019418D01*
X111938593Y-105069245D01*
X111848775Y-105069245D01*
X111844983Y-105045016D01*
X111884615Y-104972331D01*
X111970875Y-104922624D01*
X112097093Y-104904208D01*
X112215841Y-104904208D01*
X112215841Y-105079192D01*
G37*
G36*
X115854774Y-105077104D02*
G01*
X115856215Y-105105020D01*
X115858702Y-105186850D01*
X115856727Y-105279727D01*
X115849343Y-105332928D01*
X115821051Y-105370581D01*
X115785114Y-105365744D01*
X115768069Y-105312871D01*
X115755344Y-105271410D01*
X115708466Y-105250262D01*
X115643827Y-105266951D01*
X115579341Y-105320730D01*
X115558173Y-105344160D01*
X115512084Y-105371396D01*
X115494661Y-105347571D01*
X115517283Y-105280130D01*
X115519599Y-105275753D01*
X115538667Y-105218930D01*
X115515900Y-105186706D01*
X115490777Y-105156519D01*
X115478120Y-105083999D01*
X115479494Y-105077104D01*
X115563737Y-105077104D01*
X115564903Y-105093509D01*
X115591907Y-105132572D01*
X115665903Y-105149826D01*
X115726941Y-105152207D01*
X115760974Y-105133146D01*
X115768069Y-105077104D01*
X115763734Y-105028190D01*
X115736090Y-105003349D01*
X115665903Y-105004382D01*
X115639428Y-105007652D01*
X115580182Y-105029982D01*
X115563737Y-105077104D01*
X115479494Y-105077104D01*
X115494054Y-105004028D01*
X115536231Y-104944558D01*
X115543114Y-104940041D01*
X115620732Y-104915384D01*
X115720916Y-104910671D01*
X115846658Y-104919926D01*
X115854774Y-105077104D01*
G37*
G36*
X114950742Y-105047756D02*
G01*
X114950742Y-105141618D01*
X114950742Y-105250000D01*
X114950742Y-105379028D01*
X114788943Y-105369527D01*
X114696147Y-105357859D01*
X114606402Y-105321292D01*
X114573896Y-105262764D01*
X114587571Y-105221101D01*
X114671592Y-105221101D01*
X114677743Y-105260282D01*
X114738552Y-105293058D01*
X114750716Y-105296284D01*
X114820785Y-105309972D01*
X114850357Y-105296614D01*
X114856435Y-105250000D01*
X114855462Y-105233771D01*
X114831158Y-105197009D01*
X114762128Y-105187129D01*
X114716349Y-105192370D01*
X114671592Y-105221101D01*
X114587571Y-105221101D01*
X114599902Y-105183531D01*
X114623388Y-105130008D01*
X114607531Y-105082829D01*
X114593251Y-105065973D01*
X114586939Y-105037809D01*
X114675485Y-105037809D01*
X114676944Y-105041615D01*
X114715670Y-105075097D01*
X114776183Y-105088254D01*
X114831950Y-105079626D01*
X114856435Y-105047756D01*
X114834150Y-105010909D01*
X114759509Y-104998515D01*
X114691898Y-105007896D01*
X114675485Y-105037809D01*
X114586939Y-105037809D01*
X114580050Y-105007067D01*
X114618052Y-104955197D01*
X114698223Y-104918274D01*
X114811527Y-104904208D01*
X114950742Y-104904208D01*
X114950742Y-105047756D01*
G37*
G36*
X119897456Y-104118687D02*
G01*
X119925222Y-104128869D01*
X119940754Y-104162811D01*
X119947525Y-104233539D01*
X119949010Y-104354084D01*
X119948911Y-104396524D01*
X119946196Y-104500648D01*
X119937145Y-104558892D01*
X119918284Y-104584283D01*
X119886138Y-104589852D01*
X119867961Y-104588601D01*
X119832679Y-104563416D01*
X119823267Y-104493457D01*
X119820206Y-104439360D01*
X119797338Y-104407251D01*
X119736819Y-104407009D01*
X119722404Y-104408985D01*
X119662939Y-104436074D01*
X119640424Y-104503404D01*
X119620105Y-104567514D01*
X119569694Y-104589852D01*
X119560803Y-104589590D01*
X119533091Y-104579632D01*
X119517431Y-104545698D01*
X119510484Y-104474833D01*
X119508911Y-104354084D01*
X119509009Y-104311645D01*
X119511725Y-104207520D01*
X119520776Y-104149277D01*
X119539637Y-104123885D01*
X119571782Y-104118317D01*
X119588011Y-104119290D01*
X119624773Y-104143594D01*
X119634653Y-104212624D01*
X119637542Y-104262399D01*
X119662163Y-104299141D01*
X119728960Y-104306931D01*
X119778735Y-104304042D01*
X119815478Y-104279421D01*
X119823267Y-104212624D01*
X119823916Y-104188280D01*
X119840119Y-104133137D01*
X119886138Y-104118317D01*
X119897456Y-104118687D01*
G37*
G36*
X110490337Y-104933744D02*
G01*
X110534034Y-104998515D01*
X110555871Y-105037445D01*
X110600692Y-105085132D01*
X110643288Y-105071729D01*
X110691909Y-104997168D01*
X110709269Y-104964781D01*
X110737466Y-104928911D01*
X110778943Y-104911392D01*
X110850211Y-104907053D01*
X110967778Y-104910720D01*
X111074857Y-104919663D01*
X111156647Y-104936186D01*
X111196587Y-104956305D01*
X111187811Y-104976398D01*
X111123453Y-104992842D01*
X111089977Y-105001153D01*
X111065547Y-105026981D01*
X111054995Y-105084518D01*
X111052723Y-105189315D01*
X111052654Y-105208646D01*
X111047784Y-105309377D01*
X111033088Y-105361126D01*
X111005569Y-105375743D01*
X110999888Y-105375371D01*
X110974874Y-105355449D01*
X110962037Y-105296648D01*
X110958416Y-105187129D01*
X110957420Y-105109903D01*
X110950151Y-105038540D01*
X110931914Y-105006151D01*
X110898164Y-104998515D01*
X110863214Y-104992793D01*
X110826346Y-104963817D01*
X110825159Y-104961254D01*
X110804135Y-104969795D01*
X110768468Y-105018928D01*
X110726391Y-105093048D01*
X110686141Y-105176548D01*
X110655952Y-105253823D01*
X110644059Y-105309267D01*
X110637690Y-105349263D01*
X110612624Y-105375743D01*
X110592951Y-105360228D01*
X110580809Y-105305012D01*
X110576840Y-105276397D01*
X110548599Y-105192292D01*
X110502220Y-105097472D01*
X110475527Y-105049076D01*
X110438528Y-104974162D01*
X110424010Y-104932435D01*
X110426149Y-104915933D01*
X110450081Y-104903637D01*
X110490337Y-104933744D01*
G37*
G36*
X116759889Y-105136477D02*
G01*
X116769095Y-105155901D01*
X116819577Y-105250838D01*
X116859298Y-105307837D01*
X116881585Y-105316835D01*
X116883825Y-105313837D01*
X116932524Y-105290856D01*
X117011632Y-105281436D01*
X117024369Y-105281307D01*
X117092166Y-105275227D01*
X117119802Y-105262856D01*
X117111045Y-105245382D01*
X117071104Y-105190559D01*
X117009777Y-105115737D01*
X116952011Y-105045150D01*
X116907520Y-104972192D01*
X116913925Y-104929403D01*
X116974116Y-104909252D01*
X117090986Y-104904208D01*
X117197856Y-104907754D01*
X117257470Y-104920295D01*
X117269283Y-104943503D01*
X117266083Y-104949511D01*
X117219625Y-104978571D01*
X117140795Y-104998515D01*
X117025243Y-105014233D01*
X117149771Y-105155693D01*
X117204244Y-105221459D01*
X117255373Y-105293528D01*
X117275640Y-105337214D01*
X117252786Y-105357010D01*
X117184023Y-105370562D01*
X117086586Y-105375984D01*
X116978029Y-105373698D01*
X116875908Y-105364126D01*
X116797779Y-105347692D01*
X116761195Y-105324820D01*
X116750179Y-105309170D01*
X116691815Y-105285042D01*
X116609629Y-105282206D01*
X116528560Y-105299660D01*
X116473548Y-105336399D01*
X116443881Y-105365336D01*
X116410350Y-105368353D01*
X116407044Y-105357207D01*
X116417915Y-105300003D01*
X116448204Y-105212772D01*
X116466501Y-105169344D01*
X116553960Y-105169344D01*
X116565678Y-105179653D01*
X116616831Y-105187129D01*
X116655183Y-105179080D01*
X116678033Y-105136477D01*
X116651165Y-105064998D01*
X116645539Y-105056699D01*
X116619663Y-105044194D01*
X116588775Y-105086508D01*
X116567201Y-105130670D01*
X116553960Y-105169344D01*
X116466501Y-105169344D01*
X116490280Y-105112906D01*
X116536507Y-105017799D01*
X116579253Y-104944842D01*
X116610884Y-104911430D01*
X116613376Y-104910975D01*
X116647502Y-104937179D01*
X116696702Y-105011796D01*
X116754633Y-105125386D01*
X116759889Y-105136477D01*
G37*
G36*
X125347160Y-104306931D02*
G01*
X125451699Y-104502875D01*
X125551718Y-104821848D01*
X125597514Y-105171411D01*
X125596021Y-105446008D01*
X125544512Y-105777215D01*
X125435874Y-106083668D01*
X125268842Y-106368699D01*
X125042154Y-106635639D01*
X124944682Y-106729631D01*
X124719270Y-106911121D01*
X124481561Y-107048925D01*
X124212208Y-107155154D01*
X124052294Y-107194234D01*
X123824364Y-107222936D01*
X123580221Y-107231009D01*
X123343659Y-107217842D01*
X123138473Y-107182820D01*
X123066889Y-107163182D01*
X122747104Y-107037655D01*
X122458492Y-106861670D01*
X122206026Y-106641108D01*
X121994682Y-106381853D01*
X121829431Y-106089787D01*
X121715248Y-105770794D01*
X121657107Y-105430755D01*
X121637216Y-105187129D01*
X122034821Y-105187129D01*
X122432425Y-105187129D01*
X122432425Y-105094633D01*
X122430690Y-105072296D01*
X122405551Y-105001540D01*
X122345551Y-104910259D01*
X122244358Y-104788135D01*
X122203279Y-104740837D01*
X122127791Y-104650531D01*
X122075461Y-104583135D01*
X122055744Y-104550557D01*
X122076311Y-104539823D01*
X122144439Y-104530548D01*
X122243812Y-104526980D01*
X122432425Y-104526980D01*
X122432425Y-104416955D01*
X122432425Y-104306931D01*
X122163445Y-104306931D01*
X121894465Y-104306931D01*
X121896418Y-104303499D01*
X122495613Y-104303499D01*
X122593315Y-104564559D01*
X122602769Y-104589824D01*
X122658741Y-104739584D01*
X122714129Y-104888015D01*
X122758195Y-105006346D01*
X122825371Y-105187073D01*
X122975468Y-105187101D01*
X122985258Y-105187079D01*
X123076301Y-105181411D01*
X123125745Y-105160416D01*
X123152902Y-105116399D01*
X123163315Y-105089441D01*
X123259869Y-104837690D01*
X123336576Y-104634158D01*
X123392510Y-104481365D01*
X123415318Y-104415058D01*
X123532673Y-104415058D01*
X123532741Y-104430473D01*
X123540221Y-104493997D01*
X123573282Y-104521941D01*
X123650557Y-104532942D01*
X123768440Y-104542698D01*
X123777399Y-104864913D01*
X123786358Y-105187129D01*
X123926718Y-105187129D01*
X124067079Y-105187129D01*
X124067079Y-104857055D01*
X124067079Y-104526980D01*
X124192822Y-104526980D01*
X124229925Y-104526734D01*
X124291253Y-104518707D01*
X124314757Y-104487400D01*
X124318564Y-104416955D01*
X124318564Y-104306931D01*
X123925619Y-104306931D01*
X123532673Y-104306931D01*
X123532673Y-104338070D01*
X123532673Y-104415058D01*
X123415318Y-104415058D01*
X123426748Y-104381829D01*
X123438366Y-104338070D01*
X123432220Y-104328962D01*
X123382226Y-104313177D01*
X123298372Y-104306931D01*
X123158378Y-104306931D01*
X123064954Y-104597710D01*
X123058804Y-104616883D01*
X123018253Y-104741072D01*
X122988600Y-104812905D01*
X122963775Y-104830894D01*
X122937708Y-104793554D01*
X122904328Y-104699400D01*
X122857567Y-104546945D01*
X122789237Y-104322649D01*
X122642425Y-104313074D01*
X122495613Y-104303499D01*
X121896418Y-104303499D01*
X121951255Y-104207155D01*
X121972677Y-104174903D01*
X122039044Y-104091600D01*
X122130214Y-103988387D01*
X122233061Y-103880480D01*
X122447205Y-103692586D01*
X122737502Y-103510827D01*
X123053454Y-103385726D01*
X123391972Y-103318445D01*
X123749963Y-103310148D01*
X123803081Y-103313879D01*
X124148582Y-103370961D01*
X124465879Y-103483979D01*
X124757515Y-103654075D01*
X125026029Y-103882387D01*
X125081475Y-103939731D01*
X125295578Y-104210249D01*
X125347160Y-104306931D01*
G37*
%TD*%
M02*
