M48
; DRILL file {KiCad 7.0.1} date Tue May 16 22:34:26 2023
; FORMAT={-:-/ absolute / metric / decimal}
; #@! TF.CreationDate,2023-05-16T22:34:26+02:00
; #@! TF.GenerationSoftware,Kicad,Pcbnew,7.0.1
; #@! TF.FileFunction,Plated,1,2,PTH
FMAT,2
METRIC
; #@! TA.AperFunction,Plated,PTH,ViaDrill
T1C0.300
; #@! TA.AperFunction,Plated,PTH,ViaDrill
T2C0.400
; #@! TA.AperFunction,Plated,PTH,ComponentDrill
T3C0.750
; #@! TA.AperFunction,Plated,PTH,ComponentDrill
T4C0.800
; #@! TA.AperFunction,Plated,PTH,ComponentDrill
T5C0.900
; #@! TA.AperFunction,Plated,PTH,ComponentDrill
T6C1.000
; #@! TA.AperFunction,Plated,PTH,ComponentDrill
T7C1.100
; #@! TA.AperFunction,Plated,PTH,ComponentDrill
T8C1.300
; #@! TA.AperFunction,Plated,PTH,ComponentDrill
T9C3.200
%
G90
G05
T1
X126.4Y-100.92
X156.25Y-93.25
X160.0Y-93.25
X174.0Y-90.0
X179.75Y-93.75
X179.95Y-83.48
X179.95Y-87.17
T2
X126.36Y-95.12
X126.37Y-91.6
X127.62Y-99.55
X128.52Y-103.04
X129.98Y-102.13
X167.77Y-114.21
X171.2Y-99.7
X171.22Y-114.21
X177.7Y-104.4
T3
X169.94Y-67.6
X169.94Y-68.87
X169.94Y-70.14
T4
X125.6Y-75.0
X133.62Y-116.05
X138.3Y-75.0
X143.9Y-84.7
X143.9Y-89.7
X143.9Y-94.42
X143.9Y-99.3
X143.9Y-104.1
X143.9Y-109.1
X146.32Y-116.05
X147.9Y-89.3
X147.9Y-94.3
X150.232Y-67.647
X150.232Y-70.188
X150.232Y-72.727
X150.232Y-75.267
X150.232Y-77.807
X150.232Y-80.347
X150.232Y-82.888
X150.232Y-85.427
X150.232Y-87.968
X150.232Y-90.507
X150.232Y-93.047
X150.232Y-95.587
X150.232Y-98.127
X150.232Y-100.667
X150.232Y-103.207
X150.232Y-105.748
X150.232Y-108.287
X150.232Y-110.828
X150.232Y-113.367
X150.232Y-115.907
X165.472Y-67.647
X165.472Y-70.188
X165.472Y-72.727
X165.472Y-75.267
X165.472Y-77.807
X165.472Y-80.347
X165.472Y-82.888
X165.472Y-85.427
X165.472Y-87.968
X165.472Y-90.507
X165.472Y-93.047
X165.472Y-95.587
X165.472Y-98.127
X165.472Y-100.667
X165.472Y-103.207
X165.472Y-105.748
X165.472Y-108.287
X165.472Y-110.828
X165.472Y-113.367
X165.472Y-115.907
X167.9Y-88.6
X169.357Y-97.7
X169.357Y-107.86
X172.38Y-91.17
X172.9Y-88.6
X175.5Y-88.6
X177.38Y-91.17
X180.1Y-101.1
X180.1Y-113.8
X180.5Y-88.6
T5
X135.79Y-68.095
X135.79Y-70.635
T6
X113.48Y-85.672
X116.02Y-85.672
X116.02Y-115.372
X118.56Y-85.672
X118.56Y-115.372
X121.1Y-85.672
X121.1Y-115.372
X123.64Y-85.672
X123.64Y-115.372
X133.5Y-83.85
X133.5Y-86.39
X133.5Y-88.93
X133.5Y-91.47
X133.5Y-94.01
X135.48Y-103.93
X135.48Y-111.53
X136.04Y-83.85
X136.04Y-86.39
X136.04Y-88.93
X136.04Y-91.47
X136.04Y-94.01
X173.535Y-97.695
X173.535Y-100.235
X173.535Y-102.775
X173.535Y-105.315
X173.535Y-107.855
X173.535Y-110.395
X173.535Y-112.935
X173.535Y-115.475
X176.075Y-97.695
X176.075Y-100.235
X176.075Y-102.775
X176.075Y-105.315
X176.075Y-107.855
X176.075Y-110.395
X176.075Y-112.935
X176.075Y-115.475
T7
X141.607Y-67.57
X141.607Y-74.07
X146.107Y-67.57
X146.107Y-74.07
X180.55Y-91.6
X180.55Y-98.1
X185.05Y-91.6
X185.05Y-98.1
T8
X168.26Y-74.47
X168.26Y-84.47
X180.76Y-79.47
T9
X110.5Y-68.0
X110.5Y-117.25
X184.0Y-68.0
X184.0Y-117.25
T6
G00X114.77Y-73.17
M15
G01X113.27Y-73.17
M16
G05
G00X114.77Y-82.17
M15
G01X113.27Y-82.17
M16
G05
G00X115.02Y-77.02
M15
G01X115.02Y-78.32
M16
G05
G00X121.02Y-76.67
M15
G01X121.02Y-78.67
M16
G05
T0
M30
